%FSLAX45Y45*%
G04 Gerber Fmt 4.5, Leading zero omitted, Abs format (unit mm)*
G04 Created by KiCad (PCBNEW (6.0.5-22-g43b8adad1a)) date 2022-05-13 22:53:54*
%MOMM*%
%LPD*%
G01*
G04 APERTURE LIST*
%TA.AperFunction,Profile*%
%ADD10C,0.100000*%
%TD*%
%ADD11C,0.200000*%
%ADD12C,0.320000*%
%ADD13C,0.325000*%
G04 APERTURE END LIST*
D10*
X10541000Y-12700000D02*
G75*
G03*
X10160000Y-13081000I0J-381000D01*
G01*
X13589000Y-10160000D02*
X17780000Y-11430000D01*
X6604000Y-7620000D02*
X10160000Y-9017000D01*
X4826000Y-11430000D02*
X6604000Y-7620000D01*
X10160000Y-13843000D02*
X6604000Y-15240000D01*
X13589000Y-12700000D02*
X10541000Y-12700000D01*
X10160000Y-9017000D02*
X10160000Y-9779000D01*
X6604000Y-15240000D02*
X4826000Y-11430000D01*
X10541000Y-10160000D02*
X13589000Y-10160000D01*
X17780000Y-11430000D02*
X13589000Y-12700000D01*
X10160000Y-9779000D02*
G75*
G03*
X10541000Y-10160000I381000J0D01*
G01*
X10160000Y-13081000D02*
X10160000Y-13843000D01*
D11*
D12*
X6315000Y-10714750D02*
X6635000Y-11034750D01*
X6635000Y-10714750D02*
X6315000Y-11034750D01*
X6315000Y-11857750D02*
X6635000Y-12177750D01*
X6635000Y-11857750D02*
X6315000Y-12177750D01*
D13*
X6527500Y-9144000D02*
G75*
G03*
X6527500Y-9144000I-162500J0D01*
G01*
X6527500Y-10160000D02*
G75*
G03*
X6527500Y-10160000I-162500J0D01*
G01*
X6527500Y-12700000D02*
G75*
G03*
X6527500Y-12700000I-162500J0D01*
G01*
X6527500Y-13716000D02*
G75*
G03*
X6527500Y-13716000I-162500J0D01*
G01*
X7909500Y-8905000D02*
G75*
G03*
X7909500Y-8905000I-162500J0D01*
G01*
X7909500Y-10175000D02*
G75*
G03*
X7909500Y-10175000I-162500J0D01*
G01*
X7909500Y-12685000D02*
G75*
G03*
X7909500Y-12685000I-162500J0D01*
G01*
X7909500Y-13955000D02*
G75*
G03*
X7909500Y-13955000I-162500J0D01*
G01*
X8925500Y-8905000D02*
G75*
G03*
X8925500Y-8905000I-162500J0D01*
G01*
X8925500Y-10175000D02*
G75*
G03*
X8925500Y-10175000I-162500J0D01*
G01*
X8925500Y-12685000D02*
G75*
G03*
X8925500Y-12685000I-162500J0D01*
G01*
X8925500Y-13955000D02*
G75*
G03*
X8925500Y-13955000I-162500J0D01*
G01*
D11*
X5078619Y-15555476D02*
X5078619Y-15355476D01*
X5126238Y-15355476D01*
X5154810Y-15365000D01*
X5173857Y-15384048D01*
X5183381Y-15403095D01*
X5192905Y-15441190D01*
X5192905Y-15469762D01*
X5183381Y-15507857D01*
X5173857Y-15526905D01*
X5154810Y-15545952D01*
X5126238Y-15555476D01*
X5078619Y-15555476D01*
X5278619Y-15555476D02*
X5278619Y-15422143D01*
X5278619Y-15460238D02*
X5288143Y-15441190D01*
X5297667Y-15431667D01*
X5316714Y-15422143D01*
X5335762Y-15422143D01*
X5402429Y-15555476D02*
X5402429Y-15422143D01*
X5402429Y-15355476D02*
X5392905Y-15365000D01*
X5402429Y-15374524D01*
X5411952Y-15365000D01*
X5402429Y-15355476D01*
X5402429Y-15374524D01*
X5526238Y-15555476D02*
X5507190Y-15545952D01*
X5497667Y-15526905D01*
X5497667Y-15355476D01*
X5631000Y-15555476D02*
X5611952Y-15545952D01*
X5602428Y-15526905D01*
X5602428Y-15355476D01*
X5859571Y-15555476D02*
X5859571Y-15355476D01*
X5926238Y-15498333D01*
X5992905Y-15355476D01*
X5992905Y-15555476D01*
X6173857Y-15555476D02*
X6173857Y-15450714D01*
X6164333Y-15431667D01*
X6145286Y-15422143D01*
X6107190Y-15422143D01*
X6088143Y-15431667D01*
X6173857Y-15545952D02*
X6154809Y-15555476D01*
X6107190Y-15555476D01*
X6088143Y-15545952D01*
X6078619Y-15526905D01*
X6078619Y-15507857D01*
X6088143Y-15488809D01*
X6107190Y-15479286D01*
X6154809Y-15479286D01*
X6173857Y-15469762D01*
X6269095Y-15422143D02*
X6269095Y-15622143D01*
X6269095Y-15431667D02*
X6288143Y-15422143D01*
X6326238Y-15422143D01*
X6345286Y-15431667D01*
X6354809Y-15441190D01*
X6364333Y-15460238D01*
X6364333Y-15517381D01*
X6354809Y-15536428D01*
X6345286Y-15545952D01*
X6326238Y-15555476D01*
X6288143Y-15555476D01*
X6269095Y-15545952D01*
X6450048Y-15536428D02*
X6459571Y-15545952D01*
X6450048Y-15555476D01*
X6440524Y-15545952D01*
X6450048Y-15536428D01*
X6450048Y-15555476D01*
X6450048Y-15431667D02*
X6459571Y-15441190D01*
X6450048Y-15450714D01*
X6440524Y-15441190D01*
X6450048Y-15431667D01*
X6450048Y-15450714D01*
X4621000Y-15785000D02*
X4821000Y-15985000D01*
X4821000Y-15785000D02*
X4621000Y-15985000D01*
X5059571Y-15775476D02*
X5183381Y-15775476D01*
X5116714Y-15851667D01*
X5145286Y-15851667D01*
X5164333Y-15861190D01*
X5173857Y-15870714D01*
X5183381Y-15889762D01*
X5183381Y-15937381D01*
X5173857Y-15956428D01*
X5164333Y-15965952D01*
X5145286Y-15975476D01*
X5088143Y-15975476D01*
X5069095Y-15965952D01*
X5059571Y-15956428D01*
X5269095Y-15956428D02*
X5278619Y-15965952D01*
X5269095Y-15975476D01*
X5259571Y-15965952D01*
X5269095Y-15956428D01*
X5269095Y-15975476D01*
X5354810Y-15794524D02*
X5364333Y-15785000D01*
X5383381Y-15775476D01*
X5431000Y-15775476D01*
X5450048Y-15785000D01*
X5459571Y-15794524D01*
X5469095Y-15813571D01*
X5469095Y-15832619D01*
X5459571Y-15861190D01*
X5345286Y-15975476D01*
X5469095Y-15975476D01*
X5592905Y-15775476D02*
X5611952Y-15775476D01*
X5631000Y-15785000D01*
X5640524Y-15794524D01*
X5650048Y-15813571D01*
X5659571Y-15851667D01*
X5659571Y-15899286D01*
X5650048Y-15937381D01*
X5640524Y-15956428D01*
X5631000Y-15965952D01*
X5611952Y-15975476D01*
X5592905Y-15975476D01*
X5573857Y-15965952D01*
X5564333Y-15956428D01*
X5554810Y-15937381D01*
X5545286Y-15899286D01*
X5545286Y-15851667D01*
X5554810Y-15813571D01*
X5564333Y-15794524D01*
X5573857Y-15785000D01*
X5592905Y-15775476D01*
X5783381Y-15775476D02*
X5802428Y-15775476D01*
X5821476Y-15785000D01*
X5831000Y-15794524D01*
X5840524Y-15813571D01*
X5850048Y-15851667D01*
X5850048Y-15899286D01*
X5840524Y-15937381D01*
X5831000Y-15956428D01*
X5821476Y-15965952D01*
X5802428Y-15975476D01*
X5783381Y-15975476D01*
X5764333Y-15965952D01*
X5754809Y-15956428D01*
X5745286Y-15937381D01*
X5735762Y-15899286D01*
X5735762Y-15851667D01*
X5745286Y-15813571D01*
X5754809Y-15794524D01*
X5764333Y-15785000D01*
X5783381Y-15775476D01*
X5935762Y-15975476D02*
X5935762Y-15842143D01*
X5935762Y-15861190D02*
X5945286Y-15851667D01*
X5964333Y-15842143D01*
X5992905Y-15842143D01*
X6011952Y-15851667D01*
X6021476Y-15870714D01*
X6021476Y-15975476D01*
X6021476Y-15870714D02*
X6031000Y-15851667D01*
X6050048Y-15842143D01*
X6078619Y-15842143D01*
X6097667Y-15851667D01*
X6107190Y-15870714D01*
X6107190Y-15975476D01*
X6202428Y-15975476D02*
X6202428Y-15842143D01*
X6202428Y-15861190D02*
X6211952Y-15851667D01*
X6231000Y-15842143D01*
X6259571Y-15842143D01*
X6278619Y-15851667D01*
X6288143Y-15870714D01*
X6288143Y-15975476D01*
X6288143Y-15870714D02*
X6297667Y-15851667D01*
X6316714Y-15842143D01*
X6345286Y-15842143D01*
X6364333Y-15851667D01*
X6373857Y-15870714D01*
X6373857Y-15975476D01*
X6764333Y-15765952D02*
X6592905Y-16023095D01*
X7021476Y-15775476D02*
X7040524Y-15775476D01*
X7059571Y-15785000D01*
X7069095Y-15794524D01*
X7078619Y-15813571D01*
X7088143Y-15851667D01*
X7088143Y-15899286D01*
X7078619Y-15937381D01*
X7069095Y-15956428D01*
X7059571Y-15965952D01*
X7040524Y-15975476D01*
X7021476Y-15975476D01*
X7002428Y-15965952D01*
X6992905Y-15956428D01*
X6983381Y-15937381D01*
X6973857Y-15899286D01*
X6973857Y-15851667D01*
X6983381Y-15813571D01*
X6992905Y-15794524D01*
X7002428Y-15785000D01*
X7021476Y-15775476D01*
X7173857Y-15956428D02*
X7183381Y-15965952D01*
X7173857Y-15975476D01*
X7164333Y-15965952D01*
X7173857Y-15956428D01*
X7173857Y-15975476D01*
X7373857Y-15975476D02*
X7259571Y-15975476D01*
X7316714Y-15975476D02*
X7316714Y-15775476D01*
X7297667Y-15804048D01*
X7278619Y-15823095D01*
X7259571Y-15832619D01*
X7450048Y-15794524D02*
X7459571Y-15785000D01*
X7478619Y-15775476D01*
X7526238Y-15775476D01*
X7545286Y-15785000D01*
X7554809Y-15794524D01*
X7564333Y-15813571D01*
X7564333Y-15832619D01*
X7554809Y-15861190D01*
X7440524Y-15975476D01*
X7564333Y-15975476D01*
X7735762Y-15775476D02*
X7697667Y-15775476D01*
X7678619Y-15785000D01*
X7669095Y-15794524D01*
X7650048Y-15823095D01*
X7640524Y-15861190D01*
X7640524Y-15937381D01*
X7650048Y-15956428D01*
X7659571Y-15965952D01*
X7678619Y-15975476D01*
X7716714Y-15975476D01*
X7735762Y-15965952D01*
X7745286Y-15956428D01*
X7754809Y-15937381D01*
X7754809Y-15889762D01*
X7745286Y-15870714D01*
X7735762Y-15861190D01*
X7716714Y-15851667D01*
X7678619Y-15851667D01*
X7659571Y-15861190D01*
X7650048Y-15870714D01*
X7640524Y-15889762D01*
X7878619Y-15775476D02*
X7897667Y-15775476D01*
X7916714Y-15785000D01*
X7926238Y-15794524D01*
X7935762Y-15813571D01*
X7945286Y-15851667D01*
X7945286Y-15899286D01*
X7935762Y-15937381D01*
X7926238Y-15956428D01*
X7916714Y-15965952D01*
X7897667Y-15975476D01*
X7878619Y-15975476D01*
X7859571Y-15965952D01*
X7850048Y-15956428D01*
X7840524Y-15937381D01*
X7831000Y-15899286D01*
X7831000Y-15851667D01*
X7840524Y-15813571D01*
X7850048Y-15794524D01*
X7859571Y-15785000D01*
X7878619Y-15775476D01*
X8021476Y-15775476D02*
X8021476Y-15813571D01*
X8097667Y-15775476D02*
X8097667Y-15813571D01*
X8392905Y-16051667D02*
X8383381Y-16042143D01*
X8364333Y-16013571D01*
X8354809Y-15994524D01*
X8345286Y-15965952D01*
X8335762Y-15918333D01*
X8335762Y-15880238D01*
X8345286Y-15832619D01*
X8354809Y-15804048D01*
X8364333Y-15785000D01*
X8383381Y-15756428D01*
X8392905Y-15746905D01*
X8459571Y-15794524D02*
X8469095Y-15785000D01*
X8488143Y-15775476D01*
X8535762Y-15775476D01*
X8554810Y-15785000D01*
X8564333Y-15794524D01*
X8573857Y-15813571D01*
X8573857Y-15832619D01*
X8564333Y-15861190D01*
X8450048Y-15975476D01*
X8573857Y-15975476D01*
X8811952Y-15975476D02*
X8811952Y-15775476D01*
X8897667Y-15975476D02*
X8897667Y-15870714D01*
X8888143Y-15851667D01*
X8869095Y-15842143D01*
X8840524Y-15842143D01*
X8821476Y-15851667D01*
X8811952Y-15861190D01*
X9021476Y-15975476D02*
X9002429Y-15965952D01*
X8992905Y-15956428D01*
X8983381Y-15937381D01*
X8983381Y-15880238D01*
X8992905Y-15861190D01*
X9002429Y-15851667D01*
X9021476Y-15842143D01*
X9050048Y-15842143D01*
X9069095Y-15851667D01*
X9078619Y-15861190D01*
X9088143Y-15880238D01*
X9088143Y-15937381D01*
X9078619Y-15956428D01*
X9069095Y-15965952D01*
X9050048Y-15975476D01*
X9021476Y-15975476D01*
X9202429Y-15975476D02*
X9183381Y-15965952D01*
X9173857Y-15946905D01*
X9173857Y-15775476D01*
X9354810Y-15965952D02*
X9335762Y-15975476D01*
X9297667Y-15975476D01*
X9278619Y-15965952D01*
X9269095Y-15946905D01*
X9269095Y-15870714D01*
X9278619Y-15851667D01*
X9297667Y-15842143D01*
X9335762Y-15842143D01*
X9354810Y-15851667D01*
X9364333Y-15870714D01*
X9364333Y-15889762D01*
X9269095Y-15908809D01*
X9440524Y-15965952D02*
X9459571Y-15975476D01*
X9497667Y-15975476D01*
X9516714Y-15965952D01*
X9526238Y-15946905D01*
X9526238Y-15937381D01*
X9516714Y-15918333D01*
X9497667Y-15908809D01*
X9469095Y-15908809D01*
X9450048Y-15899286D01*
X9440524Y-15880238D01*
X9440524Y-15870714D01*
X9450048Y-15851667D01*
X9469095Y-15842143D01*
X9497667Y-15842143D01*
X9516714Y-15851667D01*
X9592905Y-16051667D02*
X9602429Y-16042143D01*
X9621476Y-16013571D01*
X9631000Y-15994524D01*
X9640524Y-15965952D01*
X9650048Y-15918333D01*
X9650048Y-15880238D01*
X9640524Y-15832619D01*
X9631000Y-15804048D01*
X9621476Y-15785000D01*
X9602429Y-15756428D01*
X9592905Y-15746905D01*
X9954810Y-16051667D02*
X9945286Y-16042143D01*
X9926238Y-16013571D01*
X9916714Y-15994524D01*
X9907190Y-15965952D01*
X9897667Y-15918333D01*
X9897667Y-15880238D01*
X9907190Y-15832619D01*
X9916714Y-15804048D01*
X9926238Y-15785000D01*
X9945286Y-15756428D01*
X9954810Y-15746905D01*
X10031000Y-15842143D02*
X10031000Y-15975476D01*
X10031000Y-15861190D02*
X10040524Y-15851667D01*
X10059571Y-15842143D01*
X10088143Y-15842143D01*
X10107190Y-15851667D01*
X10116714Y-15870714D01*
X10116714Y-15975476D01*
X10240524Y-15975476D02*
X10221476Y-15965952D01*
X10211952Y-15956428D01*
X10202429Y-15937381D01*
X10202429Y-15880238D01*
X10211952Y-15861190D01*
X10221476Y-15851667D01*
X10240524Y-15842143D01*
X10269095Y-15842143D01*
X10288143Y-15851667D01*
X10297667Y-15861190D01*
X10307190Y-15880238D01*
X10307190Y-15937381D01*
X10297667Y-15956428D01*
X10288143Y-15965952D01*
X10269095Y-15975476D01*
X10240524Y-15975476D01*
X10364333Y-15842143D02*
X10440524Y-15842143D01*
X10392905Y-15775476D02*
X10392905Y-15946905D01*
X10402429Y-15965952D01*
X10421476Y-15975476D01*
X10440524Y-15975476D01*
X10659571Y-15842143D02*
X10659571Y-16042143D01*
X10659571Y-15851667D02*
X10678619Y-15842143D01*
X10716714Y-15842143D01*
X10735762Y-15851667D01*
X10745286Y-15861190D01*
X10754810Y-15880238D01*
X10754810Y-15937381D01*
X10745286Y-15956428D01*
X10735762Y-15965952D01*
X10716714Y-15975476D01*
X10678619Y-15975476D01*
X10659571Y-15965952D01*
X10869095Y-15975476D02*
X10850048Y-15965952D01*
X10840524Y-15946905D01*
X10840524Y-15775476D01*
X11031000Y-15975476D02*
X11031000Y-15870714D01*
X11021476Y-15851667D01*
X11002429Y-15842143D01*
X10964333Y-15842143D01*
X10945286Y-15851667D01*
X11031000Y-15965952D02*
X11011952Y-15975476D01*
X10964333Y-15975476D01*
X10945286Y-15965952D01*
X10935762Y-15946905D01*
X10935762Y-15927857D01*
X10945286Y-15908809D01*
X10964333Y-15899286D01*
X11011952Y-15899286D01*
X11031000Y-15889762D01*
X11097667Y-15842143D02*
X11173857Y-15842143D01*
X11126238Y-15775476D02*
X11126238Y-15946905D01*
X11135762Y-15965952D01*
X11154810Y-15975476D01*
X11173857Y-15975476D01*
X11316714Y-15965952D02*
X11297667Y-15975476D01*
X11259571Y-15975476D01*
X11240524Y-15965952D01*
X11231000Y-15946905D01*
X11231000Y-15870714D01*
X11240524Y-15851667D01*
X11259571Y-15842143D01*
X11297667Y-15842143D01*
X11316714Y-15851667D01*
X11326238Y-15870714D01*
X11326238Y-15889762D01*
X11231000Y-15908809D01*
X11497667Y-15975476D02*
X11497667Y-15775476D01*
X11497667Y-15965952D02*
X11478619Y-15975476D01*
X11440524Y-15975476D01*
X11421476Y-15965952D01*
X11411952Y-15956428D01*
X11402428Y-15937381D01*
X11402428Y-15880238D01*
X11411952Y-15861190D01*
X11421476Y-15851667D01*
X11440524Y-15842143D01*
X11478619Y-15842143D01*
X11497667Y-15851667D01*
X11573857Y-16051667D02*
X11583381Y-16042143D01*
X11602428Y-16013571D01*
X11611952Y-15994524D01*
X11621476Y-15965952D01*
X11631000Y-15918333D01*
X11631000Y-15880238D01*
X11621476Y-15832619D01*
X11611952Y-15804048D01*
X11602428Y-15785000D01*
X11583381Y-15756428D01*
X11573857Y-15746905D01*
X4821000Y-16205000D02*
G75*
G03*
X4821000Y-16205000I-100000J0D01*
G01*
X5059571Y-16095476D02*
X5183381Y-16095476D01*
X5116714Y-16171667D01*
X5145286Y-16171667D01*
X5164333Y-16181190D01*
X5173857Y-16190714D01*
X5183381Y-16209762D01*
X5183381Y-16257381D01*
X5173857Y-16276428D01*
X5164333Y-16285952D01*
X5145286Y-16295476D01*
X5088143Y-16295476D01*
X5069095Y-16285952D01*
X5059571Y-16276428D01*
X5269095Y-16276428D02*
X5278619Y-16285952D01*
X5269095Y-16295476D01*
X5259571Y-16285952D01*
X5269095Y-16276428D01*
X5269095Y-16295476D01*
X5354810Y-16114524D02*
X5364333Y-16105000D01*
X5383381Y-16095476D01*
X5431000Y-16095476D01*
X5450048Y-16105000D01*
X5459571Y-16114524D01*
X5469095Y-16133571D01*
X5469095Y-16152619D01*
X5459571Y-16181190D01*
X5345286Y-16295476D01*
X5469095Y-16295476D01*
X5650048Y-16095476D02*
X5554810Y-16095476D01*
X5545286Y-16190714D01*
X5554810Y-16181190D01*
X5573857Y-16171667D01*
X5621476Y-16171667D01*
X5640524Y-16181190D01*
X5650048Y-16190714D01*
X5659571Y-16209762D01*
X5659571Y-16257381D01*
X5650048Y-16276428D01*
X5640524Y-16285952D01*
X5621476Y-16295476D01*
X5573857Y-16295476D01*
X5554810Y-16285952D01*
X5545286Y-16276428D01*
X5783381Y-16095476D02*
X5802428Y-16095476D01*
X5821476Y-16105000D01*
X5831000Y-16114524D01*
X5840524Y-16133571D01*
X5850048Y-16171667D01*
X5850048Y-16219286D01*
X5840524Y-16257381D01*
X5831000Y-16276428D01*
X5821476Y-16285952D01*
X5802428Y-16295476D01*
X5783381Y-16295476D01*
X5764333Y-16285952D01*
X5754809Y-16276428D01*
X5745286Y-16257381D01*
X5735762Y-16219286D01*
X5735762Y-16171667D01*
X5745286Y-16133571D01*
X5754809Y-16114524D01*
X5764333Y-16105000D01*
X5783381Y-16095476D01*
X5935762Y-16295476D02*
X5935762Y-16162143D01*
X5935762Y-16181190D02*
X5945286Y-16171667D01*
X5964333Y-16162143D01*
X5992905Y-16162143D01*
X6011952Y-16171667D01*
X6021476Y-16190714D01*
X6021476Y-16295476D01*
X6021476Y-16190714D02*
X6031000Y-16171667D01*
X6050048Y-16162143D01*
X6078619Y-16162143D01*
X6097667Y-16171667D01*
X6107190Y-16190714D01*
X6107190Y-16295476D01*
X6202428Y-16295476D02*
X6202428Y-16162143D01*
X6202428Y-16181190D02*
X6211952Y-16171667D01*
X6231000Y-16162143D01*
X6259571Y-16162143D01*
X6278619Y-16171667D01*
X6288143Y-16190714D01*
X6288143Y-16295476D01*
X6288143Y-16190714D02*
X6297667Y-16171667D01*
X6316714Y-16162143D01*
X6345286Y-16162143D01*
X6364333Y-16171667D01*
X6373857Y-16190714D01*
X6373857Y-16295476D01*
X6764333Y-16085952D02*
X6592905Y-16343095D01*
X7021476Y-16095476D02*
X7040524Y-16095476D01*
X7059571Y-16105000D01*
X7069095Y-16114524D01*
X7078619Y-16133571D01*
X7088143Y-16171667D01*
X7088143Y-16219286D01*
X7078619Y-16257381D01*
X7069095Y-16276428D01*
X7059571Y-16285952D01*
X7040524Y-16295476D01*
X7021476Y-16295476D01*
X7002428Y-16285952D01*
X6992905Y-16276428D01*
X6983381Y-16257381D01*
X6973857Y-16219286D01*
X6973857Y-16171667D01*
X6983381Y-16133571D01*
X6992905Y-16114524D01*
X7002428Y-16105000D01*
X7021476Y-16095476D01*
X7173857Y-16276428D02*
X7183381Y-16285952D01*
X7173857Y-16295476D01*
X7164333Y-16285952D01*
X7173857Y-16276428D01*
X7173857Y-16295476D01*
X7373857Y-16295476D02*
X7259571Y-16295476D01*
X7316714Y-16295476D02*
X7316714Y-16095476D01*
X7297667Y-16124048D01*
X7278619Y-16143095D01*
X7259571Y-16152619D01*
X7450048Y-16114524D02*
X7459571Y-16105000D01*
X7478619Y-16095476D01*
X7526238Y-16095476D01*
X7545286Y-16105000D01*
X7554809Y-16114524D01*
X7564333Y-16133571D01*
X7564333Y-16152619D01*
X7554809Y-16181190D01*
X7440524Y-16295476D01*
X7564333Y-16295476D01*
X7678619Y-16181190D02*
X7659571Y-16171667D01*
X7650048Y-16162143D01*
X7640524Y-16143095D01*
X7640524Y-16133571D01*
X7650048Y-16114524D01*
X7659571Y-16105000D01*
X7678619Y-16095476D01*
X7716714Y-16095476D01*
X7735762Y-16105000D01*
X7745286Y-16114524D01*
X7754809Y-16133571D01*
X7754809Y-16143095D01*
X7745286Y-16162143D01*
X7735762Y-16171667D01*
X7716714Y-16181190D01*
X7678619Y-16181190D01*
X7659571Y-16190714D01*
X7650048Y-16200238D01*
X7640524Y-16219286D01*
X7640524Y-16257381D01*
X7650048Y-16276428D01*
X7659571Y-16285952D01*
X7678619Y-16295476D01*
X7716714Y-16295476D01*
X7735762Y-16285952D01*
X7745286Y-16276428D01*
X7754809Y-16257381D01*
X7754809Y-16219286D01*
X7745286Y-16200238D01*
X7735762Y-16190714D01*
X7716714Y-16181190D01*
X7878619Y-16095476D02*
X7897667Y-16095476D01*
X7916714Y-16105000D01*
X7926238Y-16114524D01*
X7935762Y-16133571D01*
X7945286Y-16171667D01*
X7945286Y-16219286D01*
X7935762Y-16257381D01*
X7926238Y-16276428D01*
X7916714Y-16285952D01*
X7897667Y-16295476D01*
X7878619Y-16295476D01*
X7859571Y-16285952D01*
X7850048Y-16276428D01*
X7840524Y-16257381D01*
X7831000Y-16219286D01*
X7831000Y-16171667D01*
X7840524Y-16133571D01*
X7850048Y-16114524D01*
X7859571Y-16105000D01*
X7878619Y-16095476D01*
X8021476Y-16095476D02*
X8021476Y-16133571D01*
X8097667Y-16095476D02*
X8097667Y-16133571D01*
X8392905Y-16371667D02*
X8383381Y-16362143D01*
X8364333Y-16333571D01*
X8354809Y-16314524D01*
X8345286Y-16285952D01*
X8335762Y-16238333D01*
X8335762Y-16200238D01*
X8345286Y-16152619D01*
X8354809Y-16124048D01*
X8364333Y-16105000D01*
X8383381Y-16076428D01*
X8392905Y-16066905D01*
X8573857Y-16295476D02*
X8459571Y-16295476D01*
X8516714Y-16295476D02*
X8516714Y-16095476D01*
X8497667Y-16124048D01*
X8478619Y-16143095D01*
X8459571Y-16152619D01*
X8650048Y-16114524D02*
X8659571Y-16105000D01*
X8678619Y-16095476D01*
X8726238Y-16095476D01*
X8745286Y-16105000D01*
X8754810Y-16114524D01*
X8764333Y-16133571D01*
X8764333Y-16152619D01*
X8754810Y-16181190D01*
X8640524Y-16295476D01*
X8764333Y-16295476D01*
X9002429Y-16295476D02*
X9002429Y-16095476D01*
X9088143Y-16295476D02*
X9088143Y-16190714D01*
X9078619Y-16171667D01*
X9059571Y-16162143D01*
X9031000Y-16162143D01*
X9011952Y-16171667D01*
X9002429Y-16181190D01*
X9211952Y-16295476D02*
X9192905Y-16285952D01*
X9183381Y-16276428D01*
X9173857Y-16257381D01*
X9173857Y-16200238D01*
X9183381Y-16181190D01*
X9192905Y-16171667D01*
X9211952Y-16162143D01*
X9240524Y-16162143D01*
X9259571Y-16171667D01*
X9269095Y-16181190D01*
X9278619Y-16200238D01*
X9278619Y-16257381D01*
X9269095Y-16276428D01*
X9259571Y-16285952D01*
X9240524Y-16295476D01*
X9211952Y-16295476D01*
X9392905Y-16295476D02*
X9373857Y-16285952D01*
X9364333Y-16266905D01*
X9364333Y-16095476D01*
X9545286Y-16285952D02*
X9526238Y-16295476D01*
X9488143Y-16295476D01*
X9469095Y-16285952D01*
X9459571Y-16266905D01*
X9459571Y-16190714D01*
X9469095Y-16171667D01*
X9488143Y-16162143D01*
X9526238Y-16162143D01*
X9545286Y-16171667D01*
X9554810Y-16190714D01*
X9554810Y-16209762D01*
X9459571Y-16228809D01*
X9631000Y-16285952D02*
X9650048Y-16295476D01*
X9688143Y-16295476D01*
X9707190Y-16285952D01*
X9716714Y-16266905D01*
X9716714Y-16257381D01*
X9707190Y-16238333D01*
X9688143Y-16228809D01*
X9659571Y-16228809D01*
X9640524Y-16219286D01*
X9631000Y-16200238D01*
X9631000Y-16190714D01*
X9640524Y-16171667D01*
X9659571Y-16162143D01*
X9688143Y-16162143D01*
X9707190Y-16171667D01*
X9783381Y-16371667D02*
X9792905Y-16362143D01*
X9811952Y-16333571D01*
X9821476Y-16314524D01*
X9831000Y-16285952D01*
X9840524Y-16238333D01*
X9840524Y-16200238D01*
X9831000Y-16152619D01*
X9821476Y-16124048D01*
X9811952Y-16105000D01*
X9792905Y-16076428D01*
X9783381Y-16066905D01*
X10145286Y-16371667D02*
X10135762Y-16362143D01*
X10116714Y-16333571D01*
X10107190Y-16314524D01*
X10097667Y-16285952D01*
X10088143Y-16238333D01*
X10088143Y-16200238D01*
X10097667Y-16152619D01*
X10107190Y-16124048D01*
X10116714Y-16105000D01*
X10135762Y-16076428D01*
X10145286Y-16066905D01*
X10221476Y-16162143D02*
X10221476Y-16295476D01*
X10221476Y-16181190D02*
X10231000Y-16171667D01*
X10250048Y-16162143D01*
X10278619Y-16162143D01*
X10297667Y-16171667D01*
X10307190Y-16190714D01*
X10307190Y-16295476D01*
X10431000Y-16295476D02*
X10411952Y-16285952D01*
X10402429Y-16276428D01*
X10392905Y-16257381D01*
X10392905Y-16200238D01*
X10402429Y-16181190D01*
X10411952Y-16171667D01*
X10431000Y-16162143D01*
X10459571Y-16162143D01*
X10478619Y-16171667D01*
X10488143Y-16181190D01*
X10497667Y-16200238D01*
X10497667Y-16257381D01*
X10488143Y-16276428D01*
X10478619Y-16285952D01*
X10459571Y-16295476D01*
X10431000Y-16295476D01*
X10554810Y-16162143D02*
X10631000Y-16162143D01*
X10583381Y-16095476D02*
X10583381Y-16266905D01*
X10592905Y-16285952D01*
X10611952Y-16295476D01*
X10631000Y-16295476D01*
X10850048Y-16162143D02*
X10850048Y-16362143D01*
X10850048Y-16171667D02*
X10869095Y-16162143D01*
X10907190Y-16162143D01*
X10926238Y-16171667D01*
X10935762Y-16181190D01*
X10945286Y-16200238D01*
X10945286Y-16257381D01*
X10935762Y-16276428D01*
X10926238Y-16285952D01*
X10907190Y-16295476D01*
X10869095Y-16295476D01*
X10850048Y-16285952D01*
X11059571Y-16295476D02*
X11040524Y-16285952D01*
X11031000Y-16266905D01*
X11031000Y-16095476D01*
X11221476Y-16295476D02*
X11221476Y-16190714D01*
X11211952Y-16171667D01*
X11192905Y-16162143D01*
X11154810Y-16162143D01*
X11135762Y-16171667D01*
X11221476Y-16285952D02*
X11202428Y-16295476D01*
X11154810Y-16295476D01*
X11135762Y-16285952D01*
X11126238Y-16266905D01*
X11126238Y-16247857D01*
X11135762Y-16228809D01*
X11154810Y-16219286D01*
X11202428Y-16219286D01*
X11221476Y-16209762D01*
X11288143Y-16162143D02*
X11364333Y-16162143D01*
X11316714Y-16095476D02*
X11316714Y-16266905D01*
X11326238Y-16285952D01*
X11345286Y-16295476D01*
X11364333Y-16295476D01*
X11507190Y-16285952D02*
X11488143Y-16295476D01*
X11450048Y-16295476D01*
X11431000Y-16285952D01*
X11421476Y-16266905D01*
X11421476Y-16190714D01*
X11431000Y-16171667D01*
X11450048Y-16162143D01*
X11488143Y-16162143D01*
X11507190Y-16171667D01*
X11516714Y-16190714D01*
X11516714Y-16209762D01*
X11421476Y-16228809D01*
X11688143Y-16295476D02*
X11688143Y-16095476D01*
X11688143Y-16285952D02*
X11669095Y-16295476D01*
X11631000Y-16295476D01*
X11611952Y-16285952D01*
X11602428Y-16276428D01*
X11592905Y-16257381D01*
X11592905Y-16200238D01*
X11602428Y-16181190D01*
X11611952Y-16171667D01*
X11631000Y-16162143D01*
X11669095Y-16162143D01*
X11688143Y-16171667D01*
X11764333Y-16371667D02*
X11773857Y-16362143D01*
X11792905Y-16333571D01*
X11802428Y-16314524D01*
X11811952Y-16285952D01*
X11821476Y-16238333D01*
X11821476Y-16200238D01*
X11811952Y-16152619D01*
X11802428Y-16124048D01*
X11792905Y-16105000D01*
X11773857Y-16076428D01*
X11764333Y-16066905D01*
M02*
