%FSLAX45Y45*%
G04 Gerber Fmt 4.5, Leading zero omitted, Abs format (unit mm)*
G04 Created by KiCad (PCBNEW (6.0.5-22-g43b8adad1a)) date 2022-05-13 22:53:54*
%MOMM*%
%LPD*%
G01*
G04 APERTURE LIST*
%TA.AperFunction,Profile*%
%ADD10C,0.100000*%
%TD*%
%ADD11C,0.200000*%
%ADD12C,0.040000*%
%ADD13C,0.076000*%
G04 APERTURE END LIST*
D10*
X10541000Y-12700000D02*
G75*
G03*
X10160000Y-13081000I0J-381000D01*
G01*
X13589000Y-10160000D02*
X17780000Y-11430000D01*
X6604000Y-7620000D02*
X10160000Y-9017000D01*
X4826000Y-11430000D02*
X6604000Y-7620000D01*
X10160000Y-13843000D02*
X6604000Y-15240000D01*
X13589000Y-12700000D02*
X10541000Y-12700000D01*
X10160000Y-9017000D02*
X10160000Y-9779000D01*
X6604000Y-15240000D02*
X4826000Y-11430000D01*
X10541000Y-10160000D02*
X13589000Y-10160000D01*
X17780000Y-11430000D02*
X13589000Y-12700000D01*
X10160000Y-9779000D02*
G75*
G03*
X10541000Y-10160000I381000J0D01*
G01*
X10160000Y-13081000D02*
X10160000Y-13843000D01*
D11*
D12*
X6241100Y-10978200D02*
X6281100Y-11018200D01*
X6281100Y-10978200D02*
X6241100Y-11018200D01*
X6901500Y-11664000D02*
X6941500Y-11704000D01*
X6941500Y-11664000D02*
X6901500Y-11704000D01*
X7028500Y-11537000D02*
X7068500Y-11577000D01*
X7068500Y-11537000D02*
X7028500Y-11577000D01*
X9505000Y-10394000D02*
X9545000Y-10434000D01*
X9545000Y-10394000D02*
X9505000Y-10434000D01*
X9505000Y-10648000D02*
X9545000Y-10688000D01*
X9545000Y-10648000D02*
X9505000Y-10688000D01*
X9505000Y-10902000D02*
X9545000Y-10942000D01*
X9545000Y-10902000D02*
X9505000Y-10942000D01*
X9505000Y-11156000D02*
X9545000Y-11196000D01*
X9545000Y-11156000D02*
X9505000Y-11196000D01*
X9505000Y-11410000D02*
X9545000Y-11450000D01*
X9545000Y-11410000D02*
X9505000Y-11450000D01*
X9505000Y-11664000D02*
X9545000Y-11704000D01*
X9545000Y-11664000D02*
X9505000Y-11704000D01*
X9505000Y-11918000D02*
X9545000Y-11958000D01*
X9545000Y-11918000D02*
X9505000Y-11958000D01*
X9505000Y-12172000D02*
X9545000Y-12212000D01*
X9545000Y-12172000D02*
X9505000Y-12212000D01*
X9505000Y-12426000D02*
X9545000Y-12466000D01*
X9545000Y-12426000D02*
X9505000Y-12466000D01*
D13*
X5624000Y-11128750D02*
G75*
G03*
X5624000Y-11128750I-38000J0D01*
G01*
X5624000Y-11382750D02*
G75*
G03*
X5624000Y-11382750I-38000J0D01*
G01*
X5624000Y-11636750D02*
G75*
G03*
X5624000Y-11636750I-38000J0D01*
G01*
X5624000Y-11890750D02*
G75*
G03*
X5624000Y-11890750I-38000J0D01*
G01*
X5878000Y-11001750D02*
G75*
G03*
X5878000Y-11001750I-38000J0D01*
G01*
X5878000Y-11255750D02*
G75*
G03*
X5878000Y-11255750I-38000J0D01*
G01*
X5878000Y-11509750D02*
G75*
G03*
X5878000Y-11509750I-38000J0D01*
G01*
X5878000Y-11763750D02*
G75*
G03*
X5878000Y-11763750I-38000J0D01*
G01*
X7038000Y-9462000D02*
G75*
G03*
X7038000Y-9462000I-38000J0D01*
G01*
X7038000Y-9716000D02*
G75*
G03*
X7038000Y-9716000I-38000J0D01*
G01*
X7038000Y-9970000D02*
G75*
G03*
X7038000Y-9970000I-38000J0D01*
G01*
X7038000Y-13018000D02*
G75*
G03*
X7038000Y-13018000I-38000J0D01*
G01*
X7038000Y-13272000D02*
G75*
G03*
X7038000Y-13272000I-38000J0D01*
G01*
X7038000Y-13526000D02*
G75*
G03*
X7038000Y-13526000I-38000J0D01*
G01*
X7292000Y-9335000D02*
G75*
G03*
X7292000Y-9335000I-38000J0D01*
G01*
X7292000Y-9589000D02*
G75*
G03*
X7292000Y-9589000I-38000J0D01*
G01*
X7292000Y-9843000D02*
G75*
G03*
X7292000Y-9843000I-38000J0D01*
G01*
X7292000Y-12891000D02*
G75*
G03*
X7292000Y-12891000I-38000J0D01*
G01*
X7292000Y-13145000D02*
G75*
G03*
X7292000Y-13145000I-38000J0D01*
G01*
X7292000Y-13399000D02*
G75*
G03*
X7292000Y-13399000I-38000J0D01*
G01*
X7975000Y-9540000D02*
G75*
G03*
X7975000Y-9540000I-38000J0D01*
G01*
X7975000Y-10810000D02*
G75*
G03*
X7975000Y-10810000I-38000J0D01*
G01*
X7976000Y-11796000D02*
G75*
G03*
X7976000Y-11796000I-38000J0D01*
G01*
X7976000Y-13066000D02*
G75*
G03*
X7976000Y-13066000I-38000J0D01*
G01*
X8102000Y-9794000D02*
G75*
G03*
X8102000Y-9794000I-38000J0D01*
G01*
X8102000Y-11064000D02*
G75*
G03*
X8102000Y-11064000I-38000J0D01*
G01*
X8103000Y-12050000D02*
G75*
G03*
X8103000Y-12050000I-38000J0D01*
G01*
X8103000Y-13320000D02*
G75*
G03*
X8103000Y-13320000I-38000J0D01*
G01*
X8229000Y-9540000D02*
G75*
G03*
X8229000Y-9540000I-38000J0D01*
G01*
X8229000Y-10810000D02*
G75*
G03*
X8229000Y-10810000I-38000J0D01*
G01*
X8230000Y-11796000D02*
G75*
G03*
X8230000Y-11796000I-38000J0D01*
G01*
X8230000Y-13066000D02*
G75*
G03*
X8230000Y-13066000I-38000J0D01*
G01*
X8356000Y-9794000D02*
G75*
G03*
X8356000Y-9794000I-38000J0D01*
G01*
X8356000Y-11064000D02*
G75*
G03*
X8356000Y-11064000I-38000J0D01*
G01*
X8357000Y-12050000D02*
G75*
G03*
X8357000Y-12050000I-38000J0D01*
G01*
X8357000Y-13320000D02*
G75*
G03*
X8357000Y-13320000I-38000J0D01*
G01*
X8483000Y-9540000D02*
G75*
G03*
X8483000Y-9540000I-38000J0D01*
G01*
X8483000Y-10810000D02*
G75*
G03*
X8483000Y-10810000I-38000J0D01*
G01*
X8484000Y-11796000D02*
G75*
G03*
X8484000Y-11796000I-38000J0D01*
G01*
X8484000Y-13066000D02*
G75*
G03*
X8484000Y-13066000I-38000J0D01*
G01*
X8610000Y-9794000D02*
G75*
G03*
X8610000Y-9794000I-38000J0D01*
G01*
X8610000Y-11064000D02*
G75*
G03*
X8610000Y-11064000I-38000J0D01*
G01*
X8611000Y-12050000D02*
G75*
G03*
X8611000Y-12050000I-38000J0D01*
G01*
X8611000Y-13320000D02*
G75*
G03*
X8611000Y-13320000I-38000J0D01*
G01*
D11*
X5078619Y-15555476D02*
X5078619Y-15355476D01*
X5126238Y-15355476D01*
X5154810Y-15365000D01*
X5173857Y-15384048D01*
X5183381Y-15403095D01*
X5192905Y-15441190D01*
X5192905Y-15469762D01*
X5183381Y-15507857D01*
X5173857Y-15526905D01*
X5154810Y-15545952D01*
X5126238Y-15555476D01*
X5078619Y-15555476D01*
X5278619Y-15555476D02*
X5278619Y-15422143D01*
X5278619Y-15460238D02*
X5288143Y-15441190D01*
X5297667Y-15431667D01*
X5316714Y-15422143D01*
X5335762Y-15422143D01*
X5402429Y-15555476D02*
X5402429Y-15422143D01*
X5402429Y-15355476D02*
X5392905Y-15365000D01*
X5402429Y-15374524D01*
X5411952Y-15365000D01*
X5402429Y-15355476D01*
X5402429Y-15374524D01*
X5526238Y-15555476D02*
X5507190Y-15545952D01*
X5497667Y-15526905D01*
X5497667Y-15355476D01*
X5631000Y-15555476D02*
X5611952Y-15545952D01*
X5602428Y-15526905D01*
X5602428Y-15355476D01*
X5859571Y-15555476D02*
X5859571Y-15355476D01*
X5926238Y-15498333D01*
X5992905Y-15355476D01*
X5992905Y-15555476D01*
X6173857Y-15555476D02*
X6173857Y-15450714D01*
X6164333Y-15431667D01*
X6145286Y-15422143D01*
X6107190Y-15422143D01*
X6088143Y-15431667D01*
X6173857Y-15545952D02*
X6154809Y-15555476D01*
X6107190Y-15555476D01*
X6088143Y-15545952D01*
X6078619Y-15526905D01*
X6078619Y-15507857D01*
X6088143Y-15488809D01*
X6107190Y-15479286D01*
X6154809Y-15479286D01*
X6173857Y-15469762D01*
X6269095Y-15422143D02*
X6269095Y-15622143D01*
X6269095Y-15431667D02*
X6288143Y-15422143D01*
X6326238Y-15422143D01*
X6345286Y-15431667D01*
X6354809Y-15441190D01*
X6364333Y-15460238D01*
X6364333Y-15517381D01*
X6354809Y-15536428D01*
X6345286Y-15545952D01*
X6326238Y-15555476D01*
X6288143Y-15555476D01*
X6269095Y-15545952D01*
X6450048Y-15536428D02*
X6459571Y-15545952D01*
X6450048Y-15555476D01*
X6440524Y-15545952D01*
X6450048Y-15536428D01*
X6450048Y-15555476D01*
X6450048Y-15431667D02*
X6459571Y-15441190D01*
X6450048Y-15450714D01*
X6440524Y-15441190D01*
X6450048Y-15431667D01*
X6450048Y-15450714D01*
D12*
X4781000Y-15865000D02*
X4821000Y-15905000D01*
X4821000Y-15865000D02*
X4781000Y-15905000D01*
D11*
X5116714Y-15775476D02*
X5135762Y-15775476D01*
X5154810Y-15785000D01*
X5164333Y-15794524D01*
X5173857Y-15813571D01*
X5183381Y-15851667D01*
X5183381Y-15899286D01*
X5173857Y-15937381D01*
X5164333Y-15956428D01*
X5154810Y-15965952D01*
X5135762Y-15975476D01*
X5116714Y-15975476D01*
X5097667Y-15965952D01*
X5088143Y-15956428D01*
X5078619Y-15937381D01*
X5069095Y-15899286D01*
X5069095Y-15851667D01*
X5078619Y-15813571D01*
X5088143Y-15794524D01*
X5097667Y-15785000D01*
X5116714Y-15775476D01*
X5269095Y-15956428D02*
X5278619Y-15965952D01*
X5269095Y-15975476D01*
X5259571Y-15965952D01*
X5269095Y-15956428D01*
X5269095Y-15975476D01*
X5450048Y-15842143D02*
X5450048Y-15975476D01*
X5402429Y-15765952D02*
X5354810Y-15908809D01*
X5478619Y-15908809D01*
X5592905Y-15775476D02*
X5611952Y-15775476D01*
X5631000Y-15785000D01*
X5640524Y-15794524D01*
X5650048Y-15813571D01*
X5659571Y-15851667D01*
X5659571Y-15899286D01*
X5650048Y-15937381D01*
X5640524Y-15956428D01*
X5631000Y-15965952D01*
X5611952Y-15975476D01*
X5592905Y-15975476D01*
X5573857Y-15965952D01*
X5564333Y-15956428D01*
X5554810Y-15937381D01*
X5545286Y-15899286D01*
X5545286Y-15851667D01*
X5554810Y-15813571D01*
X5564333Y-15794524D01*
X5573857Y-15785000D01*
X5592905Y-15775476D01*
X5783381Y-15775476D02*
X5802428Y-15775476D01*
X5821476Y-15785000D01*
X5831000Y-15794524D01*
X5840524Y-15813571D01*
X5850048Y-15851667D01*
X5850048Y-15899286D01*
X5840524Y-15937381D01*
X5831000Y-15956428D01*
X5821476Y-15965952D01*
X5802428Y-15975476D01*
X5783381Y-15975476D01*
X5764333Y-15965952D01*
X5754809Y-15956428D01*
X5745286Y-15937381D01*
X5735762Y-15899286D01*
X5735762Y-15851667D01*
X5745286Y-15813571D01*
X5754809Y-15794524D01*
X5764333Y-15785000D01*
X5783381Y-15775476D01*
X5935762Y-15975476D02*
X5935762Y-15842143D01*
X5935762Y-15861190D02*
X5945286Y-15851667D01*
X5964333Y-15842143D01*
X5992905Y-15842143D01*
X6011952Y-15851667D01*
X6021476Y-15870714D01*
X6021476Y-15975476D01*
X6021476Y-15870714D02*
X6031000Y-15851667D01*
X6050048Y-15842143D01*
X6078619Y-15842143D01*
X6097667Y-15851667D01*
X6107190Y-15870714D01*
X6107190Y-15975476D01*
X6202428Y-15975476D02*
X6202428Y-15842143D01*
X6202428Y-15861190D02*
X6211952Y-15851667D01*
X6231000Y-15842143D01*
X6259571Y-15842143D01*
X6278619Y-15851667D01*
X6288143Y-15870714D01*
X6288143Y-15975476D01*
X6288143Y-15870714D02*
X6297667Y-15851667D01*
X6316714Y-15842143D01*
X6345286Y-15842143D01*
X6364333Y-15851667D01*
X6373857Y-15870714D01*
X6373857Y-15975476D01*
X6764333Y-15765952D02*
X6592905Y-16023095D01*
X7021476Y-15775476D02*
X7040524Y-15775476D01*
X7059571Y-15785000D01*
X7069095Y-15794524D01*
X7078619Y-15813571D01*
X7088143Y-15851667D01*
X7088143Y-15899286D01*
X7078619Y-15937381D01*
X7069095Y-15956428D01*
X7059571Y-15965952D01*
X7040524Y-15975476D01*
X7021476Y-15975476D01*
X7002428Y-15965952D01*
X6992905Y-15956428D01*
X6983381Y-15937381D01*
X6973857Y-15899286D01*
X6973857Y-15851667D01*
X6983381Y-15813571D01*
X6992905Y-15794524D01*
X7002428Y-15785000D01*
X7021476Y-15775476D01*
X7173857Y-15956428D02*
X7183381Y-15965952D01*
X7173857Y-15975476D01*
X7164333Y-15965952D01*
X7173857Y-15956428D01*
X7173857Y-15975476D01*
X7307190Y-15775476D02*
X7326238Y-15775476D01*
X7345286Y-15785000D01*
X7354809Y-15794524D01*
X7364333Y-15813571D01*
X7373857Y-15851667D01*
X7373857Y-15899286D01*
X7364333Y-15937381D01*
X7354809Y-15956428D01*
X7345286Y-15965952D01*
X7326238Y-15975476D01*
X7307190Y-15975476D01*
X7288143Y-15965952D01*
X7278619Y-15956428D01*
X7269095Y-15937381D01*
X7259571Y-15899286D01*
X7259571Y-15851667D01*
X7269095Y-15813571D01*
X7278619Y-15794524D01*
X7288143Y-15785000D01*
X7307190Y-15775476D01*
X7564333Y-15975476D02*
X7450048Y-15975476D01*
X7507190Y-15975476D02*
X7507190Y-15775476D01*
X7488143Y-15804048D01*
X7469095Y-15823095D01*
X7450048Y-15832619D01*
X7745286Y-15775476D02*
X7650048Y-15775476D01*
X7640524Y-15870714D01*
X7650048Y-15861190D01*
X7669095Y-15851667D01*
X7716714Y-15851667D01*
X7735762Y-15861190D01*
X7745286Y-15870714D01*
X7754809Y-15889762D01*
X7754809Y-15937381D01*
X7745286Y-15956428D01*
X7735762Y-15965952D01*
X7716714Y-15975476D01*
X7669095Y-15975476D01*
X7650048Y-15965952D01*
X7640524Y-15956428D01*
X7821476Y-15775476D02*
X7954809Y-15775476D01*
X7869095Y-15975476D01*
X8021476Y-15775476D02*
X8021476Y-15813571D01*
X8097667Y-15775476D02*
X8097667Y-15813571D01*
X8392905Y-16051667D02*
X8383381Y-16042143D01*
X8364333Y-16013571D01*
X8354809Y-15994524D01*
X8345286Y-15965952D01*
X8335762Y-15918333D01*
X8335762Y-15880238D01*
X8345286Y-15832619D01*
X8354809Y-15804048D01*
X8364333Y-15785000D01*
X8383381Y-15756428D01*
X8392905Y-15746905D01*
X8573857Y-15975476D02*
X8459571Y-15975476D01*
X8516714Y-15975476D02*
X8516714Y-15775476D01*
X8497667Y-15804048D01*
X8478619Y-15823095D01*
X8459571Y-15832619D01*
X8650048Y-15794524D02*
X8659571Y-15785000D01*
X8678619Y-15775476D01*
X8726238Y-15775476D01*
X8745286Y-15785000D01*
X8754810Y-15794524D01*
X8764333Y-15813571D01*
X8764333Y-15832619D01*
X8754810Y-15861190D01*
X8640524Y-15975476D01*
X8764333Y-15975476D01*
X9002429Y-15975476D02*
X9002429Y-15775476D01*
X9088143Y-15975476D02*
X9088143Y-15870714D01*
X9078619Y-15851667D01*
X9059571Y-15842143D01*
X9031000Y-15842143D01*
X9011952Y-15851667D01*
X9002429Y-15861190D01*
X9211952Y-15975476D02*
X9192905Y-15965952D01*
X9183381Y-15956428D01*
X9173857Y-15937381D01*
X9173857Y-15880238D01*
X9183381Y-15861190D01*
X9192905Y-15851667D01*
X9211952Y-15842143D01*
X9240524Y-15842143D01*
X9259571Y-15851667D01*
X9269095Y-15861190D01*
X9278619Y-15880238D01*
X9278619Y-15937381D01*
X9269095Y-15956428D01*
X9259571Y-15965952D01*
X9240524Y-15975476D01*
X9211952Y-15975476D01*
X9392905Y-15975476D02*
X9373857Y-15965952D01*
X9364333Y-15946905D01*
X9364333Y-15775476D01*
X9545286Y-15965952D02*
X9526238Y-15975476D01*
X9488143Y-15975476D01*
X9469095Y-15965952D01*
X9459571Y-15946905D01*
X9459571Y-15870714D01*
X9469095Y-15851667D01*
X9488143Y-15842143D01*
X9526238Y-15842143D01*
X9545286Y-15851667D01*
X9554810Y-15870714D01*
X9554810Y-15889762D01*
X9459571Y-15908809D01*
X9631000Y-15965952D02*
X9650048Y-15975476D01*
X9688143Y-15975476D01*
X9707190Y-15965952D01*
X9716714Y-15946905D01*
X9716714Y-15937381D01*
X9707190Y-15918333D01*
X9688143Y-15908809D01*
X9659571Y-15908809D01*
X9640524Y-15899286D01*
X9631000Y-15880238D01*
X9631000Y-15870714D01*
X9640524Y-15851667D01*
X9659571Y-15842143D01*
X9688143Y-15842143D01*
X9707190Y-15851667D01*
X9783381Y-16051667D02*
X9792905Y-16042143D01*
X9811952Y-16013571D01*
X9821476Y-15994524D01*
X9831000Y-15965952D01*
X9840524Y-15918333D01*
X9840524Y-15880238D01*
X9831000Y-15832619D01*
X9821476Y-15804048D01*
X9811952Y-15785000D01*
X9792905Y-15756428D01*
X9783381Y-15746905D01*
D13*
X4821000Y-16149000D02*
G75*
G03*
X4821000Y-16149000I-38000J0D01*
G01*
D11*
X5116714Y-16039476D02*
X5135762Y-16039476D01*
X5154810Y-16049000D01*
X5164333Y-16058524D01*
X5173857Y-16077571D01*
X5183381Y-16115667D01*
X5183381Y-16163286D01*
X5173857Y-16201381D01*
X5164333Y-16220428D01*
X5154810Y-16229952D01*
X5135762Y-16239476D01*
X5116714Y-16239476D01*
X5097667Y-16229952D01*
X5088143Y-16220428D01*
X5078619Y-16201381D01*
X5069095Y-16163286D01*
X5069095Y-16115667D01*
X5078619Y-16077571D01*
X5088143Y-16058524D01*
X5097667Y-16049000D01*
X5116714Y-16039476D01*
X5269095Y-16220428D02*
X5278619Y-16229952D01*
X5269095Y-16239476D01*
X5259571Y-16229952D01*
X5269095Y-16220428D01*
X5269095Y-16239476D01*
X5345286Y-16039476D02*
X5478619Y-16039476D01*
X5392905Y-16239476D01*
X5640524Y-16039476D02*
X5602428Y-16039476D01*
X5583381Y-16049000D01*
X5573857Y-16058524D01*
X5554810Y-16087095D01*
X5545286Y-16125190D01*
X5545286Y-16201381D01*
X5554810Y-16220428D01*
X5564333Y-16229952D01*
X5583381Y-16239476D01*
X5621476Y-16239476D01*
X5640524Y-16229952D01*
X5650048Y-16220428D01*
X5659571Y-16201381D01*
X5659571Y-16153762D01*
X5650048Y-16134714D01*
X5640524Y-16125190D01*
X5621476Y-16115667D01*
X5583381Y-16115667D01*
X5564333Y-16125190D01*
X5554810Y-16134714D01*
X5545286Y-16153762D01*
X5783381Y-16039476D02*
X5802428Y-16039476D01*
X5821476Y-16049000D01*
X5831000Y-16058524D01*
X5840524Y-16077571D01*
X5850048Y-16115667D01*
X5850048Y-16163286D01*
X5840524Y-16201381D01*
X5831000Y-16220428D01*
X5821476Y-16229952D01*
X5802428Y-16239476D01*
X5783381Y-16239476D01*
X5764333Y-16229952D01*
X5754809Y-16220428D01*
X5745286Y-16201381D01*
X5735762Y-16163286D01*
X5735762Y-16115667D01*
X5745286Y-16077571D01*
X5754809Y-16058524D01*
X5764333Y-16049000D01*
X5783381Y-16039476D01*
X5935762Y-16239476D02*
X5935762Y-16106143D01*
X5935762Y-16125190D02*
X5945286Y-16115667D01*
X5964333Y-16106143D01*
X5992905Y-16106143D01*
X6011952Y-16115667D01*
X6021476Y-16134714D01*
X6021476Y-16239476D01*
X6021476Y-16134714D02*
X6031000Y-16115667D01*
X6050048Y-16106143D01*
X6078619Y-16106143D01*
X6097667Y-16115667D01*
X6107190Y-16134714D01*
X6107190Y-16239476D01*
X6202428Y-16239476D02*
X6202428Y-16106143D01*
X6202428Y-16125190D02*
X6211952Y-16115667D01*
X6231000Y-16106143D01*
X6259571Y-16106143D01*
X6278619Y-16115667D01*
X6288143Y-16134714D01*
X6288143Y-16239476D01*
X6288143Y-16134714D02*
X6297667Y-16115667D01*
X6316714Y-16106143D01*
X6345286Y-16106143D01*
X6364333Y-16115667D01*
X6373857Y-16134714D01*
X6373857Y-16239476D01*
X6764333Y-16029952D02*
X6592905Y-16287095D01*
X7021476Y-16039476D02*
X7040524Y-16039476D01*
X7059571Y-16049000D01*
X7069095Y-16058524D01*
X7078619Y-16077571D01*
X7088143Y-16115667D01*
X7088143Y-16163286D01*
X7078619Y-16201381D01*
X7069095Y-16220428D01*
X7059571Y-16229952D01*
X7040524Y-16239476D01*
X7021476Y-16239476D01*
X7002428Y-16229952D01*
X6992905Y-16220428D01*
X6983381Y-16201381D01*
X6973857Y-16163286D01*
X6973857Y-16115667D01*
X6983381Y-16077571D01*
X6992905Y-16058524D01*
X7002428Y-16049000D01*
X7021476Y-16039476D01*
X7173857Y-16220428D02*
X7183381Y-16229952D01*
X7173857Y-16239476D01*
X7164333Y-16229952D01*
X7173857Y-16220428D01*
X7173857Y-16239476D01*
X7307190Y-16039476D02*
X7326238Y-16039476D01*
X7345286Y-16049000D01*
X7354809Y-16058524D01*
X7364333Y-16077571D01*
X7373857Y-16115667D01*
X7373857Y-16163286D01*
X7364333Y-16201381D01*
X7354809Y-16220428D01*
X7345286Y-16229952D01*
X7326238Y-16239476D01*
X7307190Y-16239476D01*
X7288143Y-16229952D01*
X7278619Y-16220428D01*
X7269095Y-16201381D01*
X7259571Y-16163286D01*
X7259571Y-16115667D01*
X7269095Y-16077571D01*
X7278619Y-16058524D01*
X7288143Y-16049000D01*
X7307190Y-16039476D01*
X7450048Y-16058524D02*
X7459571Y-16049000D01*
X7478619Y-16039476D01*
X7526238Y-16039476D01*
X7545286Y-16049000D01*
X7554809Y-16058524D01*
X7564333Y-16077571D01*
X7564333Y-16096619D01*
X7554809Y-16125190D01*
X7440524Y-16239476D01*
X7564333Y-16239476D01*
X7659571Y-16239476D02*
X7697667Y-16239476D01*
X7716714Y-16229952D01*
X7726238Y-16220428D01*
X7745286Y-16191857D01*
X7754809Y-16153762D01*
X7754809Y-16077571D01*
X7745286Y-16058524D01*
X7735762Y-16049000D01*
X7716714Y-16039476D01*
X7678619Y-16039476D01*
X7659571Y-16049000D01*
X7650048Y-16058524D01*
X7640524Y-16077571D01*
X7640524Y-16125190D01*
X7650048Y-16144238D01*
X7659571Y-16153762D01*
X7678619Y-16163286D01*
X7716714Y-16163286D01*
X7735762Y-16153762D01*
X7745286Y-16144238D01*
X7754809Y-16125190D01*
X7850048Y-16239476D02*
X7888143Y-16239476D01*
X7907190Y-16229952D01*
X7916714Y-16220428D01*
X7935762Y-16191857D01*
X7945286Y-16153762D01*
X7945286Y-16077571D01*
X7935762Y-16058524D01*
X7926238Y-16049000D01*
X7907190Y-16039476D01*
X7869095Y-16039476D01*
X7850048Y-16049000D01*
X7840524Y-16058524D01*
X7831000Y-16077571D01*
X7831000Y-16125190D01*
X7840524Y-16144238D01*
X7850048Y-16153762D01*
X7869095Y-16163286D01*
X7907190Y-16163286D01*
X7926238Y-16153762D01*
X7935762Y-16144238D01*
X7945286Y-16125190D01*
X8021476Y-16039476D02*
X8021476Y-16077571D01*
X8097667Y-16039476D02*
X8097667Y-16077571D01*
X8392905Y-16315667D02*
X8383381Y-16306143D01*
X8364333Y-16277571D01*
X8354809Y-16258524D01*
X8345286Y-16229952D01*
X8335762Y-16182333D01*
X8335762Y-16144238D01*
X8345286Y-16096619D01*
X8354809Y-16068048D01*
X8364333Y-16049000D01*
X8383381Y-16020428D01*
X8392905Y-16010905D01*
X8554810Y-16106143D02*
X8554810Y-16239476D01*
X8507190Y-16029952D02*
X8459571Y-16172809D01*
X8583381Y-16172809D01*
X8745286Y-16106143D02*
X8745286Y-16239476D01*
X8697667Y-16029952D02*
X8650048Y-16172809D01*
X8773857Y-16172809D01*
X9002429Y-16239476D02*
X9002429Y-16039476D01*
X9088143Y-16239476D02*
X9088143Y-16134714D01*
X9078619Y-16115667D01*
X9059571Y-16106143D01*
X9031000Y-16106143D01*
X9011952Y-16115667D01*
X9002429Y-16125190D01*
X9211952Y-16239476D02*
X9192905Y-16229952D01*
X9183381Y-16220428D01*
X9173857Y-16201381D01*
X9173857Y-16144238D01*
X9183381Y-16125190D01*
X9192905Y-16115667D01*
X9211952Y-16106143D01*
X9240524Y-16106143D01*
X9259571Y-16115667D01*
X9269095Y-16125190D01*
X9278619Y-16144238D01*
X9278619Y-16201381D01*
X9269095Y-16220428D01*
X9259571Y-16229952D01*
X9240524Y-16239476D01*
X9211952Y-16239476D01*
X9392905Y-16239476D02*
X9373857Y-16229952D01*
X9364333Y-16210905D01*
X9364333Y-16039476D01*
X9545286Y-16229952D02*
X9526238Y-16239476D01*
X9488143Y-16239476D01*
X9469095Y-16229952D01*
X9459571Y-16210905D01*
X9459571Y-16134714D01*
X9469095Y-16115667D01*
X9488143Y-16106143D01*
X9526238Y-16106143D01*
X9545286Y-16115667D01*
X9554810Y-16134714D01*
X9554810Y-16153762D01*
X9459571Y-16172809D01*
X9631000Y-16229952D02*
X9650048Y-16239476D01*
X9688143Y-16239476D01*
X9707190Y-16229952D01*
X9716714Y-16210905D01*
X9716714Y-16201381D01*
X9707190Y-16182333D01*
X9688143Y-16172809D01*
X9659571Y-16172809D01*
X9640524Y-16163286D01*
X9631000Y-16144238D01*
X9631000Y-16134714D01*
X9640524Y-16115667D01*
X9659571Y-16106143D01*
X9688143Y-16106143D01*
X9707190Y-16115667D01*
X9783381Y-16315667D02*
X9792905Y-16306143D01*
X9811952Y-16277571D01*
X9821476Y-16258524D01*
X9831000Y-16229952D01*
X9840524Y-16182333D01*
X9840524Y-16144238D01*
X9831000Y-16096619D01*
X9821476Y-16068048D01*
X9811952Y-16049000D01*
X9792905Y-16020428D01*
X9783381Y-16010905D01*
M02*
