%TF.GenerationSoftware,KiCad,Pcbnew,(6.0.5-22-g43b8adad1a)*%
%TF.CreationDate,2022-05-13T22:53:21-07:00*%
%TF.ProjectId,shadystake,73686164-7973-4746-916b-652e6b696361,rev?*%
%TF.SameCoordinates,Original*%
%TF.FileFunction,Legend,Top*%
%TF.FilePolarity,Positive*%
%FSLAX46Y46*%
G04 Gerber Fmt 4.6, Leading zero omitted, Abs format (unit mm)*
G04 Created by KiCad (PCBNEW (6.0.5-22-g43b8adad1a)) date 2022-05-13 22:53:21*
%MOMM*%
%LPD*%
G01*
G04 APERTURE LIST*
G04 Aperture macros list*
%AMFreePoly0*
4,1,70,5.175671,0.230970,5.256777,0.176777,5.310970,0.095671,5.330000,0.000000,5.311135,-0.323899,5.254795,-0.643418,5.161742,-0.954236,5.033235,-1.252150,4.871011,-1.533130,4.677264,-1.793377,4.454614,-2.029372,4.206072,-2.237924,3.935000,-2.416211,3.645063,-2.561823,3.340181,-2.672791,3.024478,-2.747614,2.702224,-2.785280,2.377776,-2.785280,2.055522,-2.747614,1.739819,-2.672791,
1.434937,-2.561823,1.145000,-2.416211,0.873928,-2.237924,0.625386,-2.029372,0.402736,-1.793377,0.208989,-1.533130,0.046765,-1.252150,-0.081742,-0.954236,-0.174795,-0.643418,-0.231135,-0.323899,-0.250000,0.000000,-0.230970,0.095671,-0.176777,0.176777,-0.095671,0.230970,0.000000,0.250000,0.095671,0.230970,0.176777,0.176777,0.230970,0.095671,0.250000,0.000000,0.246560,-0.017294,
0.263565,-0.287581,0.317559,-0.570626,0.406602,-0.844672,0.529290,-1.105397,0.683688,-1.348690,0.867361,-1.570713,1.077413,-1.767964,1.310530,-1.937334,1.563037,-2.076151,1.830952,-2.182226,2.110048,-2.253886,2.395925,-2.290000,2.684075,-2.290000,2.969952,-2.253886,3.249048,-2.182226,3.516963,-2.076151,3.769470,-1.937334,4.002587,-1.767964,4.212639,-1.570713,4.396312,-1.348690,
4.550710,-1.105397,4.673398,-0.844672,4.762441,-0.570626,4.816435,-0.287581,4.818799,-0.250000,3.429000,-0.250000,2.921000,0.000000,3.429000,0.250000,5.080000,0.250000,5.175671,0.230970,5.175671,0.230970,$1*%
%AMFreePoly1*
4,1,24,0.095671,0.230970,0.176777,0.176777,0.230970,0.095671,0.250000,0.000000,0.250000,-4.699000,0.230970,-4.794671,0.176777,-4.875777,0.095671,-4.929970,0.000000,-4.949000,-0.095671,-4.929970,-0.176777,-4.875777,-0.230970,-4.794671,-0.250000,-4.699000,-0.250000,-3.298000,-1.651000,-3.298000,-2.159000,-3.048000,-1.651000,-2.798000,-0.250000,-2.798000,-0.250000,0.000000,-0.230970,0.095671,
-0.176777,0.176777,-0.095671,0.230970,0.000000,0.250000,0.095671,0.230970,0.095671,0.230970,$1*%
G04 Aperture macros list end*
%ADD10C,0.120000*%
%ADD11C,0.100000*%
%ADD12C,2.921000*%
%ADD13C,3.250000*%
%ADD14R,1.520000X1.520000*%
%ADD15C,1.520000*%
%ADD16C,0.500000*%
%ADD17FreePoly0,180.000000*%
%ADD18FreePoly1,180.000000*%
%ADD19FreePoly0,90.000000*%
%ADD20FreePoly1,90.000000*%
%ADD21C,3.200000*%
%ADD22R,1.500000X1.500000*%
%ADD23C,1.500000*%
G04 APERTURE END LIST*
D10*
X89150000Y-147430000D02*
X89150000Y-140650000D01*
X75480000Y-131430000D02*
X75480000Y-129900000D01*
D11*
X89150000Y-147420000D02*
X89150000Y-147430000D01*
D10*
X75950000Y-147430000D02*
X75950000Y-140650000D01*
X75950000Y-138450000D02*
X75950000Y-129430000D01*
X75950000Y-129430000D02*
X89150000Y-129430000D01*
X89150000Y-147430000D02*
X75950000Y-147430000D01*
D11*
X89150000Y-147310000D02*
X89150000Y-147430000D01*
D10*
X89150000Y-129430000D02*
X89150000Y-138450000D01*
D11*
X75950000Y-138380000D02*
X75950000Y-138450000D01*
X75950000Y-93880000D02*
X75950000Y-93870000D01*
D10*
X89150000Y-102850000D02*
X89150000Y-111870000D01*
X89150000Y-93870000D02*
X89150000Y-100650000D01*
X75950000Y-111870000D02*
X75950000Y-102850000D01*
X75950000Y-93870000D02*
X89150000Y-93870000D01*
D11*
X75950000Y-93990000D02*
X75950000Y-93870000D01*
D10*
X89620000Y-109870000D02*
X89620000Y-111400000D01*
X89150000Y-111870000D02*
X75950000Y-111870000D01*
D11*
X89150000Y-102920000D02*
X89150000Y-102850000D01*
D10*
X75950000Y-93870000D02*
X75950000Y-100650000D01*
D11*
X75950000Y-81180000D02*
X75950000Y-81170000D01*
D10*
X89150000Y-99170000D02*
X75950000Y-99170000D01*
X89150000Y-81170000D02*
X89150000Y-87950000D01*
X89620000Y-97170000D02*
X89620000Y-98700000D01*
X89150000Y-90150000D02*
X89150000Y-99170000D01*
D11*
X75950000Y-81290000D02*
X75950000Y-81170000D01*
D10*
X75950000Y-81170000D02*
X75950000Y-87950000D01*
D11*
X89150000Y-90220000D02*
X89150000Y-90150000D01*
D10*
X75950000Y-81170000D02*
X89150000Y-81170000D01*
X75950000Y-99170000D02*
X75950000Y-90150000D01*
D11*
X55780000Y-138680000D02*
X55770000Y-138680000D01*
D10*
X55770000Y-138680000D02*
X55770000Y-125480000D01*
D11*
X55890000Y-138680000D02*
X55770000Y-138680000D01*
D10*
X71770000Y-125010000D02*
X73300000Y-125010000D01*
X55770000Y-125480000D02*
X62550000Y-125480000D01*
X73770000Y-138680000D02*
X64750000Y-138680000D01*
X73770000Y-125480000D02*
X73770000Y-138680000D01*
D11*
X64820000Y-125480000D02*
X64750000Y-125480000D01*
D10*
X55770000Y-138680000D02*
X62550000Y-138680000D01*
X64750000Y-125480000D02*
X73770000Y-125480000D01*
D11*
X64820000Y-89920000D02*
X64750000Y-89920000D01*
D10*
X71770000Y-89450000D02*
X73300000Y-89450000D01*
X55770000Y-103120000D02*
X55770000Y-89920000D01*
X55770000Y-89920000D02*
X62550000Y-89920000D01*
X73770000Y-89920000D02*
X73770000Y-103120000D01*
X64750000Y-89920000D02*
X73770000Y-89920000D01*
D11*
X55890000Y-103120000D02*
X55770000Y-103120000D01*
X55780000Y-103120000D02*
X55770000Y-103120000D01*
D10*
X73770000Y-103120000D02*
X64750000Y-103120000D01*
X55770000Y-103120000D02*
X62550000Y-103120000D01*
X89150000Y-134730000D02*
X75950000Y-134730000D01*
X75950000Y-116730000D02*
X89150000Y-116730000D01*
X75950000Y-134730000D02*
X75950000Y-127950000D01*
X75950000Y-125750000D02*
X75950000Y-116730000D01*
D11*
X89150000Y-134610000D02*
X89150000Y-134730000D01*
X89150000Y-134720000D02*
X89150000Y-134730000D01*
D10*
X75480000Y-118730000D02*
X75480000Y-117200000D01*
X89150000Y-134730000D02*
X89150000Y-127950000D01*
X89150000Y-116730000D02*
X89150000Y-125750000D01*
D11*
X75950000Y-125680000D02*
X75950000Y-125750000D01*
%LPC*%
X177800000Y-132080000D02*
X101600000Y-132080000D01*
X101600000Y-132080000D02*
X101600000Y-96520000D01*
X101600000Y-96520000D02*
X177800000Y-96520000D01*
X177800000Y-96520000D02*
X177800000Y-132080000D01*
G36*
X177800000Y-132080000D02*
G01*
X101600000Y-132080000D01*
X101600000Y-96520000D01*
X177800000Y-96520000D01*
X177800000Y-132080000D01*
G37*
D12*
X69405500Y-85725000D02*
G75*
G03*
X69405500Y-85725000I-1460500J0D01*
G01*
X73596500Y-143764000D02*
G75*
G03*
X73596500Y-143764000I-1460500J0D01*
G01*
D13*
X87630000Y-139550000D03*
X77470000Y-139550000D03*
D14*
X79380000Y-130660000D03*
D15*
X80650000Y-133200000D03*
X81920000Y-130660000D03*
X83190000Y-133200000D03*
X84460000Y-130660000D03*
X85730000Y-133200000D03*
D16*
X65405000Y-85725000D03*
X67945000Y-83185000D03*
D17*
X70485000Y-85725000D03*
D18*
X67945000Y-88773000D03*
D13*
X87630000Y-101750000D03*
X77470000Y-101750000D03*
D14*
X85720000Y-110640000D03*
D15*
X84450000Y-108100000D03*
X83180000Y-110640000D03*
X81910000Y-108100000D03*
X80640000Y-110640000D03*
X79370000Y-108100000D03*
D13*
X77470000Y-89050000D03*
X87630000Y-89050000D03*
D14*
X85720000Y-97940000D03*
D15*
X84450000Y-95400000D03*
X83180000Y-97940000D03*
X81910000Y-95400000D03*
X80640000Y-97940000D03*
X79370000Y-95400000D03*
D13*
X63650000Y-127000000D03*
X63650000Y-137160000D03*
D14*
X72540000Y-128910000D03*
D15*
X70000000Y-130180000D03*
X72540000Y-131450000D03*
X70000000Y-132720000D03*
X72540000Y-133990000D03*
X70000000Y-135260000D03*
D13*
X63650000Y-91440000D03*
X63650000Y-101600000D03*
D14*
X72540000Y-93350000D03*
D15*
X70000000Y-94620000D03*
X72540000Y-95890000D03*
X70000000Y-97160000D03*
X72540000Y-98430000D03*
X70000000Y-99700000D03*
D13*
X77470000Y-126850000D03*
X87630000Y-126850000D03*
D14*
X79380000Y-117960000D03*
D15*
X80650000Y-120500000D03*
X81920000Y-117960000D03*
X83190000Y-120500000D03*
X84460000Y-117960000D03*
X85730000Y-120500000D03*
D19*
X72136000Y-146304000D03*
D16*
X72136000Y-141224000D03*
X74676000Y-143764000D03*
D20*
X69088000Y-143764000D03*
D21*
X64750000Y-108747500D03*
X64750000Y-120177500D03*
D22*
X58400000Y-110017500D03*
D23*
X55860000Y-111287500D03*
X58400000Y-112557500D03*
X55860000Y-113827500D03*
X58400000Y-115097500D03*
X55860000Y-116367500D03*
X58400000Y-117637500D03*
X55860000Y-118907500D03*
M02*
