<?xml version="1.0" encoding="UTF-8" standalone="no"?>
<!-- Generator: Adobe Illustrator 14.0.0, SVG Export Plug-In . SVG Version: 6.00 Build 43363)  -->

<svg
   xmlns:dc="http://purl.org/dc/elements/1.1/"
   xmlns:cc="http://creativecommons.org/ns#"
   xmlns:rdf="http://www.w3.org/1999/02/22-rdf-syntax-ns#"
   xmlns:svg="http://www.w3.org/2000/svg"
   xmlns="http://www.w3.org/2000/svg"
   xmlns:sodipodi="http://sodipodi.sourceforge.net/DTD/sodipodi-0.dtd"
   xmlns:inkscape="http://www.inkscape.org/namespaces/inkscape"
   version="1.1"
   id="Layer_1"
   x="0px"
   y="0px"
   width="150px"
   height="150px"
   viewBox="0 0 150 150"
   enable-background="new 0 0 150 150"
   xml:space="preserve"
   inkscape:version="0.92.5 (2060ec1f9f, 2020-04-08)"
   sodipodi:docname="logo for edge-cuts.svg"><metadata
     id="metadata4714"><rdf:RDF><cc:Work
         rdf:about=""><dc:format>image/svg+xml</dc:format><dc:type
           rdf:resource="http://purl.org/dc/dcmitype/StillImage" /><dc:title></dc:title></cc:Work></rdf:RDF></metadata><defs
     id="defs4712" /><sodipodi:namedview
     pagecolor="#ffffff"
     bordercolor="#666666"
     borderopacity="1"
     objecttolerance="10"
     gridtolerance="10"
     guidetolerance="10"
     inkscape:pageopacity="0"
     inkscape:pageshadow="2"
     inkscape:window-width="1276"
     inkscape:window-height="757"
     id="namedview4710"
     showgrid="false"
     showguides="true"
     inkscape:guide-bbox="true"
     inkscape:zoom="3.6333333"
     inkscape:cx="59.970759"
     inkscape:cy="63.421889"
     inkscape:window-x="0"
     inkscape:window-y="20"
     inkscape:window-maximized="0"
     inkscape:current-layer="g4702"><sodipodi:guide
       position="129.90826,14.311927"
       orientation="0,1"
       id="guide4722"
       inkscape:locked="false" /></sodipodi:namedview><g
     id="g4702"><g
       id="g4790"><path
         sodipodi:nodetypes="szszszszszs"
         inkscape:connector-curvature="0"
         id="path4716"
         d="m 34.40367,39.357798 c 8.889283,-3.891316 31.844917,-13.732033 39.999495,-13.826352 8.154578,-0.09432 25.728285,7.355927 39.266555,13.826352 13.53827,6.470425 30.28579,12.911802 33.10228,18.524753 2.81649,5.612952 -5.62344,24.108162 -9.43255,33.768825 -3.80911,9.660664 -12.58824,29.919284 -17.96004,32.979984 -5.3718,3.0607 -26.764728,3.62624 -44.792255,3.62552 C 56.559629,128.25616 35.14738,128.1557 30.115714,124.7303 25.084048,121.3049 16.530435,104.38119 12.110092,93.853211 7.6897492,83.325237 -1.0897543,62.289243 1.4397996,57.499571 3.9693535,52.709898 25.514387,43.249114 34.40367,39.357798 Z"
         style="fill:#1f6fb0;fill-opacity:1;fill-rule:evenodd;stroke:none;stroke-width:1px;stroke-linecap:butt;stroke-linejoin:miter;stroke-opacity:1" /><path
         id="path4706"
         d="M65.878,47.918c18.145-0.15,34.668,0.518,48.438,3.475   c4.211,0.904,9.955,1.335,13.225,3.115c1.98,1.078,4.072,5.707,5.125,7.668c2.063,3.85,4.588,12.257,0.992,16.535   c-4.042,4.807-20.387,3.881-26.451,0.959c-2.941-1.42-5.018-3.72-5.786-6.711c-0.686-2.671,0.667-6.507-0.825-8.627   c-2.448-3.475-22.635-5.325-31.906-4.312c-7.169,0.781-16.077,0.49-19.672,3.834c-2.68,2.492-0.893,7.871-2.646,11.143   c-2.528,4.719-11.304,8.023-20.994,6.949c-3.683-0.408-6.281-0.299-8.597-1.557c-4.828-2.625-3.861-10.984-1.983-15.457   c1.094-2.604,3.687-9.08,6.116-10.424c1.984-0.52,3.969-1.039,5.951-1.559c7.983-2.025,16.795-3.135,26.285-4.312   C57.392,48.396,61.636,48.157,65.878,47.918z"
         fill="#F5B71B"
         clip-rule="evenodd"
         fill-rule="evenodd" /><path
         id="path4708"
         d="M67.935,73.799c4.246,0,8.494,0,12.74,0   c0.045-1.998,0.09-3.994,0.135-5.992c0.227-0.159,0.453-0.318,0.678-0.479c4.247,0.039,8.494,0.08,12.74,0.119   c1.609,0.928-0.385,7.42,0.678,9.106c0.994,0.999,1.988,1.997,2.982,2.995c3.979,4.516,13.689,12.84,15.044,18.572   c0.521,2.202,0.913,11.467-0.136,13.18c-2.547,0.539-6.347,0.24-9.352,0.24c-6.324,0-12.65,0-18.975,0   c-16.127-0.04-32.259-0.08-48.386-0.119c-0.226-0.24-0.452-0.48-0.678-0.72c-0.045-1.877-0.091-3.755-0.136-5.632   c0-12.99,8.595-17.844,15.045-25.162c1.174-1.197,2.35-2.396,3.523-3.594c0.045-2.836,0.09-5.672,0.136-8.508   c0.226-0.159,0.452-0.318,0.677-0.479c2.107-0.039,12.658-0.271,13.147,0.479C67.845,69.805,67.89,71.801,67.935,73.799z"
         fill="#F5B71B"
         clip-rule="evenodd"
         fill-rule="evenodd" /></g></g></svg>