<?xml version="1.0" encoding="UTF-8" standalone="no"?>
<svg
   width="11.509375mm"
   height="11.509375mm"
   class="segno"
   version="1.1"
   id="svg4"
   sodipodi:docname="fap2.svg"
   inkscape:version="1.1.1 (3bf5ae0d25, 2021-09-20)"
   xmlns:inkscape="http://www.inkscape.org/namespaces/inkscape"
   xmlns:sodipodi="http://sodipodi.sourceforge.net/DTD/sodipodi-0.dtd"
   xmlns="http://www.w3.org/2000/svg"
   xmlns:svg="http://www.w3.org/2000/svg">
  <defs
     id="defs8" />
  <sodipodi:namedview
     id="namedview6"
     pagecolor="#ffffff"
     bordercolor="#666666"
     borderopacity="1.0"
     inkscape:pageshadow="2"
     inkscape:pageopacity="0.0"
     inkscape:pagecheckerboard="0"
     showgrid="true"
     units="mm"
     inkscape:zoom="10.206897"
     inkscape:cx="21.798986"
     inkscape:cy="21.749999"
     inkscape:window-width="1920"
     inkscape:window-height="1138"
     inkscape:window-x="-6"
     inkscape:window-y="-6"
     inkscape:window-maximized="1"
     inkscape:current-layer="layer1"
     inkscape:document-units="mm"
     fit-margin-top="0"
     fit-margin-left="0"
     fit-margin-right="0"
     fit-margin-bottom="0">
    <inkscape:grid
       type="xygrid"
       id="grid908"
       originx="-21.75"
       originy="-21.75" />
  </sodipodi:namedview>
  <path
     class="qrline"
     stroke="#000000"
     d="m 6,6.75 h 10.5 m 1.5,0 h 1.5 m 3,0 h 3 m 1.5,0 H 37.5 M 6,8.25 h 1.5 m 7.5,0 h 1.5 m 4.5,0 h 1.5 m 1.5,0 h 1.5 m 1.5,0 h 1.5 m 7.5,0 h 1.5 M 6,9.75 h 1.5 m 1.5,0 h 4.5 m 1.5,0 h 1.5 m 7.5,0 h 1.5 m 1.5,0 h 1.5 m 1.5,0 h 4.5 m 1.5,0 h 1.5 M 6,11.25 h 1.5 m 1.5,0 h 4.5 m 1.5,0 h 1.5 m 4.5,0 h 1.5 m 4.5,0 h 1.5 m 1.5,0 h 4.5 m 1.5,0 h 1.5 M 6,12.75 h 1.5 m 1.5,0 h 4.5 m 1.5,0 h 1.5 m 3,0 H 21 m 1.5,0 H 24 m 3,0 h 1.5 m 1.5,0 h 4.5 m 1.5,0 h 1.5 M 6,14.25 h 1.5 m 7.5,0 h 1.5 m 3,0 H 24 m 3,0 h 1.5 m 7.5,0 h 1.5 M 6,15.75 h 10.5 m 1.5,0 h 1.5 m 1.5,0 h 1.5 m 1.5,0 h 1.5 m 1.5,0 H 37.5 M 18,17.25 h 1.5 M 6,18.75 h 3 m 1.5,0 h 3 m 1.5,0 h 1.5 m 4.5,0 h 3 m 3,0 h 1.5 m 7.5,0 h 1.5 M 6,20.25 h 1.5 m 4.5,0 h 3 m 1.5,0 h 3 m 4.5,0 h 1.5 m 1.5,0 h 4.5 m -21,1.5 h 6 m 1.5,0 h 4.5 m 1.5,0 h 9 M 7.5,23.25 H 9 m 3,0 h 3 m 6,0 h 3 m 1.5,0 h 6 m 1.5,0 h 3 m -30,1.5 h 1.5 m 3,0 H 12 m 1.5,0 h 6 m 1.5,0 h 3 m 7.5,0 H 33 m 1.5,0 h 3 M 18,26.25 h 3 m 3,0 h 4.5 m 1.5,0 h 4.5 M 6,27.75 h 10.5 m 6,0 h 3 m 1.5,0 h 3 m 1.5,0 h 6 M 6,29.25 h 1.5 m 7.5,0 h 1.5 m 3,0 H 21 m 4.5,0 H 27 m 4.5,0 h 3 M 6,30.75 h 1.5 m 1.5,0 h 4.5 m 1.5,0 h 1.5 m 1.5,0 h 1.5 m 3,0 H 27 m 1.5,0 H 30 m 1.5,0 h 3 M 6,32.25 h 1.5 m 1.5,0 h 4.5 m 1.5,0 h 1.5 m 1.5,0 h 1.5 m 1.5,0 h 3 m 1.5,0 H 27 m 1.5,0 h 3 m 1.5,0 h 1.5 M 6,33.75 h 1.5 m 1.5,0 h 4.5 m 1.5,0 h 1.5 m 9,0 h 3 m 3,0 H 33 m 1.5,0 h 3 M 6,35.25 h 1.5 m 7.5,0 h 1.5 m 1.5,0 h 6 m 4.5,0 H 30 m 3,0 h 3 m -30,1.5 h 10.5 m 1.5,0 h 3 m 1.5,0 h 6 m 3,0 H 33 m 1.5,0 H 36"
     id="path2"
     style="stroke-width:1.5" />
  <g
     inkscape:groupmode="layer"
     id="layer1"
     inkscape:label="F.Mask"
     transform="translate(-21.75,-21.75)">
    <path
       style="fill:#ff0000;fill-opacity:0.556075;stroke:none;stroke-width:0;stroke-linecap:butt;stroke-linejoin:miter;stroke-miterlimit:4;stroke-dasharray:none;stroke-opacity:1"
       d="m 21.75,21.75 h 43.5 v 6 h -43.5 v -6 0"
       id="path944" />
    <path
       style="fill:#ff0000;fill-opacity:0.556075;stroke:none;stroke-width:0.5px;stroke-linecap:butt;stroke-linejoin:miter;stroke-opacity:1"
       d="m 21.75,27.75 h 6 v 37.5 h -6 z"
       id="path1199" />
    <path
       style="font-variation-settings:normal;opacity:1;vector-effect:none;fill:#ff0000;fill-opacity:0.556075;stroke:none;stroke-width:0.5px;stroke-linecap:butt;stroke-linejoin:miter;stroke-miterlimit:4;stroke-dasharray:none;stroke-dashoffset:0;stroke-opacity:1;-inkscape-stroke:none;stop-color:#000000;stop-opacity:1"
       d="m 65.25,27.75 v 37.5 h -37.5 v -6 h 31.5 v -31.5 z"
       id="path1267" />
    <path
       style="font-variation-settings:normal;opacity:1;vector-effect:none;fill:#ff0000;fill-opacity:0.556075;stroke:none;stroke-width:0.5px;stroke-linecap:butt;stroke-linejoin:miter;stroke-miterlimit:4;stroke-dasharray:none;stroke-dashoffset:0;stroke-opacity:1;-inkscape-stroke:none;stop-color:#000000;stop-opacity:1"
       d="m 29.25,29.25 h 7.5 v 7.5 h -1.5 v -6 h -6 z"
       id="path1269" />
    <path
       style="font-variation-settings:normal;opacity:1;vector-effect:none;fill:#ff0000;fill-opacity:0.556075;stroke:none;stroke-width:0.5px;stroke-linecap:butt;stroke-linejoin:miter;stroke-miterlimit:4;stroke-dasharray:none;stroke-dashoffset:0;stroke-opacity:1;-inkscape-stroke:none;stop-color:#000000;stop-opacity:1"
       d="m 29.25,30.75 h 1.5 v 4.5 h 4.5 v 1.5 h -6 z"
       id="path1271" />
    <path
       style="font-variation-settings:normal;opacity:1;vector-effect:none;fill:#ff0000;fill-opacity:0.556075;stroke:none;stroke-width:0.5px;stroke-linecap:butt;stroke-linejoin:miter;stroke-miterlimit:4;stroke-dasharray:none;stroke-dashoffset:0;stroke-opacity:1;-inkscape-stroke:none;stop-color:#000000;stop-opacity:1"
       d="m 42.75,59.25 v -1.5 h 1.5 v 1.5 z"
       id="path1273" />
    <path
       style="font-variation-settings:normal;opacity:1;vector-effect:none;fill:#ff0000;fill-opacity:0.556075;stroke:none;stroke-width:0.5px;stroke-linecap:butt;stroke-linejoin:miter;stroke-miterlimit:4;stroke-dasharray:none;stroke-dashoffset:0;stroke-opacity:1;-inkscape-stroke:none;stop-color:#000000;stop-opacity:1"
       d="m 39.75,59.25 v -12 h -12 v 1.5 h 10.5 v 10.5 z"
       id="path1275" />
    <path
       style="font-variation-settings:normal;opacity:1;vector-effect:none;fill:#ff0000;fill-opacity:0.556075;stroke:none;stroke-width:0.5px;stroke-linecap:butt;stroke-linejoin:miter;stroke-miterlimit:4;stroke-dasharray:none;stroke-dashoffset:0;stroke-opacity:1;-inkscape-stroke:none;stop-color:#000000;stop-opacity:1"
       d="m 36.75,50.25 h -7.5 v 1.5 h 6 v 6 h 1.5 z"
       id="path1277" />
    <path
       style="font-variation-settings:normal;opacity:1;vector-effect:none;fill:#ff0000;fill-opacity:0.556075;stroke:none;stroke-width:0.5px;stroke-linecap:butt;stroke-linejoin:miter;stroke-miterlimit:4;stroke-dasharray:none;stroke-dashoffset:0;stroke-opacity:1;-inkscape-stroke:none;stop-color:#000000;stop-opacity:1"
       d="m 29.25,51.75 v 6 h 6 v -1.5 h -4.5 v -4.5 h -1.5"
       id="path1279" />
    <path
       style="font-variation-settings:normal;opacity:1;vector-effect:none;fill:#ff0000;fill-opacity:0.556075;stroke:none;stroke-width:0.5px;stroke-linecap:butt;stroke-linejoin:miter;stroke-miterlimit:4;stroke-dasharray:none;stroke-dashoffset:0;stroke-opacity:1;-inkscape-stroke:none;stop-color:#000000;stop-opacity:1"
       d="m 48.75,27.75 v 15 h -1.5 v -15 z"
       id="path1281" />
    <path
       style="font-variation-settings:normal;opacity:1;vector-effect:none;fill:#ff0000;fill-opacity:0.556075;stroke:none;stroke-width:0.5px;stroke-linecap:butt;stroke-linejoin:miter;stroke-miterlimit:4;stroke-dasharray:none;stroke-dashoffset:0;stroke-opacity:1;-inkscape-stroke:none;stop-color:#000000;stop-opacity:1"
       d="m 39.75,27.75 v 13.5 h -1.5 v -13.5 z"
       id="path1283" />
    <path
       style="font-variation-settings:normal;opacity:1;vector-effect:none;fill:#ff0000;fill-opacity:0.556075;stroke:none;stroke-width:0.5px;stroke-linecap:butt;stroke-linejoin:miter;stroke-miterlimit:4;stroke-dasharray:none;stroke-dashoffset:0;stroke-opacity:1;-inkscape-stroke:none;stop-color:#000000;stop-opacity:1"
       d="m 27.75,38.25 h 10.5 v 1.5 h -10.5 z"
       id="path1285" />
    <path
       style="font-variation-settings:normal;opacity:1;vector-effect:none;fill:#ff0000;fill-opacity:0.556075;stroke:none;stroke-width:0.5px;stroke-linecap:butt;stroke-linejoin:miter;stroke-miterlimit:4;stroke-dasharray:none;stroke-dashoffset:0;stroke-opacity:1;-inkscape-stroke:none;stop-color:#000000;stop-opacity:1"
       d="m 48.75,38.25 h 10.5 v 1.5 h -1.5 v 1.5 h 1.5 v 4.5 h -1.5 v -1.5 h -3 v -1.5 h -1.5 v -1.5 h -3 v -1.5 h -1.5 z"
       id="path1287" />
    <path
       style="font-variation-settings:normal;opacity:1;vector-effect:none;fill:#ff0000;fill-opacity:0.556075;stroke:none;stroke-width:0.5px;stroke-linecap:butt;stroke-linejoin:miter;stroke-miterlimit:4;stroke-dasharray:none;stroke-dashoffset:0;stroke-opacity:1;-inkscape-stroke:none;stop-color:#000000;stop-opacity:1"
       d="m 50.25,29.25 h 7.5 v 7.5 h -1.5 v -6 h -6 z"
       id="path1308" />
    <path
       style="font-variation-settings:normal;opacity:1;vector-effect:none;fill:#ff0000;fill-opacity:0.556075;stroke:none;stroke-width:0.5px;stroke-linecap:butt;stroke-linejoin:miter;stroke-miterlimit:4;stroke-dasharray:none;stroke-dashoffset:0;stroke-opacity:1;-inkscape-stroke:none;stop-color:#000000;stop-opacity:1"
       d="m 50.25,30.75 h 1.5 v 4.5 h 4.5 v 1.5 h -6 z"
       id="path1310" />
    <path
       style="font-variation-settings:normal;opacity:1;vector-effect:none;fill:#ff0000;fill-opacity:0.556075;stroke:none;stroke-width:0.5px;stroke-linecap:butt;stroke-linejoin:miter;stroke-miterlimit:4;stroke-dasharray:none;stroke-dashoffset:0;stroke-opacity:1;-inkscape-stroke:none;stop-color:#000000;stop-opacity:1"
       d="m 56.25,50.25 h 3 v 4.5 h -3 z"
       id="path1312" />
    <path
       style="font-variation-settings:normal;opacity:1;vector-effect:none;fill:#ff0000;fill-opacity:0.556075;stroke:none;stroke-width:0.5px;stroke-linecap:butt;stroke-linejoin:miter;stroke-miterlimit:4;stroke-dasharray:none;stroke-dashoffset:0;stroke-opacity:1;-inkscape-stroke:none;stop-color:#000000;stop-opacity:1"
       d="m 59.25,56.25 h -1.5 v 3 h 1.5 v -3"
       id="path1314" />
    <path
       style="font-variation-settings:normal;opacity:1;vector-effect:none;fill:#ff0000;fill-opacity:0.556075;stroke:none;stroke-width:0.5px;stroke-linecap:butt;stroke-linejoin:miter;stroke-miterlimit:4;stroke-dasharray:none;stroke-dashoffset:0;stroke-opacity:1;-inkscape-stroke:none;stop-color:#000000;stop-opacity:1"
       d="m 45.75,44.25 h 1.5 v 1.5 h 6 v 1.5 h -1.5 v 1.5 h -1.5 v -1.5 h -4.5 z"
       id="path1316" />
    <path
       style="font-variation-settings:normal;opacity:1;vector-effect:none;fill:#ff0000;fill-opacity:0.556075;stroke:none;stroke-width:0.5px;stroke-linecap:butt;stroke-linejoin:miter;stroke-miterlimit:4;stroke-dasharray:none;stroke-dashoffset:0;stroke-opacity:1;-inkscape-stroke:none;stop-color:#000000;stop-opacity:1"
       d="m 53.25,44.25 h 1.5 v 1.5 h -1.5 z"
       id="path1318" />
    <path
       style="font-variation-settings:normal;opacity:1;vector-effect:none;fill:#ff0000;fill-opacity:0.556075;stroke:none;stroke-width:0.5px;stroke-linecap:butt;stroke-linejoin:miter;stroke-miterlimit:4;stroke-dasharray:none;stroke-dashoffset:0;stroke-opacity:1;-inkscape-stroke:none;stop-color:#000000;stop-opacity:1"
       d="m 54.75,45.75 h 1.5 v 1.5 h -1.5 z"
       id="path1320" />
    <path
       style="font-variation-settings:normal;opacity:1;vector-effect:none;fill:#ff0000;fill-opacity:0.556075;stroke:none;stroke-width:0.5px;stroke-linecap:butt;stroke-linejoin:miter;stroke-miterlimit:4;stroke-dasharray:none;stroke-dashoffset:0;stroke-opacity:1;-inkscape-stroke:none;stop-color:#000000;stop-opacity:1"
       d="m 56.25,47.25 h 3 v 1.5 h -3 v -1.5"
       id="path1322" />
    <path
       style="font-variation-settings:normal;opacity:1;vector-effect:none;fill:#ff0000;fill-opacity:0.556075;stroke:none;stroke-width:0.5px;stroke-linecap:butt;stroke-linejoin:miter;stroke-miterlimit:4;stroke-dasharray:none;stroke-dashoffset:0;stroke-opacity:1;-inkscape-stroke:none;stop-color:#000000;stop-opacity:1"
       d="m 53.25,48.75 v 4.5 h -1.5 v -1.5 h -1.5 v 3 h -1.5 v -4.5 h 3 v -1.5 z"
       id="path1324" />
    <path
       style="font-variation-settings:normal;opacity:1;vector-effect:none;fill:#ff0000;fill-opacity:0.556075;stroke:none;stroke-width:0.5px;stroke-linecap:butt;stroke-linejoin:miter;stroke-miterlimit:4;stroke-dasharray:none;stroke-dashoffset:0;stroke-opacity:1;-inkscape-stroke:none;stop-color:#000000;stop-opacity:1"
       d="m 54.75,53.25 h -1.5 v 1.5 h 1.5 v -1.5"
       id="path1326" />
    <path
       style="font-variation-settings:normal;opacity:1;vector-effect:none;fill:#ff0000;fill-opacity:0.556075;stroke:none;stroke-width:0.5px;stroke-linecap:butt;stroke-linejoin:miter;stroke-miterlimit:4;stroke-dasharray:none;stroke-dashoffset:0;stroke-opacity:1;-inkscape-stroke:none;stop-color:#000000;stop-opacity:1"
       d="m 56.25,54.75 h -1.5 v 1.5 h 1.5 v -1.5"
       id="path1328" />
    <path
       style="font-variation-settings:normal;opacity:1;vector-effect:none;fill:#ff0000;fill-opacity:0.556075;stroke:none;stroke-width:0.5px;stroke-linecap:butt;stroke-linejoin:miter;stroke-miterlimit:4;stroke-dasharray:none;stroke-dashoffset:0;stroke-opacity:1;-inkscape-stroke:none;stop-color:#000000;stop-opacity:1"
       d="m 56.25,57.75 h -1.5 v 1.5 h 1.5 v -1.5"
       id="path1330" />
    <path
       style="font-variation-settings:normal;opacity:1;vector-effect:none;fill:#ff0000;fill-opacity:0.556075;stroke:none;stroke-width:0.5px;stroke-linecap:butt;stroke-linejoin:miter;stroke-miterlimit:4;stroke-dasharray:none;stroke-dashoffset:0;stroke-opacity:1;-inkscape-stroke:none;stop-color:#000000;stop-opacity:1"
       d="m 53.25,59.25 h -3 v -1.5 h 1.5 v -1.5 h -1.5 v -1.5 h 3 v 1.5 h 1.5 v 1.5 h -1.5 v 1.5"
       id="path1332" />
    <path
       style="font-variation-settings:normal;opacity:1;vector-effect:none;fill:#ff0000;fill-opacity:0.556075;stroke:none;stroke-width:0.5px;stroke-linecap:butt;stroke-linejoin:miter;stroke-miterlimit:4;stroke-dasharray:none;stroke-dashoffset:0;stroke-opacity:1;-inkscape-stroke:none;stop-color:#000000;stop-opacity:1"
       d="m 50.25,56.25 h -3 v -3 h -1.5 v 1.5 h -6 v 1.5 h 6 v 1.5 h 4.5 z"
       id="path1334" />
    <path
       style="font-variation-settings:normal;opacity:1;vector-effect:none;fill:#ff0000;fill-opacity:0.556075;stroke:none;stroke-width:0.5px;stroke-linecap:butt;stroke-linejoin:miter;stroke-miterlimit:4;stroke-dasharray:none;stroke-dashoffset:0;stroke-opacity:1;-inkscape-stroke:none;stop-color:#000000;stop-opacity:1"
       d="m 44.25,27.75 v 1.5 h -1.5 v 4.5 h -1.5 v 3 h -1.5 v -7.5 h 1.5 v -1.5 z"
       id="path1336" />
    <path
       style="font-variation-settings:normal;opacity:1;vector-effect:none;fill:#ff0000;fill-opacity:0.556075;stroke:none;stroke-width:0.5px;stroke-linecap:butt;stroke-linejoin:miter;stroke-miterlimit:4;stroke-dasharray:none;stroke-dashoffset:0;stroke-opacity:1;-inkscape-stroke:none;stop-color:#000000;stop-opacity:1"
       d="m 45.75,29.25 h -1.5 v 1.5 h -1.5 v 1.5 h 1.5 v 1.5 h 1.5 v 3 h 1.5 v -4.5 h -1.5 v -3"
       id="path1338" />
    <path
       style="font-variation-settings:normal;opacity:1;vector-effect:none;fill:#ff0000;fill-opacity:0.556075;stroke:none;stroke-width:0.5px;stroke-linecap:butt;stroke-linejoin:miter;stroke-miterlimit:4;stroke-dasharray:none;stroke-dashoffset:0;stroke-opacity:1;-inkscape-stroke:none;stop-color:#000000;stop-opacity:1"
       d="m 44.25,33.75 h -1.5 v 1.5 h 1.5 v -1.5"
       id="path1340" />
    <path
       style="font-variation-settings:normal;opacity:1;vector-effect:none;fill:#ff0000;fill-opacity:0.556075;stroke:none;stroke-width:0.5px;stroke-linecap:butt;stroke-linejoin:miter;stroke-miterlimit:4;stroke-dasharray:none;stroke-dashoffset:0;stroke-opacity:1;-inkscape-stroke:none;stop-color:#000000;stop-opacity:1"
       d="m 47.25,41.25 v -3 h -1.5 v -1.5 h -1.5 v 1.5 h -1.5 v -1.5 h -1.5 v 3 h -1.5 v 1.5 h 1.5 v 1.5 h 3 v 1.5 h 1.5 v -3 h -3 v -1.5 h 3 v 1.5 z"
       id="path1342" />
    <path
       style="font-variation-settings:normal;opacity:1;vector-effect:none;fill:#ff0000;fill-opacity:0.556075;stroke:none;stroke-width:0.5px;stroke-linecap:butt;stroke-linejoin:miter;stroke-miterlimit:4;stroke-dasharray:none;stroke-dashoffset:0;stroke-opacity:1;-inkscape-stroke:none;stop-color:#000000;stop-opacity:1"
       d="m 47.25,50.25 v -1.5 h 1.5 v 1.5 z"
       id="path1344" />
    <path
       style="font-variation-settings:normal;opacity:1;vector-effect:none;fill:#ff0000;fill-opacity:0.556075;stroke:none;stroke-width:0.5px;stroke-linecap:butt;stroke-linejoin:miter;stroke-miterlimit:4;stroke-dasharray:none;stroke-dashoffset:0;stroke-opacity:1;-inkscape-stroke:none;stop-color:#000000;stop-opacity:1"
       d="m 41.25,54.75 v -3 h 1.5 v -1.5 h 4.5 v 1.5 h -3 v 1.5 h -1.5 v 1.5 z"
       id="path1346" />
    <path
       style="font-variation-settings:normal;opacity:1;vector-effect:none;fill:#ff0000;fill-opacity:0.556075;stroke:none;stroke-width:0.5px;stroke-linecap:butt;stroke-linejoin:miter;stroke-miterlimit:4;stroke-dasharray:none;stroke-dashoffset:0;stroke-opacity:1;-inkscape-stroke:none;stop-color:#000000;stop-opacity:1"
       d="m 45.75,47.25 h -3 v 1.5 h -3 v 3 h 1.5 v -1.5 h 3 v -1.5 h 1.5 z"
       id="path1348" />
    <path
       style="font-variation-settings:normal;opacity:1;vector-effect:none;fill:#ff0000;fill-opacity:0.556075;stroke:none;stroke-width:0.5px;stroke-linecap:butt;stroke-linejoin:miter;stroke-miterlimit:4;stroke-dasharray:none;stroke-dashoffset:0;stroke-opacity:1;-inkscape-stroke:none;stop-color:#000000;stop-opacity:1"
       d="m 42.75,47.25 v -3 h -3 v -1.5 h -1.5 v 1.5 h -1.5 v 1.5 h 4.5 v 1.5 z"
       id="path1350" />
    <path
       style="font-variation-settings:normal;opacity:1;vector-effect:none;fill:#ff0000;fill-opacity:0.556075;stroke:none;stroke-width:0.5px;stroke-linecap:butt;stroke-linejoin:miter;stroke-miterlimit:4;stroke-dasharray:none;stroke-dashoffset:0;stroke-opacity:1;-inkscape-stroke:none;stop-color:#000000;stop-opacity:1"
       d="m 38.25,41.25 h -1.5 v 1.5 h 1.5 z"
       id="path1352" />
    <path
       style="font-variation-settings:normal;opacity:1;vector-effect:none;fill:#ff0000;fill-opacity:0.556075;stroke:none;stroke-width:0.5px;stroke-linecap:butt;stroke-linejoin:miter;stroke-miterlimit:4;stroke-dasharray:none;stroke-dashoffset:0;stroke-opacity:1;-inkscape-stroke:none;stop-color:#000000;stop-opacity:1"
       d="m 36.75,39.75 h -1.5 v 1.5 h 1.5 z"
       id="path1354" />
    <path
       style="font-variation-settings:normal;opacity:1;vector-effect:none;fill:#ff0000;fill-opacity:0.556075;stroke:none;stroke-width:0.5px;stroke-linecap:butt;stroke-linejoin:miter;stroke-miterlimit:4;stroke-dasharray:none;stroke-dashoffset:0;stroke-opacity:1;-inkscape-stroke:none;stop-color:#000000;stop-opacity:1"
       d="m 32.25,39.75 v 1.5 h 1.5 v 1.5 h -1.5 v 1.5 h 1.5 v 1.5 h -1.5 v 1.5 h -3 v -1.5 h 1.5 v -1.5 h -1.5 v 1.5 h -1.5 v -3 h 1.5 v -1.5 h 1.5 v -1.5 h 1.5"
       id="path1356" />
    <path
       style="font-variation-settings:normal;opacity:1;vector-effect:none;fill:#ff0000;fill-opacity:0.556075;stroke:none;stroke-width:0.5px;stroke-linecap:butt;stroke-linejoin:miter;stroke-miterlimit:4;stroke-dasharray:none;stroke-dashoffset:0;stroke-opacity:1;-inkscape-stroke:none;stop-color:#000000;stop-opacity:1"
       d="m 35.25,45.75 h -1.5 v 1.5 h 1.5 v -1.5"
       id="path1358" />
  </g>
</svg>
