<?xml version="1.0" encoding="utf-8"?>
<svg xmlns="http://www.w3.org/2000/svg" width="99" height="99" class="segno"><path transform="scale(3)" class="qrline" stroke="#000" d="M4 4.5h7m1 0h1m2 0h1m6 0h7m-25 1h1m5 0h1m2 0h4m5 0h1m5 0h1m-25 1h1m1 0h3m1 0h1m1 0h2m3 0h1m1 0h1m2 0h1m1 0h3m1 0h1m-25 1h1m1 0h3m1 0h1m2 0h1m1 0h1m1 0h1m4 0h1m1 0h3m1 0h1m-25 1h1m1 0h3m1 0h1m2 0h1m4 0h1m3 0h1m1 0h3m1 0h1m-25 1h1m5 0h1m1 0h3m2 0h2m1 0h1m1 0h1m5 0h1m-25 1h7m1 0h1m1 0h1m1 0h1m1 0h1m1 0h1m1 0h7m-13 1h1m-13 1h1m1 0h1m3 0h2m1 0h2m1 0h1m2 0h2m2 0h1m2 0h1m1 0h1m-25 1h2m5 0h2m5 0h4m2 0h2m1 0h2m-24 1h1m1 0h4m1 0h1m1 0h4m1 0h2m2 0h4m1 0h1m-23 1h2m4 0h3m1 0h1m4 0h2m2 0h1m-22 1h1m1 0h1m3 0h1m1 0h2m2 0h1m3 0h2m6 0h1m-21 1h1m2 0h1m4 0h1m2 0h2m1 0h3m2 0h2m-25 1h3m1 0h1m1 0h1m1 0h2m2 0h2m1 0h1m2 0h1m2 0h2m1 0h1m-21 1h2m4 0h3m1 0h2m1 0h1m1 0h3m-22 1h3m1 0h3m1 0h1m1 0h1m4 0h6m2 0h1m-16 1h2m3 0h1m1 0h2m3 0h1m3 0h1m-25 1h7m1 0h1m2 0h1m1 0h1m2 0h1m1 0h1m1 0h1m3 0h1m-25 1h1m5 0h1m2 0h1m5 0h2m3 0h1m3 0h1m-25 1h1m1 0h3m1 0h1m4 0h10m3 0h1m-25 1h1m1 0h3m1 0h1m3 0h1m1 0h1m3 0h1m1 0h1m1 0h1m1 0h2m-24 1h1m1 0h3m1 0h1m1 0h3m1 0h3m2 0h1m1 0h3m1 0h2m-25 1h1m5 0h1m2 0h4m3 0h1m1 0h3m-21 1h7m1 0h2m2 0h5m1 0h1m2 0h1m2 0h1"/></svg>
