<?xml version="1.0" encoding="UTF-8" standalone="no"?>
<svg
   width="11.509001mm"
   height="11.509001mm"
   class="segno"
   version="1.1"
   id="svg1"
   sodipodi:docname="steak-emoji.svg"
   inkscape:version="1.3.2 (091e20e, 2023-11-25)"
   xmlns:inkscape="http://www.inkscape.org/namespaces/inkscape"
   xmlns:sodipodi="http://sodipodi.sourceforge.net/DTD/sodipodi-0.dtd"
   xmlns="http://www.w3.org/2000/svg"
   xmlns:svg="http://www.w3.org/2000/svg">
  <defs
     id="defs1" />
  <sodipodi:namedview
     id="namedview1"
     pagecolor="#ffffff"
     bordercolor="#000000"
     borderopacity="0.25"
     inkscape:showpageshadow="2"
     inkscape:pageopacity="0.0"
     inkscape:pagecheckerboard="0"
     inkscape:deskcolor="#d1d1d1"
     showgrid="true"
     inkscape:zoom="4.9917265"
     inkscape:cx="21.435469"
     inkscape:cy="17.829502"
     inkscape:window-width="1520"
     inkscape:window-height="847"
     inkscape:window-x="3007"
     inkscape:window-y="1616"
     inkscape:window-maximized="0"
     inkscape:current-layer="layer1"
     inkscape:document-units="mm">
    <inkscape:grid
       id="grid1"
       units="px"
       originx="-27.75071"
       originy="-27.75071"
       spacingx="3"
       spacingy="3"
       empcolor="#0099e5"
       empopacity="0.30196078"
       color="#0099e5"
       opacity="0.14901961"
       empspacing="5"
       dotted="false"
       gridanglex="30"
       gridanglez="30"
       visible="true" />
  </sodipodi:namedview>
  <path
     class="qrline"
     stroke="#000000"
     d="m 5.2725545,5.9316245 h 9.2269715 m 1.318139,0 h 1.318139 m 2.636278,0 h 1.318139 m 7.908833,0 h 9.226972 M 5.2725545,7.2497625 h 1.318139 m 6.5906935,0 h 1.318139 m 2.636278,0 h 5.272555 m 6.590695,0 h 1.318139 m 6.590694,0 h 1.318139 M 5.2725545,8.5679015 h 1.318139 m 1.318139,0 h 3.9544155 m 1.318139,0 h 1.318139 m 1.318139,0 h 2.636278 m 3.954416,0 h 1.318139 m 1.318139,0 h 1.318139 m 2.636278,0 h 1.318139 m 1.318139,0 h 3.954416 m 1.318139,0 h 1.318139 M 5.2725545,9.8860405 h 1.318139 m 1.318139,0 h 3.9544155 m 1.318139,0 h 1.318139 m 2.636278,0 h 1.318139 m 1.318139,0 h 1.318139 m 1.318138,0 h 1.318139 m 5.272556,0 h 1.318139 m 1.318139,0 h 3.954416 m 1.318139,0 h 1.318139 M 5.2725545,11.204179 h 1.318139 m 1.318139,0 h 3.9544155 m 1.318139,0 h 1.318139 m 2.636278,0 h 1.318139 m 5.272555,0 h 1.318139 m 3.954417,0 h 1.318139 m 1.318139,0 h 3.954416 m 1.318139,0 h 1.318139 M 5.2725545,12.522318 h 1.318139 m 6.5906935,0 h 1.318139 m 1.318139,0 h 3.954417 m 2.636277,0 h 2.636278 m 1.318139,0 h 1.318139 m 1.318139,0 h 1.318139 m 6.590694,0 h 1.318139 M 5.2725545,13.840457 h 9.2269715 m 1.318139,0 h 1.318139 m 1.318139,0 h 1.318139 m 1.318139,0 h 1.318138 m 1.318139,0 h 1.318139 m 1.318139,0 h 1.318139 m 1.318139,0 h 9.226972 m -17.135805,1.318139 h 1.318138 M 5.2725545,16.476735 h 1.318139 m 1.318139,0 h 1.318139 m 3.9544155,0 h 2.636278 m 1.318139,0 h 2.636278 m 1.318139,0 h 1.318138 m 2.636278,0 h 2.636278 m 2.636278,0 h 1.318139 m 2.636277,0 h 1.318139 m 1.318139,0 h 1.318139 M 5.2725545,17.794873 h 2.636278 m 6.5906935,0 h 2.636278 m 6.590694,0 h 5.272556 m 2.636278,0 h 2.636277 m 1.318139,0 h 2.636278 M 6.5906935,19.113012 h 1.318139 m 1.318139,0 h 5.2725545 m 1.318139,0 h 1.318139 m 1.318139,0 h 5.272555 m 1.318139,0 h 2.636278 m 2.636278,0 h 5.272555 m 1.318139,0 h 1.318139 M 7.9088325,20.431151 H 10.54511 m 5.272555,0 h 3.954417 m 1.318139,0 h 1.318138 m 5.272556,0 h 2.636278 m 2.636277,0 h 1.318139 M 5.2725545,21.74929 h 1.318139 m 1.318139,0 h 1.318139 m 3.9544155,0 h 1.318139 m 1.318139,0 h 2.636278 m 2.636278,0 h 1.318138 m 3.954417,0 h 2.636278 m 7.908833,0 h 1.318139 M 10.54511,23.067429 h 1.318138 m 2.636278,0 h 1.318139 m 5.272556,0 h 1.318138 m 2.636278,0 h 2.636278 m 1.318139,0 h 3.954416 m 2.636278,0 h 2.636278 M 5.2725545,24.385568 h 3.954417 m 1.3181385,0 h 1.318138 m 1.318139,0 h 1.318139 m 1.318139,0 h 2.636278 m 2.636278,0 h 2.636277 m 1.318139,0 h 1.318139 m 2.636278,0 h 1.318139 m 2.636277,0 h 2.636278 m 1.318139,0 h 1.318139 M 10.54511,25.703707 h 2.636277 m 5.272556,0 h 3.954416 m 1.318139,0 h 2.636278 m 1.318139,0 h 1.318139 m 1.318139,0 h 3.954416 M 5.2725545,27.021845 h 3.954417 m 1.3181385,0 h 3.954416 m 1.318139,0 h 1.318139 m 1.318139,0 h 1.318139 m 5.272555,0 h 7.908833 m 2.636278,0 h 1.318139 m -21.090222,1.318139 h 2.636278 m 3.954416,0 h 1.318139 m 1.318139,0 h 2.636278 m 3.954417,0 h 1.318138 m 3.954417,0 h 1.318139 M 5.2725545,29.658123 h 9.2269715 m 1.318139,0 h 1.318139 m 2.636278,0 h 1.318139 m 1.318138,0 h 1.318139 m 2.636278,0 h 1.318139 m 1.318139,0 h 1.318139 m 1.318139,0 h 1.318138 m 3.954417,0 h 1.318139 M 5.2725545,30.976262 h 1.318139 m 6.5906935,0 h 1.318139 m 2.636278,0 h 1.318139 m 6.590694,0 h 2.636278 m 3.954417,0 h 1.318138 m 3.954417,0 h 1.318139 M 5.2725545,32.294401 h 1.318139 m 1.318139,0 h 3.9544155 m 1.318139,0 h 1.318139 m 5.272556,0 H 32.95347 m 3.954417,0 h 1.318139 M 5.2725545,33.61254 h 1.318139 m 1.318139,0 h 3.9544155 m 1.318139,0 h 1.318139 m 3.954417,0 h 1.318139 m 1.318139,0 h 1.318138 m 3.954417,0 h 1.318139 m 1.318139,0 h 1.318139 m 1.318139,0 h 1.318138 m 1.318139,0 h 2.636278 M 5.2725545,34.930679 h 1.318139 m 1.318139,0 h 3.9544155 m 1.318139,0 h 1.318139 m 1.318139,0 h 3.954417 m 1.318139,0 h 3.954416 m 2.636278,0 h 1.318139 m 1.318139,0 h 3.954416 m 1.318139,0 h 2.636278 M 5.2725545,36.248818 h 1.318139 m 6.5906935,0 h 1.318139 m 2.636278,0 h 5.272555 m 3.954417,0 h 1.318139 m 1.318139,0 H 32.95347 M 5.2725545,37.566956 h 9.2269715 m 1.318139,0 h 2.636278 m 2.636278,0 h 6.590694 m 1.318139,0 h 1.318139 m 2.636277,0 h 1.318139 m 2.636278,0 h 1.318139"
     id="path1"
     style="stroke-width:1.31814" />
  <rect
     style="fill:#ff0000;fill-opacity:0.556863;stroke-width:0.43938"
     id="rect76"
     width="1.3181388"
     height="2.6362777"
     x="27.680916"
     y="11.863251" />
  <g
     inkscape:groupmode="layer"
     id="layer1"
     inkscape:label="F.Mask"
     style="fill:#ff0000;fill-opacity:0.556863"
     transform="translate(-27.75071,-27.75071)">
    <rect
       style="fill:#ff0000;fill-opacity:0.556863;stroke-width:0.43938"
       id="rect1"
       width="43.498581"
       height="5.2725554"
       x="27.75071"
       y="27.75071" />
    <rect
       style="fill:#ff0000;fill-opacity:0.556863;stroke-width:0.43938"
       id="rect2"
       width="5.2725554"
       height="38.226028"
       x="27.75071"
       y="33.023266" />
    <rect
       style="fill:#ff0000;fill-opacity:0.556863;stroke-width:0.43938"
       id="rect3"
       width="38.226028"
       height="5.2725554"
       x="33.023266"
       y="65.976738" />
    <rect
       style="fill:#ff0000;fill-opacity:0.556863;stroke-width:0.43938"
       id="rect4"
       width="5.2725554"
       height="32.953472"
       x="65.976738"
       y="33.023266" />
    <rect
       style="fill:#ff0000;fill-opacity:0.556863;stroke-width:0.43938"
       id="rect5"
       width="6.5906944"
       height="2.6362777"
       x="50.159069"
       y="33.023266" />
    <rect
       style="fill:#ff0000;fill-opacity:0.556863;stroke-width:0.43938"
       id="rect6"
       width="2.6362777"
       height="3.9544165"
       x="54.113487"
       y="35.659542" />
    <rect
       style="fill:#ff0000;fill-opacity:0.556863;stroke-width:0.43938"
       id="rect7"
       width="15.817666"
       height="1.3181388"
       x="50.159069"
       y="42.250237" />
    <rect
       style="fill:#ff0000;fill-opacity:0.556863;stroke-width:0.43938"
       id="rect8"
       width="15.817666"
       height="1.3181388"
       x="33.023266"
       y="42.250237" />
    <rect
       style="fill:#ff0000;fill-opacity:0.556863;stroke-width:0.43938"
       id="rect9"
       width="3.9544165"
       height="2.6362777"
       x="36.97768"
       y="43.568375" />
    <rect
       style="fill:#ff0000;fill-opacity:0.556863;stroke-width:0.43938"
       id="rect10"
       width="3.9544165"
       height="5.2725554"
       x="60.704182"
       y="55.431625" />
    <rect
       style="fill:#ff0000;fill-opacity:0.556863;stroke-width:0.43938"
       id="rect11"
       width="3.9544165"
       height="2.6362777"
       x="42.250237"
       y="59.38604" />
    <rect
       style="fill:#ff0000;fill-opacity:0.556863;stroke-width:0.43938"
       id="rect12"
       width="2.6362777"
       height="2.6362777"
       x="62.02232"
       y="63.340458" />
    <rect
       style="fill:#ff0000;fill-opacity:0.556863;stroke-width:0.43938"
       id="rect13"
       width="3.9544165"
       height="2.6362777"
       x="50.159069"
       y="47.522793" />
    <rect
       style="fill:#ff0000;fill-opacity:0.556863;stroke-width:0.43938"
       id="rect14"
       width="7.908833"
       height="1.3181388"
       x="56.749763"
       y="48.840931" />
    <rect
       style="fill:#ff0000;fill-opacity:0.556863;stroke-width:0.43938"
       id="rect15"
       width="10.545111"
       height="1.3181388"
       x="33.023266"
       y="55.431625" />
    <rect
       style="fill:#ff0000;fill-opacity:0.556863;stroke-width:0.43938"
       id="rect16"
       width="1.3181388"
       height="3.9544165"
       x="42.250237"
       y="51.477207" />
    <rect
       style="fill:#ff0000;fill-opacity:0.556863;stroke-width:0.43938"
       id="rect17"
       width="1.3181388"
       height="2.6362777"
       x="42.250237"
       y="56.749763" />
    <rect
       style="fill:#ff0000;fill-opacity:0.556863;stroke-width:0.43938"
       id="rect18"
       width="1.3181388"
       height="3.9544165"
       x="42.250237"
       y="62.02232" />
    <rect
       style="fill:#ff0000;fill-opacity:0.556863;stroke-width:0.43938"
       id="rect19"
       width="2.6362777"
       height="1.3181388"
       x="46.204655"
       y="64.6586" />
    <rect
       style="fill:#ff0000;fill-opacity:0.556863;stroke-width:0.43938"
       id="rect20"
       width="2.6362777"
       height="1.3181388"
       x="58.067902"
       y="64.6586" />
    <rect
       style="fill:#ff0000;fill-opacity:0.556863;stroke-width:0.43938"
       id="rect21"
       width="1.3181388"
       height="2.6362777"
       x="55.431625"
       y="63.340458" />
    <rect
       style="fill:#ff0000;fill-opacity:0.556863;stroke-width:0.43938"
       id="rect22"
       width="5.2725554"
       height="1.3181388"
       x="47.522793"
       y="58.067902" />
    <rect
       style="fill:#ff0000;fill-opacity:0.556863;stroke-width:0.43938"
       id="rect23"
       width="1.3181388"
       height="5.2725554"
       x="46.204655"
       y="55.431625" />
    <rect
       style="fill:#ff0000;fill-opacity:0.556863;stroke-width:0.43938"
       id="rect24"
       width="5.2725554"
       height="1.3181388"
       x="47.522793"
       y="54.113487" />
    <rect
       style="fill:#ff0000;fill-opacity:0.556863;stroke-width:0.43938"
       id="rect25"
       width="2.6362777"
       height="3.9544165"
       x="46.204655"
       y="48.840931" />
    <rect
       style="fill:#ff0000;fill-opacity:0.556863;stroke-width:0.43938"
       id="rect26"
       width="1.3181388"
       height="1.3181388"
       x="47.522793"
       y="47.522793" />
    <rect
       style="fill:#ff0000;fill-opacity:0.556863;stroke-width:0.43938"
       id="rect27"
       width="2.6362777"
       height="1.3181388"
       x="43.568375"
       y="50.159069" />
    <rect
       style="fill:#ff0000;fill-opacity:0.556863;stroke-width:0.43938"
       id="rect28"
       width="2.6362777"
       height="1.3181388"
       x="43.568375"
       y="52.795345" />
    <rect
       style="fill:#ff0000;fill-opacity:0.556863;stroke-width:0.43938"
       id="rect29"
       width="1.3181388"
       height="1.3181388"
       x="44.886513"
       y="54.113487" />
    <rect
       style="fill:#ff0000;fill-opacity:0.556863;stroke-width:0.43938"
       id="rect33"
       width="1.3181388"
       height="9.2269716"
       x="42.250237"
       y="33.023266" />
    <rect
       style="fill:#ff0000;fill-opacity:0.556863;stroke-width:0.43938"
       id="rect34"
       width="5.2725554"
       height="1.3181388"
       x="46.204655"
       y="38.295818" />
    <rect
       style="fill:#ff0000;fill-opacity:0.556863;stroke-width:0.43938"
       id="rect35"
       width="3.9544165"
       height="1.3181388"
       x="46.204655"
       y="35.659542" />
    <rect
       style="fill:#ff0000;fill-opacity:0.556863;stroke-width:0.43938"
       id="rect36"
       width="1.3181388"
       height="5.2725554"
       x="52.795345"
       y="36.97768" />
    <rect
       style="fill:#ff0000;fill-opacity:0.556863;stroke-width:0.43938"
       id="rect37"
       width="1.3181388"
       height="2.6362777"
       x="51.477207"
       y="35.659542" />
    <rect
       style="fill:#ff0000;fill-opacity:0.556863;stroke-width:0.43938"
       id="rect38"
       width="6.5906944"
       height="1.3181388"
       x="58.067902"
       y="34.341404" />
    <rect
       style="fill:#ff0000;fill-opacity:0.556863;stroke-width:0.43938"
       id="rect39"
       width="6.5906944"
       height="1.3181388"
       x="58.067902"
       y="39.61396" />
    <rect
       style="fill:#ff0000;fill-opacity:0.556863;stroke-width:0.43938"
       id="rect40"
       width="1.3181388"
       height="3.9544165"
       x="58.067902"
       y="35.659542" />
    <rect
       style="fill:#ff0000;fill-opacity:0.556863;stroke-width:0.43938"
       id="rect41"
       width="1.3181388"
       height="3.9544165"
       x="63.340458"
       y="35.659542" />
    <rect
       style="fill:#ff0000;fill-opacity:0.556863;stroke-width:0.43938"
       id="rect42"
       width="6.5906944"
       height="1.3181388"
       x="34.341404"
       y="34.341404" />
    <rect
       style="fill:#ff0000;fill-opacity:0.556863;stroke-width:0.43938"
       id="rect43"
       width="6.5906944"
       height="1.3181388"
       x="34.341404"
       y="39.61396" />
    <rect
       style="fill:#ff0000;fill-opacity:0.556863;stroke-width:0.43938"
       id="rect44"
       width="1.3181388"
       height="3.9544165"
       x="34.341404"
       y="35.659542" />
    <rect
       style="fill:#ff0000;fill-opacity:0.556863;stroke-width:0.43938"
       id="rect45"
       width="1.3181388"
       height="3.9544165"
       x="39.61396"
       y="35.659542" />
    <rect
       style="fill:#ff0000;fill-opacity:0.556863;stroke-width:0.43938"
       id="rect46"
       width="6.5906944"
       height="1.3181388"
       x="34.341404"
       y="58.067902" />
    <rect
       style="fill:#ff0000;fill-opacity:0.556863;stroke-width:0.43938"
       id="rect47"
       width="6.5906944"
       height="1.3181388"
       x="34.341404"
       y="63.340458" />
    <rect
       style="fill:#ff0000;fill-opacity:0.556863;stroke-width:0.43938"
       id="rect48"
       width="1.3181388"
       height="3.9544165"
       x="34.341404"
       y="59.38604" />
    <rect
       style="fill:#ff0000;fill-opacity:0.556863;stroke-width:0.43938"
       id="rect49"
       width="1.3181388"
       height="3.9544165"
       x="39.61396"
       y="59.38604" />
    <rect
       style="fill:#ff0000;fill-opacity:0.556863;stroke-width:0.43938"
       id="rect50"
       width="3.9544165"
       height="1.3181388"
       x="55.431625"
       y="55.431625" />
    <rect
       style="fill:#ff0000;fill-opacity:0.556863;stroke-width:0.43938"
       id="rect51"
       width="3.9544165"
       height="1.3181388"
       x="55.431625"
       y="58.067902" />
    <rect
       style="fill:#ff0000;fill-opacity:0.556863;stroke-width:0.43938"
       id="rect52"
       width="1.3181388"
       height="1.3181388"
       x="55.431625"
       y="56.749763" />
    <rect
       style="fill:#ff0000;fill-opacity:0.556863;stroke-width:0.43938"
       id="rect53"
       width="1.3181388"
       height="1.3181388"
       x="58.067902"
       y="56.749763" />
    <rect
       style="fill:#ff0000;fill-opacity:0.556863;stroke-width:0.43938"
       id="rect54"
       width="3.9544165"
       height="1.3181388"
       x="62.02232"
       y="52.795345" />
    <rect
       style="fill:#ff0000;fill-opacity:0.556863;stroke-width:0.43938"
       id="rect55"
       width="2.6362777"
       height="1.3181388"
       x="60.704182"
       y="54.113487" />
    <rect
       style="fill:#ff0000;fill-opacity:0.556863;stroke-width:0.43938"
       id="rect56"
       width="1.3181388"
       height="1.3181388"
       x="64.6586"
       y="54.113487" />
    <rect
       style="fill:#ff0000;fill-opacity:0.556863;stroke-width:0.43938"
       id="rect57"
       width="3.9544165"
       height="1.3181388"
       x="62.02232"
       y="47.522793" />
    <rect
       style="fill:#ff0000;fill-opacity:0.556863;stroke-width:0.43938"
       id="rect58"
       width="2.6362777"
       height="1.3181388"
       x="60.704182"
       y="50.159069" />
    <rect
       style="fill:#ff0000;fill-opacity:0.556863;stroke-width:0.43938"
       id="rect59"
       width="2.6362777"
       height="1.3181388"
       x="58.067902"
       y="51.477207" />
    <rect
       style="fill:#ff0000;fill-opacity:0.556863;stroke-width:0.43938"
       id="rect60"
       width="1.3181388"
       height="2.6362777"
       x="55.431625"
       y="50.159069" />
    <rect
       style="fill:#ff0000;fill-opacity:0.556863;stroke-width:0.43938"
       id="rect61"
       width="1.3181388"
       height="2.6362777"
       x="54.113487"
       y="51.477207" />
    <rect
       style="fill:#ff0000;fill-opacity:0.556863;stroke-width:0.43938"
       id="rect62"
       width="2.6362777"
       height="1.3181388"
       x="50.159069"
       y="50.159069" />
    <rect
       style="fill:#ff0000;fill-opacity:0.556863;stroke-width:0.43938"
       id="rect63"
       width="2.6362777"
       height="2.6362777"
       x="38.295818"
       y="47.522793" />
    <rect
       style="fill:#ff0000;fill-opacity:0.556863;stroke-width:0.43938"
       id="rect64"
       width="1.3181388"
       height="3.9544165"
       x="42.250237"
       y="46.204655" />
    <rect
       style="fill:#ff0000;fill-opacity:0.556863;stroke-width:0.43938"
       id="rect65"
       width="1.3181388"
       height="1.3181388"
       x="40.932098"
       y="47.522793" />
    <rect
       style="fill:#ff0000;fill-opacity:0.556863;stroke-width:0.43938"
       id="rect66"
       width="2.6362777"
       height="1.3181388"
       x="39.61396"
       y="50.159069" />
    <rect
       style="fill:#ff0000;fill-opacity:0.556863;stroke-width:0.43938"
       id="rect67"
       width="1.3181388"
       height="1.3181388"
       x="39.61396"
       y="51.477207" />
    <rect
       style="fill:#ff0000;fill-opacity:0.556863;stroke-width:0.43938"
       id="rect68"
       width="1.3181388"
       height="1.3181388"
       x="40.932098"
       y="52.795345" />
    <rect
       style="fill:#ff0000;fill-opacity:0.556863;stroke-width:0.43938"
       id="rect69"
       width="3.9544165"
       height="1.3181388"
       x="33.023266"
       y="50.159069" />
    <rect
       style="fill:#ff0000;fill-opacity:0.556863;stroke-width:0.43938"
       id="rect70"
       width="1.3181388"
       height="6.5906944"
       x="36.97768"
       y="48.840931" />
    <rect
       style="fill:#ff0000;fill-opacity:0.556863;stroke-width:0.43938"
       id="rect78"
       width="3.9544165"
       height="1.3181388"
       x="50.159069"
       y="63.340458" />
    <rect
       style="fill:#ff0000;fill-opacity:0.556863;stroke-width:0.43938"
       id="rect71"
       width="3.9544165"
       height="1.3181388"
       x="33.023266"
       y="52.795345" />
    <rect
       style="fill:#ff0000;fill-opacity:0.556863;stroke-width:0.43938"
       id="rect72"
       width="1.3181388"
       height="2.6362777"
       x="34.341404"
       y="47.522793" />
    <rect
       style="fill:#ff0000;fill-opacity:0.556863;stroke-width:0.43938"
       id="rect73"
       width="1.3181388"
       height="2.6362777"
       x="33.023266"
       y="46.204655" />
    <rect
       style="fill:#ff0000;fill-opacity:0.556863;stroke-width:0.43938"
       id="rect74"
       width="1.3181388"
       height="2.6362777"
       x="35.659542"
       y="44.886513" />
    <rect
       style="fill:#ff0000;fill-opacity:0.556863;stroke-width:0.43938"
       id="rect75"
       width="6.5906944"
       height="1.3181388"
       x="44.886513"
       y="44.886513" />
    <rect
       style="fill:#ff0000;fill-opacity:0.556863;stroke-width:0.43938"
       id="rect79"
       width="1.3181388"
       height="3.9544165"
       x="56.749763"
       y="43.568375" />
    <rect
       style="fill:#ff0000;fill-opacity:0.556863;stroke-width:0.43938"
       id="rect81"
       width="1.3181388"
       height="2.6362777"
       x="48.840931"
       y="55.431625" />
    <rect
       style="fill:#ff0000;fill-opacity:0.556863;stroke-width:0.43938"
       id="rect82"
       width="3.9544165"
       height="1.3181388"
       x="50.159069"
       y="60.704182" />
    <rect
       style="fill:#ff0000;fill-opacity:0.556863;stroke-width:0.43938"
       id="rect83"
       width="2.6362777"
       height="1.3181388"
       x="44.886513"
       y="33.023266" />
    <rect
       style="fill:#ff0000;fill-opacity:0.556863;stroke-width:0.43938"
       id="rect84"
       width="1.3181388"
       height="1.3181388"
       x="48.840931"
       y="33.023266" />
    <rect
       style="fill:#ff0000;fill-opacity:0.556863;stroke-width:0.43938"
       id="rect85"
       width="1.3181388"
       height="1.3181388"
       x="46.204655"
       y="36.97768" />
    <rect
       style="fill:#ff0000;fill-opacity:0.556863;stroke-width:0.43938"
       id="rect86"
       width="1.3181388"
       height="1.3181388"
       x="48.840931"
       y="36.97768" />
    <rect
       style="fill:#ff0000;fill-opacity:0.556863;stroke-width:0.43938"
       id="rect87"
       width="2.6362777"
       height="1.3181388"
       x="47.522793"
       y="39.61396" />
    <rect
       style="fill:#ff0000;fill-opacity:0.556863;stroke-width:0.43938"
       id="rect88"
       width="1.3181388"
       height="1.3181388"
       x="47.522793"
       y="40.932098" />
    <rect
       style="fill:#ff0000;fill-opacity:0.556863;stroke-width:0.43938"
       id="rect89"
       width="1.3181388"
       height="1.3181388"
       x="50.159069"
       y="40.932098" />
    <rect
       style="fill:#ff0000;fill-opacity:0.556863;stroke-width:0.43938"
       id="rect90"
       width="1.3181388"
       height="1.3181388"
       x="47.522793"
       y="43.568375" />
    <rect
       style="fill:#ff0000;fill-opacity:0.556863;stroke-width:0.43938"
       id="rect91"
       width="2.6362777"
       height="1.3181388"
       x="50.159069"
       y="43.568375" />
    <rect
       style="fill:#ff0000;fill-opacity:0.556863;stroke-width:0.43938"
       id="rect92"
       width="2.6362777"
       height="1.3181388"
       x="59.38604"
       y="43.568375" />
    <rect
       style="fill:#ff0000;fill-opacity:0.556863;stroke-width:0.43938"
       id="rect93"
       width="2.6362777"
       height="1.3181388"
       x="58.067902"
       y="47.522793" />
    <rect
       style="fill:#ff0000;fill-opacity:0.556863;stroke-width:0.43938"
       id="rect94"
       width="2.6362777"
       height="1.3181388"
       x="51.477207"
       y="56.749763" />
    <rect
       style="fill:#ff0000;fill-opacity:0.556863;stroke-width:0.43938"
       id="rect95"
       width="1.3181388"
       height="1.3181388"
       x="51.477207"
       y="55.431625" />
    <rect
       style="fill:#ff0000;fill-opacity:0.556863;stroke-width:0.43938"
       id="rect96"
       width="1.3181388"
       height="2.6362777"
       x="47.522793"
       y="60.704182" />
    <rect
       style="fill:#ff0000;fill-opacity:0.556863;stroke-width:0.43938"
       id="rect97"
       width="2.6362777"
       height="1.3181388"
       x="52.795345"
       y="62.02232" />
    <rect
       style="fill:#ff0000;fill-opacity:0.556863;stroke-width:0.43938"
       id="rect98"
       width="1.3181388"
       height="2.6362777"
       x="43.568375"
       y="36.97768" />
    <rect
       style="fill:#ff0000;fill-opacity:0.556863;stroke-width:0.43938"
       id="rect99"
       width="1.3181388"
       height="1.3181388"
       x="43.568375"
       y="34.341404" />
    <rect
       style="fill:#ff0000;fill-opacity:0.556863;stroke-width:0.43938"
       id="rect100"
       width="1.3181388"
       height="1.3181388"
       x="34.341404"
       y="43.568375" />
    <rect
       style="fill:#ff0000;fill-opacity:0.556863;stroke-width:0.43938"
       id="rect101"
       width="1.3181388"
       height="1.3181388"
       x="44.886513"
       y="40.932098" />
    <rect
       style="fill:#ff0000;fill-opacity:0.556863;stroke-width:0.43938"
       id="rect102"
       width="1.3181388"
       height="1.3181388"
       x="43.568375"
       y="43.568375" />
    <rect
       style="fill:#ff0000;fill-opacity:0.556863;stroke-width:0.43938"
       id="rect103"
       width="1.3181388"
       height="1.3181388"
       x="40.932098"
       y="44.886513" />
    <rect
       style="fill:#ff0000;fill-opacity:0.556863;stroke-width:0.43938"
       id="rect104"
       width="1.3181388"
       height="1.3181388"
       x="44.886513"
       y="46.204655" />
    <rect
       style="fill:#ff0000;fill-opacity:0.556863;stroke-width:0.43938"
       id="rect105"
       width="1.3181388"
       height="1.3181388"
       x="55.431625"
       y="43.568375" />
    <rect
       style="fill:#ff0000;fill-opacity:0.556863;stroke-width:0.43938"
       id="rect106"
       width="1.3181388"
       height="1.3181388"
       x="51.477207"
       y="46.204655" />
    <rect
       style="fill:#ff0000;fill-opacity:0.556863;stroke-width:0.43938"
       id="rect107"
       width="1.3181388"
       height="1.3181388"
       x="55.431625"
       y="46.204655" />
    <rect
       style="fill:#ff0000;fill-opacity:0.556863;stroke-width:0.43938"
       id="rect108"
       width="1.3181388"
       height="1.3181388"
       x="58.067902"
       y="44.886513" />
    <rect
       style="fill:#ff0000;fill-opacity:0.556863;stroke-width:0.43938"
       id="rect109"
       width="1.3181388"
       height="1.3181388"
       x="63.340458"
       y="43.568375" />
    <rect
       style="fill:#ff0000;fill-opacity:0.556863;stroke-width:0.43938"
       id="rect110"
       width="1.3181388"
       height="1.3181388"
       x="62.02232"
       y="44.886513" />
    <rect
       style="fill:#ff0000;fill-opacity:0.556863;stroke-width:0.43938"
       id="rect112"
       width="1.3181388"
       height="1.3181388"
       x="63.340458"
       y="46.204655" />
    <rect
       style="fill:#ff0000;fill-opacity:0.556863;stroke-width:0.43938"
       id="rect113"
       width="1.3181388"
       height="1.3181388"
       x="63.340458"
       y="51.477207" />
    <rect
       style="fill:#ff0000;fill-opacity:0.556863;stroke-width:0.43938"
       id="rect114"
       width="1.3181388"
       height="1.3181388"
       x="64.6586"
       y="60.704182" />
    <rect
       style="fill:#ff0000;fill-opacity:0.556863;stroke-width:0.43938"
       id="rect115"
       width="1.3181388"
       height="1.3181388"
       x="64.6586"
       y="63.340458" />
    <rect
       style="fill:#ff0000;fill-opacity:0.556863;stroke-width:0.43938"
       id="rect116"
       width="1.3181388"
       height="1.3181388"
       x="62.02232"
       y="62.02232" />
    <rect
       style="fill:#ff0000;fill-opacity:0.556863;stroke-width:0.43938"
       id="rect117"
       width="1.3181388"
       height="1.3181388"
       x="60.704182"
       y="63.340458" />
    <rect
       style="fill:#ff0000;fill-opacity:0.556863;stroke-width:0.43938"
       id="rect118"
       width="1.3181388"
       height="1.3181388"
       x="60.704182"
       y="60.704182" />
    <rect
       style="fill:#ff0000;fill-opacity:0.556863;stroke-width:0.43938"
       id="rect119"
       width="1.3181388"
       height="1.3181388"
       x="58.067902"
       y="60.704182" />
    <rect
       style="fill:#ff0000;fill-opacity:0.556863;stroke-width:0.43938"
       id="rect120"
       width="1.3181388"
       height="1.3181388"
       x="56.749763"
       y="62.02232" />
    <rect
       style="fill:#ff0000;fill-opacity:0.556863;stroke-width:0.43938"
       id="rect121"
       width="1.3181388"
       height="1.3181388"
       x="55.431625"
       y="60.704182" />
    <rect
       style="fill:#ff0000;fill-opacity:0.556863;stroke-width:0.43938"
       id="rect122"
       width="1.3181388"
       height="1.3181388"
       x="43.568375"
       y="63.340458" />
    <rect
       style="fill:#ff0000;fill-opacity:0.556863;stroke-width:0.43938"
       id="rect124"
       width="1.3181388"
       height="1.3181388"
       x="43.568375"
       y="58.067902" />
    <rect
       style="fill:#ff0000;fill-opacity:0.556863;stroke-width:0.43938"
       id="rect125"
       width="1.3181388"
       height="1.3181388"
       x="44.886513"
       y="56.749763" />
    <rect
       style="fill:#ff0000;fill-opacity:0.556863;stroke-width:0.43938"
       id="rect126"
       width="1.3181388"
       height="1.3181388"
       x="47.522793"
       y="55.431625" />
    <rect
       style="fill:#ff0000;fill-opacity:0.556863;stroke-width:0.43938"
       id="rect127"
       width="1.3181388"
       height="1.3181388"
       x="50.159069"
       y="52.795345" />
    <rect
       style="fill:#ff0000;fill-opacity:0.556863;stroke-width:0.43938"
       id="rect128"
       width="1.3181388"
       height="1.3181388"
       x="51.477207"
       y="51.477207" />
    <rect
       style="fill:#ff0000;fill-opacity:0.556863;stroke-width:0.43938"
       id="rect129"
       width="1.3181388"
       height="1.3181388"
       x="54.113487"
       y="47.522793" />
    <rect
       style="fill:#ff0000;fill-opacity:0.556863;stroke-width:0.43938"
       id="rect130"
       width="1.3181388"
       height="1.3181388"
       x="56.749763"
       y="52.795345" />
  </g>
</svg>
