M48
; DRILL file {KiCad (6.0.5-22-g43b8adad1a)} date Mon 30 May 2022 09:51:28 PM PDT
; FORMAT={-:-/ absolute / metric / decimal}
; #@! TF.CreationDate,2022-05-30T21:51:28-07:00
; #@! TF.GenerationSoftware,Kicad,Pcbnew,(6.0.5-22-g43b8adad1a)
; #@! TF.FileFunction,Plated,1,2,PTH
FMAT,2
METRIC
; #@! TA.AperFunction,Plated,PTH,ViaDrill
T1C0.400
; #@! TA.AperFunction,Plated,PTH,ComponentDrill
T2C0.760
%
G90
G05
T1
X68.076Y-115.32
X69.342Y-114.046
X74.93Y-131.45
X75.946Y-115.062
X77.724Y-115.062
X85.852Y-105.918
X97.79Y-104.14
X97.79Y-106.68
X97.79Y-109.22
X97.79Y-111.76
X97.79Y-114.3
X97.79Y-116.84
X97.79Y-119.38
X97.79Y-121.92
X97.79Y-124.46
T2
X55.86Y-111.287
X55.86Y-113.828
X55.86Y-116.367
X55.86Y-118.907
X58.4Y-110.017
X58.4Y-112.557
X58.4Y-115.097
X58.4Y-117.637
X70.0Y-94.62
X70.0Y-97.16
X70.0Y-99.7
X70.0Y-130.18
X70.0Y-132.72
X70.0Y-135.26
X72.54Y-93.35
X72.54Y-95.89
X72.54Y-98.43
X72.54Y-128.91
X72.54Y-131.45
X72.54Y-133.99
X79.37Y-95.4
X79.37Y-108.1
X79.38Y-117.96
X79.38Y-130.66
X80.64Y-97.94
X80.64Y-110.64
X80.65Y-120.5
X80.65Y-133.2
X81.91Y-95.4
X81.91Y-108.1
X81.92Y-117.96
X81.92Y-130.66
X83.18Y-97.94
X83.18Y-110.64
X83.19Y-120.5
X83.19Y-133.2
X84.45Y-95.4
X84.45Y-108.1
X84.46Y-117.96
X84.46Y-130.66
X85.72Y-97.94
X85.72Y-110.64
X85.73Y-120.5
X85.73Y-133.2
T0
M30
