%TF.GenerationSoftware,KiCad,Pcbnew,10.0.3*%
%TF.CreationDate,2026-06-11T16:18:45-07:00*%
%TF.ProjectId,shadystake,73686164-7973-4746-916b-652e6b696361,rev?*%
%TF.SameCoordinates,Original*%
%TF.FileFunction,Copper,L2,Bot*%
%TF.FilePolarity,Positive*%
%FSLAX46Y46*%
G04 Gerber Fmt 4.6, Leading zero omitted, Abs format (unit mm)*
G04 Created by KiCad (PCBNEW 10.0.3) date 2026-06-11 16:18:45*
%MOMM*%
%LPD*%
G01*
G04 APERTURE LIST*
G04 Aperture macros list*
%AMRoundRect*
0 Rectangle with rounded corners*
0 $1 Rounding radius*
0 $2 $3 $4 $5 $6 $7 $8 $9 X,Y pos of 4 corners*
0 Add a 4 corners polygon primitive as box body*
4,1,4,$2,$3,$4,$5,$6,$7,$8,$9,$2,$3,0*
0 Add four circle primitives for the rounded corners*
1,1,$1+$1,$2,$3*
1,1,$1+$1,$4,$5*
1,1,$1+$1,$6,$7*
1,1,$1+$1,$8,$9*
0 Add four rect primitives between the rounded corners*
20,1,$1+$1,$2,$3,$4,$5,0*
20,1,$1+$1,$4,$5,$6,$7,0*
20,1,$1+$1,$6,$7,$8,$9,0*
20,1,$1+$1,$8,$9,$2,$3,0*%
%AMFreePoly0*
4,1,27,1.500000,-1.999999,0.369193,-1.995718,0.109819,-1.961571,-0.142880,-1.893861,-0.384576,-1.793745,-0.611140,-1.662939,-0.818692,-1.503680,-1.003680,-1.318692,-1.162938,-1.111141,-1.293745,-0.884577,-1.393859,-0.642879,-1.461572,-0.390181,-1.495717,-0.130806,-1.495716,0.130806,-1.461572,0.390181,-1.393860,0.642879,-1.293745,0.884578,-1.162939,1.111140,-1.003680,1.318692,-0.818692,1.503681,
-0.611140,1.662939,-0.384577,1.793745,-0.142879,1.893861,0.109819,1.961571,0.369194,1.995717,1.500000,1.995717,1.500000,-1.999999,1.500000,-1.999999,$1*%
G04 Aperture macros list end*
%TA.AperFunction,EtchedComponent*%
%ADD10C,0.000000*%
%TD*%
%TA.AperFunction,EtchedComponent*%
%ADD11C,0.008731*%
%TD*%
%TA.AperFunction,ComponentPad*%
%ADD12RoundRect,0.250000X0.510000X0.510000X-0.510000X0.510000X-0.510000X-0.510000X0.510000X-0.510000X0*%
%TD*%
%TA.AperFunction,ComponentPad*%
%ADD13C,1.520000*%
%TD*%
%TA.AperFunction,ComponentPad*%
%ADD14RoundRect,0.250000X-0.510000X-0.510000X0.510000X-0.510000X0.510000X0.510000X-0.510000X0.510000X0*%
%TD*%
%TA.AperFunction,ComponentPad*%
%ADD15R,1.500000X1.500000*%
%TD*%
%TA.AperFunction,ComponentPad*%
%ADD16C,1.500000*%
%TD*%
%TA.AperFunction,SMDPad,CuDef*%
%ADD17FreePoly0,338.500000*%
%TD*%
%TA.AperFunction,SMDPad,CuDef*%
%ADD18FreePoly0,206.500000*%
%TD*%
%TA.AperFunction,SMDPad,CuDef*%
%ADD19FreePoly0,338.000000*%
%TD*%
%TA.AperFunction,SMDPad,CuDef*%
%ADD20FreePoly0,214.000000*%
%TD*%
%TA.AperFunction,SMDPad,CuDef*%
%ADD21FreePoly0,327.500000*%
%TD*%
%TA.AperFunction,SMDPad,CuDef*%
%ADD22FreePoly0,201.500000*%
%TD*%
%TA.AperFunction,SMDPad,CuDef*%
%ADD23FreePoly0,335.000000*%
%TD*%
%TA.AperFunction,SMDPad,CuDef*%
%ADD24FreePoly0,199.500000*%
%TD*%
%TA.AperFunction,Conductor*%
%ADD25C,0.457200*%
%TD*%
%TA.AperFunction,Conductor*%
%ADD26C,0.152400*%
%TD*%
G04 APERTURE END LIST*
D10*
%TA.AperFunction,EtchedComponent*%
G36*
X77624816Y-110655358D02*
G01*
X77208782Y-110655358D01*
X77418363Y-110226811D01*
X77624816Y-110655358D01*
G37*
%TD.AperFunction*%
%TA.AperFunction,EtchedComponent*%
G36*
X88677163Y-106672344D02*
G01*
X88254888Y-106672344D01*
X88467613Y-106237369D01*
X88677163Y-106672344D01*
G37*
%TD.AperFunction*%
%TA.AperFunction,EtchedComponent*%
G36*
X100112575Y-110655358D02*
G01*
X99696541Y-110655358D01*
X99906122Y-110226811D01*
X100112575Y-110655358D01*
G37*
%TD.AperFunction*%
%TA.AperFunction,EtchedComponent*%
G36*
X70830629Y-110420752D02*
G01*
X70430235Y-110420752D01*
X70248807Y-110351934D01*
X70158092Y-110145481D01*
X70248807Y-109937464D01*
X70436491Y-109867082D01*
X70830629Y-109867082D01*
X70830629Y-110420752D01*
G37*
%TD.AperFunction*%
%TA.AperFunction,EtchedComponent*%
G36*
X79908314Y-110420752D02*
G01*
X79507920Y-110420752D01*
X79326491Y-110351934D01*
X79235777Y-110145481D01*
X79326491Y-109937464D01*
X79514176Y-109867082D01*
X79908314Y-109867082D01*
X79908314Y-110420752D01*
G37*
%TD.AperFunction*%
%TA.AperFunction,EtchedComponent*%
G36*
X83880974Y-110420752D02*
G01*
X83486836Y-110420752D01*
X83302279Y-110351934D01*
X83211565Y-110145481D01*
X83302279Y-109937464D01*
X83489964Y-109867082D01*
X83880974Y-109867082D01*
X83880974Y-110420752D01*
G37*
%TD.AperFunction*%
%TA.AperFunction,EtchedComponent*%
G36*
X72934262Y-109882332D02*
G01*
X73123511Y-110012538D01*
X73257236Y-110212344D01*
X73301812Y-110464545D01*
X73256845Y-110716747D01*
X73121947Y-110916553D01*
X72931525Y-111046759D01*
X72719989Y-111090161D01*
X72508844Y-111047932D01*
X72319595Y-110921245D01*
X72220539Y-110795774D01*
X72161105Y-110644584D01*
X72141294Y-110467673D01*
X72161279Y-110290416D01*
X72221234Y-110138182D01*
X72321159Y-110010974D01*
X72511581Y-109881941D01*
X72723117Y-109838929D01*
X72934262Y-109882332D01*
G37*
%TD.AperFunction*%
%TA.AperFunction,EtchedComponent*%
G36*
X85984607Y-109882332D02*
G01*
X86173856Y-110012538D01*
X86307581Y-110212344D01*
X86352156Y-110464545D01*
X86307190Y-110716747D01*
X86172292Y-110916553D01*
X85981870Y-111046759D01*
X85770334Y-111090161D01*
X85559188Y-111047932D01*
X85369940Y-110921245D01*
X85270884Y-110795774D01*
X85211450Y-110644584D01*
X85191639Y-110467673D01*
X85211624Y-110290416D01*
X85271579Y-110138182D01*
X85371504Y-110010974D01*
X85561925Y-109881941D01*
X85773462Y-109838929D01*
X85984607Y-109882332D01*
G37*
%TD.AperFunction*%
%TA.AperFunction,EtchedComponent*%
G36*
X96390826Y-105887722D02*
G01*
X96582913Y-106019882D01*
X96683455Y-106149175D01*
X96743780Y-106302104D01*
X96763888Y-106478669D01*
X96743604Y-106655234D01*
X96682750Y-106808163D01*
X96581326Y-106937457D01*
X96388048Y-107069616D01*
X96173338Y-107113669D01*
X95959026Y-107070807D01*
X95766938Y-106942219D01*
X95666397Y-106814866D01*
X95606072Y-106661408D01*
X95585963Y-106481844D01*
X95606248Y-106301927D01*
X95667102Y-106147411D01*
X95768526Y-106018294D01*
X95961804Y-105887325D01*
X96176513Y-105843669D01*
X96390826Y-105887722D01*
G37*
%TD.AperFunction*%
%TA.AperFunction,EtchedComponent*%
G36*
X103808270Y-112305289D02*
G01*
X103146812Y-112305289D01*
X101950321Y-112305289D01*
X99103770Y-112305289D01*
X97181565Y-112305289D01*
X95345383Y-112305289D01*
X93102550Y-112305289D01*
X90174669Y-112305289D01*
X88132033Y-112305289D01*
X87653226Y-112305289D01*
X85764078Y-112305289D01*
X84159373Y-112305289D01*
X80943708Y-112305289D01*
X80647588Y-112305289D01*
X79015247Y-112305289D01*
X78621938Y-112305289D01*
X76616011Y-112305289D01*
X75078560Y-112305289D01*
X72713733Y-112305289D01*
X69937563Y-112305289D01*
X69573188Y-112305289D01*
X68911730Y-112305289D01*
X68911730Y-111381072D01*
X69582526Y-111381072D01*
X69631011Y-111490555D01*
X69776467Y-111581269D01*
X69937563Y-111625063D01*
X70037661Y-111595346D01*
X70095531Y-111534348D01*
X70136543Y-111445024D01*
X70217873Y-111256297D01*
X70339521Y-110968166D01*
X70436491Y-110974422D01*
X70830629Y-110974422D01*
X70830629Y-111327895D01*
X70835321Y-111435814D01*
X70865038Y-111518708D01*
X70947932Y-111582051D01*
X71109028Y-111603166D01*
X71282637Y-111574231D01*
X71365531Y-111487427D01*
X71384299Y-111324767D01*
X71384299Y-110450469D01*
X71587624Y-110450469D01*
X71607957Y-110689180D01*
X71668954Y-110909514D01*
X71770617Y-111111471D01*
X71912945Y-111295050D01*
X72084989Y-111447642D01*
X72275802Y-111556636D01*
X72485383Y-111622032D01*
X72713733Y-111643831D01*
X72942571Y-111622325D01*
X73153619Y-111557809D01*
X73346875Y-111450281D01*
X73522341Y-111299742D01*
X73668090Y-111119487D01*
X73772196Y-110922809D01*
X73834660Y-110709708D01*
X73855481Y-110480186D01*
X73832021Y-110228766D01*
X73761639Y-109993769D01*
X73652156Y-109785361D01*
X73511393Y-109613708D01*
X73419160Y-109538634D01*
X73980605Y-109538634D01*
X73996245Y-109668449D01*
X74049422Y-109735703D01*
X74208954Y-109763856D01*
X74806417Y-109763856D01*
X74806417Y-111337279D01*
X74811110Y-111443634D01*
X74839262Y-111523400D01*
X74922156Y-111587526D01*
X75078560Y-111606294D01*
X75233400Y-111587526D01*
X75314730Y-111523400D01*
X75342883Y-111442070D01*
X75345535Y-111381072D01*
X76267230Y-111381072D01*
X76312587Y-111488209D01*
X76448659Y-111584397D01*
X76616011Y-111637575D01*
X76716110Y-111609422D01*
X76772415Y-111549989D01*
X76820900Y-111456146D01*
X76983560Y-111118314D01*
X77850038Y-111118314D01*
X78012698Y-111456146D01*
X78061183Y-111546861D01*
X78117489Y-111604730D01*
X78217587Y-111634447D01*
X78384940Y-111581269D01*
X78521011Y-111487427D01*
X78566368Y-111381072D01*
X78660211Y-111381072D01*
X78708696Y-111490555D01*
X78854151Y-111581269D01*
X79015247Y-111625063D01*
X79115346Y-111595346D01*
X79173215Y-111534348D01*
X79214228Y-111445024D01*
X79295558Y-111256297D01*
X79417206Y-110968166D01*
X79514176Y-110974422D01*
X79908314Y-110974422D01*
X79908314Y-111327895D01*
X79913006Y-111435814D01*
X79942723Y-111518708D01*
X80025617Y-111582051D01*
X80186713Y-111603166D01*
X80360321Y-111574231D01*
X80443215Y-111487427D01*
X80461984Y-111324767D01*
X80461984Y-109591811D01*
X80665309Y-109591811D01*
X80694244Y-109765420D01*
X80781048Y-109848314D01*
X80943708Y-109867082D01*
X81904028Y-109867082D01*
X81904028Y-110183018D01*
X81284669Y-110183018D01*
X81176750Y-110187710D01*
X81093856Y-110217427D01*
X81030512Y-110300321D01*
X81009398Y-110461417D01*
X81039114Y-110635026D01*
X81128265Y-110717920D01*
X81290925Y-110736688D01*
X81904028Y-110736688D01*
X81904028Y-111052624D01*
X80940580Y-111052624D01*
X80832661Y-111057316D01*
X80749767Y-111087033D01*
X80686424Y-111169927D01*
X80665309Y-111331023D01*
X80694244Y-111504631D01*
X80781048Y-111587526D01*
X80943708Y-111606294D01*
X82182427Y-111606294D01*
X82356036Y-111576577D01*
X82438930Y-111487427D01*
X82457698Y-111327895D01*
X82457698Y-110145481D01*
X82661023Y-110145481D01*
X82681356Y-110339031D01*
X82742353Y-110513030D01*
X82835414Y-110660441D01*
X82951935Y-110774225D01*
X83127107Y-110885446D01*
X83306450Y-110952178D01*
X83489964Y-110974422D01*
X83880974Y-110974422D01*
X83880974Y-111327895D01*
X83885666Y-111435814D01*
X83915383Y-111518708D01*
X83998277Y-111582051D01*
X84159373Y-111603166D01*
X84332981Y-111574231D01*
X84415876Y-111487427D01*
X84434644Y-111324767D01*
X84434644Y-110450469D01*
X84637969Y-110450469D01*
X84658302Y-110689180D01*
X84719299Y-110909514D01*
X84820962Y-111111471D01*
X84963289Y-111295050D01*
X85135334Y-111447642D01*
X85326146Y-111556636D01*
X85535728Y-111622032D01*
X85764078Y-111643831D01*
X85992916Y-111622325D01*
X86203964Y-111557809D01*
X86397220Y-111450281D01*
X86572686Y-111299742D01*
X86718435Y-111119487D01*
X86822541Y-110922809D01*
X86885005Y-110709708D01*
X86905826Y-110480186D01*
X86882366Y-110228766D01*
X86811984Y-109993769D01*
X86702501Y-109785361D01*
X86561738Y-109613708D01*
X86534836Y-109591811D01*
X87853634Y-109591811D01*
X87882569Y-109765420D01*
X87969373Y-109848314D01*
X88132033Y-109867082D01*
X89092353Y-109867082D01*
X89092353Y-110183018D01*
X88472994Y-110183018D01*
X88365075Y-110187710D01*
X88282181Y-110217427D01*
X88218837Y-110300321D01*
X88197723Y-110461417D01*
X88227440Y-110635026D01*
X88316590Y-110717920D01*
X88479250Y-110736688D01*
X89092353Y-110736688D01*
X89092353Y-111052624D01*
X88128905Y-111052624D01*
X88020986Y-111057316D01*
X87938092Y-111087033D01*
X87874749Y-111169927D01*
X87853634Y-111331023D01*
X87882569Y-111504631D01*
X87969373Y-111587526D01*
X88132033Y-111606294D01*
X89370752Y-111606294D01*
X89544361Y-111576577D01*
X89627255Y-111487427D01*
X89646023Y-111327895D01*
X89646023Y-109591811D01*
X89896270Y-109591811D01*
X89896270Y-111327895D01*
X89900962Y-111435814D01*
X89930679Y-111518708D01*
X90013573Y-111582051D01*
X90174669Y-111603166D01*
X90348277Y-111574231D01*
X90431171Y-111487427D01*
X90449940Y-111324767D01*
X90449940Y-110689767D01*
X91278880Y-110689767D01*
X91278880Y-111327895D01*
X91283573Y-111435814D01*
X91313289Y-111518708D01*
X91396183Y-111582051D01*
X91557279Y-111603166D01*
X91730888Y-111574231D01*
X91813782Y-111487427D01*
X91832550Y-111324767D01*
X91832550Y-109588683D01*
X91830374Y-109538634D01*
X92004595Y-109538634D01*
X92020235Y-109668449D01*
X92073413Y-109735703D01*
X92232945Y-109763856D01*
X92830408Y-109763856D01*
X92830408Y-111337279D01*
X92835100Y-111443634D01*
X92863252Y-111523400D01*
X92946146Y-111587526D01*
X93102550Y-111606294D01*
X93257390Y-111587526D01*
X93338720Y-111523400D01*
X93366873Y-111442070D01*
X93369865Y-111373252D01*
X95113905Y-111373252D01*
X95129546Y-111506196D01*
X95182723Y-111575013D01*
X95345383Y-111606294D01*
X96471491Y-111606294D01*
X96645100Y-111576577D01*
X96727994Y-111487427D01*
X96741426Y-111373252D01*
X96950087Y-111373252D01*
X96965728Y-111506196D01*
X97018905Y-111575013D01*
X97181565Y-111606294D01*
X98307674Y-111606294D01*
X98481282Y-111576577D01*
X98564176Y-111487427D01*
X98576689Y-111381072D01*
X98754989Y-111381072D01*
X98800346Y-111488209D01*
X98936417Y-111584397D01*
X99103770Y-111637575D01*
X99203868Y-111609422D01*
X99260174Y-111549989D01*
X99308659Y-111456146D01*
X99471319Y-111118314D01*
X100337797Y-111118314D01*
X100500457Y-111456146D01*
X100548942Y-111546861D01*
X100605247Y-111604730D01*
X100705346Y-111634447D01*
X100872698Y-111581269D01*
X101008770Y-111487427D01*
X101054127Y-111381072D01*
X101000949Y-111221540D01*
X100255330Y-109677833D01*
X101179250Y-109677833D01*
X101244940Y-109851442D01*
X101360679Y-109978129D01*
X101463905Y-110020358D01*
X101623437Y-109951540D01*
X101776713Y-109871774D01*
X101973782Y-109845186D01*
X102175543Y-109880377D01*
X102374176Y-109985949D01*
X102530580Y-110179890D01*
X102577501Y-110313224D01*
X102593142Y-110462981D01*
X102577501Y-110612738D01*
X102530580Y-110746072D01*
X102371048Y-110943141D01*
X102176325Y-111046368D01*
X101973782Y-111080777D01*
X101790789Y-111055752D01*
X101667230Y-111005703D01*
X101610925Y-110965038D01*
X101460777Y-110902476D01*
X101359896Y-110946269D01*
X101251196Y-111077649D01*
X101182378Y-111252821D01*
X101224607Y-111362304D01*
X101323142Y-111440506D01*
X101431060Y-111506196D01*
X101642206Y-111587526D01*
X101799001Y-111625063D01*
X101950321Y-111637575D01*
X102099687Y-111627800D01*
X102250617Y-111598474D01*
X102404675Y-111546079D01*
X102563425Y-111467095D01*
X102716310Y-111364650D01*
X102852772Y-111241873D01*
X102969684Y-111090161D01*
X103063917Y-110900912D01*
X103126088Y-110683902D01*
X103146812Y-110448905D01*
X103126479Y-110216254D01*
X103065481Y-110006282D01*
X102972812Y-109824853D01*
X102857464Y-109677833D01*
X102818613Y-109643685D01*
X102721784Y-109558575D01*
X102568117Y-109460432D01*
X102363402Y-109366590D01*
X102157991Y-109310284D01*
X102002638Y-109296137D01*
X101951885Y-109291516D01*
X101803693Y-109302855D01*
X101653154Y-109336873D01*
X101423240Y-109429151D01*
X101348166Y-109472944D01*
X101260580Y-109529250D01*
X101179250Y-109677833D01*
X100255330Y-109677833D01*
X100156368Y-109472944D01*
X100051578Y-109357205D01*
X99902994Y-109313412D01*
X99755974Y-109354077D01*
X99652747Y-109476072D01*
X98808166Y-111221540D01*
X98754989Y-111381072D01*
X98576689Y-111381072D01*
X98582945Y-111327895D01*
X98582945Y-109588683D01*
X98578252Y-109480764D01*
X98548536Y-109397870D01*
X98494263Y-109356398D01*
X98465642Y-109334527D01*
X98304546Y-109313412D01*
X98130155Y-109342347D01*
X98044915Y-109429151D01*
X98029275Y-109591811D01*
X98029275Y-111143338D01*
X97178437Y-111143338D01*
X97028289Y-111166799D01*
X96965728Y-111240309D01*
X96950087Y-111373252D01*
X96741426Y-111373252D01*
X96746762Y-111327895D01*
X96746762Y-109588683D01*
X96742070Y-109480764D01*
X96712353Y-109397870D01*
X96629459Y-109334527D01*
X96468363Y-109313412D01*
X96293973Y-109342347D01*
X96208733Y-109429151D01*
X96193092Y-109591811D01*
X96193092Y-111143338D01*
X96166988Y-111143338D01*
X95342255Y-111143338D01*
X95192107Y-111166799D01*
X95129546Y-111240309D01*
X95113905Y-111373252D01*
X93369865Y-111373252D01*
X93371565Y-111334151D01*
X93371565Y-109763856D01*
X93972156Y-109763856D01*
X94119176Y-109740395D01*
X94181738Y-109666885D01*
X94197378Y-109535506D01*
X94181738Y-109405691D01*
X94128560Y-109338437D01*
X93969028Y-109310284D01*
X93796851Y-109310284D01*
X92229816Y-109310284D01*
X92082797Y-109333745D01*
X92020235Y-109407255D01*
X92004595Y-109538634D01*
X91830374Y-109538634D01*
X91827858Y-109480764D01*
X91798142Y-109397870D01*
X91715247Y-109334527D01*
X91554151Y-109313412D01*
X91379761Y-109342347D01*
X91294521Y-109429151D01*
X91278880Y-109591811D01*
X91278880Y-110229939D01*
X90542476Y-110229939D01*
X90449940Y-110229939D01*
X90449940Y-109588683D01*
X90445247Y-109480764D01*
X90415531Y-109397870D01*
X90331073Y-109332181D01*
X90180925Y-109313412D01*
X90037033Y-109329053D01*
X89955703Y-109366590D01*
X89911910Y-109429151D01*
X89896270Y-109591811D01*
X89646023Y-109591811D01*
X89646023Y-109588683D01*
X89586590Y-109371282D01*
X89361368Y-109313412D01*
X88128905Y-109313412D01*
X88020986Y-109318104D01*
X87938092Y-109347821D01*
X87874749Y-109430715D01*
X87853634Y-109591811D01*
X86534836Y-109591811D01*
X86393603Y-109476854D01*
X86202009Y-109372846D01*
X85995555Y-109307156D01*
X85782846Y-109285260D01*
X85558993Y-109306179D01*
X85375163Y-109361482D01*
X85350389Y-109368936D01*
X85157035Y-109473531D01*
X84978930Y-109619964D01*
X84829759Y-109797385D01*
X84723209Y-109994942D01*
X84659279Y-110212637D01*
X84637969Y-110450469D01*
X84434644Y-110450469D01*
X84434644Y-109588683D01*
X84429952Y-109480764D01*
X84400235Y-109397870D01*
X84317341Y-109334527D01*
X84156245Y-109313412D01*
X83486836Y-109313412D01*
X83305060Y-109335656D01*
X83238388Y-109360609D01*
X83126760Y-109402389D01*
X82951935Y-109513609D01*
X82835414Y-109627784D01*
X82742353Y-109776368D01*
X82681356Y-109951540D01*
X82661023Y-110145481D01*
X82457698Y-110145481D01*
X82457698Y-109588683D01*
X82398265Y-109371282D01*
X82173043Y-109313412D01*
X80940580Y-109313412D01*
X80832661Y-109318104D01*
X80749767Y-109347821D01*
X80686424Y-109430715D01*
X80665309Y-109591811D01*
X80461984Y-109591811D01*
X80461984Y-109588683D01*
X80457292Y-109480764D01*
X80427575Y-109397870D01*
X80344681Y-109334527D01*
X80183585Y-109313412D01*
X79507920Y-109313412D01*
X79326144Y-109335656D01*
X79147843Y-109402389D01*
X78973018Y-109513609D01*
X78858844Y-109627784D01*
X78766565Y-109776368D01*
X78705568Y-109951540D01*
X78685235Y-110145481D01*
X78711302Y-110367227D01*
X78789504Y-110561168D01*
X78919841Y-110727304D01*
X78865621Y-110855555D01*
X78794718Y-111019258D01*
X78707132Y-111218412D01*
X78660211Y-111381072D01*
X78566368Y-111381072D01*
X78513191Y-111221540D01*
X77668610Y-109472944D01*
X77563819Y-109357205D01*
X77415235Y-109313412D01*
X77268215Y-109354077D01*
X77164989Y-109476072D01*
X76320408Y-111221540D01*
X76297838Y-111289248D01*
X76267230Y-111381072D01*
X75345535Y-111381072D01*
X75347575Y-111334151D01*
X75347575Y-109763856D01*
X75948166Y-109763856D01*
X76095186Y-109740395D01*
X76157747Y-109666885D01*
X76173388Y-109535506D01*
X76157747Y-109405691D01*
X76104570Y-109338437D01*
X75945038Y-109310284D01*
X74205826Y-109310284D01*
X74058807Y-109333745D01*
X73996245Y-109407255D01*
X73980605Y-109538634D01*
X73419160Y-109538634D01*
X73343259Y-109476854D01*
X73326038Y-109467506D01*
X73151664Y-109372846D01*
X72945211Y-109307156D01*
X72732501Y-109285260D01*
X72510063Y-109306046D01*
X72508648Y-109306179D01*
X72300044Y-109368936D01*
X72106690Y-109473531D01*
X71928585Y-109619964D01*
X71779415Y-109797385D01*
X71672864Y-109994942D01*
X71608934Y-110212637D01*
X71587624Y-110450469D01*
X71384299Y-110450469D01*
X71384299Y-109588683D01*
X71379607Y-109480764D01*
X71349890Y-109397870D01*
X71266996Y-109334527D01*
X71176563Y-109322674D01*
X71105900Y-109313412D01*
X70430235Y-109313412D01*
X70248459Y-109335656D01*
X70109763Y-109387566D01*
X70070159Y-109402389D01*
X69895334Y-109513609D01*
X69781159Y-109627784D01*
X69688880Y-109776368D01*
X69627883Y-109951540D01*
X69607550Y-110145481D01*
X69633618Y-110367227D01*
X69711820Y-110561168D01*
X69842156Y-110727304D01*
X69787936Y-110855555D01*
X69717033Y-111019258D01*
X69629447Y-111218412D01*
X69582526Y-111381072D01*
X68911730Y-111381072D01*
X68911730Y-107348619D01*
X69573188Y-107348619D01*
X69582713Y-107472444D01*
X69641451Y-107724857D01*
X69760513Y-107942344D01*
X69922438Y-108092363D01*
X70109763Y-108142369D01*
X70149451Y-108109032D01*
X70166913Y-108023307D01*
X70152626Y-107939169D01*
X70116113Y-107899482D01*
X70070076Y-107874082D01*
X70004988Y-107789944D01*
X69957363Y-107637544D01*
X70114526Y-107569282D01*
X70168501Y-107388307D01*
X70162151Y-107226382D01*
X70130401Y-107139069D01*
X70039913Y-107067632D01*
X69836713Y-107046994D01*
X69635101Y-107108907D01*
X69588667Y-107199791D01*
X69573188Y-107348619D01*
X68911730Y-107348619D01*
X68911730Y-106894594D01*
X70328838Y-106894594D01*
X70349476Y-107088666D01*
X70411388Y-107258132D01*
X70506638Y-107397435D01*
X70627288Y-107501019D01*
X70802619Y-107594505D01*
X70985711Y-107650597D01*
X71176563Y-107669294D01*
X71321820Y-107660166D01*
X71459138Y-107632782D01*
X71675038Y-107542294D01*
X71817913Y-107442282D01*
X71909988Y-107345444D01*
X71938563Y-107310519D01*
X72021113Y-107127957D01*
X71986982Y-107033897D01*
X71884588Y-106913644D01*
X71716313Y-106837444D01*
X71609951Y-106877132D01*
X71468663Y-106996194D01*
X71341663Y-107099382D01*
X71189263Y-107148594D01*
X71025222Y-107121783D01*
X70926797Y-107041350D01*
X70893988Y-106907294D01*
X70974951Y-106785057D01*
X71176563Y-106713619D01*
X71301976Y-106684647D01*
X71436913Y-106642182D01*
X71571851Y-106588603D01*
X71697263Y-106526294D01*
X71807992Y-106440172D01*
X71898876Y-106315157D01*
X71959598Y-106156010D01*
X71979838Y-105967494D01*
X71956732Y-105789165D01*
X71887411Y-105626711D01*
X71860717Y-105592844D01*
X72227488Y-105592844D01*
X72227488Y-107358144D01*
X72232251Y-107469269D01*
X72262413Y-107551819D01*
X72346551Y-107616113D01*
X72510063Y-107637544D01*
X72686276Y-107607382D01*
X72770413Y-107516894D01*
X72789463Y-107354969D01*
X72789463Y-105592844D01*
X73043463Y-105592844D01*
X73043463Y-107354969D01*
X73048226Y-107464507D01*
X73078388Y-107548644D01*
X73162526Y-107612938D01*
X73326038Y-107634369D01*
X73502251Y-107605000D01*
X73586388Y-107516894D01*
X73605438Y-107351794D01*
X73605438Y-106707269D01*
X74446813Y-106707269D01*
X74446813Y-107354969D01*
X74451576Y-107464507D01*
X74481738Y-107548644D01*
X74565876Y-107612938D01*
X74729388Y-107634369D01*
X74905601Y-107605000D01*
X74989738Y-107516894D01*
X75008788Y-107351794D01*
X75008788Y-105589669D01*
X75006580Y-105538869D01*
X75183413Y-105538869D01*
X75199288Y-105670632D01*
X75253263Y-105738894D01*
X75415188Y-105767469D01*
X76021613Y-105767469D01*
X76021613Y-107364494D01*
X76026376Y-107472444D01*
X76054951Y-107553407D01*
X76139088Y-107618494D01*
X76297838Y-107637544D01*
X76455001Y-107618494D01*
X76537551Y-107553407D01*
X76566126Y-107470857D01*
X76570888Y-107361319D01*
X76570888Y-105767469D01*
X77180488Y-105767469D01*
X77329713Y-105743657D01*
X77393213Y-105669044D01*
X77402284Y-105592844D01*
X78339363Y-105592844D01*
X78368732Y-105769057D01*
X78456838Y-105853194D01*
X78621938Y-105872244D01*
X79596663Y-105872244D01*
X79596663Y-106192919D01*
X78968013Y-106192919D01*
X78858476Y-106197682D01*
X78774338Y-106227844D01*
X78710045Y-106311982D01*
X78688613Y-106475494D01*
X78718776Y-106651707D01*
X78809263Y-106735844D01*
X78974363Y-106754894D01*
X79596663Y-106754894D01*
X79596663Y-107075569D01*
X78618763Y-107075569D01*
X78509226Y-107080332D01*
X78425088Y-107110494D01*
X78360795Y-107194632D01*
X78339363Y-107358144D01*
X78368732Y-107534357D01*
X78456838Y-107618494D01*
X78621938Y-107637544D01*
X79879238Y-107637544D01*
X80055451Y-107607382D01*
X80139588Y-107516894D01*
X80158638Y-107354969D01*
X80158638Y-105592844D01*
X80365013Y-105592844D01*
X80394382Y-105769057D01*
X80482488Y-105853194D01*
X80647588Y-105872244D01*
X81622313Y-105872244D01*
X81622313Y-106192919D01*
X80993663Y-106192919D01*
X80884126Y-106197682D01*
X80799988Y-106227844D01*
X80735695Y-106311982D01*
X80714263Y-106475494D01*
X80744426Y-106651707D01*
X80834913Y-106735844D01*
X81000013Y-106754894D01*
X81622313Y-106754894D01*
X81622313Y-107075569D01*
X80644413Y-107075569D01*
X80534876Y-107080332D01*
X80450738Y-107110494D01*
X80386445Y-107194632D01*
X80365013Y-107358144D01*
X80394382Y-107534357D01*
X80482488Y-107618494D01*
X80647588Y-107637544D01*
X81904888Y-107637544D01*
X82081101Y-107607382D01*
X82165238Y-107516894D01*
X82184288Y-107354969D01*
X82184288Y-106894594D01*
X82390663Y-106894594D01*
X82411301Y-107088666D01*
X82473213Y-107258132D01*
X82568463Y-107397435D01*
X82689113Y-107501019D01*
X82864444Y-107594505D01*
X83047536Y-107650597D01*
X83238388Y-107669294D01*
X83383645Y-107660166D01*
X83520963Y-107632782D01*
X83736863Y-107542294D01*
X83879738Y-107442282D01*
X83971813Y-107345444D01*
X84000388Y-107310519D01*
X84082938Y-107127957D01*
X84048807Y-107033897D01*
X83946413Y-106913644D01*
X83778138Y-106837444D01*
X83671776Y-106877132D01*
X83530488Y-106996194D01*
X83403488Y-107099382D01*
X83251088Y-107148594D01*
X83087047Y-107121783D01*
X82988622Y-107041350D01*
X82955813Y-106907294D01*
X83036776Y-106785057D01*
X83238388Y-106713619D01*
X83363801Y-106684647D01*
X83498738Y-106642182D01*
X83633676Y-106588603D01*
X83759088Y-106526294D01*
X83869817Y-106440172D01*
X83960701Y-106315157D01*
X84021423Y-106156010D01*
X84041663Y-105967494D01*
X84018557Y-105789165D01*
X83949236Y-105626711D01*
X83925044Y-105596019D01*
X85092588Y-105596019D01*
X85092588Y-107358144D01*
X85097351Y-107469269D01*
X85127513Y-107551819D01*
X85211651Y-107616113D01*
X85375163Y-107637544D01*
X85546613Y-107618494D01*
X85625988Y-107558169D01*
X85850532Y-107259013D01*
X86047911Y-106996547D01*
X86218126Y-106770769D01*
X86361177Y-106581680D01*
X86477065Y-106429280D01*
X86565788Y-106313569D01*
X86565788Y-107358144D01*
X86570551Y-107469269D01*
X86600713Y-107551819D01*
X86684851Y-107616113D01*
X86848363Y-107637544D01*
X87007113Y-107616113D01*
X87089663Y-107551819D01*
X87119826Y-107466094D01*
X87122275Y-107408944D01*
X87299213Y-107408944D01*
X87345251Y-107517688D01*
X87483363Y-107615319D01*
X87653226Y-107669294D01*
X87754826Y-107640719D01*
X87811976Y-107580394D01*
X87861188Y-107485144D01*
X88026288Y-107142244D01*
X88905763Y-107142244D01*
X89070863Y-107485144D01*
X89120076Y-107577219D01*
X89177226Y-107635957D01*
X89278826Y-107666119D01*
X89448688Y-107612144D01*
X89586801Y-107516894D01*
X89632838Y-107408944D01*
X89578863Y-107247019D01*
X88822060Y-105680157D01*
X89759838Y-105680157D01*
X89826513Y-105856369D01*
X89943988Y-105984957D01*
X90048763Y-106027819D01*
X90210688Y-105957969D01*
X90366263Y-105877007D01*
X90566288Y-105850019D01*
X90771076Y-105885738D01*
X90972688Y-105992894D01*
X91131438Y-106189744D01*
X91179063Y-106325078D01*
X91194938Y-106477082D01*
X91179063Y-106629085D01*
X91131438Y-106764419D01*
X90969513Y-106964444D01*
X90771870Y-107069219D01*
X90566288Y-107104144D01*
X90380551Y-107078744D01*
X90255138Y-107027944D01*
X90197988Y-106986669D01*
X90045588Y-106923169D01*
X89943195Y-106967619D01*
X89832863Y-107100969D01*
X89763013Y-107278769D01*
X89805876Y-107389894D01*
X89905888Y-107469269D01*
X90015426Y-107535944D01*
X90229738Y-107618494D01*
X90388885Y-107656594D01*
X90542476Y-107669294D01*
X90694082Y-107659372D01*
X90847276Y-107629607D01*
X91003645Y-107576425D01*
X91164776Y-107496257D01*
X91319954Y-107392275D01*
X91458463Y-107267657D01*
X91577129Y-107113669D01*
X91672776Y-106921582D01*
X91735879Y-106701316D01*
X91756913Y-106462794D01*
X91736276Y-106226653D01*
X91674363Y-106013532D01*
X91580304Y-105829382D01*
X91463226Y-105680157D01*
X91363889Y-105592844D01*
X92766563Y-105592844D01*
X92766563Y-106551694D01*
X92782835Y-106756482D01*
X92831651Y-106951744D01*
X92913010Y-107137482D01*
X93026913Y-107313694D01*
X93172170Y-107460141D01*
X93353938Y-107575632D01*
X93564679Y-107650641D01*
X93796851Y-107675644D01*
X94028626Y-107650244D01*
X94238176Y-107574044D01*
X94417960Y-107456569D01*
X94560438Y-107307344D01*
X94672953Y-107133513D01*
X94753320Y-106948569D01*
X94801540Y-106752513D01*
X94817613Y-106545344D01*
X94817613Y-106464382D01*
X95023988Y-106464382D01*
X95044626Y-106706674D01*
X95106538Y-106930313D01*
X95209726Y-107135299D01*
X95354188Y-107321632D01*
X95528813Y-107476512D01*
X95722488Y-107587141D01*
X95935213Y-107653518D01*
X96166988Y-107675644D01*
X96399260Y-107653816D01*
X96613473Y-107588332D01*
X96809628Y-107479191D01*
X96987726Y-107326394D01*
X97135661Y-107143435D01*
X97241329Y-106943807D01*
X97304730Y-106727510D01*
X97325863Y-106494544D01*
X97302051Y-106239353D01*
X97230613Y-106000832D01*
X97119488Y-105789297D01*
X96976613Y-105615069D01*
X96914202Y-105564269D01*
X97452863Y-105564269D01*
X97525888Y-105732544D01*
X98211688Y-106758069D01*
X98211688Y-107364494D01*
X98216451Y-107474032D01*
X98246613Y-107558169D01*
X98332338Y-107624844D01*
X98494263Y-107643894D01*
X98656188Y-107624844D01*
X98741913Y-107556582D01*
X98772076Y-107470857D01*
X98776838Y-107358144D01*
X98776838Y-106758069D01*
X99462638Y-105732544D01*
X99523263Y-105592844D01*
X100465938Y-105592844D01*
X100484988Y-105754769D01*
X100551663Y-105838907D01*
X100635801Y-105867482D01*
X100748513Y-105872244D01*
X101720063Y-105872244D01*
X101720063Y-106192919D01*
X101094588Y-106192919D01*
X100981876Y-106197682D01*
X100897738Y-106227844D01*
X100835826Y-106314363D01*
X100815188Y-106478669D01*
X100845351Y-106655675D01*
X100935838Y-106742194D01*
X101097763Y-106758069D01*
X101720063Y-106758069D01*
X101720063Y-107358144D01*
X101724826Y-107469269D01*
X101754988Y-107551819D01*
X101839126Y-107616113D01*
X102002638Y-107637544D01*
X102178851Y-107607382D01*
X102262988Y-107516894D01*
X102282038Y-107354969D01*
X102282038Y-105592844D01*
X102536038Y-105592844D01*
X102536038Y-107358144D01*
X102540801Y-107469269D01*
X102570963Y-107551819D01*
X102655101Y-107616113D01*
X102818613Y-107637544D01*
X102994826Y-107607382D01*
X103078963Y-107516894D01*
X103098013Y-107354969D01*
X103098013Y-105589669D01*
X103093251Y-105480132D01*
X103063088Y-105395994D01*
X102978951Y-105331700D01*
X102815438Y-105310269D01*
X102638432Y-105339638D01*
X102551913Y-105427744D01*
X102536038Y-105592844D01*
X102282038Y-105592844D01*
X102282038Y-105589669D01*
X102221713Y-105369007D01*
X101993113Y-105310269D01*
X100742163Y-105310269D01*
X100632626Y-105315032D01*
X100550076Y-105345194D01*
X100484988Y-105430919D01*
X100465938Y-105592844D01*
X99523263Y-105592844D01*
X99535663Y-105564269D01*
X99500738Y-105464653D01*
X99395963Y-105369007D01*
X99195938Y-105275344D01*
X99100688Y-105300744D01*
X98986388Y-105430919D01*
X98494263Y-106218319D01*
X98002138Y-105430919D01*
X97897363Y-105305507D01*
X97794176Y-105275344D01*
X97608438Y-105354719D01*
X97491757Y-105461082D01*
X97452863Y-105564269D01*
X96914202Y-105564269D01*
X96805957Y-105476163D01*
X96611488Y-105370594D01*
X96401938Y-105303919D01*
X96186038Y-105281694D01*
X95958828Y-105302927D01*
X95747095Y-105366625D01*
X95550840Y-105472789D01*
X95370063Y-105621419D01*
X95218656Y-105801501D01*
X95110507Y-106002022D01*
X95045618Y-106222982D01*
X95023988Y-106464382D01*
X94817613Y-106464382D01*
X94817613Y-105589669D01*
X94812851Y-105476957D01*
X94782688Y-105392819D01*
X94696963Y-105326144D01*
X94535038Y-105307094D01*
X94373113Y-105326144D01*
X94290563Y-105392819D01*
X94252463Y-105592844D01*
X94252463Y-106545344D01*
X94228651Y-106734257D01*
X94157213Y-106913644D01*
X94014338Y-107056519D01*
X93788913Y-107110494D01*
X93586507Y-107067632D01*
X93442838Y-106939044D01*
X93357113Y-106754100D01*
X93328538Y-106542169D01*
X93328538Y-105570619D01*
X93296788Y-105395994D01*
X93204713Y-105326144D01*
X93053901Y-105307094D01*
X92909438Y-105322969D01*
X92826888Y-105361069D01*
X92785613Y-105427744D01*
X92766563Y-105592844D01*
X91363889Y-105592844D01*
X91325510Y-105559110D01*
X91169538Y-105459494D01*
X90961752Y-105364244D01*
X90753261Y-105307094D01*
X90544063Y-105288044D01*
X90393648Y-105299553D01*
X90240851Y-105334082D01*
X90007488Y-105427744D01*
X89931288Y-105472194D01*
X89842388Y-105529344D01*
X89759838Y-105680157D01*
X88822060Y-105680157D01*
X88721613Y-105472194D01*
X88615251Y-105354719D01*
X88464438Y-105310269D01*
X88315213Y-105351544D01*
X88210438Y-105475369D01*
X87353188Y-107247019D01*
X87299213Y-107408944D01*
X87122275Y-107408944D01*
X87124588Y-107354969D01*
X87124588Y-105583319D01*
X87094426Y-105407107D01*
X87003938Y-105332494D01*
X86848363Y-105313444D01*
X86697551Y-105330907D01*
X86619763Y-105370594D01*
X86546738Y-105453144D01*
X86335777Y-105739688D01*
X86149511Y-105991836D01*
X85987938Y-106209588D01*
X85851061Y-106392944D01*
X85738877Y-106541904D01*
X85651388Y-106656469D01*
X85651388Y-105583319D01*
X85621226Y-105407107D01*
X85530738Y-105332494D01*
X85379926Y-105313444D01*
X85233876Y-105329319D01*
X85151326Y-105367419D01*
X85111638Y-105434094D01*
X85092588Y-105596019D01*
X83925044Y-105596019D01*
X83833701Y-105480132D01*
X83678302Y-105364597D01*
X83489390Y-105295276D01*
X83266963Y-105272169D01*
X83084798Y-105284472D01*
X82919301Y-105321382D01*
X82701813Y-105421394D01*
X82622438Y-105481719D01*
X82524013Y-105637294D01*
X82600213Y-105811919D01*
X82709751Y-105930982D01*
X82822463Y-105970669D01*
X82987563Y-105907169D01*
X83024076Y-105875419D01*
X83073288Y-105834144D01*
X83243151Y-105792869D01*
X83414601Y-105842082D01*
X83482863Y-105978607D01*
X83401901Y-106119894D01*
X83200288Y-106192919D01*
X83074082Y-106217128D01*
X82936763Y-106251657D01*
X82799445Y-106295710D01*
X82673238Y-106348494D01*
X82562510Y-106426678D01*
X82471626Y-106546932D01*
X82410904Y-106704491D01*
X82390663Y-106894594D01*
X82184288Y-106894594D01*
X82184288Y-105589669D01*
X82123963Y-105369007D01*
X81895363Y-105310269D01*
X80644413Y-105310269D01*
X80534876Y-105315032D01*
X80450738Y-105345194D01*
X80386445Y-105429332D01*
X80365013Y-105592844D01*
X80158638Y-105592844D01*
X80158638Y-105589669D01*
X80098313Y-105369007D01*
X79869713Y-105310269D01*
X78618763Y-105310269D01*
X78509226Y-105315032D01*
X78425088Y-105345194D01*
X78360795Y-105429332D01*
X78339363Y-105592844D01*
X77402284Y-105592844D01*
X77409088Y-105535694D01*
X77393213Y-105403932D01*
X77339238Y-105335669D01*
X77177313Y-105307094D01*
X75412013Y-105307094D01*
X75262788Y-105330907D01*
X75199288Y-105405519D01*
X75183413Y-105538869D01*
X75006580Y-105538869D01*
X75004026Y-105480132D01*
X74973863Y-105395994D01*
X74889726Y-105331700D01*
X74726213Y-105310269D01*
X74549207Y-105339638D01*
X74462688Y-105427744D01*
X74446813Y-105592844D01*
X74446813Y-106240544D01*
X73605438Y-106240544D01*
X73605438Y-105589669D01*
X73600676Y-105480132D01*
X73570513Y-105395994D01*
X73484788Y-105329319D01*
X73332388Y-105310269D01*
X73186338Y-105326144D01*
X73103788Y-105364244D01*
X73059338Y-105427744D01*
X73043463Y-105592844D01*
X72789463Y-105592844D01*
X72789463Y-105589669D01*
X72784701Y-105480132D01*
X72754538Y-105395994D01*
X72670401Y-105331700D01*
X72506888Y-105310269D01*
X72329882Y-105339638D01*
X72243363Y-105427744D01*
X72227488Y-105592844D01*
X71860717Y-105592844D01*
X71771876Y-105480132D01*
X71616477Y-105364597D01*
X71427565Y-105295276D01*
X71205138Y-105272169D01*
X71022973Y-105284472D01*
X70857476Y-105321382D01*
X70639988Y-105421394D01*
X70560613Y-105481719D01*
X70462188Y-105637294D01*
X70538388Y-105811919D01*
X70647926Y-105930982D01*
X70760638Y-105970669D01*
X70925738Y-105907169D01*
X70962251Y-105875419D01*
X71011463Y-105834144D01*
X71181326Y-105792869D01*
X71352776Y-105842082D01*
X71421038Y-105978607D01*
X71340076Y-106119894D01*
X71138463Y-106192919D01*
X71012257Y-106217128D01*
X70874938Y-106251657D01*
X70737620Y-106295710D01*
X70611413Y-106348494D01*
X70500685Y-106426678D01*
X70409801Y-106546932D01*
X70349079Y-106704491D01*
X70328838Y-106894594D01*
X68911730Y-106894594D01*
X68911730Y-104610711D01*
X69573188Y-104610711D01*
X103146812Y-104610711D01*
X103808270Y-104610711D01*
X103808270Y-112305289D01*
G37*
%TD.AperFunction*%
D11*
X107571812Y-74871656D02*
X106479629Y-74409501D01*
X105128774Y-73905582D01*
X104079356Y-73664443D01*
X103136733Y-73848220D01*
X101906894Y-74305756D01*
X100650895Y-74871656D01*
X99430861Y-75433175D01*
X98356590Y-75977492D01*
X97760653Y-76489099D01*
X97790970Y-77283879D01*
X98168249Y-78407148D01*
X98584232Y-79437539D01*
X99034373Y-80499595D01*
X99611266Y-81639222D01*
X100152368Y-82317104D01*
X100739972Y-82479315D01*
X101693454Y-82575618D01*
X102854123Y-82621802D01*
X104063292Y-82633657D01*
X105272260Y-82627577D01*
X106430261Y-82591831D01*
X107375506Y-82500020D01*
X107946204Y-82325743D01*
X108463280Y-81698139D01*
X109036829Y-80670820D01*
X109518320Y-79629787D01*
X109980473Y-78491254D01*
X110392359Y-77260176D01*
X110449970Y-76455660D01*
X109778097Y-75934629D01*
X108613875Y-75340396D01*
X107571812Y-74871656D01*
%TA.AperFunction,EtchedComponent*%
G36*
X105128774Y-73905582D02*
G01*
X106479629Y-74409501D01*
X107571812Y-74871656D01*
X108613875Y-75340396D01*
X109778097Y-75934629D01*
X110449970Y-76455660D01*
X110392359Y-77260176D01*
X109980473Y-78491254D01*
X109518320Y-79629787D01*
X109036829Y-80670820D01*
X108463280Y-81698139D01*
X107946204Y-82325743D01*
X107375506Y-82500020D01*
X106430261Y-82591831D01*
X105272260Y-82627577D01*
X104063292Y-82633657D01*
X102854123Y-82621802D01*
X101693454Y-82575618D01*
X100739972Y-82479315D01*
X100152368Y-82317104D01*
X99611266Y-81639222D01*
X99034373Y-80499595D01*
X98584232Y-79437539D01*
X98168249Y-78407148D01*
X97790970Y-77283879D01*
X97760653Y-76489099D01*
X98356590Y-75977492D01*
X99430861Y-75433175D01*
X100650895Y-74871656D01*
X101906894Y-74305756D01*
X103136733Y-73848220D01*
X104079356Y-73664443D01*
X105128774Y-73905582D01*
G37*
%TD.AperFunction*%
D12*
X71750000Y-51530000D03*
D13*
X70480000Y-48990000D03*
X69210000Y-51530000D03*
X67940000Y-48990000D03*
X66670000Y-51530000D03*
X65400000Y-48990000D03*
D12*
X89530000Y-40100000D03*
D13*
X88260000Y-37560000D03*
X86990000Y-40100000D03*
X85720000Y-37560000D03*
X84450000Y-40100000D03*
X83180000Y-37560000D03*
D14*
X100970000Y-56420000D03*
D13*
X102240000Y-58960000D03*
X103510000Y-56420000D03*
X104780000Y-58960000D03*
X106050000Y-56420000D03*
X107320000Y-58960000D03*
D14*
X65410000Y-56420000D03*
D13*
X66680000Y-58960000D03*
X67950000Y-56420000D03*
X69220000Y-58960000D03*
X70490000Y-56420000D03*
X71760000Y-58960000D03*
D12*
X107310000Y-51530000D03*
D13*
X106040000Y-48990000D03*
X104770000Y-51530000D03*
X103500000Y-48990000D03*
X102230000Y-51530000D03*
X100960000Y-48990000D03*
D14*
X83190000Y-46260000D03*
D13*
X84460000Y-48800000D03*
X85730000Y-46260000D03*
X87000000Y-48800000D03*
X88270000Y-46260000D03*
X89540000Y-48800000D03*
D15*
X90805000Y-68360010D03*
D16*
X89535000Y-66220010D03*
X88265000Y-68360010D03*
X86995000Y-66220010D03*
X85725000Y-68360010D03*
X84455000Y-66220010D03*
X83185000Y-68360010D03*
X81915000Y-66220010D03*
D17*
X125750000Y-58250000D03*
D18*
X50530472Y-68807918D03*
D19*
X128697403Y-50946602D03*
D20*
X54989956Y-76504210D03*
D21*
X116971913Y-76486250D03*
D22*
X45750000Y-58500000D03*
D23*
X121171741Y-68920836D03*
D24*
X42576585Y-50311200D03*
D25*
X69210000Y-51530000D02*
X69210000Y-53290000D01*
X76581000Y-60886010D02*
X76581000Y-40767000D01*
X69210000Y-53290000D02*
X68500000Y-54000000D01*
X50250000Y-54000000D02*
X45750000Y-58500000D01*
D26*
X69342000Y-51198000D02*
X69210000Y-51330000D01*
D25*
X81915000Y-66220010D02*
X76581000Y-60886010D01*
D26*
X45996286Y-58013600D02*
X45434376Y-57451690D01*
D25*
X76581000Y-40767000D02*
X75184000Y-39370000D01*
X68500000Y-54000000D02*
X50250000Y-54000000D01*
D26*
X45750000Y-58000000D02*
X45750000Y-58500000D01*
D25*
X70358000Y-39370000D02*
X69210000Y-40518000D01*
X75184000Y-39370000D02*
X70358000Y-39370000D01*
X69210000Y-40518000D02*
X69210000Y-51530000D01*
X75438000Y-37846000D02*
X77724000Y-40132000D01*
X67940000Y-39756000D02*
X69850000Y-37846000D01*
X67750000Y-53000000D02*
X50000000Y-53000000D01*
X77760595Y-60398812D02*
X83185000Y-65823217D01*
X77724000Y-60398812D02*
X77760595Y-60398812D01*
D26*
X67818000Y-49068000D02*
X67940000Y-49190000D01*
D25*
X67940000Y-48990000D02*
X67940000Y-39756000D01*
X83185000Y-65823217D02*
X83185000Y-68360011D01*
X77724000Y-40132000D02*
X77724000Y-60398812D01*
X47311200Y-50311200D02*
X42576585Y-50311200D01*
X69850000Y-37846000D02*
X75438000Y-37846000D01*
X50000000Y-53000000D02*
X47311200Y-50311200D01*
X67940000Y-48990000D02*
X67940000Y-52810000D01*
X67940000Y-52810000D02*
X67750000Y-53000000D01*
X94996000Y-39370000D02*
X96774000Y-37592000D01*
X106240000Y-53000000D02*
X121500000Y-53000000D01*
D26*
X104902000Y-51198000D02*
X104770000Y-51330000D01*
D25*
X94234000Y-62103000D02*
X94996000Y-61341000D01*
X88572000Y-62103010D02*
X84455000Y-66220010D01*
X88572000Y-62103000D02*
X88572000Y-62103010D01*
X102870000Y-37592000D02*
X104770000Y-39492000D01*
X88572010Y-62103000D02*
X94234000Y-62103000D01*
X104770000Y-51530000D02*
X106240000Y-53000000D01*
X96774000Y-37592000D02*
X102870000Y-37592000D01*
X123553398Y-50946602D02*
X128697403Y-50946602D01*
X121500000Y-53000000D02*
X123553398Y-50946602D01*
X104770000Y-39492000D02*
X104770000Y-51530000D01*
X94996000Y-61341000D02*
X94996000Y-39370000D01*
X88265000Y-68360011D02*
X88265000Y-64262000D01*
D26*
X124536200Y-58496200D02*
X126796800Y-58496200D01*
D25*
X121500000Y-54000000D02*
X125750000Y-58250000D01*
X88265000Y-64262000D02*
X89408000Y-63119000D01*
X103500000Y-40127000D02*
X103500000Y-48990000D01*
X105559065Y-54000000D02*
X121500000Y-54000000D01*
X89408000Y-63119000D02*
X95250000Y-63119000D01*
X97282000Y-38862000D02*
X102235000Y-38862000D01*
X103500000Y-48990000D02*
X103500000Y-51940935D01*
X102235000Y-38862000D02*
X103500000Y-40127000D01*
D26*
X103378000Y-49068000D02*
X103500000Y-49190000D01*
D25*
X96139000Y-40005000D02*
X97282000Y-38862000D01*
X95250000Y-63119000D02*
X96139000Y-62230000D01*
X96139000Y-62230000D02*
X96139000Y-40005000D01*
X103500000Y-51940935D02*
X105559065Y-54000000D01*
X110750000Y-55000000D02*
X112500000Y-56750000D01*
X114420836Y-68920836D02*
X121171741Y-68920836D01*
X104930000Y-55000000D02*
X110750000Y-55000000D01*
X103510000Y-67740000D02*
X103510000Y-56420000D01*
X97028000Y-68580000D02*
X102670000Y-68580000D01*
D26*
X103378000Y-56752000D02*
X103510000Y-56620000D01*
D25*
X89535000Y-66220000D02*
X94668000Y-66220000D01*
X102670000Y-68580000D02*
X103510000Y-67740000D01*
X103510000Y-56420000D02*
X104930000Y-55000000D01*
X112500000Y-67000000D02*
X114420836Y-68920836D01*
X94668000Y-66220000D02*
X97028000Y-68580000D01*
X112500000Y-56750000D02*
X112500000Y-67000000D01*
X95030000Y-68360000D02*
X96520000Y-69850000D01*
X113250000Y-72750000D02*
X111500000Y-71000000D01*
X116971913Y-76486250D02*
X113250000Y-72764337D01*
X103150000Y-69850000D02*
X104780000Y-68220000D01*
X105190935Y-58960000D02*
X106650935Y-57500000D01*
X90805000Y-68360000D02*
X95030000Y-68360000D01*
X104780000Y-58960000D02*
X105190935Y-58960000D01*
X110500000Y-57500000D02*
X106650935Y-57500000D01*
X96520000Y-69850000D02*
X103150000Y-69850000D01*
X111500000Y-58500000D02*
X110500000Y-57500000D01*
X104780000Y-68220000D02*
X104780000Y-58960000D01*
X113250000Y-72764337D02*
X113250000Y-72750000D01*
X111500000Y-71000000D02*
X111500000Y-58500000D01*
D26*
X104902000Y-58882000D02*
X104780000Y-58760000D01*
D25*
X67950000Y-70046184D02*
X67950000Y-56420000D01*
X86995000Y-70231000D02*
X85090000Y-72136000D01*
X61000000Y-57750000D02*
X60250000Y-58500000D01*
X86995000Y-66220000D02*
X86995000Y-70231000D01*
X60250000Y-58500000D02*
X60250000Y-72250000D01*
X70039816Y-72136000D02*
X67950000Y-70046184D01*
X60250000Y-72250000D02*
X55995790Y-76504210D01*
X66620000Y-57750000D02*
X61000000Y-57750000D01*
X55995790Y-76504210D02*
X54989956Y-76504210D01*
X67950000Y-56420000D02*
X66620000Y-57750000D01*
X85090000Y-72136000D02*
X70039816Y-72136000D01*
D26*
X67818000Y-56752000D02*
X67950000Y-56620000D01*
D25*
X85725000Y-68360000D02*
X85725000Y-69723000D01*
X69220000Y-69970000D02*
X69220000Y-58960000D01*
X84328000Y-71120000D02*
X70370000Y-71120000D01*
D26*
X69342000Y-58882000D02*
X69220000Y-58760000D01*
D25*
X69220000Y-58960000D02*
X69220000Y-55720000D01*
X70370000Y-71120000D02*
X69220000Y-69970000D01*
X59000000Y-56000000D02*
X59000000Y-66750000D01*
X69220000Y-55720000D02*
X68500000Y-55000000D01*
X85725000Y-69723000D02*
X84328000Y-71120000D01*
X68500000Y-55000000D02*
X60000000Y-55000000D01*
X60000000Y-55000000D02*
X59000000Y-56000000D01*
X59000000Y-66750000D02*
X56942082Y-68807918D01*
X56942082Y-68807918D02*
X50530472Y-68807918D01*
%TA.AperFunction,Conductor*%
G36*
X110210614Y-58257102D02*
G01*
X110231588Y-58274005D01*
X110725995Y-58768412D01*
X110760021Y-58830724D01*
X110762900Y-58857507D01*
X110762900Y-64024379D01*
X110742898Y-64092500D01*
X110689242Y-64138993D01*
X110618968Y-64149097D01*
X110554388Y-64119603D01*
X110547805Y-64113474D01*
X110404778Y-63970447D01*
X110404757Y-63970428D01*
X110219871Y-63828560D01*
X110219864Y-63828555D01*
X110018044Y-63712034D01*
X110018036Y-63712030D01*
X110018032Y-63712028D01*
X109802714Y-63622840D01*
X109577595Y-63562520D01*
X109577588Y-63562518D01*
X109346532Y-63532100D01*
X109346530Y-63532100D01*
X109113470Y-63532100D01*
X109113467Y-63532100D01*
X108882411Y-63562518D01*
X108657286Y-63622840D01*
X108538206Y-63672165D01*
X108441966Y-63712029D01*
X108441955Y-63712034D01*
X108240135Y-63828555D01*
X108240128Y-63828560D01*
X108055242Y-63970428D01*
X108055221Y-63970447D01*
X107890447Y-64135221D01*
X107890428Y-64135242D01*
X107748560Y-64320128D01*
X107748555Y-64320135D01*
X107632034Y-64521955D01*
X107632029Y-64521966D01*
X107632028Y-64521968D01*
X107619843Y-64551386D01*
X107542840Y-64737286D01*
X107482518Y-64962411D01*
X107452100Y-65193467D01*
X107452100Y-65426532D01*
X107482518Y-65657588D01*
X107482520Y-65657595D01*
X107542840Y-65882714D01*
X107632028Y-66098032D01*
X107632029Y-66098033D01*
X107632034Y-66098044D01*
X107748555Y-66299864D01*
X107748560Y-66299871D01*
X107890428Y-66484757D01*
X107890447Y-66484778D01*
X108055221Y-66649552D01*
X108055242Y-66649571D01*
X108240128Y-66791439D01*
X108240135Y-66791444D01*
X108441955Y-66907965D01*
X108441959Y-66907966D01*
X108441968Y-66907972D01*
X108657286Y-66997160D01*
X108882405Y-67057480D01*
X108882409Y-67057480D01*
X108882411Y-67057481D01*
X108941962Y-67065320D01*
X109113470Y-67087900D01*
X109113477Y-67087900D01*
X109346523Y-67087900D01*
X109346530Y-67087900D01*
X109555353Y-67060408D01*
X109577588Y-67057481D01*
X109577588Y-67057480D01*
X109577595Y-67057480D01*
X109802714Y-66997160D01*
X110018032Y-66907972D01*
X110219868Y-66791442D01*
X110398856Y-66654099D01*
X110404757Y-66649571D01*
X110404757Y-66649570D01*
X110404766Y-66649564D01*
X110474666Y-66579664D01*
X110547805Y-66506526D01*
X110610117Y-66472500D01*
X110680932Y-66477565D01*
X110737768Y-66520112D01*
X110762579Y-66586632D01*
X110762900Y-66595621D01*
X110762900Y-71072600D01*
X110783887Y-71178107D01*
X110791226Y-71215004D01*
X110846790Y-71349148D01*
X110847472Y-71350168D01*
X110927456Y-71469873D01*
X110927461Y-71469879D01*
X112639808Y-73182225D01*
X112655478Y-73201317D01*
X112677459Y-73234214D01*
X112677461Y-73234216D01*
X115062893Y-75619647D01*
X115096918Y-75681959D01*
X115091854Y-75752774D01*
X115087993Y-75761992D01*
X115064205Y-75813003D01*
X115039853Y-75875627D01*
X114961190Y-76125122D01*
X114945226Y-76190359D01*
X114899797Y-76447999D01*
X114899795Y-76448011D01*
X114892486Y-76514753D01*
X114892486Y-76514758D01*
X114881073Y-76776129D01*
X114882538Y-76843271D01*
X114905338Y-77103893D01*
X114915557Y-77170291D01*
X114915562Y-77170315D01*
X114972178Y-77425693D01*
X114990977Y-77490190D01*
X115056113Y-77669146D01*
X115080455Y-77736023D01*
X115107506Y-77797501D01*
X115228306Y-78029555D01*
X115228310Y-78029561D01*
X115263144Y-78086968D01*
X115263148Y-78086973D01*
X115263150Y-78086977D01*
X115413203Y-78301277D01*
X115437279Y-78331275D01*
X115455251Y-78353668D01*
X115631990Y-78546545D01*
X115631996Y-78546551D01*
X115680506Y-78592988D01*
X115680512Y-78592993D01*
X115880920Y-78761154D01*
X115933449Y-78799823D01*
X116822804Y-79371150D01*
X116884865Y-79411018D01*
X116884877Y-79411025D01*
X116907350Y-79423235D01*
X116950940Y-79446919D01*
X117091339Y-79487540D01*
X117141367Y-79487341D01*
X117209566Y-79507072D01*
X117256272Y-79560542D01*
X117266656Y-79630775D01*
X117239313Y-79693218D01*
X117034882Y-79942607D01*
X117032545Y-79945376D01*
X116808209Y-80203537D01*
X116805562Y-80206488D01*
X116585734Y-80443942D01*
X116582727Y-80447079D01*
X116385322Y-80646083D01*
X116381900Y-80649405D01*
X116189180Y-80829513D01*
X116185278Y-80833010D01*
X116013102Y-80980997D01*
X116008652Y-80984649D01*
X115841416Y-81115599D01*
X115836340Y-81119372D01*
X115687999Y-81223957D01*
X115682218Y-81227799D01*
X115550308Y-81310316D01*
X115547999Y-81311726D01*
X115509053Y-81334941D01*
X115507510Y-81335846D01*
X115465979Y-81359809D01*
X115465320Y-81360404D01*
X115465319Y-81360403D01*
X115463343Y-81362187D01*
X115463339Y-81362191D01*
X115463339Y-81362192D01*
X115434644Y-81400686D01*
X115433603Y-81402062D01*
X115404438Y-81440047D01*
X115403243Y-81442467D01*
X115403214Y-81442528D01*
X115402862Y-81443239D01*
X115391086Y-81489771D01*
X115390635Y-81491498D01*
X115376491Y-81544229D01*
X115375134Y-81552804D01*
X112019822Y-94811584D01*
X86401961Y-196042502D01*
X86365859Y-196103633D01*
X86302437Y-196135542D01*
X86231831Y-196128097D01*
X86176460Y-196083662D01*
X86157752Y-196042851D01*
X62743172Y-104610713D01*
X68398230Y-104610713D01*
X68398230Y-112305283D01*
X68403457Y-112378370D01*
X68424478Y-112449959D01*
X68444634Y-112518605D01*
X68523653Y-112641560D01*
X68634111Y-112737273D01*
X68767060Y-112797989D01*
X68911730Y-112818789D01*
X68911733Y-112818789D01*
X103808264Y-112818789D01*
X103808270Y-112818789D01*
X103881349Y-112813562D01*
X104021586Y-112772385D01*
X104144541Y-112693366D01*
X104240254Y-112582908D01*
X104300970Y-112449959D01*
X104321770Y-112305289D01*
X104321770Y-104610711D01*
X104316543Y-104537632D01*
X104275366Y-104397395D01*
X104196347Y-104274440D01*
X104085889Y-104178727D01*
X103952940Y-104118011D01*
X103808270Y-104097211D01*
X68911730Y-104097211D01*
X68863010Y-104100695D01*
X68838648Y-104102438D01*
X68698416Y-104143614D01*
X68698412Y-104143616D01*
X68575459Y-104222633D01*
X68479746Y-104333091D01*
X68419030Y-104466040D01*
X68398230Y-104610713D01*
X62743172Y-104610713D01*
X61614022Y-100201467D01*
X66722100Y-100201467D01*
X66722100Y-100434532D01*
X66752518Y-100665588D01*
X66752520Y-100665595D01*
X66812840Y-100890714D01*
X66902028Y-101106032D01*
X66902029Y-101106033D01*
X66902034Y-101106044D01*
X67018555Y-101307864D01*
X67018560Y-101307871D01*
X67160428Y-101492757D01*
X67160447Y-101492778D01*
X67325221Y-101657552D01*
X67325242Y-101657571D01*
X67510128Y-101799439D01*
X67510135Y-101799444D01*
X67711955Y-101915965D01*
X67711959Y-101915966D01*
X67711968Y-101915972D01*
X67927286Y-102005160D01*
X68152405Y-102065480D01*
X68152409Y-102065480D01*
X68152411Y-102065481D01*
X68211962Y-102073320D01*
X68383470Y-102095900D01*
X68383477Y-102095900D01*
X68616523Y-102095900D01*
X68616530Y-102095900D01*
X68825353Y-102068408D01*
X68847588Y-102065481D01*
X68847588Y-102065480D01*
X68847595Y-102065480D01*
X69072714Y-102005160D01*
X69288032Y-101915972D01*
X69489868Y-101799442D01*
X69674766Y-101657564D01*
X69839564Y-101492766D01*
X69981442Y-101307868D01*
X70097972Y-101106032D01*
X70187160Y-100890714D01*
X70247480Y-100665595D01*
X70277900Y-100434530D01*
X70277900Y-100201470D01*
X70277900Y-100201467D01*
X102222100Y-100201467D01*
X102222100Y-100434532D01*
X102252518Y-100665588D01*
X102252520Y-100665595D01*
X102312840Y-100890714D01*
X102402028Y-101106032D01*
X102402029Y-101106033D01*
X102402034Y-101106044D01*
X102518555Y-101307864D01*
X102518560Y-101307871D01*
X102660428Y-101492757D01*
X102660447Y-101492778D01*
X102825221Y-101657552D01*
X102825242Y-101657571D01*
X103010128Y-101799439D01*
X103010135Y-101799444D01*
X103211955Y-101915965D01*
X103211959Y-101915966D01*
X103211968Y-101915972D01*
X103427286Y-102005160D01*
X103652405Y-102065480D01*
X103652409Y-102065480D01*
X103652411Y-102065481D01*
X103711962Y-102073320D01*
X103883470Y-102095900D01*
X103883477Y-102095900D01*
X104116523Y-102095900D01*
X104116530Y-102095900D01*
X104325353Y-102068408D01*
X104347588Y-102065481D01*
X104347588Y-102065480D01*
X104347595Y-102065480D01*
X104572714Y-102005160D01*
X104788032Y-101915972D01*
X104989868Y-101799442D01*
X105174766Y-101657564D01*
X105339564Y-101492766D01*
X105481442Y-101307868D01*
X105597972Y-101106032D01*
X105687160Y-100890714D01*
X105747480Y-100665595D01*
X105777900Y-100434530D01*
X105777900Y-100201470D01*
X105747480Y-99970405D01*
X105687160Y-99745286D01*
X105597972Y-99529968D01*
X105597966Y-99529959D01*
X105597965Y-99529955D01*
X105481444Y-99328135D01*
X105481439Y-99328128D01*
X105339571Y-99143242D01*
X105339552Y-99143221D01*
X105174778Y-98978447D01*
X105174757Y-98978428D01*
X104989871Y-98836560D01*
X104989864Y-98836555D01*
X104788044Y-98720034D01*
X104788036Y-98720030D01*
X104788032Y-98720028D01*
X104572714Y-98630840D01*
X104347595Y-98570520D01*
X104347588Y-98570518D01*
X104116532Y-98540100D01*
X104116530Y-98540100D01*
X103883470Y-98540100D01*
X103883467Y-98540100D01*
X103652411Y-98570518D01*
X103427286Y-98630840D01*
X103211966Y-98720029D01*
X103211955Y-98720034D01*
X103010135Y-98836555D01*
X103010128Y-98836560D01*
X102825242Y-98978428D01*
X102825221Y-98978447D01*
X102660447Y-99143221D01*
X102660428Y-99143242D01*
X102518560Y-99328128D01*
X102518555Y-99328135D01*
X102402034Y-99529955D01*
X102402029Y-99529966D01*
X102312840Y-99745286D01*
X102252518Y-99970411D01*
X102222100Y-100201467D01*
X70277900Y-100201467D01*
X70247480Y-99970405D01*
X70187160Y-99745286D01*
X70097972Y-99529968D01*
X70097966Y-99529959D01*
X70097965Y-99529955D01*
X69981444Y-99328135D01*
X69981439Y-99328128D01*
X69839571Y-99143242D01*
X69839552Y-99143221D01*
X69674778Y-98978447D01*
X69674757Y-98978428D01*
X69489871Y-98836560D01*
X69489864Y-98836555D01*
X69288044Y-98720034D01*
X69288036Y-98720030D01*
X69288032Y-98720028D01*
X69072714Y-98630840D01*
X68847595Y-98570520D01*
X68847588Y-98570518D01*
X68616532Y-98540100D01*
X68616530Y-98540100D01*
X68383470Y-98540100D01*
X68383467Y-98540100D01*
X68152411Y-98570518D01*
X67927286Y-98630840D01*
X67711966Y-98720029D01*
X67711955Y-98720034D01*
X67510135Y-98836555D01*
X67510128Y-98836560D01*
X67325242Y-98978428D01*
X67325221Y-98978447D01*
X67160447Y-99143221D01*
X67160428Y-99143242D01*
X67018560Y-99328128D01*
X67018555Y-99328135D01*
X66902034Y-99529955D01*
X66902029Y-99529966D01*
X66812840Y-99745286D01*
X66752518Y-99970411D01*
X66722100Y-100201467D01*
X61614022Y-100201467D01*
X57615877Y-84589019D01*
X85089500Y-84589019D01*
X85089500Y-84609464D01*
X85089500Y-84828981D01*
X85117186Y-85003784D01*
X85127039Y-85065993D01*
X85166585Y-85187703D01*
X85201190Y-85294205D01*
X85201191Y-85294206D01*
X85310132Y-85508015D01*
X85406499Y-85640652D01*
X85451177Y-85702145D01*
X85451179Y-85702147D01*
X85451181Y-85702150D01*
X85620849Y-85871818D01*
X85620852Y-85871820D01*
X85620855Y-85871823D01*
X85713094Y-85938838D01*
X85814984Y-86012867D01*
X85814988Y-86012869D01*
X86028795Y-86121810D01*
X86257012Y-86195962D01*
X86494019Y-86233500D01*
X86494022Y-86233500D01*
X86733978Y-86233500D01*
X86733981Y-86233500D01*
X86970988Y-86195962D01*
X87199205Y-86121810D01*
X87413012Y-86012869D01*
X87607145Y-85871823D01*
X87776823Y-85702145D01*
X87917869Y-85508012D01*
X88026810Y-85294205D01*
X88100962Y-85065988D01*
X88138500Y-84828981D01*
X88138500Y-84589019D01*
X88100962Y-84352012D01*
X88026810Y-84123795D01*
X87917869Y-83909988D01*
X87917867Y-83909984D01*
X87843838Y-83808094D01*
X87776823Y-83715855D01*
X87776820Y-83715852D01*
X87776818Y-83715849D01*
X87607150Y-83546181D01*
X87607147Y-83546179D01*
X87607145Y-83546177D01*
X87545652Y-83501499D01*
X87413015Y-83405132D01*
X87302111Y-83348624D01*
X87199205Y-83296190D01*
X87199202Y-83296189D01*
X87199200Y-83296188D01*
X86970993Y-83222039D01*
X86970989Y-83222038D01*
X86970988Y-83222038D01*
X86733981Y-83184500D01*
X86494019Y-83184500D01*
X86257012Y-83222038D01*
X86257006Y-83222039D01*
X86028799Y-83296188D01*
X86028793Y-83296191D01*
X85814984Y-83405132D01*
X85620852Y-83546179D01*
X85620849Y-83546181D01*
X85451181Y-83715849D01*
X85451179Y-83715852D01*
X85310132Y-83909984D01*
X85201191Y-84123793D01*
X85201188Y-84123799D01*
X85127039Y-84352006D01*
X85127038Y-84352011D01*
X85127038Y-84352012D01*
X85089500Y-84589019D01*
X57615877Y-84589019D01*
X56842930Y-81570719D01*
X56837772Y-81534407D01*
X56830465Y-81522045D01*
X56826906Y-81508145D01*
X56809050Y-81484333D01*
X56801396Y-81472865D01*
X56786255Y-81447247D01*
X56774778Y-81438625D01*
X56766167Y-81427141D01*
X56734617Y-81408455D01*
X56598712Y-81306361D01*
X56419532Y-81171758D01*
X56411741Y-81165404D01*
X56191707Y-80970821D01*
X56051223Y-80846587D01*
X56045169Y-80840863D01*
X55632491Y-80423919D01*
X55627708Y-80418810D01*
X55159457Y-79889862D01*
X55155641Y-79885341D01*
X54985585Y-79674034D01*
X54958458Y-79608425D01*
X54971109Y-79538564D01*
X55019521Y-79486634D01*
X55028860Y-79481619D01*
X55149536Y-79423235D01*
X56087017Y-78790896D01*
X56140124Y-78749776D01*
X56336062Y-78576427D01*
X56383352Y-78528722D01*
X56554985Y-78331281D01*
X56595644Y-78277811D01*
X56740036Y-78059655D01*
X56773364Y-78001344D01*
X56888048Y-77766209D01*
X56913481Y-77704042D01*
X56996493Y-77455949D01*
X57013596Y-77390991D01*
X57063514Y-77134184D01*
X57071990Y-77067550D01*
X57087960Y-76806426D01*
X57087667Y-76739260D01*
X57073078Y-76530623D01*
X57088279Y-76461273D01*
X57109672Y-76432743D01*
X58747300Y-74795116D01*
X78892100Y-74795116D01*
X78892100Y-75024903D01*
X78922091Y-75252710D01*
X78922092Y-75252716D01*
X78922093Y-75252718D01*
X78981565Y-75474670D01*
X79069499Y-75686961D01*
X79069500Y-75686962D01*
X79069505Y-75686973D01*
X79184387Y-75885955D01*
X79184389Y-75885958D01*
X79184390Y-75885959D01*
X79324272Y-76068257D01*
X79324276Y-76068261D01*
X79324281Y-76068267D01*
X79486742Y-76230728D01*
X79486747Y-76230732D01*
X79486753Y-76230738D01*
X79669051Y-76370620D01*
X79669054Y-76370622D01*
X79868036Y-76485504D01*
X79868040Y-76485505D01*
X79868049Y-76485511D01*
X80080340Y-76573445D01*
X80302292Y-76632917D01*
X80302298Y-76632917D01*
X80302299Y-76632918D01*
X80328438Y-76636359D01*
X80530109Y-76662910D01*
X80530116Y-76662910D01*
X80759884Y-76662910D01*
X80759891Y-76662910D01*
X80987708Y-76632917D01*
X81209660Y-76573445D01*
X81421951Y-76485511D01*
X81620949Y-76370620D01*
X81803247Y-76230738D01*
X81965728Y-76068257D01*
X82105610Y-75885959D01*
X82220501Y-75686961D01*
X82308435Y-75474670D01*
X82367907Y-75252718D01*
X82397900Y-75024901D01*
X82397900Y-74795119D01*
X82397900Y-74795116D01*
X90322100Y-74795116D01*
X90322100Y-75024903D01*
X90352091Y-75252710D01*
X90352092Y-75252716D01*
X90352093Y-75252718D01*
X90411565Y-75474670D01*
X90499499Y-75686961D01*
X90499500Y-75686962D01*
X90499505Y-75686973D01*
X90614387Y-75885955D01*
X90614389Y-75885958D01*
X90614390Y-75885959D01*
X90754272Y-76068257D01*
X90754276Y-76068261D01*
X90754281Y-76068267D01*
X90916742Y-76230728D01*
X90916747Y-76230732D01*
X90916753Y-76230738D01*
X91099051Y-76370620D01*
X91099054Y-76370622D01*
X91298036Y-76485504D01*
X91298040Y-76485505D01*
X91298049Y-76485511D01*
X91510340Y-76573445D01*
X91732292Y-76632917D01*
X91732298Y-76632917D01*
X91732299Y-76632918D01*
X91758438Y-76636359D01*
X91960109Y-76662910D01*
X91960116Y-76662910D01*
X92189884Y-76662910D01*
X92189891Y-76662910D01*
X92417708Y-76632917D01*
X92639660Y-76573445D01*
X92795599Y-76508853D01*
X97243163Y-76508853D01*
X97273475Y-77303492D01*
X97273775Y-77310207D01*
X97289098Y-77390991D01*
X97300056Y-77448765D01*
X97603991Y-78353668D01*
X97677342Y-78572054D01*
X97688036Y-78601003D01*
X98104026Y-79631411D01*
X98107428Y-79639634D01*
X98557566Y-80701682D01*
X98572336Y-80733489D01*
X99149225Y-81873108D01*
X99149234Y-81873123D01*
X99206526Y-81962284D01*
X99206528Y-81962287D01*
X99206531Y-81962291D01*
X99747633Y-82640173D01*
X99775252Y-82672023D01*
X99884993Y-82760607D01*
X100014563Y-82816297D01*
X100014566Y-82816298D01*
X100014569Y-82816299D01*
X100224179Y-82874162D01*
X100602167Y-82978508D01*
X100687932Y-82994559D01*
X101433850Y-83069897D01*
X101641392Y-83090860D01*
X101641399Y-83090860D01*
X101641414Y-83090862D01*
X101672864Y-83093074D01*
X102833533Y-83139258D01*
X102849046Y-83139642D01*
X103633896Y-83147336D01*
X104058175Y-83151497D01*
X104060425Y-83151502D01*
X104065896Y-83151515D01*
X104065927Y-83151514D01*
X104065995Y-83151515D01*
X104863814Y-83147502D01*
X105274864Y-83145435D01*
X105288238Y-83145195D01*
X106446239Y-83109449D01*
X106480325Y-83107270D01*
X107425570Y-83015459D01*
X107526754Y-82995306D01*
X107526755Y-82995305D01*
X107526758Y-82995305D01*
X107526762Y-82995304D01*
X107692340Y-82944740D01*
X108097452Y-82821029D01*
X108116606Y-82814770D01*
X108242225Y-82750662D01*
X108345889Y-82655039D01*
X108862965Y-82027435D01*
X108915448Y-81950583D01*
X109488997Y-80923264D01*
X109506855Y-80888213D01*
X109988346Y-79847180D01*
X109998160Y-79824563D01*
X110460313Y-78686030D01*
X110471580Y-78655565D01*
X110883466Y-77424487D01*
X110908901Y-77297165D01*
X110966512Y-76492649D01*
X110965662Y-76408272D01*
X110933754Y-76270897D01*
X110889609Y-76190359D01*
X110865969Y-76147230D01*
X110865967Y-76147228D01*
X110865966Y-76147226D01*
X110767325Y-76046429D01*
X110095452Y-75525398D01*
X110013527Y-75473373D01*
X109134880Y-75024901D01*
X108849286Y-74879130D01*
X108826326Y-74868115D01*
X107784255Y-74399372D01*
X107773618Y-74394729D01*
X107045500Y-74086627D01*
X106681439Y-73932576D01*
X106660628Y-73924296D01*
X106660614Y-73924291D01*
X106660592Y-73924282D01*
X105309784Y-73420380D01*
X105277269Y-73410626D01*
X105244748Y-73400870D01*
X104376309Y-73201317D01*
X104195326Y-73159730D01*
X104195323Y-73159729D01*
X104121072Y-73148261D01*
X104121064Y-73148261D01*
X104040604Y-73152767D01*
X103980257Y-73156148D01*
X103980253Y-73156148D01*
X103980242Y-73156150D01*
X103037646Y-73339922D01*
X103037611Y-73339930D01*
X102956168Y-73362853D01*
X102956154Y-73362858D01*
X101726335Y-73820386D01*
X101694155Y-73833604D01*
X100438280Y-74399448D01*
X100435067Y-74400911D01*
X100434541Y-74401152D01*
X100434354Y-74401237D01*
X99214317Y-74962756D01*
X99196828Y-74971208D01*
X98122526Y-75515541D01*
X98019262Y-75584561D01*
X97423327Y-76096167D01*
X97393011Y-76124375D01*
X97308246Y-76237082D01*
X97308243Y-76237086D01*
X97257031Y-76368483D01*
X97257029Y-76368490D01*
X97243164Y-76508840D01*
X97243163Y-76508853D01*
X92795599Y-76508853D01*
X92851951Y-76485511D01*
X92916929Y-76447996D01*
X92999679Y-76400221D01*
X93028366Y-76383657D01*
X93050949Y-76370620D01*
X93233247Y-76230738D01*
X93395728Y-76068257D01*
X93535610Y-75885959D01*
X93650501Y-75686961D01*
X93738435Y-75474670D01*
X93797907Y-75252718D01*
X93827900Y-75024901D01*
X93827900Y-74795119D01*
X93801763Y-74596591D01*
X93797908Y-74567307D01*
X93797907Y-74567302D01*
X93738435Y-74345350D01*
X93650501Y-74133059D01*
X93650495Y-74133050D01*
X93650494Y-74133046D01*
X93535612Y-73934064D01*
X93534471Y-73932577D01*
X93395728Y-73751763D01*
X93395722Y-73751757D01*
X93395718Y-73751752D01*
X93233257Y-73589291D01*
X93233251Y-73589286D01*
X93233247Y-73589282D01*
X93050949Y-73449400D01*
X93050948Y-73449399D01*
X93050945Y-73449397D01*
X92851963Y-73334515D01*
X92851955Y-73334511D01*
X92851951Y-73334509D01*
X92639660Y-73246575D01*
X92417708Y-73187103D01*
X92417706Y-73187102D01*
X92417700Y-73187101D01*
X92189893Y-73157110D01*
X92189891Y-73157110D01*
X91960109Y-73157110D01*
X91960106Y-73157110D01*
X91732299Y-73187101D01*
X91510344Y-73246574D01*
X91510340Y-73246575D01*
X91298047Y-73334510D01*
X91298036Y-73334515D01*
X91099054Y-73449397D01*
X90916753Y-73589282D01*
X90916742Y-73589291D01*
X90754281Y-73751752D01*
X90754272Y-73751763D01*
X90614387Y-73934064D01*
X90499505Y-74133046D01*
X90499500Y-74133057D01*
X90499499Y-74133059D01*
X90411565Y-74345350D01*
X90353759Y-74561087D01*
X90352092Y-74567307D01*
X90322100Y-74795116D01*
X82397900Y-74795116D01*
X82371763Y-74596591D01*
X82367908Y-74567307D01*
X82367907Y-74567302D01*
X82308435Y-74345350D01*
X82220501Y-74133059D01*
X82220495Y-74133050D01*
X82220494Y-74133046D01*
X82105612Y-73934064D01*
X82104471Y-73932577D01*
X81965728Y-73751763D01*
X81965722Y-73751757D01*
X81965718Y-73751752D01*
X81803257Y-73589291D01*
X81803251Y-73589286D01*
X81803247Y-73589282D01*
X81620949Y-73449400D01*
X81620948Y-73449399D01*
X81620945Y-73449397D01*
X81421963Y-73334515D01*
X81421955Y-73334511D01*
X81421951Y-73334509D01*
X81209660Y-73246575D01*
X80987708Y-73187103D01*
X80987706Y-73187102D01*
X80987700Y-73187101D01*
X80759893Y-73157110D01*
X80759891Y-73157110D01*
X80530109Y-73157110D01*
X80530106Y-73157110D01*
X80302299Y-73187101D01*
X80080344Y-73246574D01*
X80080340Y-73246575D01*
X79868047Y-73334510D01*
X79868036Y-73334515D01*
X79669054Y-73449397D01*
X79486753Y-73589282D01*
X79486742Y-73589291D01*
X79324281Y-73751752D01*
X79324272Y-73751763D01*
X79184387Y-73934064D01*
X79069505Y-74133046D01*
X79069500Y-74133057D01*
X79069499Y-74133059D01*
X78981565Y-74345350D01*
X78923759Y-74561087D01*
X78922092Y-74567307D01*
X78892100Y-74795116D01*
X58747300Y-74795116D01*
X60822543Y-72719874D01*
X60841342Y-72691739D01*
X60903210Y-72599148D01*
X60958774Y-72465004D01*
X60971535Y-72400852D01*
X60987100Y-72322598D01*
X60987100Y-72177402D01*
X60987100Y-65193467D01*
X61732100Y-65193467D01*
X61732100Y-65426532D01*
X61762518Y-65657588D01*
X61762520Y-65657595D01*
X61822840Y-65882714D01*
X61912028Y-66098032D01*
X61912029Y-66098033D01*
X61912034Y-66098044D01*
X62028555Y-66299864D01*
X62028560Y-66299871D01*
X62170428Y-66484757D01*
X62170447Y-66484778D01*
X62335221Y-66649552D01*
X62335242Y-66649571D01*
X62520128Y-66791439D01*
X62520135Y-66791444D01*
X62721955Y-66907965D01*
X62721959Y-66907966D01*
X62721968Y-66907972D01*
X62937286Y-66997160D01*
X63162405Y-67057480D01*
X63162409Y-67057480D01*
X63162411Y-67057481D01*
X63221962Y-67065320D01*
X63393470Y-67087900D01*
X63393477Y-67087900D01*
X63626523Y-67087900D01*
X63626530Y-67087900D01*
X63835353Y-67060408D01*
X63857588Y-67057481D01*
X63857588Y-67057480D01*
X63857595Y-67057480D01*
X64082714Y-66997160D01*
X64298032Y-66907972D01*
X64499868Y-66791442D01*
X64678856Y-66654099D01*
X64684757Y-66649571D01*
X64684757Y-66649570D01*
X64684766Y-66649564D01*
X64849564Y-66484766D01*
X64991442Y-66299868D01*
X65107972Y-66098032D01*
X65197160Y-65882714D01*
X65257480Y-65657595D01*
X65287900Y-65426530D01*
X65287900Y-65193470D01*
X65257480Y-64962405D01*
X65197160Y-64737286D01*
X65107972Y-64521968D01*
X65107966Y-64521959D01*
X65107965Y-64521955D01*
X64991444Y-64320135D01*
X64991439Y-64320128D01*
X64849571Y-64135242D01*
X64849552Y-64135221D01*
X64684778Y-63970447D01*
X64684757Y-63970428D01*
X64499871Y-63828560D01*
X64499864Y-63828555D01*
X64298044Y-63712034D01*
X64298036Y-63712030D01*
X64298032Y-63712028D01*
X64082714Y-63622840D01*
X63857595Y-63562520D01*
X63857588Y-63562518D01*
X63626532Y-63532100D01*
X63626530Y-63532100D01*
X63393470Y-63532100D01*
X63393467Y-63532100D01*
X63162411Y-63562518D01*
X62937286Y-63622840D01*
X62818206Y-63672165D01*
X62721966Y-63712029D01*
X62721955Y-63712034D01*
X62520135Y-63828555D01*
X62520128Y-63828560D01*
X62335242Y-63970428D01*
X62335221Y-63970447D01*
X62170447Y-64135221D01*
X62170428Y-64135242D01*
X62028560Y-64320128D01*
X62028555Y-64320135D01*
X61912034Y-64521955D01*
X61912029Y-64521966D01*
X61912028Y-64521968D01*
X61899843Y-64551386D01*
X61822840Y-64737286D01*
X61762518Y-64962411D01*
X61732100Y-65193467D01*
X60987100Y-65193467D01*
X60987100Y-58857507D01*
X61007102Y-58789386D01*
X61024005Y-58768412D01*
X61268412Y-58524005D01*
X61330724Y-58489979D01*
X61357507Y-58487100D01*
X65326451Y-58487100D01*
X65394572Y-58507102D01*
X65441065Y-58560758D01*
X65451169Y-58631032D01*
X65446284Y-58652034D01*
X65442735Y-58662959D01*
X65411500Y-58860167D01*
X65411500Y-59059833D01*
X65442735Y-59257041D01*
X65442736Y-59257046D01*
X65504433Y-59446930D01*
X65504435Y-59446935D01*
X65595082Y-59624839D01*
X65595084Y-59624842D01*
X65712444Y-59786374D01*
X65853625Y-59927555D01*
X65853628Y-59927557D01*
X66015161Y-60044918D01*
X66193065Y-60135565D01*
X66382959Y-60197265D01*
X66580167Y-60228500D01*
X66580170Y-60228500D01*
X66779830Y-60228500D01*
X66779833Y-60228500D01*
X66977041Y-60197265D01*
X67026104Y-60181323D01*
X67047964Y-60174221D01*
X67118932Y-60172193D01*
X67179729Y-60208856D01*
X67211055Y-60272568D01*
X67212900Y-60294054D01*
X67212900Y-70118784D01*
X67238714Y-70248557D01*
X67241226Y-70261188D01*
X67296790Y-70395332D01*
X67350689Y-70475998D01*
X67377456Y-70516057D01*
X67377461Y-70516063D01*
X69467273Y-72605874D01*
X69569942Y-72708543D01*
X69690668Y-72789210D01*
X69824812Y-72844774D01*
X69967218Y-72873100D01*
X69967219Y-72873100D01*
X85162597Y-72873100D01*
X85162598Y-72873100D01*
X85305004Y-72844774D01*
X85439148Y-72789210D01*
X85559874Y-72708543D01*
X87567543Y-70700874D01*
X87648210Y-70580148D01*
X87703774Y-70446004D01*
X87732100Y-70303598D01*
X87732100Y-70158402D01*
X87732100Y-69683550D01*
X87752102Y-69615429D01*
X87805758Y-69568936D01*
X87876032Y-69558832D01*
X87897033Y-69563716D01*
X87970300Y-69587522D01*
X88165954Y-69618510D01*
X88165957Y-69618510D01*
X88364043Y-69618510D01*
X88364046Y-69618510D01*
X88559700Y-69587522D01*
X88748097Y-69526308D01*
X88924598Y-69436376D01*
X89084858Y-69319940D01*
X89224930Y-69179868D01*
X89318564Y-69050991D01*
X89374786Y-69007638D01*
X89445523Y-69001563D01*
X89508314Y-69034695D01*
X89543226Y-69096515D01*
X89546500Y-69125053D01*
X89546500Y-69158659D01*
X89553009Y-69219206D01*
X89553011Y-69219214D01*
X89604110Y-69356212D01*
X89604112Y-69356217D01*
X89691738Y-69473271D01*
X89808792Y-69560897D01*
X89808794Y-69560898D01*
X89808796Y-69560899D01*
X89867875Y-69582934D01*
X89945795Y-69611998D01*
X89945803Y-69612000D01*
X90006350Y-69618509D01*
X90006355Y-69618509D01*
X90006362Y-69618510D01*
X90006368Y-69618510D01*
X91603632Y-69618510D01*
X91603638Y-69618510D01*
X91603645Y-69618509D01*
X91603649Y-69618509D01*
X91664196Y-69612000D01*
X91664199Y-69611999D01*
X91664201Y-69611999D01*
X91801204Y-69560899D01*
X91803966Y-69558832D01*
X91918261Y-69473271D01*
X92005887Y-69356217D01*
X92005887Y-69356216D01*
X92005889Y-69356214D01*
X92056989Y-69219211D01*
X92056990Y-69219205D01*
X92058019Y-69209635D01*
X92085186Y-69144042D01*
X92143503Y-69103549D01*
X92183297Y-69097100D01*
X94672493Y-69097100D01*
X94740614Y-69117102D01*
X94761588Y-69134005D01*
X95947457Y-70319874D01*
X96050126Y-70422543D01*
X96170852Y-70503210D01*
X96304996Y-70558774D01*
X96447402Y-70587100D01*
X96447403Y-70587100D01*
X103222597Y-70587100D01*
X103222598Y-70587100D01*
X103365004Y-70558774D01*
X103499148Y-70503210D01*
X103619874Y-70422543D01*
X105352543Y-68689874D01*
X105433210Y-68569148D01*
X105488774Y-68435004D01*
X105517100Y-68292598D01*
X105517100Y-68147402D01*
X105517100Y-60056616D01*
X105537102Y-59988495D01*
X105569036Y-59954683D01*
X105606372Y-59927557D01*
X105747557Y-59786372D01*
X105864918Y-59624839D01*
X105937734Y-59481929D01*
X105986481Y-59430316D01*
X106055396Y-59413250D01*
X106122598Y-59436151D01*
X106162265Y-59481929D01*
X106235082Y-59624839D01*
X106235084Y-59624842D01*
X106352444Y-59786374D01*
X106493625Y-59927555D01*
X106493628Y-59927557D01*
X106655161Y-60044918D01*
X106833065Y-60135565D01*
X107022959Y-60197265D01*
X107220167Y-60228500D01*
X107220170Y-60228500D01*
X107419830Y-60228500D01*
X107419833Y-60228500D01*
X107617041Y-60197265D01*
X107806935Y-60135565D01*
X107984839Y-60044918D01*
X108146372Y-59927557D01*
X108287557Y-59786372D01*
X108404918Y-59624839D01*
X108495565Y-59446935D01*
X108557265Y-59257041D01*
X108588500Y-59059833D01*
X108588500Y-58860167D01*
X108557265Y-58662959D01*
X108495565Y-58473065D01*
X108468680Y-58420302D01*
X108455577Y-58350526D01*
X108482277Y-58284741D01*
X108540305Y-58243835D01*
X108580948Y-58237100D01*
X110142493Y-58237100D01*
X110210614Y-58257102D01*
G37*
%TD.AperFunction*%
%TA.AperFunction,Conductor*%
G36*
X112445612Y-67988483D02*
G01*
X112452195Y-67994612D01*
X113848293Y-69390710D01*
X113911806Y-69454223D01*
X113950962Y-69493379D01*
X114071688Y-69574046D01*
X114071690Y-69574047D01*
X114163313Y-69611998D01*
X114163315Y-69612000D01*
X114201943Y-69627999D01*
X114205831Y-69629610D01*
X114348238Y-69657936D01*
X114493434Y-69657936D01*
X119070194Y-69657936D01*
X119138315Y-69677938D01*
X119184808Y-69731594D01*
X119193207Y-69756665D01*
X119203464Y-69802931D01*
X119203469Y-69802953D01*
X119222264Y-69867436D01*
X119311737Y-70113263D01*
X119338792Y-70174750D01*
X119459586Y-70406791D01*
X119459600Y-70406815D01*
X119494431Y-70464214D01*
X119494437Y-70464223D01*
X119494438Y-70464224D01*
X119644493Y-70678524D01*
X119686532Y-70730905D01*
X119863273Y-70923787D01*
X119863281Y-70923794D01*
X119863285Y-70923799D01*
X119911781Y-70970224D01*
X119911793Y-70970234D01*
X119911797Y-70970238D01*
X120112204Y-71138399D01*
X120146733Y-71163716D01*
X120166359Y-71178107D01*
X120166365Y-71178112D01*
X120166373Y-71178117D01*
X120387016Y-71318681D01*
X120426157Y-71340251D01*
X120444117Y-71350149D01*
X120444123Y-71350152D01*
X120444143Y-71350163D01*
X121235425Y-71722797D01*
X121343558Y-71773720D01*
X121467192Y-71831942D01*
X121537393Y-71858914D01*
X121610547Y-71870025D01*
X121690803Y-71882216D01*
X121690435Y-71884637D01*
X121745796Y-71901367D01*
X121791865Y-71955386D01*
X121801417Y-72025737D01*
X121789458Y-72063343D01*
X121522152Y-72595967D01*
X121521539Y-72597171D01*
X121058431Y-73495783D01*
X121057765Y-73497057D01*
X120634523Y-74295794D01*
X120633798Y-74297143D01*
X120210394Y-75073235D01*
X120209600Y-75074669D01*
X120009371Y-75430596D01*
X119958538Y-75480160D01*
X119888979Y-75494373D01*
X119822778Y-75468724D01*
X119780952Y-75411356D01*
X119778814Y-75404840D01*
X119775544Y-75393862D01*
X119717556Y-75304412D01*
X119696040Y-75271222D01*
X119696037Y-75271219D01*
X119585199Y-75175946D01*
X119585197Y-75175944D01*
X118631487Y-74568364D01*
X118631472Y-74568356D01*
X118572621Y-74536068D01*
X118572609Y-74536062D01*
X118396370Y-74453880D01*
X118335501Y-74425496D01*
X118272903Y-74401152D01*
X118272893Y-74401149D01*
X118023415Y-74322488D01*
X118023402Y-74322484D01*
X118023395Y-74322482D01*
X118023391Y-74322481D01*
X118023367Y-74322474D01*
X117958146Y-74306515D01*
X117700501Y-74261087D01*
X117633749Y-74253777D01*
X117633756Y-74253777D01*
X117372374Y-74242364D01*
X117305236Y-74243829D01*
X117044617Y-74266628D01*
X116978218Y-74276847D01*
X116722811Y-74333471D01*
X116658321Y-74352268D01*
X116412486Y-74441745D01*
X116412480Y-74441747D01*
X116351031Y-74468785D01*
X116351017Y-74468792D01*
X116351009Y-74468795D01*
X116351007Y-74468797D01*
X116221799Y-74536059D01*
X116200061Y-74547375D01*
X116130401Y-74561087D01*
X116064386Y-74534962D01*
X116052786Y-74524706D01*
X113860190Y-72332110D01*
X113844520Y-72313017D01*
X113822545Y-72280129D01*
X113822540Y-72280123D01*
X112274005Y-70731588D01*
X112239979Y-70669276D01*
X112237100Y-70642493D01*
X112237100Y-68083707D01*
X112257102Y-68015586D01*
X112310758Y-67969093D01*
X112381032Y-67958989D01*
X112445612Y-67988483D01*
G37*
%TD.AperFunction*%
%TA.AperFunction,Conductor*%
G36*
X59430932Y-67465651D02*
G01*
X59487768Y-67508198D01*
X59512579Y-67574718D01*
X59512900Y-67583707D01*
X59512900Y-71892492D01*
X59492898Y-71960613D01*
X59475995Y-71981587D01*
X56489745Y-74967836D01*
X56427433Y-75001862D01*
X56356617Y-74996797D01*
X56317990Y-74973837D01*
X56122906Y-74804256D01*
X56069445Y-74763604D01*
X55851291Y-74619210D01*
X55851287Y-74619208D01*
X55851280Y-74619203D01*
X55799477Y-74589596D01*
X55792974Y-74585879D01*
X55742143Y-74561087D01*
X55557845Y-74471198D01*
X55551976Y-74468797D01*
X55515518Y-74453881D01*
X55495681Y-74445765D01*
X55495674Y-74445762D01*
X55495670Y-74445761D01*
X55247577Y-74362750D01*
X55247572Y-74362748D01*
X55247570Y-74362748D01*
X55247549Y-74362741D01*
X55182641Y-74345652D01*
X55182617Y-74345646D01*
X54925819Y-74295730D01*
X54859192Y-74287255D01*
X54859172Y-74287253D01*
X54598047Y-74271283D01*
X54530886Y-74271577D01*
X54269910Y-74289827D01*
X54203361Y-74298883D01*
X53946997Y-74351039D01*
X53882195Y-74368706D01*
X53882176Y-74368712D01*
X53634830Y-74453881D01*
X53572901Y-74479850D01*
X53572884Y-74479858D01*
X53338755Y-74596591D01*
X53282361Y-74629337D01*
X52342480Y-75258130D01*
X52283206Y-75304411D01*
X52240138Y-75356405D01*
X52181279Y-75396105D01*
X52110300Y-75397682D01*
X52049736Y-75360634D01*
X52035532Y-75341632D01*
X51866113Y-75063836D01*
X51864629Y-75061338D01*
X51812484Y-74971224D01*
X51012295Y-73588390D01*
X51011071Y-73586223D01*
X50357544Y-72400852D01*
X50106931Y-71946288D01*
X50091558Y-71876976D01*
X50116098Y-71810355D01*
X50172760Y-71767578D01*
X50177593Y-71765865D01*
X50307678Y-71722799D01*
X51319675Y-71218236D01*
X51377695Y-71184399D01*
X51594583Y-71038108D01*
X51647695Y-70996985D01*
X51843631Y-70823636D01*
X51890921Y-70775931D01*
X52062553Y-70578489D01*
X52103208Y-70525025D01*
X52247602Y-70306870D01*
X52280931Y-70248557D01*
X52395616Y-70013422D01*
X52421052Y-69951249D01*
X52504062Y-69703155D01*
X52520968Y-69638938D01*
X52557654Y-69578156D01*
X52621378Y-69546855D01*
X52642816Y-69545018D01*
X57014679Y-69545018D01*
X57014680Y-69545018D01*
X57157086Y-69516692D01*
X57291230Y-69461128D01*
X57411956Y-69380461D01*
X59297805Y-67494612D01*
X59360117Y-67460587D01*
X59430932Y-67465651D01*
G37*
%TD.AperFunction*%
%TA.AperFunction,Conductor*%
G36*
X74894614Y-40127102D02*
G01*
X74915588Y-40144005D01*
X75806995Y-41035412D01*
X75841021Y-41097724D01*
X75843900Y-41124507D01*
X75843900Y-60958610D01*
X75857123Y-61025084D01*
X75872226Y-61101014D01*
X75927790Y-61235158D01*
X75981689Y-61315824D01*
X76008456Y-61355883D01*
X76008461Y-61355889D01*
X80627105Y-65974532D01*
X80661131Y-66036844D01*
X80662459Y-66083335D01*
X80660130Y-66098044D01*
X80656500Y-66120964D01*
X80656500Y-66319056D01*
X80687488Y-66514710D01*
X80748702Y-66703107D01*
X80838634Y-66879608D01*
X80838636Y-66879611D01*
X80955071Y-67039870D01*
X81095139Y-67179938D01*
X81187095Y-67246748D01*
X81255402Y-67296376D01*
X81431903Y-67386308D01*
X81620300Y-67447522D01*
X81815954Y-67478510D01*
X81815957Y-67478510D01*
X82018996Y-67478510D01*
X82018996Y-67479888D01*
X82082346Y-67493179D01*
X82132919Y-67543008D01*
X82148524Y-67612268D01*
X82124721Y-67678268D01*
X82108636Y-67700408D01*
X82018703Y-67876911D01*
X82018702Y-67876913D01*
X81967690Y-68033913D01*
X81957488Y-68065310D01*
X81926500Y-68260964D01*
X81926500Y-68459056D01*
X81957488Y-68654710D01*
X82018702Y-68843107D01*
X82099440Y-69001563D01*
X82108636Y-69019611D01*
X82225071Y-69179870D01*
X82365139Y-69319938D01*
X82448435Y-69380456D01*
X82525402Y-69436376D01*
X82701903Y-69526308D01*
X82890300Y-69587522D01*
X83085954Y-69618510D01*
X83085957Y-69618510D01*
X83284043Y-69618510D01*
X83284046Y-69618510D01*
X83479700Y-69587522D01*
X83668097Y-69526308D01*
X83844598Y-69436376D01*
X84004858Y-69319940D01*
X84144930Y-69179868D01*
X84261366Y-69019608D01*
X84342734Y-68859912D01*
X84391481Y-68808300D01*
X84460396Y-68791234D01*
X84527598Y-68814135D01*
X84567264Y-68859912D01*
X84639440Y-69001563D01*
X84648636Y-69019611D01*
X84765071Y-69179870D01*
X84906297Y-69321096D01*
X84940323Y-69383408D01*
X84935258Y-69454223D01*
X84906297Y-69499286D01*
X84059588Y-70345995D01*
X83997276Y-70380021D01*
X83970493Y-70382900D01*
X70727507Y-70382900D01*
X70659386Y-70362898D01*
X70638412Y-70345995D01*
X69994005Y-69701588D01*
X69959979Y-69639276D01*
X69957100Y-69612493D01*
X69957100Y-65193467D01*
X71892100Y-65193467D01*
X71892100Y-65426532D01*
X71922518Y-65657588D01*
X71922520Y-65657595D01*
X71982840Y-65882714D01*
X72072028Y-66098032D01*
X72072029Y-66098033D01*
X72072034Y-66098044D01*
X72188555Y-66299864D01*
X72188560Y-66299871D01*
X72330428Y-66484757D01*
X72330447Y-66484778D01*
X72495221Y-66649552D01*
X72495242Y-66649571D01*
X72680128Y-66791439D01*
X72680135Y-66791444D01*
X72881955Y-66907965D01*
X72881959Y-66907966D01*
X72881968Y-66907972D01*
X73097286Y-66997160D01*
X73322405Y-67057480D01*
X73322409Y-67057480D01*
X73322411Y-67057481D01*
X73381962Y-67065320D01*
X73553470Y-67087900D01*
X73553477Y-67087900D01*
X73786523Y-67087900D01*
X73786530Y-67087900D01*
X73995353Y-67060408D01*
X74017588Y-67057481D01*
X74017588Y-67057480D01*
X74017595Y-67057480D01*
X74242714Y-66997160D01*
X74458032Y-66907972D01*
X74659868Y-66791442D01*
X74838856Y-66654099D01*
X74844757Y-66649571D01*
X74844757Y-66649570D01*
X74844766Y-66649564D01*
X75009564Y-66484766D01*
X75151442Y-66299868D01*
X75267972Y-66098032D01*
X75357160Y-65882714D01*
X75417480Y-65657595D01*
X75447900Y-65426530D01*
X75447900Y-65193470D01*
X75417480Y-64962405D01*
X75357160Y-64737286D01*
X75267972Y-64521968D01*
X75267966Y-64521959D01*
X75267965Y-64521955D01*
X75151444Y-64320135D01*
X75151439Y-64320128D01*
X75009571Y-64135242D01*
X75009552Y-64135221D01*
X74844778Y-63970447D01*
X74844757Y-63970428D01*
X74659871Y-63828560D01*
X74659864Y-63828555D01*
X74458044Y-63712034D01*
X74458036Y-63712030D01*
X74458032Y-63712028D01*
X74242714Y-63622840D01*
X74017595Y-63562520D01*
X74017588Y-63562518D01*
X73786532Y-63532100D01*
X73786530Y-63532100D01*
X73553470Y-63532100D01*
X73553467Y-63532100D01*
X73322411Y-63562518D01*
X73097286Y-63622840D01*
X72978206Y-63672165D01*
X72881966Y-63712029D01*
X72881955Y-63712034D01*
X72680135Y-63828555D01*
X72680128Y-63828560D01*
X72495242Y-63970428D01*
X72495221Y-63970447D01*
X72330447Y-64135221D01*
X72330428Y-64135242D01*
X72188560Y-64320128D01*
X72188555Y-64320135D01*
X72072034Y-64521955D01*
X72072029Y-64521966D01*
X72072028Y-64521968D01*
X72059843Y-64551386D01*
X71982840Y-64737286D01*
X71922518Y-64962411D01*
X71892100Y-65193467D01*
X69957100Y-65193467D01*
X69957100Y-60056616D01*
X69977102Y-59988495D01*
X70009036Y-59954683D01*
X70046372Y-59927557D01*
X70187557Y-59786372D01*
X70304918Y-59624839D01*
X70377734Y-59481929D01*
X70426481Y-59430316D01*
X70495396Y-59413250D01*
X70562598Y-59436151D01*
X70602265Y-59481929D01*
X70675082Y-59624839D01*
X70675084Y-59624842D01*
X70792444Y-59786374D01*
X70933625Y-59927555D01*
X70933628Y-59927557D01*
X71095161Y-60044918D01*
X71273065Y-60135565D01*
X71462959Y-60197265D01*
X71660167Y-60228500D01*
X71660170Y-60228500D01*
X71859830Y-60228500D01*
X71859833Y-60228500D01*
X72057041Y-60197265D01*
X72246935Y-60135565D01*
X72424839Y-60044918D01*
X72586372Y-59927557D01*
X72727557Y-59786372D01*
X72844918Y-59624839D01*
X72935565Y-59446935D01*
X72997265Y-59257041D01*
X73028500Y-59059833D01*
X73028500Y-58860167D01*
X72997265Y-58662959D01*
X72935565Y-58473065D01*
X72844918Y-58295161D01*
X72727557Y-58133628D01*
X72727555Y-58133625D01*
X72586374Y-57992444D01*
X72424842Y-57875084D01*
X72424841Y-57875083D01*
X72424839Y-57875082D01*
X72246935Y-57784435D01*
X72246932Y-57784434D01*
X72246930Y-57784433D01*
X72057046Y-57722736D01*
X72057042Y-57722735D01*
X72057041Y-57722735D01*
X71859833Y-57691500D01*
X71660167Y-57691500D01*
X71472840Y-57721170D01*
X71462953Y-57722736D01*
X71273069Y-57784433D01*
X71273063Y-57784436D01*
X71095157Y-57875084D01*
X70933625Y-57992444D01*
X70792444Y-58133625D01*
X70675083Y-58295158D01*
X70602267Y-58438068D01*
X70553518Y-58489683D01*
X70484603Y-58506749D01*
X70417402Y-58483848D01*
X70377733Y-58438068D01*
X70333128Y-58350526D01*
X70304918Y-58295161D01*
X70297348Y-58284741D01*
X70187555Y-58133625D01*
X70046375Y-57992445D01*
X70046365Y-57992437D01*
X70009037Y-57965315D01*
X70005643Y-57960913D01*
X70000588Y-57958605D01*
X69984198Y-57933103D01*
X69965684Y-57909092D01*
X69964411Y-57902313D01*
X69962204Y-57898879D01*
X69957100Y-57863381D01*
X69957100Y-57754054D01*
X69977102Y-57685933D01*
X70030758Y-57639440D01*
X70101032Y-57629336D01*
X70122036Y-57634221D01*
X70125425Y-57635322D01*
X70192953Y-57657263D01*
X70192954Y-57657263D01*
X70192959Y-57657265D01*
X70390167Y-57688500D01*
X70390170Y-57688500D01*
X70589830Y-57688500D01*
X70589833Y-57688500D01*
X70787041Y-57657265D01*
X70976935Y-57595565D01*
X71154839Y-57504918D01*
X71316372Y-57387557D01*
X71457557Y-57246372D01*
X71574918Y-57084839D01*
X71665565Y-56906935D01*
X71727265Y-56717041D01*
X71758500Y-56519833D01*
X71758500Y-56320167D01*
X71727265Y-56122959D01*
X71665565Y-55933065D01*
X71574918Y-55755161D01*
X71457557Y-55593628D01*
X71457555Y-55593625D01*
X71316374Y-55452444D01*
X71154842Y-55335084D01*
X71154841Y-55335083D01*
X71154839Y-55335082D01*
X70976935Y-55244435D01*
X70976932Y-55244434D01*
X70976930Y-55244433D01*
X70787046Y-55182736D01*
X70787042Y-55182735D01*
X70787041Y-55182735D01*
X70589833Y-55151500D01*
X70390167Y-55151500D01*
X70192959Y-55182735D01*
X70192953Y-55182736D01*
X70003060Y-55244436D01*
X69941397Y-55275855D01*
X69871620Y-55288959D01*
X69805835Y-55262258D01*
X69795100Y-55252683D01*
X69131512Y-54589095D01*
X69097486Y-54526783D01*
X69102551Y-54455968D01*
X69131510Y-54410906D01*
X69782543Y-53759874D01*
X69863210Y-53639148D01*
X69918774Y-53505004D01*
X69947100Y-53362598D01*
X69947100Y-53217402D01*
X69947100Y-52626616D01*
X69967102Y-52558495D01*
X69999036Y-52524683D01*
X70036372Y-52497557D01*
X70177557Y-52356372D01*
X70286127Y-52206937D01*
X70342348Y-52163585D01*
X70413084Y-52157510D01*
X70475876Y-52190641D01*
X70507666Y-52241367D01*
X70547883Y-52362734D01*
X70547884Y-52362736D01*
X70547885Y-52362738D01*
X70640970Y-52513652D01*
X70640975Y-52513658D01*
X70766341Y-52639024D01*
X70766347Y-52639029D01*
X70766348Y-52639030D01*
X70917262Y-52732115D01*
X71085574Y-52787887D01*
X71189455Y-52798500D01*
X72310544Y-52798499D01*
X72414426Y-52787887D01*
X72582738Y-52732115D01*
X72733652Y-52639030D01*
X72859030Y-52513652D01*
X72952115Y-52362738D01*
X73007887Y-52194426D01*
X73018500Y-52090545D01*
X73018499Y-50969456D01*
X73007887Y-50865574D01*
X72952115Y-50697262D01*
X72859030Y-50546348D01*
X72859029Y-50546347D01*
X72859024Y-50546341D01*
X72733658Y-50420975D01*
X72733652Y-50420970D01*
X72582738Y-50327885D01*
X72478643Y-50293392D01*
X72414427Y-50272113D01*
X72414420Y-50272112D01*
X72310553Y-50261500D01*
X71275817Y-50261500D01*
X71207696Y-50241498D01*
X71161203Y-50187842D01*
X71151099Y-50117568D01*
X71180593Y-50052988D01*
X71201754Y-50033566D01*
X71306372Y-49957557D01*
X71447557Y-49816372D01*
X71564918Y-49654839D01*
X71655565Y-49476935D01*
X71717265Y-49287041D01*
X71748500Y-49089833D01*
X71748500Y-48890167D01*
X71717265Y-48692959D01*
X71655565Y-48503065D01*
X71564918Y-48325161D01*
X71447557Y-48163628D01*
X71447555Y-48163625D01*
X71306374Y-48022444D01*
X71144842Y-47905084D01*
X71144841Y-47905083D01*
X71144839Y-47905082D01*
X70966935Y-47814435D01*
X70966932Y-47814434D01*
X70966930Y-47814433D01*
X70777046Y-47752736D01*
X70777042Y-47752735D01*
X70777041Y-47752735D01*
X70579833Y-47721500D01*
X70380167Y-47721500D01*
X70182959Y-47752735D01*
X70182953Y-47752736D01*
X70112036Y-47775779D01*
X70041068Y-47777807D01*
X69980271Y-47741144D01*
X69948945Y-47677432D01*
X69947100Y-47655946D01*
X69947100Y-42523467D01*
X71872100Y-42523467D01*
X71872100Y-42756532D01*
X71902518Y-42987588D01*
X71902520Y-42987595D01*
X71962840Y-43212714D01*
X72052028Y-43428032D01*
X72052029Y-43428033D01*
X72052034Y-43428044D01*
X72168555Y-43629864D01*
X72168560Y-43629871D01*
X72310428Y-43814757D01*
X72310447Y-43814778D01*
X72475221Y-43979552D01*
X72475242Y-43979571D01*
X72660128Y-44121439D01*
X72660135Y-44121444D01*
X72861955Y-44237965D01*
X72861959Y-44237966D01*
X72861968Y-44237972D01*
X73077286Y-44327160D01*
X73302405Y-44387480D01*
X73302409Y-44387480D01*
X73302411Y-44387481D01*
X73361962Y-44395320D01*
X73533470Y-44417900D01*
X73533477Y-44417900D01*
X73766523Y-44417900D01*
X73766530Y-44417900D01*
X73975353Y-44390408D01*
X73997588Y-44387481D01*
X73997588Y-44387480D01*
X73997595Y-44387480D01*
X74222714Y-44327160D01*
X74438032Y-44237972D01*
X74639868Y-44121442D01*
X74824766Y-43979564D01*
X74989564Y-43814766D01*
X75131442Y-43629868D01*
X75247972Y-43428032D01*
X75337160Y-43212714D01*
X75397480Y-42987595D01*
X75427900Y-42756530D01*
X75427900Y-42523470D01*
X75397480Y-42292405D01*
X75337160Y-42067286D01*
X75247972Y-41851968D01*
X75247966Y-41851959D01*
X75247965Y-41851955D01*
X75131444Y-41650135D01*
X75131439Y-41650128D01*
X74989571Y-41465242D01*
X74989552Y-41465221D01*
X74824778Y-41300447D01*
X74824757Y-41300428D01*
X74639871Y-41158560D01*
X74639864Y-41158555D01*
X74438044Y-41042034D01*
X74438036Y-41042030D01*
X74438032Y-41042028D01*
X74222714Y-40952840D01*
X73997595Y-40892520D01*
X73997588Y-40892518D01*
X73766532Y-40862100D01*
X73766530Y-40862100D01*
X73533470Y-40862100D01*
X73533467Y-40862100D01*
X73302411Y-40892518D01*
X73152308Y-40932738D01*
X73077286Y-40952840D01*
X72877941Y-41035412D01*
X72861966Y-41042029D01*
X72861955Y-41042034D01*
X72660135Y-41158555D01*
X72660128Y-41158560D01*
X72475242Y-41300428D01*
X72475221Y-41300447D01*
X72310447Y-41465221D01*
X72310428Y-41465242D01*
X72168560Y-41650128D01*
X72168555Y-41650135D01*
X72052034Y-41851955D01*
X72052029Y-41851966D01*
X72052028Y-41851968D01*
X72007907Y-41958486D01*
X71962840Y-42067286D01*
X71902518Y-42292411D01*
X71872100Y-42523467D01*
X69947100Y-42523467D01*
X69947100Y-40875507D01*
X69967102Y-40807386D01*
X69984005Y-40786412D01*
X70626412Y-40144005D01*
X70688724Y-40109979D01*
X70715507Y-40107100D01*
X74826493Y-40107100D01*
X74894614Y-40127102D01*
G37*
%TD.AperFunction*%
%TA.AperFunction,Conductor*%
G36*
X121210614Y-54757102D02*
G01*
X121231588Y-54774005D01*
X123847782Y-57390199D01*
X123881808Y-57452511D01*
X123876743Y-57523326D01*
X123875920Y-57525473D01*
X123832648Y-57635324D01*
X123825625Y-57657265D01*
X123816591Y-57685488D01*
X123812171Y-57699295D01*
X123748884Y-57953115D01*
X123748877Y-57953144D01*
X123736925Y-58019241D01*
X123707313Y-58279156D01*
X123707313Y-58279162D01*
X123704090Y-58346254D01*
X123708656Y-58607832D01*
X123714216Y-58674759D01*
X123714216Y-58674760D01*
X123751580Y-58924761D01*
X123752887Y-58933507D01*
X123767139Y-58999145D01*
X123767140Y-58999147D01*
X123839241Y-59250598D01*
X123839248Y-59250622D01*
X123861943Y-59313836D01*
X123966264Y-59553759D01*
X123971456Y-59563839D01*
X123997019Y-59613473D01*
X123997023Y-59613480D01*
X124131758Y-59837715D01*
X124170054Y-59892917D01*
X124170060Y-59892924D01*
X124279165Y-60030087D01*
X124305918Y-60095850D01*
X124292869Y-60165637D01*
X124244163Y-60217291D01*
X124175261Y-60234413D01*
X124132339Y-60224933D01*
X122250624Y-59445500D01*
X122250623Y-59445500D01*
X122149377Y-59445499D01*
X122149376Y-59445499D01*
X122055839Y-59484243D01*
X122055838Y-59484244D01*
X121984245Y-59555836D01*
X121984244Y-59555837D01*
X120731950Y-62579148D01*
X119697652Y-65076170D01*
X119688148Y-65099114D01*
X119649403Y-65192652D01*
X119649403Y-65293900D01*
X119688147Y-65387437D01*
X119688147Y-65387438D01*
X119688148Y-65387439D01*
X119759741Y-65459031D01*
X122044255Y-66405307D01*
X122099536Y-66449855D01*
X122121957Y-66517219D01*
X122104399Y-66586010D01*
X122052437Y-66634388D01*
X121982568Y-66646994D01*
X121974159Y-66645802D01*
X121931803Y-66638334D01*
X121931781Y-66638330D01*
X121865034Y-66631021D01*
X121865036Y-66631021D01*
X121603657Y-66619610D01*
X121536520Y-66621075D01*
X121275898Y-66643876D01*
X121275895Y-66643876D01*
X121275894Y-66643877D01*
X121209510Y-66654094D01*
X121209506Y-66654094D01*
X121209482Y-66654099D01*
X120954111Y-66710712D01*
X120954106Y-66710713D01*
X120954099Y-66710715D01*
X120905730Y-66724812D01*
X120889604Y-66729513D01*
X120643787Y-66818984D01*
X120643779Y-66818987D01*
X120643772Y-66818990D01*
X120589532Y-66842857D01*
X120582285Y-66846046D01*
X120350241Y-66966842D01*
X120350215Y-66966856D01*
X120292808Y-67001693D01*
X120078513Y-67151744D01*
X120078491Y-67151760D01*
X120026140Y-67193777D01*
X120026134Y-67193782D01*
X119833250Y-67370527D01*
X119833244Y-67370532D01*
X119786817Y-67419032D01*
X119786802Y-67419048D01*
X119618654Y-67619437D01*
X119618618Y-67619483D01*
X119578923Y-67673621D01*
X119438359Y-67894267D01*
X119406057Y-67953148D01*
X119406048Y-67953166D01*
X119332454Y-68110987D01*
X119285537Y-68164271D01*
X119218260Y-68183736D01*
X114778343Y-68183736D01*
X114710222Y-68163734D01*
X114689248Y-68146831D01*
X113274005Y-66731588D01*
X113239979Y-66669276D01*
X113237100Y-66642493D01*
X113237100Y-56677403D01*
X113237099Y-56677399D01*
X113236170Y-56672727D01*
X113208774Y-56534996D01*
X113153210Y-56400852D01*
X113072543Y-56280126D01*
X112969874Y-56177457D01*
X111744612Y-54952195D01*
X111710586Y-54889883D01*
X111715651Y-54819068D01*
X111758198Y-54762232D01*
X111824718Y-54737421D01*
X111833707Y-54737100D01*
X121142493Y-54737100D01*
X121210614Y-54757102D01*
G37*
%TD.AperFunction*%
%TA.AperFunction,Conductor*%
G36*
X58984414Y-54757102D02*
G01*
X59030907Y-54810758D01*
X59041011Y-54881032D01*
X59011517Y-54945612D01*
X59005388Y-54952195D01*
X58530126Y-55427457D01*
X58480234Y-55477349D01*
X58427456Y-55530126D01*
X58346790Y-55650852D01*
X58291228Y-55784990D01*
X58291226Y-55784995D01*
X58262900Y-55927399D01*
X58262900Y-66392493D01*
X58242898Y-66460614D01*
X58225995Y-66481588D01*
X56673670Y-68033913D01*
X56611358Y-68067939D01*
X56584575Y-68070818D01*
X52486038Y-68070818D01*
X52417917Y-68050816D01*
X52373276Y-68001039D01*
X52270228Y-67794355D01*
X52270227Y-67794354D01*
X52270225Y-67794349D01*
X52236389Y-67736329D01*
X52090099Y-67519440D01*
X52048970Y-67466321D01*
X51875618Y-67270387D01*
X51827922Y-67223106D01*
X51672386Y-67087899D01*
X51630479Y-67051469D01*
X51577015Y-67010814D01*
X51358857Y-66866418D01*
X51300548Y-66833092D01*
X51300544Y-66833090D01*
X51300542Y-66833089D01*
X51188408Y-66778397D01*
X51065402Y-66718402D01*
X51003249Y-66692974D01*
X51003238Y-66692970D01*
X50755146Y-66609960D01*
X50690183Y-66592857D01*
X50433393Y-66542942D01*
X50433374Y-66542939D01*
X50366759Y-66534466D01*
X50366738Y-66534464D01*
X50221990Y-66525611D01*
X50155217Y-66501487D01*
X50112087Y-66445093D01*
X50106292Y-66374334D01*
X50139673Y-66311674D01*
X50176426Y-66285654D01*
X52189148Y-65347107D01*
X52257550Y-65272460D01*
X52292178Y-65177320D01*
X52287762Y-65076170D01*
X52244973Y-64984410D01*
X49752050Y-59638325D01*
X49752050Y-59638323D01*
X49709261Y-59546563D01*
X49634615Y-59478162D01*
X49634614Y-59478161D01*
X49634611Y-59478160D01*
X49539475Y-59443533D01*
X49539474Y-59443533D01*
X49534856Y-59443734D01*
X49438326Y-59447949D01*
X47450517Y-60374880D01*
X47380325Y-60385541D01*
X47315513Y-60356561D01*
X47276656Y-60297141D01*
X47276093Y-60226147D01*
X47298657Y-60182251D01*
X47329954Y-60142906D01*
X47368239Y-60087718D01*
X47502980Y-59863474D01*
X47533737Y-59803757D01*
X47638055Y-59563841D01*
X47660752Y-59500622D01*
X47732861Y-59249144D01*
X47747113Y-59183507D01*
X47785782Y-58924769D01*
X47791344Y-58857830D01*
X47795910Y-58596257D01*
X47792687Y-58529166D01*
X47763072Y-58269235D01*
X47751119Y-58203133D01*
X47687827Y-57949291D01*
X47667351Y-57885325D01*
X47624078Y-57775472D01*
X47617722Y-57704762D01*
X47650604Y-57641839D01*
X47652157Y-57640258D01*
X50518412Y-54774005D01*
X50580724Y-54739979D01*
X50607507Y-54737100D01*
X58916293Y-54737100D01*
X58984414Y-54757102D01*
G37*
%TD.AperFunction*%
%TA.AperFunction,Conductor*%
G36*
X101945614Y-39619102D02*
G01*
X101966588Y-39636005D01*
X102725995Y-40395412D01*
X102760021Y-40457724D01*
X102762900Y-40484507D01*
X102762900Y-47893381D01*
X102742898Y-47961502D01*
X102710963Y-47995315D01*
X102673634Y-48022437D01*
X102673624Y-48022445D01*
X102532444Y-48163625D01*
X102415083Y-48325158D01*
X102342267Y-48468068D01*
X102293518Y-48519683D01*
X102224603Y-48536749D01*
X102157402Y-48513848D01*
X102117733Y-48468068D01*
X102104418Y-48441936D01*
X102044918Y-48325161D01*
X102028421Y-48302454D01*
X101927555Y-48163625D01*
X101786374Y-48022444D01*
X101624842Y-47905084D01*
X101624841Y-47905083D01*
X101624839Y-47905082D01*
X101446935Y-47814435D01*
X101446932Y-47814434D01*
X101446930Y-47814433D01*
X101257046Y-47752736D01*
X101257042Y-47752735D01*
X101257041Y-47752735D01*
X101059833Y-47721500D01*
X100860167Y-47721500D01*
X100662959Y-47752735D01*
X100662953Y-47752736D01*
X100473069Y-47814433D01*
X100473063Y-47814436D01*
X100295157Y-47905084D01*
X100133625Y-48022444D01*
X99992444Y-48163625D01*
X99875084Y-48325157D01*
X99784436Y-48503063D01*
X99784433Y-48503069D01*
X99722736Y-48692953D01*
X99722735Y-48692958D01*
X99722735Y-48692959D01*
X99691500Y-48890167D01*
X99691500Y-49089833D01*
X99722735Y-49287041D01*
X99722736Y-49287046D01*
X99781684Y-49468469D01*
X99784435Y-49476935D01*
X99875082Y-49654839D01*
X99875084Y-49654842D01*
X99992444Y-49816374D01*
X100133625Y-49957555D01*
X100133628Y-49957557D01*
X100295161Y-50074918D01*
X100473065Y-50165565D01*
X100662959Y-50227265D01*
X100860167Y-50258500D01*
X100860170Y-50258500D01*
X101059830Y-50258500D01*
X101059833Y-50258500D01*
X101257041Y-50227265D01*
X101446935Y-50165565D01*
X101624839Y-50074918D01*
X101786372Y-49957557D01*
X101927557Y-49816372D01*
X102044918Y-49654839D01*
X102117734Y-49511929D01*
X102166481Y-49460316D01*
X102235396Y-49443250D01*
X102302598Y-49466151D01*
X102342265Y-49511929D01*
X102415082Y-49654839D01*
X102415084Y-49654842D01*
X102532444Y-49816374D01*
X102673622Y-49957552D01*
X102673625Y-49957554D01*
X102673628Y-49957557D01*
X102710962Y-49984682D01*
X102714355Y-49989082D01*
X102719412Y-49991392D01*
X102735799Y-50016891D01*
X102754314Y-50040901D01*
X102755587Y-50047681D01*
X102757796Y-50051118D01*
X102762900Y-50086616D01*
X102762900Y-50195946D01*
X102742898Y-50264067D01*
X102689242Y-50310560D01*
X102618968Y-50320664D01*
X102597964Y-50315779D01*
X102527044Y-50292736D01*
X102527048Y-50292736D01*
X102490330Y-50286920D01*
X102329833Y-50261500D01*
X102130167Y-50261500D01*
X101932959Y-50292735D01*
X101932953Y-50292736D01*
X101743069Y-50354433D01*
X101743063Y-50354436D01*
X101565157Y-50445084D01*
X101403625Y-50562444D01*
X101262444Y-50703625D01*
X101145084Y-50865157D01*
X101054436Y-51043063D01*
X101054433Y-51043069D01*
X100992736Y-51232953D01*
X100992735Y-51232958D01*
X100992735Y-51232959D01*
X100961500Y-51430167D01*
X100961500Y-51629833D01*
X100984656Y-51776030D01*
X100992736Y-51827046D01*
X101051608Y-52008234D01*
X101054435Y-52016935D01*
X101145082Y-52194839D01*
X101145084Y-52194842D01*
X101262444Y-52356374D01*
X101403625Y-52497555D01*
X101440958Y-52524679D01*
X101565161Y-52614918D01*
X101743065Y-52705565D01*
X101932959Y-52767265D01*
X102130167Y-52798500D01*
X102130170Y-52798500D01*
X102329830Y-52798500D01*
X102329833Y-52798500D01*
X102527041Y-52767265D01*
X102716935Y-52705565D01*
X102894839Y-52614918D01*
X102944888Y-52578554D01*
X103011755Y-52554697D01*
X103080907Y-52570777D01*
X103108044Y-52591396D01*
X104647329Y-54130681D01*
X104681355Y-54192993D01*
X104676290Y-54263808D01*
X104633743Y-54320644D01*
X104606456Y-54336183D01*
X104580856Y-54346787D01*
X104580852Y-54346789D01*
X104460130Y-54427454D01*
X104460128Y-54427455D01*
X103764216Y-55123366D01*
X103701904Y-55157391D01*
X103655411Y-55158718D01*
X103609833Y-55151500D01*
X103410167Y-55151500D01*
X103212959Y-55182735D01*
X103212953Y-55182736D01*
X103023069Y-55244433D01*
X103023063Y-55244436D01*
X102845157Y-55335084D01*
X102683625Y-55452444D01*
X102542448Y-55593621D01*
X102433873Y-55743061D01*
X102377650Y-55786414D01*
X102306914Y-55792489D01*
X102244122Y-55759357D01*
X102212332Y-55708632D01*
X102188146Y-55635642D01*
X102172115Y-55587262D01*
X102079030Y-55436348D01*
X102079029Y-55436347D01*
X102079024Y-55436341D01*
X101953658Y-55310975D01*
X101953652Y-55310970D01*
X101802738Y-55217885D01*
X101718582Y-55189999D01*
X101634427Y-55162113D01*
X101634420Y-55162112D01*
X101530553Y-55151500D01*
X100409455Y-55151500D01*
X100305574Y-55162112D01*
X100137261Y-55217885D01*
X99986347Y-55310970D01*
X99986341Y-55310975D01*
X99860975Y-55436341D01*
X99860970Y-55436347D01*
X99767885Y-55587262D01*
X99712113Y-55755572D01*
X99712112Y-55755579D01*
X99701500Y-55859446D01*
X99701500Y-56980544D01*
X99712112Y-57084425D01*
X99767885Y-57252738D01*
X99860970Y-57403652D01*
X99860975Y-57403658D01*
X99986341Y-57529024D01*
X99986347Y-57529029D01*
X99986348Y-57529030D01*
X100137262Y-57622115D01*
X100305574Y-57677887D01*
X100409455Y-57688500D01*
X101444182Y-57688499D01*
X101512303Y-57708501D01*
X101558796Y-57762157D01*
X101568900Y-57832431D01*
X101539407Y-57897011D01*
X101518245Y-57916433D01*
X101473016Y-57949295D01*
X101413621Y-57992448D01*
X101272444Y-58133625D01*
X101155084Y-58295157D01*
X101064436Y-58473063D01*
X101064433Y-58473069D01*
X101002736Y-58662953D01*
X101002736Y-58662955D01*
X101002735Y-58662959D01*
X100971500Y-58860167D01*
X100971500Y-59059833D01*
X101002735Y-59257041D01*
X101002736Y-59257046D01*
X101064433Y-59446930D01*
X101064435Y-59446935D01*
X101155082Y-59624839D01*
X101155084Y-59624842D01*
X101272444Y-59786374D01*
X101413625Y-59927555D01*
X101413628Y-59927557D01*
X101575161Y-60044918D01*
X101753065Y-60135565D01*
X101942959Y-60197265D01*
X102140167Y-60228500D01*
X102140170Y-60228500D01*
X102339830Y-60228500D01*
X102339833Y-60228500D01*
X102537041Y-60197265D01*
X102586104Y-60181323D01*
X102607964Y-60174221D01*
X102678932Y-60172193D01*
X102739729Y-60208856D01*
X102771055Y-60272568D01*
X102772900Y-60294054D01*
X102772900Y-67382493D01*
X102752898Y-67450614D01*
X102735995Y-67471588D01*
X102401588Y-67805995D01*
X102339276Y-67840021D01*
X102312493Y-67842900D01*
X97385507Y-67842900D01*
X97317386Y-67822898D01*
X97296412Y-67805995D01*
X95137879Y-65647461D01*
X95137873Y-65647456D01*
X95097814Y-65620689D01*
X95017148Y-65566790D01*
X94883004Y-65511226D01*
X94740600Y-65482900D01*
X94740598Y-65482900D01*
X90619250Y-65482900D01*
X90587431Y-65473557D01*
X90555280Y-65465453D01*
X90553106Y-65463478D01*
X90551129Y-65462898D01*
X90527288Y-65443034D01*
X90521927Y-65437310D01*
X90494930Y-65400152D01*
X90371755Y-65276977D01*
X90371741Y-65276962D01*
X90354860Y-65260081D01*
X90263174Y-65193467D01*
X97292100Y-65193467D01*
X97292100Y-65426532D01*
X97322518Y-65657588D01*
X97322520Y-65657595D01*
X97382840Y-65882714D01*
X97472028Y-66098032D01*
X97472029Y-66098033D01*
X97472034Y-66098044D01*
X97588555Y-66299864D01*
X97588560Y-66299871D01*
X97730428Y-66484757D01*
X97730447Y-66484778D01*
X97895221Y-66649552D01*
X97895242Y-66649571D01*
X98080128Y-66791439D01*
X98080135Y-66791444D01*
X98281955Y-66907965D01*
X98281959Y-66907966D01*
X98281968Y-66907972D01*
X98497286Y-66997160D01*
X98722405Y-67057480D01*
X98722409Y-67057480D01*
X98722411Y-67057481D01*
X98781962Y-67065320D01*
X98953470Y-67087900D01*
X98953477Y-67087900D01*
X99186523Y-67087900D01*
X99186530Y-67087900D01*
X99395353Y-67060408D01*
X99417588Y-67057481D01*
X99417588Y-67057480D01*
X99417595Y-67057480D01*
X99642714Y-66997160D01*
X99858032Y-66907972D01*
X100059868Y-66791442D01*
X100238856Y-66654099D01*
X100244757Y-66649571D01*
X100244757Y-66649570D01*
X100244766Y-66649564D01*
X100409564Y-66484766D01*
X100551442Y-66299868D01*
X100667972Y-66098032D01*
X100757160Y-65882714D01*
X100817480Y-65657595D01*
X100847900Y-65426530D01*
X100847900Y-65193470D01*
X100817480Y-64962405D01*
X100757160Y-64737286D01*
X100667972Y-64521968D01*
X100667966Y-64521959D01*
X100667965Y-64521955D01*
X100551444Y-64320135D01*
X100551439Y-64320128D01*
X100409571Y-64135242D01*
X100409552Y-64135221D01*
X100244778Y-63970447D01*
X100244757Y-63970428D01*
X100059871Y-63828560D01*
X100059864Y-63828555D01*
X99858044Y-63712034D01*
X99858036Y-63712030D01*
X99858032Y-63712028D01*
X99642714Y-63622840D01*
X99417595Y-63562520D01*
X99417588Y-63562518D01*
X99186532Y-63532100D01*
X99186530Y-63532100D01*
X98953470Y-63532100D01*
X98953467Y-63532100D01*
X98722411Y-63562518D01*
X98497286Y-63622840D01*
X98378206Y-63672165D01*
X98281966Y-63712029D01*
X98281955Y-63712034D01*
X98080135Y-63828555D01*
X98080128Y-63828560D01*
X97895242Y-63970428D01*
X97895221Y-63970447D01*
X97730447Y-64135221D01*
X97730428Y-64135242D01*
X97588560Y-64320128D01*
X97588555Y-64320135D01*
X97472034Y-64521955D01*
X97472029Y-64521966D01*
X97472028Y-64521968D01*
X97459843Y-64551386D01*
X97382840Y-64737286D01*
X97322518Y-64962411D01*
X97292100Y-65193467D01*
X90263174Y-65193467D01*
X90194601Y-65143646D01*
X90194600Y-65143645D01*
X90194598Y-65143644D01*
X90018097Y-65053712D01*
X89829700Y-64992498D01*
X89634046Y-64961510D01*
X89435954Y-64961510D01*
X89334920Y-64977512D01*
X89240292Y-64992499D01*
X89240291Y-64992500D01*
X89167035Y-65016302D01*
X89096068Y-65018329D01*
X89035270Y-64981666D01*
X89003945Y-64917954D01*
X89002100Y-64896469D01*
X89002100Y-64619507D01*
X89022102Y-64551386D01*
X89039005Y-64530412D01*
X89676412Y-63893005D01*
X89738724Y-63858979D01*
X89765507Y-63856100D01*
X95322597Y-63856100D01*
X95322598Y-63856100D01*
X95465004Y-63827774D01*
X95599148Y-63772210D01*
X95719874Y-63691543D01*
X96711543Y-62699874D01*
X96792210Y-62579148D01*
X96847774Y-62445004D01*
X96876100Y-62302598D01*
X96876100Y-62157402D01*
X96876100Y-42523467D01*
X97272100Y-42523467D01*
X97272100Y-42756532D01*
X97302518Y-42987588D01*
X97302520Y-42987595D01*
X97362840Y-43212714D01*
X97452028Y-43428032D01*
X97452029Y-43428033D01*
X97452034Y-43428044D01*
X97568555Y-43629864D01*
X97568560Y-43629871D01*
X97710428Y-43814757D01*
X97710447Y-43814778D01*
X97875221Y-43979552D01*
X97875242Y-43979571D01*
X98060128Y-44121439D01*
X98060135Y-44121444D01*
X98261955Y-44237965D01*
X98261959Y-44237966D01*
X98261968Y-44237972D01*
X98477286Y-44327160D01*
X98702405Y-44387480D01*
X98702409Y-44387480D01*
X98702411Y-44387481D01*
X98761962Y-44395320D01*
X98933470Y-44417900D01*
X98933477Y-44417900D01*
X99166523Y-44417900D01*
X99166530Y-44417900D01*
X99375353Y-44390408D01*
X99397588Y-44387481D01*
X99397588Y-44387480D01*
X99397595Y-44387480D01*
X99622714Y-44327160D01*
X99838032Y-44237972D01*
X100039868Y-44121442D01*
X100224766Y-43979564D01*
X100389564Y-43814766D01*
X100531442Y-43629868D01*
X100647972Y-43428032D01*
X100737160Y-43212714D01*
X100797480Y-42987595D01*
X100827900Y-42756530D01*
X100827900Y-42523470D01*
X100797480Y-42292405D01*
X100737160Y-42067286D01*
X100647972Y-41851968D01*
X100647966Y-41851959D01*
X100647965Y-41851955D01*
X100531444Y-41650135D01*
X100531439Y-41650128D01*
X100389571Y-41465242D01*
X100389552Y-41465221D01*
X100224778Y-41300447D01*
X100224757Y-41300428D01*
X100039871Y-41158560D01*
X100039864Y-41158555D01*
X99838044Y-41042034D01*
X99838036Y-41042030D01*
X99838032Y-41042028D01*
X99622714Y-40952840D01*
X99397595Y-40892520D01*
X99397588Y-40892518D01*
X99166532Y-40862100D01*
X99166530Y-40862100D01*
X98933470Y-40862100D01*
X98933467Y-40862100D01*
X98702411Y-40892518D01*
X98552308Y-40932738D01*
X98477286Y-40952840D01*
X98277941Y-41035412D01*
X98261966Y-41042029D01*
X98261955Y-41042034D01*
X98060135Y-41158555D01*
X98060128Y-41158560D01*
X97875242Y-41300428D01*
X97875221Y-41300447D01*
X97710447Y-41465221D01*
X97710428Y-41465242D01*
X97568560Y-41650128D01*
X97568555Y-41650135D01*
X97452034Y-41851955D01*
X97452029Y-41851966D01*
X97452028Y-41851968D01*
X97407907Y-41958486D01*
X97362840Y-42067286D01*
X97302518Y-42292411D01*
X97272100Y-42523467D01*
X96876100Y-42523467D01*
X96876100Y-40362507D01*
X96896102Y-40294386D01*
X96913005Y-40273412D01*
X97550412Y-39636005D01*
X97612724Y-39601979D01*
X97639507Y-39599100D01*
X101877493Y-39599100D01*
X101945614Y-39619102D01*
G37*
%TD.AperFunction*%
%TA.AperFunction,Conductor*%
G36*
X94378614Y-66977102D02*
G01*
X94399588Y-66994005D01*
X94813388Y-67407805D01*
X94847414Y-67470117D01*
X94842349Y-67540932D01*
X94799802Y-67597768D01*
X94733282Y-67622579D01*
X94724293Y-67622900D01*
X92183295Y-67622900D01*
X92115174Y-67602898D01*
X92068681Y-67549242D01*
X92058017Y-67510366D01*
X92056990Y-67500814D01*
X92056988Y-67500805D01*
X92022300Y-67407805D01*
X92005889Y-67363806D01*
X92005888Y-67363804D01*
X92005887Y-67363802D01*
X91918261Y-67246748D01*
X91834396Y-67183968D01*
X91791849Y-67127132D01*
X91786785Y-67056317D01*
X91820810Y-66994004D01*
X91883122Y-66959979D01*
X91909905Y-66957100D01*
X94310493Y-66957100D01*
X94378614Y-66977102D01*
G37*
%TD.AperFunction*%
%TA.AperFunction,Conductor*%
G36*
X125391198Y-60806601D02*
G01*
X125395882Y-60808359D01*
X126222618Y-61137640D01*
X126294335Y-61160276D01*
X126439905Y-61173361D01*
X126458089Y-61169751D01*
X126528796Y-61176105D01*
X126584848Y-61219680D01*
X126608443Y-61286641D01*
X126599268Y-61340979D01*
X126271294Y-62144032D01*
X126270920Y-62144936D01*
X125735591Y-63427174D01*
X125735210Y-63428078D01*
X125159647Y-64777032D01*
X125159253Y-64777944D01*
X124615924Y-66024047D01*
X124615514Y-66024979D01*
X124047748Y-67298925D01*
X124047315Y-67299885D01*
X123995258Y-67414111D01*
X123948807Y-67467803D01*
X123880702Y-67487859D01*
X123812565Y-67467910D01*
X123784727Y-67443614D01*
X123777111Y-67434683D01*
X123713968Y-67360633D01*
X123666289Y-67329454D01*
X123591645Y-67280641D01*
X122723084Y-66875624D01*
X122669799Y-66828707D01*
X122650338Y-66760429D01*
X122670880Y-66692469D01*
X122724903Y-66646404D01*
X122728084Y-66645033D01*
X122819708Y-66607082D01*
X122891300Y-66535489D01*
X125191009Y-60983493D01*
X125230890Y-60887212D01*
X125232494Y-60887876D01*
X125258610Y-60837942D01*
X125320303Y-60802806D01*
X125391198Y-60806601D01*
G37*
%TD.AperFunction*%
%TA.AperFunction,Conductor*%
G36*
X46490558Y-60973816D02*
G01*
X46520825Y-61019664D01*
X46523783Y-61018286D01*
X46529026Y-61029531D01*
X46529027Y-61029533D01*
X49064735Y-66467376D01*
X49064736Y-66467378D01*
X49099973Y-66542942D01*
X49112770Y-66570385D01*
X49109361Y-66571974D01*
X49126134Y-66618349D01*
X49110353Y-66687569D01*
X49059653Y-66737269D01*
X49056166Y-66739060D01*
X48068294Y-67226934D01*
X48003483Y-67265083D01*
X47934124Y-67329454D01*
X47870587Y-67361132D01*
X47800009Y-67353431D01*
X47744799Y-67308795D01*
X47734981Y-67291957D01*
X47153977Y-66090591D01*
X47153131Y-66088804D01*
X46441093Y-64551386D01*
X46189932Y-64009083D01*
X46189255Y-64007598D01*
X45824145Y-63191708D01*
X45732233Y-62986318D01*
X45731789Y-62985311D01*
X45449382Y-62338584D01*
X45301468Y-61999853D01*
X45301015Y-61998801D01*
X45119516Y-61572319D01*
X45111246Y-61501806D01*
X45142411Y-61438015D01*
X45203116Y-61401199D01*
X45206379Y-61400379D01*
X45274004Y-61384371D01*
X46326126Y-60969929D01*
X46355477Y-60956086D01*
X46425620Y-60945119D01*
X46490558Y-60973816D01*
G37*
%TD.AperFunction*%
%TA.AperFunction,Conductor*%
G36*
X86482457Y-16271292D02*
G01*
X86489679Y-16271649D01*
X87170035Y-16324898D01*
X87176300Y-16325546D01*
X87957922Y-16426219D01*
X87963346Y-16427039D01*
X88855295Y-16581750D01*
X88859985Y-16582656D01*
X89871795Y-16798323D01*
X89875884Y-16799267D01*
X91016932Y-17082961D01*
X91020464Y-17083895D01*
X92300353Y-17442883D01*
X92303518Y-17443816D01*
X93596732Y-17843709D01*
X93731389Y-17885348D01*
X93734216Y-17886258D01*
X95319006Y-18417582D01*
X95321486Y-18418443D01*
X97070821Y-19046395D01*
X97072970Y-19047190D01*
X98993285Y-19778133D01*
X98995240Y-19778897D01*
X101090361Y-20618097D01*
X101092085Y-20618804D01*
X103362064Y-21569801D01*
X103363560Y-21570440D01*
X105803171Y-22634234D01*
X105804627Y-22634881D01*
X107330965Y-23324921D01*
X108399273Y-23807891D01*
X108400710Y-23808551D01*
X108529275Y-23868628D01*
X111123522Y-25080891D01*
X111124086Y-25081158D01*
X111705925Y-25358283D01*
X111706412Y-25358817D01*
X111751641Y-25380057D01*
X111751856Y-25380159D01*
X111751858Y-25380161D01*
X111779553Y-25393351D01*
X111796682Y-25401510D01*
X111805770Y-25405838D01*
X111808990Y-25406989D01*
X114005618Y-26438566D01*
X114005617Y-26438566D01*
X114017549Y-26444169D01*
X114018465Y-26445154D01*
X114063368Y-26465686D01*
X114107979Y-26486637D01*
X114115377Y-26490111D01*
X114121303Y-26492178D01*
X117604541Y-28084964D01*
X117604624Y-28085053D01*
X117650469Y-28105965D01*
X117650470Y-28105966D01*
X117682815Y-28120756D01*
X117696506Y-28127017D01*
X117707511Y-28132049D01*
X117708066Y-28132239D01*
X120389372Y-29355340D01*
X120389557Y-29355425D01*
X121503459Y-29870428D01*
X121731048Y-29975652D01*
X121731771Y-29975989D01*
X122834616Y-30494384D01*
X123043770Y-30592697D01*
X123044753Y-30593163D01*
X124319488Y-31206107D01*
X124320629Y-31206665D01*
X125549461Y-31815171D01*
X125551019Y-31815958D01*
X126098339Y-32097174D01*
X126725881Y-32419609D01*
X126727969Y-32420706D01*
X127231486Y-32691444D01*
X127782833Y-32987900D01*
X127840543Y-33018930D01*
X127843129Y-33020360D01*
X128884924Y-33612435D01*
X128888085Y-33614293D01*
X129852429Y-34200509D01*
X129855171Y-34202227D01*
X130281578Y-34477367D01*
X130302880Y-34491112D01*
X130305060Y-34492551D01*
X130706229Y-34763390D01*
X130731041Y-34780141D01*
X130733471Y-34781824D01*
X130885034Y-34889414D01*
X131135304Y-35067075D01*
X131138011Y-35069051D01*
X131457783Y-35309093D01*
X131514624Y-35351761D01*
X131517627Y-35354087D01*
X131703276Y-35502435D01*
X131867909Y-35633990D01*
X131871260Y-35636764D01*
X131976021Y-35726574D01*
X132194096Y-35913525D01*
X132197811Y-35916840D01*
X132455405Y-36155985D01*
X132492090Y-36190043D01*
X132496205Y-36194042D01*
X132760884Y-36463214D01*
X132765405Y-36468060D01*
X132771620Y-36475084D01*
X132986391Y-36717808D01*
X132999429Y-36732542D01*
X133004340Y-36738446D01*
X133206832Y-36997521D01*
X133212068Y-37004731D01*
X133382324Y-37257546D01*
X133387740Y-37266347D01*
X133524222Y-37509976D01*
X133530157Y-37522038D01*
X133640737Y-37780765D01*
X133645540Y-37794005D01*
X133660533Y-37843878D01*
X133737666Y-38100447D01*
X133740663Y-38112564D01*
X133811852Y-38476959D01*
X133813484Y-38487795D01*
X133859170Y-38917429D01*
X133859819Y-38926976D01*
X133874880Y-39429353D01*
X133874854Y-39437689D01*
X133853739Y-40020716D01*
X133853268Y-40027958D01*
X133790029Y-40700130D01*
X133789279Y-40706407D01*
X133677593Y-41476748D01*
X133676683Y-41482186D01*
X133509792Y-42360657D01*
X133508803Y-42365371D01*
X133279479Y-43362876D01*
X133278466Y-43366965D01*
X132978936Y-44495615D01*
X132977939Y-44499164D01*
X132599567Y-45773317D01*
X132598610Y-45776393D01*
X132131655Y-47213176D01*
X132130760Y-47215831D01*
X131563172Y-48838587D01*
X131562355Y-48840852D01*
X131407319Y-49258332D01*
X131364853Y-49315228D01*
X131298368Y-49340133D01*
X131228973Y-49325140D01*
X131197735Y-49301127D01*
X131154493Y-49255487D01*
X131154492Y-49255486D01*
X131083513Y-49214205D01*
X131028152Y-49182008D01*
X131028149Y-49182007D01*
X131028148Y-49182006D01*
X130972385Y-49159476D01*
X129979711Y-48758410D01*
X129979694Y-48758403D01*
X129915899Y-48737366D01*
X129915883Y-48737361D01*
X129662645Y-48671868D01*
X129662612Y-48671860D01*
X129638656Y-48667312D01*
X129596624Y-48659332D01*
X129596617Y-48659331D01*
X129596611Y-48659330D01*
X129336958Y-48627448D01*
X129269915Y-48623642D01*
X129269912Y-48623641D01*
X129269896Y-48623641D01*
X129269883Y-48623641D01*
X129269879Y-48623641D01*
X129008314Y-48625925D01*
X129008292Y-48625926D01*
X128941310Y-48630903D01*
X128682247Y-48667312D01*
X128682245Y-48667312D01*
X128616482Y-48680991D01*
X128364393Y-48750900D01*
X128300994Y-48773038D01*
X128300982Y-48773043D01*
X128300975Y-48773045D01*
X128300972Y-48773047D01*
X128253625Y-48793144D01*
X128060156Y-48875267D01*
X128000167Y-48905505D01*
X128000163Y-48905507D01*
X127774763Y-49038279D01*
X127719238Y-49076085D01*
X127719230Y-49076091D01*
X127513093Y-49237143D01*
X127513092Y-49237143D01*
X127462989Y-49281862D01*
X127462968Y-49281882D01*
X127279614Y-49468464D01*
X127235774Y-49519343D01*
X127235759Y-49519362D01*
X127078323Y-49728284D01*
X127041496Y-49784456D01*
X127041476Y-49784488D01*
X126912680Y-50012141D01*
X126912668Y-50012162D01*
X126883492Y-50072650D01*
X126883491Y-50072652D01*
X126860038Y-50130702D01*
X126815974Y-50186370D01*
X126748809Y-50209378D01*
X126743213Y-50209502D01*
X123480797Y-50209502D01*
X123338392Y-50237828D01*
X123338391Y-50237829D01*
X123299103Y-50254101D01*
X123299103Y-50254102D01*
X123205834Y-50292736D01*
X123204248Y-50293393D01*
X123083524Y-50374058D01*
X123083518Y-50374063D01*
X121231588Y-52225995D01*
X121169276Y-52260020D01*
X121142493Y-52262900D01*
X108700420Y-52262900D01*
X108632299Y-52242898D01*
X108585806Y-52189242D01*
X108575073Y-52124092D01*
X108578499Y-52090552D01*
X108578500Y-52090545D01*
X108578499Y-50969456D01*
X108567887Y-50865574D01*
X108512115Y-50697262D01*
X108419030Y-50546348D01*
X108419029Y-50546347D01*
X108419024Y-50546341D01*
X108293658Y-50420975D01*
X108293652Y-50420970D01*
X108142738Y-50327885D01*
X108038643Y-50293392D01*
X107974427Y-50272113D01*
X107974420Y-50272112D01*
X107870553Y-50261500D01*
X106835817Y-50261500D01*
X106767696Y-50241498D01*
X106721203Y-50187842D01*
X106711099Y-50117568D01*
X106740593Y-50052988D01*
X106761754Y-50033566D01*
X106866372Y-49957557D01*
X107007557Y-49816372D01*
X107124918Y-49654839D01*
X107215565Y-49476935D01*
X107277265Y-49287041D01*
X107308500Y-49089833D01*
X107308500Y-48890167D01*
X107277265Y-48692959D01*
X107215565Y-48503065D01*
X107124918Y-48325161D01*
X107007557Y-48163628D01*
X107007555Y-48163625D01*
X106866374Y-48022444D01*
X106704842Y-47905084D01*
X106704841Y-47905083D01*
X106704839Y-47905082D01*
X106526935Y-47814435D01*
X106526932Y-47814434D01*
X106526930Y-47814433D01*
X106337046Y-47752736D01*
X106337042Y-47752735D01*
X106337041Y-47752735D01*
X106139833Y-47721500D01*
X105940167Y-47721500D01*
X105742959Y-47752735D01*
X105742953Y-47752736D01*
X105672036Y-47775779D01*
X105601068Y-47777807D01*
X105540271Y-47741144D01*
X105508945Y-47677432D01*
X105507100Y-47655946D01*
X105507100Y-42523467D01*
X107432100Y-42523467D01*
X107432100Y-42756532D01*
X107462518Y-42987588D01*
X107462520Y-42987595D01*
X107522840Y-43212714D01*
X107612028Y-43428032D01*
X107612029Y-43428033D01*
X107612034Y-43428044D01*
X107728555Y-43629864D01*
X107728560Y-43629871D01*
X107870428Y-43814757D01*
X107870447Y-43814778D01*
X108035221Y-43979552D01*
X108035242Y-43979571D01*
X108220128Y-44121439D01*
X108220135Y-44121444D01*
X108421955Y-44237965D01*
X108421959Y-44237966D01*
X108421968Y-44237972D01*
X108637286Y-44327160D01*
X108862405Y-44387480D01*
X108862409Y-44387480D01*
X108862411Y-44387481D01*
X108921962Y-44395320D01*
X109093470Y-44417900D01*
X109093477Y-44417900D01*
X109326523Y-44417900D01*
X109326530Y-44417900D01*
X109535353Y-44390408D01*
X109557588Y-44387481D01*
X109557588Y-44387480D01*
X109557595Y-44387480D01*
X109782714Y-44327160D01*
X109998032Y-44237972D01*
X110199868Y-44121442D01*
X110384766Y-43979564D01*
X110549564Y-43814766D01*
X110691442Y-43629868D01*
X110807972Y-43428032D01*
X110897160Y-43212714D01*
X110957480Y-42987595D01*
X110987900Y-42756530D01*
X110987900Y-42523470D01*
X110957480Y-42292405D01*
X110897160Y-42067286D01*
X110807972Y-41851968D01*
X110807966Y-41851959D01*
X110807965Y-41851955D01*
X110691444Y-41650135D01*
X110691439Y-41650128D01*
X110549571Y-41465242D01*
X110549552Y-41465221D01*
X110384778Y-41300447D01*
X110384757Y-41300428D01*
X110199871Y-41158560D01*
X110199864Y-41158555D01*
X109998044Y-41042034D01*
X109998036Y-41042030D01*
X109998032Y-41042028D01*
X109782714Y-40952840D01*
X109557595Y-40892520D01*
X109557588Y-40892518D01*
X109326532Y-40862100D01*
X109326530Y-40862100D01*
X109093470Y-40862100D01*
X109093467Y-40862100D01*
X108862411Y-40892518D01*
X108712308Y-40932738D01*
X108637286Y-40952840D01*
X108437941Y-41035412D01*
X108421966Y-41042029D01*
X108421955Y-41042034D01*
X108220135Y-41158555D01*
X108220128Y-41158560D01*
X108035242Y-41300428D01*
X108035221Y-41300447D01*
X107870447Y-41465221D01*
X107870428Y-41465242D01*
X107728560Y-41650128D01*
X107728555Y-41650135D01*
X107612034Y-41851955D01*
X107612029Y-41851966D01*
X107612028Y-41851968D01*
X107567907Y-41958486D01*
X107522840Y-42067286D01*
X107462518Y-42292411D01*
X107432100Y-42523467D01*
X105507100Y-42523467D01*
X105507100Y-39419403D01*
X105507099Y-39419399D01*
X105478774Y-39276996D01*
X105423210Y-39142852D01*
X105342543Y-39022126D01*
X105239874Y-38919457D01*
X104304470Y-37984053D01*
X103339879Y-37019461D01*
X103339873Y-37019456D01*
X103289949Y-36986098D01*
X103219148Y-36938790D01*
X103085004Y-36883226D01*
X102942600Y-36854900D01*
X102942598Y-36854900D01*
X96846598Y-36854900D01*
X96701402Y-36854900D01*
X96701399Y-36854900D01*
X96558995Y-36883226D01*
X96558990Y-36883228D01*
X96424852Y-36938790D01*
X96304126Y-37019456D01*
X96304120Y-37019461D01*
X94966442Y-38357141D01*
X94526126Y-38797457D01*
X94500096Y-38823487D01*
X94423456Y-38900126D01*
X94342790Y-39020852D01*
X94287228Y-39154990D01*
X94287226Y-39154995D01*
X94258900Y-39297399D01*
X94258900Y-60983493D01*
X94238898Y-61051614D01*
X94221995Y-61072588D01*
X93965588Y-61328995D01*
X93903276Y-61363021D01*
X93876493Y-61365900D01*
X88499399Y-61365900D01*
X88356995Y-61394226D01*
X88356990Y-61394228D01*
X88222852Y-61449790D01*
X88102126Y-61530456D01*
X88102120Y-61530461D01*
X87995620Y-61636961D01*
X87995510Y-61637081D01*
X84700476Y-64932115D01*
X84638164Y-64966141D01*
X84591672Y-64967469D01*
X84567235Y-64963598D01*
X84554046Y-64961510D01*
X84355954Y-64961510D01*
X84160300Y-64992498D01*
X84160297Y-64992498D01*
X84160296Y-64992499D01*
X83971903Y-65053712D01*
X83971901Y-65053713D01*
X83795399Y-65143645D01*
X83739078Y-65184565D01*
X83672210Y-65208423D01*
X83603059Y-65192341D01*
X83575923Y-65171723D01*
X78498005Y-60093805D01*
X78463979Y-60031493D01*
X78461100Y-60004710D01*
X78461100Y-55033467D01*
X79512100Y-55033467D01*
X79512100Y-55266532D01*
X79542518Y-55497588D01*
X79542520Y-55497595D01*
X79602840Y-55722714D01*
X79692028Y-55938032D01*
X79692029Y-55938033D01*
X79692034Y-55938044D01*
X79808555Y-56139864D01*
X79808560Y-56139871D01*
X79950428Y-56324757D01*
X79950447Y-56324778D01*
X80115221Y-56489552D01*
X80115242Y-56489571D01*
X80300128Y-56631439D01*
X80300135Y-56631444D01*
X80501955Y-56747965D01*
X80501959Y-56747966D01*
X80501968Y-56747972D01*
X80717286Y-56837160D01*
X80942405Y-56897480D01*
X80942409Y-56897480D01*
X80942411Y-56897481D01*
X81001962Y-56905320D01*
X81173470Y-56927900D01*
X81173477Y-56927900D01*
X81406523Y-56927900D01*
X81406530Y-56927900D01*
X81615353Y-56900408D01*
X81637588Y-56897481D01*
X81637588Y-56897480D01*
X81637595Y-56897480D01*
X81862714Y-56837160D01*
X82078032Y-56747972D01*
X82279868Y-56631442D01*
X82464766Y-56489564D01*
X82629564Y-56324766D01*
X82771442Y-56139868D01*
X82887972Y-55938032D01*
X82977160Y-55722714D01*
X83037480Y-55497595D01*
X83067900Y-55266530D01*
X83067900Y-55033470D01*
X83067900Y-55033467D01*
X89672100Y-55033467D01*
X89672100Y-55266532D01*
X89702518Y-55497588D01*
X89702520Y-55497595D01*
X89762840Y-55722714D01*
X89852028Y-55938032D01*
X89852029Y-55938033D01*
X89852034Y-55938044D01*
X89968555Y-56139864D01*
X89968560Y-56139871D01*
X90110428Y-56324757D01*
X90110447Y-56324778D01*
X90275221Y-56489552D01*
X90275242Y-56489571D01*
X90460128Y-56631439D01*
X90460135Y-56631444D01*
X90661955Y-56747965D01*
X90661959Y-56747966D01*
X90661968Y-56747972D01*
X90877286Y-56837160D01*
X91102405Y-56897480D01*
X91102409Y-56897480D01*
X91102411Y-56897481D01*
X91161962Y-56905320D01*
X91333470Y-56927900D01*
X91333477Y-56927900D01*
X91566523Y-56927900D01*
X91566530Y-56927900D01*
X91775353Y-56900408D01*
X91797588Y-56897481D01*
X91797588Y-56897480D01*
X91797595Y-56897480D01*
X92022714Y-56837160D01*
X92238032Y-56747972D01*
X92439868Y-56631442D01*
X92624766Y-56489564D01*
X92789564Y-56324766D01*
X92931442Y-56139868D01*
X93047972Y-55938032D01*
X93137160Y-55722714D01*
X93197480Y-55497595D01*
X93227900Y-55266530D01*
X93227900Y-55033470D01*
X93197480Y-54802405D01*
X93137160Y-54577286D01*
X93047972Y-54361968D01*
X93047966Y-54361959D01*
X93047965Y-54361955D01*
X92931444Y-54160135D01*
X92931439Y-54160128D01*
X92789571Y-53975242D01*
X92789552Y-53975221D01*
X92624778Y-53810447D01*
X92624757Y-53810428D01*
X92439871Y-53668560D01*
X92439864Y-53668555D01*
X92238044Y-53552034D01*
X92238036Y-53552030D01*
X92238032Y-53552028D01*
X92022714Y-53462840D01*
X91868955Y-53421640D01*
X91797588Y-53402518D01*
X91566532Y-53372100D01*
X91566530Y-53372100D01*
X91333470Y-53372100D01*
X91333467Y-53372100D01*
X91102411Y-53402518D01*
X90902933Y-53455968D01*
X90877286Y-53462840D01*
X90775482Y-53505009D01*
X90661966Y-53552029D01*
X90661955Y-53552034D01*
X90460135Y-53668555D01*
X90460128Y-53668560D01*
X90275242Y-53810428D01*
X90275221Y-53810447D01*
X90110447Y-53975221D01*
X90110428Y-53975242D01*
X89968560Y-54160128D01*
X89968555Y-54160135D01*
X89852034Y-54361955D01*
X89852029Y-54361966D01*
X89852028Y-54361968D01*
X89813092Y-54455968D01*
X89762840Y-54577286D01*
X89702518Y-54802411D01*
X89672100Y-55033467D01*
X83067900Y-55033467D01*
X83037480Y-54802405D01*
X82977160Y-54577286D01*
X82887972Y-54361968D01*
X82887966Y-54361959D01*
X82887965Y-54361955D01*
X82771444Y-54160135D01*
X82771439Y-54160128D01*
X82629571Y-53975242D01*
X82629552Y-53975221D01*
X82464778Y-53810447D01*
X82464757Y-53810428D01*
X82279871Y-53668560D01*
X82279864Y-53668555D01*
X82078044Y-53552034D01*
X82078036Y-53552030D01*
X82078032Y-53552028D01*
X81862714Y-53462840D01*
X81708955Y-53421640D01*
X81637588Y-53402518D01*
X81406532Y-53372100D01*
X81406530Y-53372100D01*
X81173470Y-53372100D01*
X81173467Y-53372100D01*
X80942411Y-53402518D01*
X80742933Y-53455968D01*
X80717286Y-53462840D01*
X80615482Y-53505009D01*
X80501966Y-53552029D01*
X80501955Y-53552034D01*
X80300135Y-53668555D01*
X80300128Y-53668560D01*
X80115242Y-53810428D01*
X80115221Y-53810447D01*
X79950447Y-53975221D01*
X79950428Y-53975242D01*
X79808560Y-54160128D01*
X79808555Y-54160135D01*
X79692034Y-54361955D01*
X79692029Y-54361966D01*
X79692028Y-54361968D01*
X79653092Y-54455968D01*
X79602840Y-54577286D01*
X79542518Y-54802411D01*
X79512100Y-55033467D01*
X78461100Y-55033467D01*
X78461100Y-45699446D01*
X81921500Y-45699446D01*
X81921500Y-46820544D01*
X81932112Y-46924425D01*
X81987885Y-47092738D01*
X82080970Y-47243652D01*
X82080975Y-47243658D01*
X82206341Y-47369024D01*
X82206347Y-47369029D01*
X82206348Y-47369030D01*
X82357262Y-47462115D01*
X82525574Y-47517887D01*
X82629455Y-47528500D01*
X83664182Y-47528499D01*
X83732303Y-47548501D01*
X83778796Y-47602157D01*
X83788900Y-47672431D01*
X83759407Y-47737011D01*
X83738244Y-47756435D01*
X83633621Y-47832448D01*
X83492444Y-47973625D01*
X83375084Y-48135157D01*
X83284436Y-48313063D01*
X83284433Y-48313069D01*
X83222736Y-48502953D01*
X83222735Y-48502958D01*
X83222735Y-48502959D01*
X83191500Y-48700167D01*
X83191500Y-48899833D01*
X83222735Y-49097041D01*
X83222736Y-49097046D01*
X83282790Y-49281873D01*
X83284435Y-49286935D01*
X83375082Y-49464839D01*
X83375084Y-49464842D01*
X83492444Y-49626374D01*
X83633625Y-49767555D01*
X83633628Y-49767557D01*
X83795161Y-49884918D01*
X83973065Y-49975565D01*
X84162959Y-50037265D01*
X84360167Y-50068500D01*
X84360170Y-50068500D01*
X84559830Y-50068500D01*
X84559833Y-50068500D01*
X84757041Y-50037265D01*
X84946935Y-49975565D01*
X85124839Y-49884918D01*
X85286372Y-49767557D01*
X85427557Y-49626372D01*
X85544918Y-49464839D01*
X85617734Y-49321929D01*
X85666481Y-49270316D01*
X85735396Y-49253250D01*
X85802598Y-49276151D01*
X85842265Y-49321929D01*
X85915082Y-49464839D01*
X85915084Y-49464842D01*
X86032444Y-49626374D01*
X86173625Y-49767555D01*
X86173628Y-49767557D01*
X86335161Y-49884918D01*
X86513065Y-49975565D01*
X86702959Y-50037265D01*
X86900167Y-50068500D01*
X86900170Y-50068500D01*
X87099830Y-50068500D01*
X87099833Y-50068500D01*
X87297041Y-50037265D01*
X87486935Y-49975565D01*
X87664839Y-49884918D01*
X87826372Y-49767557D01*
X87967557Y-49626372D01*
X88084918Y-49464839D01*
X88157734Y-49321929D01*
X88206481Y-49270316D01*
X88275396Y-49253250D01*
X88342598Y-49276151D01*
X88382265Y-49321929D01*
X88455082Y-49464839D01*
X88455084Y-49464842D01*
X88572444Y-49626374D01*
X88713625Y-49767555D01*
X88713628Y-49767557D01*
X88875161Y-49884918D01*
X89053065Y-49975565D01*
X89242959Y-50037265D01*
X89440167Y-50068500D01*
X89440170Y-50068500D01*
X89639830Y-50068500D01*
X89639833Y-50068500D01*
X89837041Y-50037265D01*
X90026935Y-49975565D01*
X90204839Y-49884918D01*
X90366372Y-49767557D01*
X90507557Y-49626372D01*
X90624918Y-49464839D01*
X90715565Y-49286935D01*
X90777265Y-49097041D01*
X90808500Y-48899833D01*
X90808500Y-48700167D01*
X90777265Y-48502959D01*
X90715565Y-48313065D01*
X90624918Y-48135161D01*
X90517320Y-47987065D01*
X90507555Y-47973625D01*
X90366374Y-47832444D01*
X90204842Y-47715084D01*
X90204841Y-47715083D01*
X90204839Y-47715082D01*
X90026935Y-47624435D01*
X90026932Y-47624434D01*
X90026930Y-47624433D01*
X89837046Y-47562736D01*
X89837042Y-47562735D01*
X89837041Y-47562735D01*
X89639833Y-47531500D01*
X89440167Y-47531500D01*
X89242959Y-47562735D01*
X89242953Y-47562736D01*
X89053069Y-47624433D01*
X89053063Y-47624436D01*
X88875157Y-47715084D01*
X88713625Y-47832444D01*
X88572444Y-47973625D01*
X88455083Y-48135158D01*
X88382267Y-48278068D01*
X88333518Y-48329683D01*
X88264603Y-48346749D01*
X88197402Y-48323848D01*
X88157733Y-48278068D01*
X88153435Y-48269633D01*
X88084918Y-48135161D01*
X88082704Y-48132113D01*
X87967555Y-47973625D01*
X87826374Y-47832444D01*
X87664842Y-47715084D01*
X87664841Y-47715083D01*
X87664839Y-47715082D01*
X87486935Y-47624435D01*
X87486932Y-47624434D01*
X87486930Y-47624433D01*
X87297046Y-47562736D01*
X87297042Y-47562735D01*
X87297041Y-47562735D01*
X87099833Y-47531500D01*
X86900167Y-47531500D01*
X86702959Y-47562735D01*
X86702953Y-47562736D01*
X86513069Y-47624433D01*
X86513063Y-47624436D01*
X86335157Y-47715084D01*
X86173625Y-47832444D01*
X86032444Y-47973625D01*
X85915083Y-48135158D01*
X85842267Y-48278068D01*
X85793518Y-48329683D01*
X85724603Y-48346749D01*
X85657402Y-48323848D01*
X85617733Y-48278068D01*
X85613435Y-48269633D01*
X85544918Y-48135161D01*
X85542704Y-48132113D01*
X85427555Y-47973625D01*
X85286374Y-47832444D01*
X85124842Y-47715084D01*
X85124841Y-47715083D01*
X85124839Y-47715082D01*
X84946935Y-47624435D01*
X84946932Y-47624434D01*
X84946930Y-47624433D01*
X84757046Y-47562736D01*
X84757042Y-47562735D01*
X84757041Y-47562735D01*
X84559833Y-47531500D01*
X84360167Y-47531500D01*
X84360166Y-47531500D01*
X84328517Y-47536512D01*
X84258106Y-47527411D01*
X84203793Y-47481688D01*
X84182822Y-47413859D01*
X84201851Y-47345460D01*
X84219710Y-47322971D01*
X84299030Y-47243652D01*
X84392115Y-47092738D01*
X84432333Y-46971364D01*
X84472744Y-46912996D01*
X84538300Y-46885739D01*
X84608185Y-46898252D01*
X84653872Y-46936938D01*
X84762444Y-47086374D01*
X84903625Y-47227555D01*
X84903628Y-47227557D01*
X85065161Y-47344918D01*
X85243065Y-47435565D01*
X85432959Y-47497265D01*
X85630167Y-47528500D01*
X85630170Y-47528500D01*
X85829830Y-47528500D01*
X85829833Y-47528500D01*
X86027041Y-47497265D01*
X86216935Y-47435565D01*
X86394839Y-47344918D01*
X86556372Y-47227557D01*
X86697557Y-47086372D01*
X86814918Y-46924839D01*
X86887734Y-46781929D01*
X86936481Y-46730316D01*
X87005396Y-46713250D01*
X87072598Y-46736151D01*
X87112265Y-46781929D01*
X87184872Y-46924426D01*
X87185084Y-46924842D01*
X87302444Y-47086374D01*
X87443625Y-47227555D01*
X87443628Y-47227557D01*
X87605161Y-47344918D01*
X87783065Y-47435565D01*
X87972959Y-47497265D01*
X88170167Y-47528500D01*
X88170170Y-47528500D01*
X88369830Y-47528500D01*
X88369833Y-47528500D01*
X88567041Y-47497265D01*
X88756935Y-47435565D01*
X88934839Y-47344918D01*
X89096372Y-47227557D01*
X89237557Y-47086372D01*
X89354918Y-46924839D01*
X89445565Y-46746935D01*
X89507265Y-46557041D01*
X89538500Y-46359833D01*
X89538500Y-46160167D01*
X89507265Y-45962959D01*
X89445565Y-45773065D01*
X89354918Y-45595161D01*
X89237557Y-45433628D01*
X89237555Y-45433625D01*
X89096374Y-45292444D01*
X88934842Y-45175084D01*
X88934841Y-45175083D01*
X88934839Y-45175082D01*
X88756935Y-45084435D01*
X88756932Y-45084434D01*
X88756930Y-45084433D01*
X88567046Y-45022736D01*
X88567042Y-45022735D01*
X88567041Y-45022735D01*
X88369833Y-44991500D01*
X88170167Y-44991500D01*
X87972959Y-45022735D01*
X87972953Y-45022736D01*
X87783069Y-45084433D01*
X87783063Y-45084436D01*
X87605157Y-45175084D01*
X87443625Y-45292444D01*
X87302444Y-45433625D01*
X87185083Y-45595158D01*
X87112267Y-45738068D01*
X87063518Y-45789683D01*
X86994603Y-45806749D01*
X86927402Y-45783848D01*
X86887733Y-45738068D01*
X86868059Y-45699456D01*
X86814918Y-45595161D01*
X86697557Y-45433628D01*
X86697555Y-45433625D01*
X86556374Y-45292444D01*
X86394842Y-45175084D01*
X86394841Y-45175083D01*
X86394839Y-45175082D01*
X86216935Y-45084435D01*
X86216932Y-45084434D01*
X86216930Y-45084433D01*
X86027046Y-45022736D01*
X86027042Y-45022735D01*
X86027041Y-45022735D01*
X85829833Y-44991500D01*
X85630167Y-44991500D01*
X85432959Y-45022735D01*
X85432953Y-45022736D01*
X85243069Y-45084433D01*
X85243063Y-45084436D01*
X85065157Y-45175084D01*
X84903625Y-45292444D01*
X84762448Y-45433621D01*
X84653873Y-45583061D01*
X84597650Y-45626414D01*
X84526914Y-45632489D01*
X84464122Y-45599357D01*
X84432332Y-45548632D01*
X84394223Y-45433625D01*
X84392115Y-45427262D01*
X84299030Y-45276348D01*
X84299029Y-45276347D01*
X84299024Y-45276341D01*
X84173658Y-45150975D01*
X84173652Y-45150970D01*
X84022738Y-45057885D01*
X83938582Y-45029999D01*
X83854427Y-45002113D01*
X83854420Y-45002112D01*
X83750553Y-44991500D01*
X82629455Y-44991500D01*
X82525574Y-45002112D01*
X82357261Y-45057885D01*
X82206347Y-45150970D01*
X82206341Y-45150975D01*
X82080975Y-45276341D01*
X82080970Y-45276347D01*
X81987885Y-45427262D01*
X81932113Y-45595572D01*
X81932112Y-45595579D01*
X81921500Y-45699446D01*
X78461100Y-45699446D01*
X78461100Y-40059403D01*
X78461099Y-40059399D01*
X78460708Y-40057432D01*
X78432774Y-39916996D01*
X78377210Y-39782852D01*
X78296543Y-39662126D01*
X78193874Y-39559457D01*
X77217517Y-38583100D01*
X76178729Y-37544311D01*
X76094585Y-37460167D01*
X81911500Y-37460167D01*
X81911500Y-37659833D01*
X81939544Y-37836895D01*
X81942736Y-37857046D01*
X81999035Y-38030316D01*
X82004435Y-38046935D01*
X82073865Y-38183198D01*
X82095084Y-38224842D01*
X82212444Y-38386374D01*
X82353625Y-38527555D01*
X82353628Y-38527557D01*
X82515161Y-38644918D01*
X82693065Y-38735565D01*
X82882959Y-38797265D01*
X83080167Y-38828500D01*
X83080170Y-38828500D01*
X83279830Y-38828500D01*
X83279833Y-38828500D01*
X83477041Y-38797265D01*
X83666935Y-38735565D01*
X83844839Y-38644918D01*
X84006372Y-38527557D01*
X84147557Y-38386372D01*
X84264918Y-38224839D01*
X84337734Y-38081929D01*
X84386481Y-38030316D01*
X84455396Y-38013250D01*
X84522598Y-38036151D01*
X84562265Y-38081929D01*
X84613865Y-38183198D01*
X84635084Y-38224842D01*
X84752444Y-38386374D01*
X84893625Y-38527555D01*
X84893628Y-38527557D01*
X85055161Y-38644918D01*
X85233065Y-38735565D01*
X85422959Y-38797265D01*
X85620167Y-38828500D01*
X85620170Y-38828500D01*
X85819830Y-38828500D01*
X85819833Y-38828500D01*
X86017041Y-38797265D01*
X86206935Y-38735565D01*
X86384839Y-38644918D01*
X86546372Y-38527557D01*
X86687557Y-38386372D01*
X86804918Y-38224839D01*
X86877734Y-38081929D01*
X86926481Y-38030316D01*
X86995396Y-38013250D01*
X87062598Y-38036151D01*
X87102265Y-38081929D01*
X87153865Y-38183198D01*
X87175084Y-38224842D01*
X87292444Y-38386374D01*
X87433625Y-38527555D01*
X87433628Y-38527557D01*
X87595161Y-38644918D01*
X87773065Y-38735565D01*
X87962959Y-38797265D01*
X88160167Y-38828500D01*
X88160170Y-38828500D01*
X88359829Y-38828500D01*
X88359833Y-38828500D01*
X88391481Y-38823487D01*
X88461890Y-38832586D01*
X88516204Y-38878308D01*
X88537177Y-38946136D01*
X88518150Y-39014535D01*
X88500286Y-39037031D01*
X88420970Y-39116347D01*
X88379576Y-39183458D01*
X88327885Y-39267262D01*
X88318347Y-39296048D01*
X88287668Y-39388632D01*
X88247254Y-39447004D01*
X88181698Y-39474260D01*
X88111812Y-39461747D01*
X88066127Y-39423061D01*
X87957555Y-39273625D01*
X87816374Y-39132444D01*
X87654842Y-39015084D01*
X87654841Y-39015083D01*
X87654839Y-39015082D01*
X87476935Y-38924435D01*
X87476932Y-38924434D01*
X87476930Y-38924433D01*
X87287046Y-38862736D01*
X87287042Y-38862735D01*
X87287041Y-38862735D01*
X87089833Y-38831500D01*
X86890167Y-38831500D01*
X86692959Y-38862735D01*
X86692953Y-38862736D01*
X86503069Y-38924433D01*
X86503063Y-38924436D01*
X86325157Y-39015084D01*
X86163625Y-39132444D01*
X86022444Y-39273625D01*
X85905083Y-39435158D01*
X85832267Y-39578068D01*
X85783518Y-39629683D01*
X85714603Y-39646749D01*
X85647402Y-39623848D01*
X85607733Y-39578068D01*
X85588059Y-39539456D01*
X85534918Y-39435161D01*
X85533727Y-39433521D01*
X85417555Y-39273625D01*
X85276374Y-39132444D01*
X85114842Y-39015084D01*
X85114841Y-39015083D01*
X85114839Y-39015082D01*
X84936935Y-38924435D01*
X84936932Y-38924434D01*
X84936930Y-38924433D01*
X84747046Y-38862736D01*
X84747042Y-38862735D01*
X84747041Y-38862735D01*
X84549833Y-38831500D01*
X84350167Y-38831500D01*
X84152959Y-38862735D01*
X84152953Y-38862736D01*
X83963069Y-38924433D01*
X83963063Y-38924436D01*
X83785157Y-39015084D01*
X83623625Y-39132444D01*
X83482444Y-39273625D01*
X83365084Y-39435157D01*
X83274436Y-39613063D01*
X83274433Y-39613069D01*
X83212736Y-39802953D01*
X83212735Y-39802958D01*
X83212735Y-39802959D01*
X83181500Y-40000167D01*
X83181500Y-40199833D01*
X83212477Y-40395412D01*
X83212736Y-40397046D01*
X83262848Y-40551275D01*
X83274435Y-40586935D01*
X83365082Y-40764839D01*
X83365084Y-40764842D01*
X83482444Y-40926374D01*
X83623625Y-41067555D01*
X83645781Y-41083652D01*
X83785161Y-41184918D01*
X83963065Y-41275565D01*
X84152959Y-41337265D01*
X84350167Y-41368500D01*
X84350170Y-41368500D01*
X84549830Y-41368500D01*
X84549833Y-41368500D01*
X84747041Y-41337265D01*
X84936935Y-41275565D01*
X85114839Y-41184918D01*
X85276372Y-41067557D01*
X85417557Y-40926372D01*
X85534918Y-40764839D01*
X85607734Y-40621929D01*
X85656481Y-40570316D01*
X85725396Y-40553250D01*
X85792598Y-40576151D01*
X85832265Y-40621929D01*
X85905082Y-40764839D01*
X85905084Y-40764842D01*
X86022444Y-40926374D01*
X86163625Y-41067555D01*
X86185781Y-41083652D01*
X86325161Y-41184918D01*
X86503065Y-41275565D01*
X86692959Y-41337265D01*
X86890167Y-41368500D01*
X86890170Y-41368500D01*
X87089830Y-41368500D01*
X87089833Y-41368500D01*
X87287041Y-41337265D01*
X87476935Y-41275565D01*
X87654839Y-41184918D01*
X87816372Y-41067557D01*
X87957557Y-40926372D01*
X88066127Y-40776937D01*
X88122348Y-40733585D01*
X88193084Y-40727510D01*
X88255876Y-40760641D01*
X88287666Y-40811367D01*
X88327883Y-40932734D01*
X88327884Y-40932736D01*
X88327885Y-40932738D01*
X88420970Y-41083652D01*
X88420975Y-41083658D01*
X88546341Y-41209024D01*
X88546347Y-41209029D01*
X88546348Y-41209030D01*
X88697262Y-41302115D01*
X88865574Y-41357887D01*
X88969455Y-41368500D01*
X90090544Y-41368499D01*
X90194426Y-41357887D01*
X90362738Y-41302115D01*
X90513652Y-41209030D01*
X90639030Y-41083652D01*
X90732115Y-40932738D01*
X90787887Y-40764426D01*
X90798500Y-40660545D01*
X90798499Y-39539456D01*
X90787887Y-39435574D01*
X90732115Y-39267262D01*
X90639030Y-39116348D01*
X90639029Y-39116347D01*
X90639024Y-39116341D01*
X90513658Y-38990975D01*
X90513652Y-38990970D01*
X90465481Y-38961258D01*
X90362738Y-38897885D01*
X90278582Y-38869999D01*
X90194427Y-38842113D01*
X90194420Y-38842112D01*
X90090553Y-38831500D01*
X89055817Y-38831500D01*
X88987696Y-38811498D01*
X88941203Y-38757842D01*
X88931099Y-38687568D01*
X88960593Y-38622988D01*
X88981754Y-38603566D01*
X89086372Y-38527557D01*
X89227557Y-38386372D01*
X89344918Y-38224839D01*
X89435565Y-38046935D01*
X89497265Y-37857041D01*
X89528500Y-37659833D01*
X89528500Y-37460167D01*
X89497265Y-37262959D01*
X89435565Y-37073065D01*
X89344918Y-36895161D01*
X89238667Y-36748920D01*
X89227555Y-36733625D01*
X89086374Y-36592444D01*
X88924842Y-36475084D01*
X88924841Y-36475083D01*
X88924839Y-36475082D01*
X88746935Y-36384435D01*
X88746932Y-36384434D01*
X88746930Y-36384433D01*
X88557046Y-36322736D01*
X88557042Y-36322735D01*
X88557041Y-36322735D01*
X88359833Y-36291500D01*
X88160167Y-36291500D01*
X87962959Y-36322735D01*
X87962953Y-36322736D01*
X87773069Y-36384433D01*
X87773063Y-36384436D01*
X87595157Y-36475084D01*
X87433625Y-36592444D01*
X87292444Y-36733625D01*
X87175083Y-36895158D01*
X87119253Y-37004731D01*
X87106842Y-37029090D01*
X87102267Y-37038068D01*
X87053518Y-37089683D01*
X86984603Y-37106749D01*
X86917402Y-37083848D01*
X86877733Y-37038068D01*
X86875747Y-37034171D01*
X86804918Y-36895161D01*
X86729751Y-36791702D01*
X86687555Y-36733625D01*
X86546374Y-36592444D01*
X86384842Y-36475084D01*
X86384841Y-36475083D01*
X86384839Y-36475082D01*
X86206935Y-36384435D01*
X86206932Y-36384434D01*
X86206930Y-36384433D01*
X86017046Y-36322736D01*
X86017042Y-36322735D01*
X86017041Y-36322735D01*
X85819833Y-36291500D01*
X85620167Y-36291500D01*
X85422959Y-36322735D01*
X85422953Y-36322736D01*
X85233069Y-36384433D01*
X85233063Y-36384436D01*
X85055157Y-36475084D01*
X84893625Y-36592444D01*
X84752444Y-36733625D01*
X84635083Y-36895158D01*
X84579253Y-37004731D01*
X84566842Y-37029090D01*
X84562267Y-37038068D01*
X84513518Y-37089683D01*
X84444603Y-37106749D01*
X84377402Y-37083848D01*
X84337733Y-37038068D01*
X84335747Y-37034171D01*
X84264918Y-36895161D01*
X84189751Y-36791702D01*
X84147555Y-36733625D01*
X84006374Y-36592444D01*
X83844842Y-36475084D01*
X83844841Y-36475083D01*
X83844839Y-36475082D01*
X83666935Y-36384435D01*
X83666932Y-36384434D01*
X83666930Y-36384433D01*
X83477046Y-36322736D01*
X83477042Y-36322735D01*
X83477041Y-36322735D01*
X83279833Y-36291500D01*
X83080167Y-36291500D01*
X82882959Y-36322735D01*
X82882953Y-36322736D01*
X82693069Y-36384433D01*
X82693063Y-36384436D01*
X82515157Y-36475084D01*
X82353625Y-36592444D01*
X82212444Y-36733625D01*
X82095084Y-36895157D01*
X82004436Y-37073063D01*
X82004433Y-37073069D01*
X81942736Y-37262953D01*
X81942735Y-37262958D01*
X81942735Y-37262959D01*
X81911500Y-37460167D01*
X76094585Y-37460167D01*
X75907879Y-37273461D01*
X75907873Y-37273456D01*
X75865362Y-37245051D01*
X75787148Y-37192790D01*
X75653004Y-37137226D01*
X75510600Y-37108900D01*
X75510598Y-37108900D01*
X69922598Y-37108900D01*
X69777402Y-37108900D01*
X69777399Y-37108900D01*
X69634995Y-37137226D01*
X69634990Y-37137228D01*
X69500852Y-37192790D01*
X69380126Y-37273456D01*
X69380120Y-37273461D01*
X67945827Y-38707756D01*
X67470126Y-39183457D01*
X67418791Y-39234792D01*
X67367456Y-39286126D01*
X67286790Y-39406852D01*
X67231228Y-39540990D01*
X67231226Y-39540995D01*
X67202900Y-39683399D01*
X67202900Y-47893381D01*
X67182898Y-47961502D01*
X67150963Y-47995315D01*
X67113634Y-48022437D01*
X67113624Y-48022445D01*
X66972444Y-48163625D01*
X66855083Y-48325158D01*
X66782267Y-48468068D01*
X66733518Y-48519683D01*
X66664603Y-48536749D01*
X66597402Y-48513848D01*
X66557733Y-48468068D01*
X66544418Y-48441936D01*
X66484918Y-48325161D01*
X66468421Y-48302454D01*
X66367555Y-48163625D01*
X66226374Y-48022444D01*
X66064842Y-47905084D01*
X66064841Y-47905083D01*
X66064839Y-47905082D01*
X65886935Y-47814435D01*
X65886932Y-47814434D01*
X65886930Y-47814433D01*
X65697046Y-47752736D01*
X65697042Y-47752735D01*
X65697041Y-47752735D01*
X65499833Y-47721500D01*
X65300167Y-47721500D01*
X65102959Y-47752735D01*
X65102953Y-47752736D01*
X64913069Y-47814433D01*
X64913063Y-47814436D01*
X64735157Y-47905084D01*
X64573625Y-48022444D01*
X64432444Y-48163625D01*
X64315084Y-48325157D01*
X64224436Y-48503063D01*
X64224433Y-48503069D01*
X64162736Y-48692953D01*
X64162735Y-48692958D01*
X64162735Y-48692959D01*
X64131500Y-48890167D01*
X64131500Y-49089833D01*
X64162735Y-49287041D01*
X64162736Y-49287046D01*
X64221684Y-49468469D01*
X64224435Y-49476935D01*
X64315082Y-49654839D01*
X64315084Y-49654842D01*
X64432444Y-49816374D01*
X64573625Y-49957555D01*
X64573628Y-49957557D01*
X64735161Y-50074918D01*
X64913065Y-50165565D01*
X65102959Y-50227265D01*
X65300167Y-50258500D01*
X65300170Y-50258500D01*
X65499830Y-50258500D01*
X65499833Y-50258500D01*
X65697041Y-50227265D01*
X65886935Y-50165565D01*
X66064839Y-50074918D01*
X66226372Y-49957557D01*
X66367557Y-49816372D01*
X66484918Y-49654839D01*
X66557734Y-49511929D01*
X66606481Y-49460316D01*
X66675396Y-49443250D01*
X66742598Y-49466151D01*
X66782265Y-49511929D01*
X66855082Y-49654839D01*
X66855084Y-49654842D01*
X66972444Y-49816374D01*
X67113622Y-49957552D01*
X67113625Y-49957554D01*
X67113628Y-49957557D01*
X67150962Y-49984682D01*
X67154355Y-49989082D01*
X67159412Y-49991392D01*
X67175799Y-50016891D01*
X67194314Y-50040901D01*
X67195587Y-50047681D01*
X67197796Y-50051118D01*
X67202900Y-50086616D01*
X67202900Y-50195946D01*
X67182898Y-50264067D01*
X67129242Y-50310560D01*
X67058968Y-50320664D01*
X67037964Y-50315779D01*
X66967044Y-50292736D01*
X66967048Y-50292736D01*
X66930330Y-50286920D01*
X66769833Y-50261500D01*
X66570167Y-50261500D01*
X66372959Y-50292735D01*
X66372953Y-50292736D01*
X66183069Y-50354433D01*
X66183063Y-50354436D01*
X66005157Y-50445084D01*
X65843625Y-50562444D01*
X65702444Y-50703625D01*
X65585084Y-50865157D01*
X65494436Y-51043063D01*
X65494433Y-51043069D01*
X65432736Y-51232953D01*
X65432735Y-51232958D01*
X65432735Y-51232959D01*
X65401500Y-51430167D01*
X65401500Y-51629833D01*
X65424656Y-51776030D01*
X65432736Y-51827046D01*
X65494433Y-52016930D01*
X65494438Y-52016942D01*
X65526414Y-52079698D01*
X65539518Y-52149474D01*
X65512817Y-52215259D01*
X65454790Y-52256165D01*
X65414147Y-52262900D01*
X50357507Y-52262900D01*
X50289386Y-52242898D01*
X50268412Y-52225995D01*
X47781079Y-49738661D01*
X47781073Y-49738656D01*
X47741014Y-49711889D01*
X47660348Y-49657990D01*
X47526204Y-49602426D01*
X47383800Y-49574100D01*
X47383798Y-49574100D01*
X44534339Y-49574100D01*
X44466218Y-49554098D01*
X44419725Y-49500442D01*
X44418571Y-49497838D01*
X44400380Y-49455496D01*
X44281612Y-49222396D01*
X44281607Y-49222386D01*
X44247266Y-49164665D01*
X44247261Y-49164657D01*
X44188306Y-49078880D01*
X44099083Y-48949062D01*
X44099073Y-48949049D01*
X44057517Y-48896335D01*
X44057511Y-48896327D01*
X43882451Y-48701902D01*
X43882443Y-48701894D01*
X43834347Y-48655042D01*
X43834338Y-48655033D01*
X43635406Y-48485128D01*
X43612560Y-48468068D01*
X43581586Y-48444938D01*
X43362176Y-48302452D01*
X43362166Y-48302446D01*
X43303578Y-48269635D01*
X43303574Y-48269633D01*
X43067446Y-48157006D01*
X43067442Y-48157004D01*
X43067437Y-48157002D01*
X43005060Y-48132116D01*
X43005051Y-48132113D01*
X42756237Y-48051270D01*
X42691167Y-48034745D01*
X42691154Y-48034742D01*
X42433913Y-47987065D01*
X42367225Y-47979171D01*
X42105980Y-47965478D01*
X42105946Y-47965478D01*
X42038817Y-47966356D01*
X42038799Y-47966356D01*
X42038796Y-47966357D01*
X41951860Y-47973199D01*
X41777984Y-47986883D01*
X41721842Y-47995023D01*
X41711522Y-47996520D01*
X41711521Y-47996520D01*
X41711519Y-47996520D01*
X41711515Y-47996521D01*
X41455619Y-48050914D01*
X41455615Y-48050915D01*
X41455592Y-48050920D01*
X41392845Y-48068489D01*
X41392799Y-48068503D01*
X40325439Y-48441933D01*
X40256457Y-48471903D01*
X40147771Y-48550472D01*
X40080847Y-48574170D01*
X40011734Y-48557925D01*
X39962375Y-48506893D01*
X39954955Y-48489774D01*
X39768419Y-47953796D01*
X39767988Y-47952535D01*
X39435397Y-46963311D01*
X39434948Y-46961953D01*
X39354461Y-46713250D01*
X39153039Y-46090864D01*
X39152662Y-46089672D01*
X38887826Y-45236073D01*
X38887356Y-45234521D01*
X38869764Y-45175084D01*
X38664040Y-44480015D01*
X38663604Y-44478504D01*
X38457208Y-43743356D01*
X38456752Y-43741683D01*
X38284763Y-43091315D01*
X38284309Y-43089541D01*
X38144484Y-42523467D01*
X61712100Y-42523467D01*
X61712100Y-42756532D01*
X61742518Y-42987588D01*
X61742520Y-42987595D01*
X61802840Y-43212714D01*
X61892028Y-43428032D01*
X61892029Y-43428033D01*
X61892034Y-43428044D01*
X62008555Y-43629864D01*
X62008560Y-43629871D01*
X62150428Y-43814757D01*
X62150447Y-43814778D01*
X62315221Y-43979552D01*
X62315242Y-43979571D01*
X62500128Y-44121439D01*
X62500135Y-44121444D01*
X62701955Y-44237965D01*
X62701959Y-44237966D01*
X62701968Y-44237972D01*
X62917286Y-44327160D01*
X63142405Y-44387480D01*
X63142409Y-44387480D01*
X63142411Y-44387481D01*
X63201962Y-44395320D01*
X63373470Y-44417900D01*
X63373477Y-44417900D01*
X63606523Y-44417900D01*
X63606530Y-44417900D01*
X63815353Y-44390408D01*
X63837588Y-44387481D01*
X63837588Y-44387480D01*
X63837595Y-44387480D01*
X64062714Y-44327160D01*
X64278032Y-44237972D01*
X64479868Y-44121442D01*
X64664766Y-43979564D01*
X64829564Y-43814766D01*
X64971442Y-43629868D01*
X65087972Y-43428032D01*
X65177160Y-43212714D01*
X65237480Y-42987595D01*
X65267900Y-42756530D01*
X65267900Y-42523470D01*
X65237480Y-42292405D01*
X65177160Y-42067286D01*
X65087972Y-41851968D01*
X65087966Y-41851959D01*
X65087965Y-41851955D01*
X64971444Y-41650135D01*
X64971439Y-41650128D01*
X64829571Y-41465242D01*
X64829552Y-41465221D01*
X64664778Y-41300447D01*
X64664757Y-41300428D01*
X64479871Y-41158560D01*
X64479864Y-41158555D01*
X64278044Y-41042034D01*
X64278036Y-41042030D01*
X64278032Y-41042028D01*
X64062714Y-40952840D01*
X63837595Y-40892520D01*
X63837588Y-40892518D01*
X63606532Y-40862100D01*
X63606530Y-40862100D01*
X63373470Y-40862100D01*
X63373467Y-40862100D01*
X63142411Y-40892518D01*
X62992308Y-40932738D01*
X62917286Y-40952840D01*
X62717941Y-41035412D01*
X62701966Y-41042029D01*
X62701955Y-41042034D01*
X62500135Y-41158555D01*
X62500128Y-41158560D01*
X62315242Y-41300428D01*
X62315221Y-41300447D01*
X62150447Y-41465221D01*
X62150428Y-41465242D01*
X62008560Y-41650128D01*
X62008555Y-41650135D01*
X61892034Y-41851955D01*
X61892029Y-41851966D01*
X61892028Y-41851968D01*
X61847907Y-41958486D01*
X61802840Y-42067286D01*
X61742518Y-42292411D01*
X61712100Y-42523467D01*
X38144484Y-42523467D01*
X38128666Y-42459430D01*
X38128153Y-42457267D01*
X38106100Y-42360657D01*
X38001088Y-41900622D01*
X38000575Y-41898270D01*
X37990935Y-41851955D01*
X37888875Y-41361619D01*
X37888386Y-41359140D01*
X37800230Y-40886319D01*
X37799742Y-40883529D01*
X37796248Y-40862100D01*
X37725795Y-40430011D01*
X37725354Y-40427073D01*
X37670553Y-40029175D01*
X37670145Y-40025887D01*
X37628302Y-39646471D01*
X37627950Y-39642773D01*
X37625560Y-39613069D01*
X37607523Y-39388853D01*
X37601326Y-39311816D01*
X37601065Y-39307747D01*
X37588871Y-39053409D01*
X37586030Y-38994167D01*
X37585896Y-38989713D01*
X37585543Y-38961258D01*
X37582527Y-38718098D01*
X37582560Y-38713260D01*
X37589344Y-38457831D01*
X37589600Y-38452509D01*
X37604824Y-38233351D01*
X37605372Y-38227473D01*
X37629224Y-38023368D01*
X37630137Y-38016991D01*
X37659491Y-37843866D01*
X37660877Y-37836895D01*
X37673693Y-37780765D01*
X37697246Y-37677611D01*
X37699202Y-37670119D01*
X37738448Y-37536852D01*
X37741106Y-37528835D01*
X37785067Y-37409798D01*
X37789084Y-37400170D01*
X37800650Y-37375392D01*
X37846357Y-37277472D01*
X37853210Y-37264752D01*
X37988066Y-37045602D01*
X37995989Y-37034191D01*
X38199795Y-36772788D01*
X38207063Y-36764280D01*
X38496898Y-36454258D01*
X38503346Y-36447846D01*
X38894870Y-36085808D01*
X38900519Y-36080890D01*
X39410482Y-35662737D01*
X39415306Y-35658975D01*
X40061603Y-35180035D01*
X40065727Y-35177108D01*
X40867158Y-34632374D01*
X40870653Y-34630084D01*
X41693964Y-34110718D01*
X43856806Y-34110718D01*
X43863808Y-34190737D01*
X43865631Y-34211573D01*
X43865632Y-34211578D01*
X43905128Y-34287451D01*
X45292792Y-36953124D01*
X45297631Y-36962419D01*
X45355010Y-37010566D01*
X45375190Y-37027499D01*
X45471750Y-37057944D01*
X45471750Y-37057943D01*
X45471751Y-37057944D01*
X45472802Y-37057852D01*
X45478538Y-37060413D01*
X45485449Y-37062928D01*
X45506852Y-37054873D01*
X45572612Y-37049120D01*
X45662418Y-37002369D01*
X45662418Y-37002368D01*
X50984484Y-34231876D01*
X51049564Y-34154317D01*
X51080009Y-34057756D01*
X51071185Y-33956895D01*
X51024434Y-33867089D01*
X51019986Y-33858544D01*
X51019978Y-33858530D01*
X50667981Y-33182352D01*
X50496396Y-32852741D01*
X52475500Y-32852741D01*
X52475500Y-33187258D01*
X52508285Y-33520131D01*
X52508288Y-33520151D01*
X52573543Y-33848213D01*
X52573545Y-33848220D01*
X52573546Y-33848224D01*
X52579269Y-33867089D01*
X52670643Y-34168315D01*
X52670646Y-34168323D01*
X52798657Y-34477367D01*
X52956342Y-34772376D01*
X53142177Y-35050497D01*
X53142188Y-35050512D01*
X53354384Y-35309073D01*
X53354402Y-35309093D01*
X53590906Y-35545597D01*
X53590926Y-35545615D01*
X53819832Y-35733474D01*
X53849496Y-35757818D01*
X54127626Y-35943659D01*
X54422633Y-36101343D01*
X54731675Y-36229353D01*
X54731680Y-36229354D01*
X54731684Y-36229356D01*
X54797970Y-36249463D01*
X55051776Y-36326454D01*
X55379854Y-36391713D01*
X55712748Y-36424500D01*
X55712757Y-36424500D01*
X56047243Y-36424500D01*
X56047252Y-36424500D01*
X56380146Y-36391713D01*
X56708224Y-36326454D01*
X57028325Y-36229353D01*
X57337367Y-36101343D01*
X57632374Y-35943659D01*
X57910504Y-35757818D01*
X58169080Y-35545610D01*
X58405610Y-35309080D01*
X58617818Y-35050504D01*
X58803659Y-34772374D01*
X58961343Y-34477367D01*
X59089353Y-34168325D01*
X59186454Y-33848224D01*
X59251713Y-33520146D01*
X59284500Y-33187252D01*
X59284500Y-32852748D01*
X59251713Y-32519854D01*
X59186454Y-32191776D01*
X59089353Y-31871675D01*
X58961343Y-31562633D01*
X58803659Y-31267626D01*
X58779100Y-31230871D01*
X58731310Y-31159347D01*
X58687290Y-31093467D01*
X79492100Y-31093467D01*
X79492100Y-31326532D01*
X79522518Y-31557588D01*
X79537163Y-31612243D01*
X79582840Y-31782714D01*
X79672028Y-31998032D01*
X79672029Y-31998033D01*
X79672034Y-31998044D01*
X79788555Y-32199864D01*
X79788560Y-32199871D01*
X79930428Y-32384757D01*
X79930447Y-32384778D01*
X80095221Y-32549552D01*
X80095242Y-32549571D01*
X80280128Y-32691439D01*
X80280135Y-32691444D01*
X80481955Y-32807965D01*
X80481959Y-32807966D01*
X80481968Y-32807972D01*
X80697286Y-32897160D01*
X80922405Y-32957480D01*
X80922409Y-32957480D01*
X80922411Y-32957481D01*
X80981962Y-32965320D01*
X81153470Y-32987900D01*
X81153477Y-32987900D01*
X81386523Y-32987900D01*
X81386530Y-32987900D01*
X81595353Y-32960408D01*
X81617588Y-32957481D01*
X81617588Y-32957480D01*
X81617595Y-32957480D01*
X81842714Y-32897160D01*
X82058032Y-32807972D01*
X82259868Y-32691442D01*
X82444766Y-32549564D01*
X82609564Y-32384766D01*
X82751442Y-32199868D01*
X82867972Y-31998032D01*
X82957160Y-31782714D01*
X83017480Y-31557595D01*
X83047900Y-31326530D01*
X83047900Y-31093470D01*
X83047900Y-31093467D01*
X89652100Y-31093467D01*
X89652100Y-31326532D01*
X89682518Y-31557588D01*
X89697163Y-31612243D01*
X89742840Y-31782714D01*
X89832028Y-31998032D01*
X89832029Y-31998033D01*
X89832034Y-31998044D01*
X89948555Y-32199864D01*
X89948560Y-32199871D01*
X90090428Y-32384757D01*
X90090447Y-32384778D01*
X90255221Y-32549552D01*
X90255242Y-32549571D01*
X90440128Y-32691439D01*
X90440135Y-32691444D01*
X90641955Y-32807965D01*
X90641959Y-32807966D01*
X90641968Y-32807972D01*
X90857286Y-32897160D01*
X91082405Y-32957480D01*
X91082409Y-32957480D01*
X91082411Y-32957481D01*
X91141962Y-32965320D01*
X91313470Y-32987900D01*
X91313477Y-32987900D01*
X91546523Y-32987900D01*
X91546530Y-32987900D01*
X91755353Y-32960408D01*
X91777588Y-32957481D01*
X91777588Y-32957480D01*
X91777595Y-32957480D01*
X92002714Y-32897160D01*
X92109951Y-32852741D01*
X113435500Y-32852741D01*
X113435500Y-33187258D01*
X113468285Y-33520131D01*
X113468288Y-33520151D01*
X113533543Y-33848213D01*
X113533545Y-33848220D01*
X113533546Y-33848224D01*
X113539269Y-33867089D01*
X113630643Y-34168315D01*
X113630646Y-34168323D01*
X113758657Y-34477367D01*
X113916342Y-34772376D01*
X114102177Y-35050497D01*
X114102188Y-35050512D01*
X114314384Y-35309073D01*
X114314402Y-35309093D01*
X114550906Y-35545597D01*
X114550926Y-35545615D01*
X114779832Y-35733474D01*
X114809496Y-35757818D01*
X115087626Y-35943659D01*
X115382633Y-36101343D01*
X115691675Y-36229353D01*
X115691680Y-36229354D01*
X115691684Y-36229356D01*
X115757970Y-36249463D01*
X116011776Y-36326454D01*
X116339854Y-36391713D01*
X116672748Y-36424500D01*
X116672757Y-36424500D01*
X117007243Y-36424500D01*
X117007252Y-36424500D01*
X117340146Y-36391713D01*
X117668224Y-36326454D01*
X117988325Y-36229353D01*
X118297367Y-36101343D01*
X118592374Y-35943659D01*
X118870504Y-35757818D01*
X119129080Y-35545610D01*
X119365610Y-35309080D01*
X119577818Y-35050504D01*
X119763659Y-34772374D01*
X119843664Y-34622694D01*
X121537831Y-34622694D01*
X121537831Y-34622696D01*
X121572457Y-34717831D01*
X121572457Y-34717832D01*
X121572459Y-34717834D01*
X121640861Y-34792480D01*
X121732621Y-34835269D01*
X121732622Y-34835269D01*
X127068716Y-37323527D01*
X127068718Y-37323529D01*
X127078706Y-37328186D01*
X127078707Y-37328187D01*
X127170467Y-37370976D01*
X127271617Y-37375392D01*
X127366757Y-37340764D01*
X127441404Y-37272362D01*
X127450181Y-37253540D01*
X128724133Y-34521543D01*
X128752050Y-34461676D01*
X128756466Y-34360526D01*
X128746877Y-34334181D01*
X128721839Y-34265387D01*
X128721837Y-34265383D01*
X128653437Y-34190740D01*
X128653436Y-34190739D01*
X123489405Y-31782714D01*
X123123826Y-31612242D01*
X123031508Y-31608212D01*
X123022678Y-31607827D01*
X123022677Y-31607827D01*
X123022676Y-31607827D01*
X123022674Y-31607827D01*
X122927539Y-31642453D01*
X122927538Y-31642453D01*
X122852890Y-31710858D01*
X122814761Y-31792624D01*
X122814760Y-31792627D01*
X122810102Y-31802617D01*
X122810101Y-31802618D01*
X122661267Y-32121794D01*
X121542246Y-34521544D01*
X121537831Y-34622694D01*
X119843664Y-34622694D01*
X119921343Y-34477367D01*
X120049353Y-34168325D01*
X120146454Y-33848224D01*
X120211713Y-33520146D01*
X120244500Y-33187252D01*
X120244500Y-32852748D01*
X120211713Y-32519854D01*
X120146454Y-32191776D01*
X120049353Y-31871675D01*
X119921343Y-31562633D01*
X119763659Y-31267626D01*
X119577818Y-30989496D01*
X119365610Y-30730920D01*
X119365606Y-30730916D01*
X119365597Y-30730906D01*
X119129093Y-30494402D01*
X119129073Y-30494384D01*
X118870512Y-30282188D01*
X118870497Y-30282177D01*
X118592376Y-30096342D01*
X118297367Y-29938657D01*
X117988323Y-29810646D01*
X117988315Y-29810643D01*
X117750929Y-29738634D01*
X117668224Y-29713546D01*
X117668220Y-29713545D01*
X117668213Y-29713543D01*
X117340151Y-29648288D01*
X117340146Y-29648287D01*
X117340141Y-29648286D01*
X117340131Y-29648285D01*
X117007258Y-29615500D01*
X117007252Y-29615500D01*
X116672748Y-29615500D01*
X116672741Y-29615500D01*
X116339868Y-29648285D01*
X116339855Y-29648286D01*
X116339854Y-29648287D01*
X116339851Y-29648287D01*
X116339848Y-29648288D01*
X116011786Y-29713543D01*
X115691684Y-29810643D01*
X115691676Y-29810646D01*
X115382632Y-29938657D01*
X115087623Y-30096342D01*
X114809502Y-30282177D01*
X114809487Y-30282188D01*
X114550926Y-30494384D01*
X114550906Y-30494402D01*
X114314402Y-30730906D01*
X114314384Y-30730926D01*
X114102188Y-30989487D01*
X114102177Y-30989502D01*
X113916342Y-31267623D01*
X113758657Y-31562632D01*
X113630646Y-31871676D01*
X113630643Y-31871684D01*
X113533543Y-32191786D01*
X113468288Y-32519848D01*
X113468285Y-32519868D01*
X113435500Y-32852741D01*
X92109951Y-32852741D01*
X92218032Y-32807972D01*
X92419868Y-32691442D01*
X92604766Y-32549564D01*
X92769564Y-32384766D01*
X92911442Y-32199868D01*
X93027972Y-31998032D01*
X93117160Y-31782714D01*
X93177480Y-31557595D01*
X93207900Y-31326530D01*
X93207900Y-31093470D01*
X93177480Y-30862405D01*
X93117160Y-30637286D01*
X93027972Y-30421968D01*
X93027966Y-30421959D01*
X93027965Y-30421955D01*
X92911444Y-30220135D01*
X92911439Y-30220128D01*
X92769571Y-30035242D01*
X92769552Y-30035221D01*
X92604778Y-29870447D01*
X92604757Y-29870428D01*
X92419871Y-29728560D01*
X92419864Y-29728555D01*
X92218044Y-29612034D01*
X92218036Y-29612030D01*
X92218032Y-29612028D01*
X92002714Y-29522840D01*
X91777595Y-29462520D01*
X91777588Y-29462518D01*
X91546532Y-29432100D01*
X91546530Y-29432100D01*
X91313470Y-29432100D01*
X91313467Y-29432100D01*
X91082411Y-29462518D01*
X90857286Y-29522840D01*
X90641966Y-29612029D01*
X90641955Y-29612034D01*
X90440135Y-29728555D01*
X90440128Y-29728560D01*
X90255242Y-29870428D01*
X90255221Y-29870447D01*
X90090447Y-30035221D01*
X90090428Y-30035242D01*
X89948560Y-30220128D01*
X89948555Y-30220135D01*
X89832034Y-30421955D01*
X89832029Y-30421966D01*
X89742840Y-30637286D01*
X89682518Y-30862411D01*
X89652100Y-31093467D01*
X83047900Y-31093467D01*
X83017480Y-30862405D01*
X82957160Y-30637286D01*
X82867972Y-30421968D01*
X82867966Y-30421959D01*
X82867965Y-30421955D01*
X82751444Y-30220135D01*
X82751439Y-30220128D01*
X82609571Y-30035242D01*
X82609552Y-30035221D01*
X82444778Y-29870447D01*
X82444757Y-29870428D01*
X82259871Y-29728560D01*
X82259864Y-29728555D01*
X82058044Y-29612034D01*
X82058036Y-29612030D01*
X82058032Y-29612028D01*
X81842714Y-29522840D01*
X81617595Y-29462520D01*
X81617588Y-29462518D01*
X81386532Y-29432100D01*
X81386530Y-29432100D01*
X81153470Y-29432100D01*
X81153467Y-29432100D01*
X80922411Y-29462518D01*
X80697286Y-29522840D01*
X80481966Y-29612029D01*
X80481955Y-29612034D01*
X80280135Y-29728555D01*
X80280128Y-29728560D01*
X80095242Y-29870428D01*
X80095221Y-29870447D01*
X79930447Y-30035221D01*
X79930428Y-30035242D01*
X79788560Y-30220128D01*
X79788555Y-30220135D01*
X79672034Y-30421955D01*
X79672029Y-30421966D01*
X79582840Y-30637286D01*
X79522518Y-30862411D01*
X79492100Y-31093467D01*
X58687290Y-31093467D01*
X58617822Y-30989502D01*
X58617811Y-30989487D01*
X58405615Y-30730926D01*
X58405597Y-30730906D01*
X58169093Y-30494402D01*
X58169073Y-30494384D01*
X57910512Y-30282188D01*
X57910497Y-30282177D01*
X57632376Y-30096342D01*
X57337367Y-29938657D01*
X57028323Y-29810646D01*
X57028315Y-29810643D01*
X56790929Y-29738634D01*
X56708224Y-29713546D01*
X56708220Y-29713545D01*
X56708213Y-29713543D01*
X56380151Y-29648288D01*
X56380146Y-29648287D01*
X56380141Y-29648286D01*
X56380131Y-29648285D01*
X56047258Y-29615500D01*
X56047252Y-29615500D01*
X55712748Y-29615500D01*
X55712741Y-29615500D01*
X55379868Y-29648285D01*
X55379855Y-29648286D01*
X55379854Y-29648287D01*
X55379851Y-29648287D01*
X55379848Y-29648288D01*
X55051786Y-29713543D01*
X54731684Y-29810643D01*
X54731676Y-29810646D01*
X54422632Y-29938657D01*
X54127623Y-30096342D01*
X53849502Y-30282177D01*
X53849487Y-30282188D01*
X53590926Y-30494384D01*
X53590906Y-30494402D01*
X53354402Y-30730906D01*
X53354384Y-30730926D01*
X53142188Y-30989487D01*
X53142177Y-30989502D01*
X52956342Y-31267623D01*
X52798657Y-31562632D01*
X52670646Y-31871676D01*
X52670643Y-31871684D01*
X52573543Y-32191786D01*
X52508288Y-32519848D01*
X52508285Y-32519868D01*
X52475500Y-32852741D01*
X50496396Y-32852741D01*
X49692951Y-31309342D01*
X49692951Y-31309339D01*
X49639524Y-31206710D01*
X49639185Y-31206058D01*
X49561626Y-31140977D01*
X49561624Y-31140976D01*
X49525954Y-31129729D01*
X49465066Y-31110532D01*
X49465065Y-31110532D01*
X49465064Y-31110532D01*
X49465052Y-31110532D01*
X49364206Y-31119356D01*
X49364199Y-31119358D01*
X43952335Y-33936594D01*
X43952333Y-33936596D01*
X43887252Y-34014154D01*
X43887252Y-34014155D01*
X43879054Y-34040159D01*
X43874305Y-34055221D01*
X43874304Y-34055223D01*
X43856807Y-34110715D01*
X43856806Y-34110718D01*
X41693964Y-34110718D01*
X41846817Y-34014294D01*
X41849891Y-34012418D01*
X41869425Y-34000871D01*
X43020861Y-33320234D01*
X43023470Y-33318736D01*
X44409616Y-32544797D01*
X44411772Y-32543624D01*
X46032599Y-31683111D01*
X46034475Y-31682137D01*
X47907897Y-30730989D01*
X47909680Y-30730102D01*
X47916077Y-30726981D01*
X50050890Y-29685392D01*
X50052189Y-29684770D01*
X52470863Y-28545750D01*
X52472203Y-28545130D01*
X53376802Y-28132239D01*
X55169567Y-27313957D01*
X55170613Y-27313486D01*
X58137845Y-25994297D01*
X58138166Y-25994155D01*
X59530976Y-25383247D01*
X61386353Y-24577734D01*
X63597447Y-24577734D01*
X63597447Y-24678983D01*
X64504872Y-26869698D01*
X64745500Y-27450623D01*
X64784245Y-27544163D01*
X64823583Y-27583501D01*
X64855837Y-27615755D01*
X64855838Y-27615756D01*
X64921106Y-27642790D01*
X64949377Y-27654500D01*
X64949378Y-27654500D01*
X65050623Y-27654500D01*
X70593901Y-25358398D01*
X70593902Y-25358398D01*
X70687441Y-25319653D01*
X70759033Y-25248061D01*
X70797779Y-25154521D01*
X70797778Y-25053274D01*
X70784418Y-25021021D01*
X101097451Y-25021021D01*
X101097451Y-25031158D01*
X101097451Y-25122268D01*
X101136194Y-25215805D01*
X101136198Y-25215810D01*
X101207784Y-25287396D01*
X101207788Y-25287399D01*
X106844605Y-27622246D01*
X106945853Y-27622246D01*
X107039392Y-27583501D01*
X107110984Y-27511908D01*
X108297775Y-24646727D01*
X108297775Y-24545481D01*
X108259030Y-24451941D01*
X108187437Y-24380349D01*
X108187436Y-24380348D01*
X108093898Y-24341604D01*
X102550624Y-22045500D01*
X102550623Y-22045500D01*
X102449376Y-22045500D01*
X102449374Y-22045500D01*
X102421978Y-22056847D01*
X102421979Y-22056848D01*
X102355837Y-22084244D01*
X102355833Y-22084247D01*
X102284247Y-22155833D01*
X102284244Y-22155837D01*
X102253779Y-22229389D01*
X101132372Y-24936710D01*
X101132361Y-24936738D01*
X101097451Y-25021021D01*
X70784418Y-25021021D01*
X69610979Y-22188098D01*
X69610976Y-22188094D01*
X69539390Y-22116508D01*
X69539386Y-22116505D01*
X69445848Y-22077761D01*
X69445847Y-22077761D01*
X69344600Y-22077761D01*
X69344597Y-22077761D01*
X69262538Y-22111750D01*
X69262525Y-22111757D01*
X63812790Y-24369109D01*
X63812788Y-24369110D01*
X63707784Y-24412603D01*
X63707780Y-24412606D01*
X63636194Y-24484192D01*
X63636190Y-24484197D01*
X63597447Y-24577734D01*
X61386353Y-24577734D01*
X61896577Y-24356220D01*
X61897139Y-24355979D01*
X64825646Y-23111865D01*
X64826058Y-23111692D01*
X66503695Y-22414433D01*
X66503875Y-22414359D01*
X68261470Y-21697406D01*
X68262150Y-21697131D01*
X69749124Y-21102542D01*
X69749480Y-21102402D01*
X71260624Y-20510687D01*
X71261242Y-20510447D01*
X72577274Y-20006638D01*
X72577911Y-20006397D01*
X73893127Y-19514954D01*
X73893929Y-19514658D01*
X75051115Y-19093497D01*
X75051918Y-19093209D01*
X76195732Y-18688654D01*
X76196808Y-18688279D01*
X77206639Y-18342145D01*
X77207725Y-18341779D01*
X78197679Y-18013955D01*
X78198875Y-18013566D01*
X79073509Y-17734794D01*
X79074687Y-17734427D01*
X79926058Y-17474365D01*
X79927425Y-17473956D01*
X80678711Y-17255172D01*
X80680221Y-17254745D01*
X81406793Y-17054273D01*
X81408529Y-17053808D01*
X82047825Y-16887962D01*
X82049713Y-16887490D01*
X82664441Y-16738955D01*
X82666599Y-16738454D01*
X83205206Y-16618693D01*
X83207598Y-16618186D01*
X83722497Y-16514454D01*
X83725141Y-16513951D01*
X84173735Y-16433779D01*
X84176665Y-16433292D01*
X84602920Y-16367679D01*
X84606198Y-16367219D01*
X84974771Y-16320483D01*
X84978416Y-16320075D01*
X85326435Y-16286299D01*
X85330365Y-16285980D01*
X85615664Y-16267430D01*
X85619920Y-16267227D01*
X85885292Y-16259095D01*
X85891681Y-16259064D01*
X86482457Y-16271292D01*
G37*
%TD.AperFunction*%
%TA.AperFunction,Conductor*%
G36*
X87445932Y-64375661D02*
G01*
X87502768Y-64418208D01*
X87527579Y-64484728D01*
X87527900Y-64493717D01*
X87527900Y-64896469D01*
X87507898Y-64964590D01*
X87454242Y-65011083D01*
X87383968Y-65021187D01*
X87362965Y-65016302D01*
X87289708Y-64992500D01*
X87289707Y-64992499D01*
X87221308Y-64981666D01*
X87094046Y-64961510D01*
X87060107Y-64961510D01*
X86991986Y-64941508D01*
X86945493Y-64887852D01*
X86935389Y-64817578D01*
X86964883Y-64752998D01*
X86971012Y-64746415D01*
X87312805Y-64404622D01*
X87375117Y-64370596D01*
X87445932Y-64375661D01*
G37*
%TD.AperFunction*%
%TA.AperFunction,Conductor*%
G36*
X64083621Y-55757102D02*
G01*
X64130114Y-55810758D01*
X64141500Y-55863100D01*
X64141500Y-56400852D01*
X64141501Y-56886900D01*
X64121499Y-56955021D01*
X64067843Y-57001514D01*
X64015501Y-57012900D01*
X60927399Y-57012900D01*
X60784995Y-57041226D01*
X60784990Y-57041228D01*
X60650852Y-57096790D01*
X60530126Y-57177456D01*
X60530120Y-57177461D01*
X59952195Y-57755387D01*
X59889883Y-57789413D01*
X59819068Y-57784348D01*
X59762232Y-57741801D01*
X59737421Y-57675281D01*
X59737100Y-57666292D01*
X59737100Y-56357507D01*
X59757102Y-56289386D01*
X59774005Y-56268412D01*
X60268412Y-55774005D01*
X60330724Y-55739979D01*
X60357507Y-55737100D01*
X64015500Y-55737100D01*
X64083621Y-55757102D01*
G37*
%TD.AperFunction*%
%TA.AperFunction,Conductor*%
G36*
X104852598Y-56896151D02*
G01*
X104892265Y-56941929D01*
X104964872Y-57084426D01*
X104965084Y-57084842D01*
X105082444Y-57246374D01*
X105223625Y-57387555D01*
X105389166Y-57507828D01*
X105388386Y-57508901D01*
X105400290Y-57522054D01*
X105419357Y-57536328D01*
X105423667Y-57547886D01*
X105431947Y-57557034D01*
X105435844Y-57580531D01*
X105444168Y-57602848D01*
X105441545Y-57614903D01*
X105443564Y-57627074D01*
X105434140Y-57648945D01*
X105429077Y-57672222D01*
X105417378Y-57687848D01*
X105415471Y-57692276D01*
X105407584Y-57700932D01*
X105364665Y-57743851D01*
X105302353Y-57777877D01*
X105236634Y-57774589D01*
X105077045Y-57722736D01*
X105077048Y-57722736D01*
X105027939Y-57714958D01*
X104879833Y-57691500D01*
X104680167Y-57691500D01*
X104492840Y-57721170D01*
X104482953Y-57722736D01*
X104412036Y-57745779D01*
X104383465Y-57746595D01*
X104355168Y-57750664D01*
X104348450Y-57747596D01*
X104341068Y-57747807D01*
X104316586Y-57733043D01*
X104290588Y-57721170D01*
X104286595Y-57714958D01*
X104280271Y-57711144D01*
X104267656Y-57685488D01*
X104252204Y-57661444D01*
X104250703Y-57651008D01*
X104248945Y-57647432D01*
X104247100Y-57625946D01*
X104247100Y-57516616D01*
X104267102Y-57448495D01*
X104299036Y-57414683D01*
X104336372Y-57387557D01*
X104477557Y-57246372D01*
X104594918Y-57084839D01*
X104667734Y-56941929D01*
X104716481Y-56890316D01*
X104785396Y-56873250D01*
X104852598Y-56896151D01*
G37*
%TD.AperFunction*%
%TA.AperFunction,Conductor*%
G36*
X102388185Y-57058252D02*
G01*
X102433872Y-57096938D01*
X102542444Y-57246374D01*
X102683622Y-57387552D01*
X102683625Y-57387554D01*
X102683628Y-57387557D01*
X102720962Y-57414682D01*
X102724355Y-57419082D01*
X102729412Y-57421392D01*
X102745799Y-57446891D01*
X102764314Y-57470901D01*
X102765587Y-57477681D01*
X102767796Y-57481118D01*
X102772900Y-57516616D01*
X102772900Y-57625946D01*
X102752898Y-57694067D01*
X102699242Y-57740560D01*
X102628968Y-57750664D01*
X102607964Y-57745779D01*
X102537044Y-57722736D01*
X102537048Y-57722736D01*
X102487939Y-57714958D01*
X102339833Y-57691500D01*
X102140167Y-57691500D01*
X102140166Y-57691500D01*
X102108517Y-57696512D01*
X102038106Y-57687411D01*
X101983793Y-57641688D01*
X101962822Y-57573859D01*
X101981851Y-57505460D01*
X101999710Y-57482971D01*
X102079030Y-57403652D01*
X102172115Y-57252738D01*
X102212333Y-57131364D01*
X102252744Y-57072996D01*
X102318300Y-57045739D01*
X102388185Y-57058252D01*
G37*
%TD.AperFunction*%
%TA.AperFunction,Conductor*%
G36*
X110460614Y-55757102D02*
G01*
X110481588Y-55774005D01*
X111725995Y-57018412D01*
X111760021Y-57080724D01*
X111762900Y-57107507D01*
X111762900Y-57416292D01*
X111742898Y-57484413D01*
X111689242Y-57530906D01*
X111618968Y-57541010D01*
X111554388Y-57511516D01*
X111547805Y-57505387D01*
X110969879Y-56927461D01*
X110969873Y-56927456D01*
X110925012Y-56897481D01*
X110849148Y-56846790D01*
X110715004Y-56791226D01*
X110708076Y-56789848D01*
X110572600Y-56762900D01*
X110572598Y-56762900D01*
X107427529Y-56762900D01*
X107359408Y-56742898D01*
X107312915Y-56689242D01*
X107302811Y-56618968D01*
X107303080Y-56617189D01*
X107305678Y-56600786D01*
X107318500Y-56519833D01*
X107318500Y-56320167D01*
X107287265Y-56122959D01*
X107225565Y-55933065D01*
X107219062Y-55920302D01*
X107205958Y-55850526D01*
X107232658Y-55784741D01*
X107290686Y-55743835D01*
X107331329Y-55737100D01*
X110392493Y-55737100D01*
X110460614Y-55757102D01*
G37*
%TD.AperFunction*%
%TA.AperFunction,Conductor*%
G36*
X47021814Y-51068302D02*
G01*
X47042788Y-51085205D01*
X49493487Y-53535904D01*
X49527513Y-53598216D01*
X49522448Y-53669031D01*
X49493487Y-53714094D01*
X46707970Y-56499611D01*
X46645658Y-56533637D01*
X46574843Y-56528572D01*
X46553983Y-56518520D01*
X46465011Y-56465061D01*
X46465010Y-56465060D01*
X46465006Y-56465058D01*
X46405311Y-56434313D01*
X46405307Y-56434311D01*
X46405297Y-56434306D01*
X46345262Y-56408202D01*
X46165396Y-56329993D01*
X46165392Y-56329991D01*
X46102154Y-56307286D01*
X45850693Y-56235183D01*
X45850683Y-56235180D01*
X45850679Y-56235179D01*
X45850657Y-56235173D01*
X45785056Y-56220931D01*
X45785056Y-56220930D01*
X45526314Y-56182262D01*
X45526311Y-56182261D01*
X45526306Y-56182261D01*
X45487925Y-56179071D01*
X45459376Y-56176699D01*
X45197800Y-56172130D01*
X45130709Y-56175353D01*
X44870782Y-56204968D01*
X44870770Y-56204970D01*
X44804688Y-56216919D01*
X44804652Y-56216927D01*
X44550843Y-56280209D01*
X44488672Y-56299981D01*
X44064896Y-56465061D01*
X43434983Y-56710440D01*
X43434979Y-56710441D01*
X43434971Y-56710445D01*
X43367099Y-56742793D01*
X43367093Y-56742797D01*
X43306572Y-56789848D01*
X43240515Y-56815867D01*
X43170877Y-56802043D01*
X43119768Y-56752764D01*
X43112592Y-56738017D01*
X43104026Y-56717046D01*
X42598129Y-55478467D01*
X42597679Y-55477349D01*
X41964635Y-53884136D01*
X41964243Y-53883139D01*
X41961427Y-53875872D01*
X41767082Y-53374375D01*
X41761119Y-53303631D01*
X41794349Y-53240891D01*
X41856224Y-53206077D01*
X41859741Y-53205318D01*
X42000217Y-53177202D01*
X43066161Y-52799731D01*
X43127871Y-52773219D01*
X43360971Y-52654451D01*
X43418701Y-52620105D01*
X43634302Y-52471926D01*
X43687052Y-52430342D01*
X43881468Y-52255288D01*
X43928337Y-52207175D01*
X44098240Y-52008244D01*
X44108923Y-51993938D01*
X44138417Y-51954441D01*
X44138421Y-51954433D01*
X44138426Y-51954428D01*
X44280912Y-51735022D01*
X44313735Y-51676414D01*
X44426362Y-51440286D01*
X44451252Y-51377898D01*
X44530055Y-51135363D01*
X44570128Y-51076759D01*
X44635525Y-51049121D01*
X44649888Y-51048300D01*
X46953693Y-51048300D01*
X47021814Y-51068302D01*
G37*
%TD.AperFunction*%
%TA.AperFunction,Conductor*%
G36*
X126640377Y-51691525D02*
G01*
X126667797Y-51695891D01*
X126673943Y-51701381D01*
X126681854Y-51703704D01*
X126700039Y-51724690D01*
X126720746Y-51743187D01*
X126725542Y-51754123D01*
X126728347Y-51757360D01*
X126735145Y-51776014D01*
X126777991Y-51930512D01*
X126777993Y-51930519D01*
X126777994Y-51930521D01*
X126800141Y-51993938D01*
X126902357Y-52234741D01*
X126932593Y-52294727D01*
X127065369Y-52520137D01*
X127103166Y-52575650D01*
X127103170Y-52575655D01*
X127133846Y-52614918D01*
X127264239Y-52781812D01*
X127308963Y-52831921D01*
X127495556Y-53015288D01*
X127546443Y-53059136D01*
X127755376Y-53216578D01*
X127755377Y-53216579D01*
X127811552Y-53253407D01*
X128039252Y-53382233D01*
X128097941Y-53410678D01*
X128097947Y-53410681D01*
X129144801Y-53838255D01*
X129216317Y-53861517D01*
X129216318Y-53861517D01*
X129216321Y-53861518D01*
X129361772Y-53875872D01*
X129414308Y-53865919D01*
X129484960Y-53872892D01*
X129540628Y-53916956D01*
X129563636Y-53984121D01*
X129554605Y-54036868D01*
X129005793Y-55396888D01*
X129005569Y-55397439D01*
X128561003Y-56484301D01*
X128561003Y-56484302D01*
X128556350Y-56495678D01*
X128556300Y-56495729D01*
X128537405Y-56541990D01*
X128537286Y-56542284D01*
X128537284Y-56542285D01*
X128513492Y-56600455D01*
X128513393Y-56600786D01*
X128508940Y-56611689D01*
X128464667Y-56667190D01*
X128397415Y-56689944D01*
X128328538Y-56672727D01*
X128301282Y-56647916D01*
X128299938Y-56649213D01*
X128282801Y-56631439D01*
X128192237Y-56537507D01*
X128065257Y-56465133D01*
X127013135Y-56050691D01*
X126949166Y-56030214D01*
X126949154Y-56030211D01*
X126695327Y-55966923D01*
X126629224Y-55954969D01*
X126629215Y-55954968D01*
X126369292Y-55925353D01*
X126302194Y-55922130D01*
X126040623Y-55926698D01*
X125973714Y-55932257D01*
X125973686Y-55932260D01*
X125714941Y-55970930D01*
X125649338Y-55985175D01*
X125649306Y-55985183D01*
X125397851Y-56057284D01*
X125334617Y-56079986D01*
X125334602Y-56079992D01*
X125094710Y-56184301D01*
X125094700Y-56184306D01*
X125034996Y-56215056D01*
X125001516Y-56235173D01*
X124946197Y-56268412D01*
X124946017Y-56268520D01*
X124877324Y-56286459D01*
X124809837Y-56264412D01*
X124792028Y-56249611D01*
X122131512Y-53589095D01*
X122097486Y-53526783D01*
X122102551Y-53455968D01*
X122131512Y-53410905D01*
X123821810Y-51720607D01*
X123884122Y-51686581D01*
X123910905Y-51683702D01*
X126613733Y-51683702D01*
X126640377Y-51691525D01*
G37*
%TD.AperFunction*%
%TA.AperFunction,Conductor*%
G36*
X70112036Y-50204221D02*
G01*
X70125709Y-50208663D01*
X70182953Y-50227263D01*
X70182954Y-50227263D01*
X70182959Y-50227265D01*
X70380167Y-50258500D01*
X70380170Y-50258500D01*
X70579829Y-50258500D01*
X70579833Y-50258500D01*
X70611481Y-50253487D01*
X70681890Y-50262586D01*
X70736204Y-50308308D01*
X70757177Y-50376136D01*
X70738150Y-50444535D01*
X70720286Y-50467031D01*
X70640970Y-50546347D01*
X70631041Y-50562445D01*
X70547885Y-50697262D01*
X70535937Y-50733321D01*
X70507668Y-50818632D01*
X70467254Y-50877004D01*
X70401698Y-50904260D01*
X70331812Y-50891747D01*
X70286127Y-50853061D01*
X70177555Y-50703625D01*
X70036375Y-50562445D01*
X70036365Y-50562437D01*
X69999037Y-50535315D01*
X69995643Y-50530913D01*
X69990588Y-50528605D01*
X69974198Y-50503103D01*
X69955684Y-50479092D01*
X69954411Y-50472313D01*
X69952204Y-50468879D01*
X69947100Y-50433381D01*
X69947100Y-50324054D01*
X69967102Y-50255933D01*
X70020758Y-50209440D01*
X70091032Y-50199336D01*
X70112036Y-50204221D01*
G37*
%TD.AperFunction*%
%TA.AperFunction,Conductor*%
G36*
X105672036Y-50204221D02*
G01*
X105685709Y-50208663D01*
X105742953Y-50227263D01*
X105742954Y-50227263D01*
X105742959Y-50227265D01*
X105940167Y-50258500D01*
X105940170Y-50258500D01*
X106139829Y-50258500D01*
X106139833Y-50258500D01*
X106171481Y-50253487D01*
X106241890Y-50262586D01*
X106296204Y-50308308D01*
X106317177Y-50376136D01*
X106298150Y-50444535D01*
X106280286Y-50467031D01*
X106200970Y-50546347D01*
X106191041Y-50562445D01*
X106107885Y-50697262D01*
X106095937Y-50733321D01*
X106067668Y-50818632D01*
X106027254Y-50877004D01*
X105961698Y-50904260D01*
X105891812Y-50891747D01*
X105846127Y-50853061D01*
X105737555Y-50703625D01*
X105596375Y-50562445D01*
X105596365Y-50562437D01*
X105559037Y-50535315D01*
X105555643Y-50530913D01*
X105550588Y-50528605D01*
X105534198Y-50503103D01*
X105515684Y-50479092D01*
X105514411Y-50472313D01*
X105512204Y-50468879D01*
X105507100Y-50433381D01*
X105507100Y-50324054D01*
X105527102Y-50255933D01*
X105580758Y-50209440D01*
X105651032Y-50199336D01*
X105672036Y-50204221D01*
G37*
%TD.AperFunction*%
M02*
