%TF.GenerationSoftware,KiCad,Pcbnew,10.0.3*%
%TF.CreationDate,2026-06-11T16:18:45-07:00*%
%TF.ProjectId,shadystake,73686164-7973-4746-916b-652e6b696361,rev?*%
%TF.SameCoordinates,Original*%
%TF.FileFunction,Copper,L1,Top*%
%TF.FilePolarity,Positive*%
%FSLAX46Y46*%
G04 Gerber Fmt 4.6, Leading zero omitted, Abs format (unit mm)*
G04 Created by KiCad (PCBNEW 10.0.3) date 2026-06-11 16:18:45*
%MOMM*%
%LPD*%
G01*
G04 APERTURE LIST*
G04 Aperture macros list*
%AMRoundRect*
0 Rectangle with rounded corners*
0 $1 Rounding radius*
0 $2 $3 $4 $5 $6 $7 $8 $9 X,Y pos of 4 corners*
0 Add a 4 corners polygon primitive as box body*
4,1,4,$2,$3,$4,$5,$6,$7,$8,$9,$2,$3,0*
0 Add four circle primitives for the rounded corners*
1,1,$1+$1,$2,$3*
1,1,$1+$1,$4,$5*
1,1,$1+$1,$6,$7*
1,1,$1+$1,$8,$9*
0 Add four rect primitives between the rounded corners*
20,1,$1+$1,$2,$3,$4,$5,0*
20,1,$1+$1,$4,$5,$6,$7,0*
20,1,$1+$1,$6,$7,$8,$9,0*
20,1,$1+$1,$8,$9,$2,$3,0*%
G04 Aperture macros list end*
%TA.AperFunction,EtchedComponent*%
%ADD10C,0.000000*%
%TD*%
%TA.AperFunction,ComponentPad*%
%ADD11RoundRect,0.250000X0.510000X0.510000X-0.510000X0.510000X-0.510000X-0.510000X0.510000X-0.510000X0*%
%TD*%
%TA.AperFunction,ComponentPad*%
%ADD12C,1.520000*%
%TD*%
%TA.AperFunction,ComponentPad*%
%ADD13RoundRect,0.250000X-0.510000X-0.510000X0.510000X-0.510000X0.510000X0.510000X-0.510000X0.510000X0*%
%TD*%
%TA.AperFunction,ComponentPad*%
%ADD14R,1.500000X1.500000*%
%TD*%
%TA.AperFunction,ComponentPad*%
%ADD15C,1.500000*%
%TD*%
%TA.AperFunction,Conductor*%
%ADD16C,0.457200*%
%TD*%
%TA.AperFunction,Conductor*%
%ADD17C,0.152400*%
%TD*%
G04 APERTURE END LIST*
D10*
%TA.AperFunction,EtchedComponent*%
G36*
X73023459Y-110655358D02*
G01*
X72607425Y-110655358D01*
X72813878Y-110226811D01*
X73023459Y-110655358D01*
G37*
%TD.AperFunction*%
%TA.AperFunction,EtchedComponent*%
G36*
X84465112Y-106672344D02*
G01*
X84042837Y-106672344D01*
X84252387Y-106237369D01*
X84465112Y-106672344D01*
G37*
%TD.AperFunction*%
%TA.AperFunction,EtchedComponent*%
G36*
X95511218Y-110655358D02*
G01*
X95095184Y-110655358D01*
X95301637Y-110226811D01*
X95511218Y-110655358D01*
G37*
%TD.AperFunction*%
%TA.AperFunction,EtchedComponent*%
G36*
X89417721Y-109937464D02*
G01*
X89508435Y-110145481D01*
X89417721Y-110351934D01*
X89233164Y-110420752D01*
X88839026Y-110420752D01*
X88839026Y-109867082D01*
X89230036Y-109867082D01*
X89417721Y-109937464D01*
G37*
%TD.AperFunction*%
%TA.AperFunction,EtchedComponent*%
G36*
X93393509Y-109937464D02*
G01*
X93484223Y-110145481D01*
X93393509Y-110351934D01*
X93212080Y-110420752D01*
X92811686Y-110420752D01*
X92811686Y-109867082D01*
X93205824Y-109867082D01*
X93393509Y-109937464D01*
G37*
%TD.AperFunction*%
%TA.AperFunction,EtchedComponent*%
G36*
X102471193Y-109937464D02*
G01*
X102561908Y-110145481D01*
X102471193Y-110351934D01*
X102289765Y-110420752D01*
X101889371Y-110420752D01*
X101889371Y-109867082D01*
X102283509Y-109867082D01*
X102471193Y-109937464D01*
G37*
%TD.AperFunction*%
%TA.AperFunction,EtchedComponent*%
G36*
X87158075Y-109881941D02*
G01*
X87348496Y-110010974D01*
X87448421Y-110138182D01*
X87508376Y-110290416D01*
X87528361Y-110467673D01*
X87508550Y-110644584D01*
X87449116Y-110795774D01*
X87350060Y-110921245D01*
X87160812Y-111047932D01*
X86949666Y-111090161D01*
X86738130Y-111046759D01*
X86547708Y-110916553D01*
X86412810Y-110716747D01*
X86367844Y-110464545D01*
X86412419Y-110212344D01*
X86546144Y-110012538D01*
X86735393Y-109882332D01*
X86946538Y-109838929D01*
X87158075Y-109881941D01*
G37*
%TD.AperFunction*%
%TA.AperFunction,EtchedComponent*%
G36*
X100208419Y-109881941D02*
G01*
X100398841Y-110010974D01*
X100498766Y-110138182D01*
X100558721Y-110290416D01*
X100578706Y-110467673D01*
X100558895Y-110644584D01*
X100499461Y-110795774D01*
X100400405Y-110921245D01*
X100211156Y-111047932D01*
X100000011Y-111090161D01*
X99788475Y-111046759D01*
X99598053Y-110916553D01*
X99463155Y-110716747D01*
X99418188Y-110464545D01*
X99462764Y-110212344D01*
X99596489Y-110012538D01*
X99785738Y-109882332D01*
X99996883Y-109838929D01*
X100208419Y-109881941D01*
G37*
%TD.AperFunction*%
%TA.AperFunction,EtchedComponent*%
G36*
X76758196Y-105887325D02*
G01*
X76951474Y-106018294D01*
X77052898Y-106147411D01*
X77113752Y-106301927D01*
X77134037Y-106481844D01*
X77113928Y-106661408D01*
X77053603Y-106814866D01*
X76953062Y-106942219D01*
X76760974Y-107070807D01*
X76546662Y-107113669D01*
X76331952Y-107069616D01*
X76138674Y-106937457D01*
X76037250Y-106808163D01*
X75976396Y-106655234D01*
X75956112Y-106478669D01*
X75976220Y-106302104D01*
X76036545Y-106149175D01*
X76137087Y-106019882D01*
X76329174Y-105887722D01*
X76543487Y-105843669D01*
X76758196Y-105887325D01*
G37*
%TD.AperFunction*%
%TA.AperFunction,EtchedComponent*%
G36*
X103808270Y-112305289D02*
G01*
X103146812Y-112305289D01*
X102782437Y-112305289D01*
X100006267Y-112305289D01*
X97641440Y-112305289D01*
X96103989Y-112305289D01*
X94098062Y-112305289D01*
X93704753Y-112305289D01*
X92072412Y-112305289D01*
X91776292Y-112305289D01*
X88560627Y-112305289D01*
X86955922Y-112305289D01*
X85066774Y-112305289D01*
X84587967Y-112305289D01*
X82545331Y-112305289D01*
X79617450Y-112305289D01*
X77374617Y-112305289D01*
X75538435Y-112305289D01*
X73616230Y-112305289D01*
X70769679Y-112305289D01*
X69573188Y-112305289D01*
X68911730Y-112305289D01*
X68911730Y-110448905D01*
X69573188Y-110448905D01*
X69593912Y-110683902D01*
X69656083Y-110900912D01*
X69750316Y-111090161D01*
X69867228Y-111241873D01*
X70003690Y-111364650D01*
X70156575Y-111467095D01*
X70315325Y-111546079D01*
X70469383Y-111598474D01*
X70620313Y-111627800D01*
X70769679Y-111637575D01*
X70920999Y-111625063D01*
X71077794Y-111587526D01*
X71288940Y-111506196D01*
X71396858Y-111440506D01*
X71471745Y-111381072D01*
X71665873Y-111381072D01*
X71711230Y-111487427D01*
X71847302Y-111581269D01*
X72014654Y-111634447D01*
X72114753Y-111604730D01*
X72171058Y-111546861D01*
X72219543Y-111456146D01*
X72382203Y-111118314D01*
X73248681Y-111118314D01*
X73411341Y-111456146D01*
X73459826Y-111549989D01*
X73516132Y-111609422D01*
X73616230Y-111637575D01*
X73783583Y-111584397D01*
X73919654Y-111488209D01*
X73965011Y-111381072D01*
X73911834Y-111221540D01*
X73121742Y-109588683D01*
X74137055Y-109588683D01*
X74137055Y-111327895D01*
X74155824Y-111487427D01*
X74238718Y-111576577D01*
X74412326Y-111606294D01*
X75538435Y-111606294D01*
X75701095Y-111575013D01*
X75754272Y-111506196D01*
X75769913Y-111373252D01*
X75754272Y-111240309D01*
X75691711Y-111166799D01*
X75541563Y-111143338D01*
X74690725Y-111143338D01*
X74690725Y-109591811D01*
X74690424Y-109588683D01*
X75973238Y-109588683D01*
X75973238Y-111327895D01*
X75992006Y-111487427D01*
X76074900Y-111576577D01*
X76248509Y-111606294D01*
X77374617Y-111606294D01*
X77537277Y-111575013D01*
X77590454Y-111506196D01*
X77606095Y-111373252D01*
X77590454Y-111240309D01*
X77527893Y-111166799D01*
X77377745Y-111143338D01*
X76553012Y-111143338D01*
X76526908Y-111143338D01*
X76526908Y-109591811D01*
X76521494Y-109535506D01*
X78522622Y-109535506D01*
X78538262Y-109666885D01*
X78600824Y-109740395D01*
X78747844Y-109763856D01*
X79348435Y-109763856D01*
X79348435Y-111334151D01*
X79353127Y-111442070D01*
X79381280Y-111523400D01*
X79462610Y-111587526D01*
X79617450Y-111606294D01*
X79773854Y-111587526D01*
X79856748Y-111523400D01*
X79884900Y-111443634D01*
X79889592Y-111337279D01*
X79889592Y-109763856D01*
X80487055Y-109763856D01*
X80646587Y-109735703D01*
X80699765Y-109668449D01*
X80709375Y-109588683D01*
X80887450Y-109588683D01*
X80887450Y-111324767D01*
X80906218Y-111487427D01*
X80989112Y-111574231D01*
X81162721Y-111603166D01*
X81323817Y-111582051D01*
X81406711Y-111518708D01*
X81436427Y-111435814D01*
X81441120Y-111327895D01*
X81441120Y-110689767D01*
X82270060Y-110689767D01*
X82270060Y-111324767D01*
X82288829Y-111487427D01*
X82371723Y-111574231D01*
X82545331Y-111603166D01*
X82706427Y-111582051D01*
X82789321Y-111518708D01*
X82819038Y-111435814D01*
X82823730Y-111327895D01*
X82823730Y-109591811D01*
X82823429Y-109588683D01*
X83073977Y-109588683D01*
X83073977Y-111327895D01*
X83092745Y-111487427D01*
X83175639Y-111576577D01*
X83349248Y-111606294D01*
X84587967Y-111606294D01*
X84750627Y-111587526D01*
X84837431Y-111504631D01*
X84866366Y-111331023D01*
X84845251Y-111169927D01*
X84781908Y-111087033D01*
X84699014Y-111057316D01*
X84591095Y-111052624D01*
X83627647Y-111052624D01*
X83627647Y-110736688D01*
X84240750Y-110736688D01*
X84403410Y-110717920D01*
X84492560Y-110635026D01*
X84519064Y-110480186D01*
X85814174Y-110480186D01*
X85834995Y-110709708D01*
X85897459Y-110922809D01*
X86001565Y-111119487D01*
X86147314Y-111299742D01*
X86322780Y-111450281D01*
X86516036Y-111557809D01*
X86727084Y-111622325D01*
X86955922Y-111643831D01*
X87184272Y-111622032D01*
X87393854Y-111556636D01*
X87584666Y-111447642D01*
X87756711Y-111295050D01*
X87899038Y-111111471D01*
X88000701Y-110909514D01*
X88061698Y-110689180D01*
X88082031Y-110450469D01*
X88060721Y-110212637D01*
X87996791Y-109994942D01*
X87890241Y-109797385D01*
X87741070Y-109619964D01*
X87703023Y-109588683D01*
X88285356Y-109588683D01*
X88285356Y-111324767D01*
X88304124Y-111487427D01*
X88387019Y-111574231D01*
X88560627Y-111603166D01*
X88721723Y-111582051D01*
X88804617Y-111518708D01*
X88834334Y-111435814D01*
X88839026Y-111327895D01*
X88839026Y-110974422D01*
X89230036Y-110974422D01*
X89413550Y-110952178D01*
X89592893Y-110885446D01*
X89768065Y-110774225D01*
X89884586Y-110660441D01*
X89977647Y-110513030D01*
X90038644Y-110339031D01*
X90058977Y-110145481D01*
X90038644Y-109951540D01*
X89977647Y-109776368D01*
X89884586Y-109627784D01*
X89844682Y-109588683D01*
X90262302Y-109588683D01*
X90262302Y-111327895D01*
X90281070Y-111487427D01*
X90363964Y-111576577D01*
X90537573Y-111606294D01*
X91776292Y-111606294D01*
X91938952Y-111587526D01*
X92025756Y-111504631D01*
X92054691Y-111331023D01*
X92033576Y-111169927D01*
X91970233Y-111087033D01*
X91887339Y-111057316D01*
X91779420Y-111052624D01*
X90815972Y-111052624D01*
X90815972Y-110736688D01*
X91429075Y-110736688D01*
X91591735Y-110717920D01*
X91680886Y-110635026D01*
X91710602Y-110461417D01*
X91689488Y-110300321D01*
X91626144Y-110217427D01*
X91543250Y-110187710D01*
X91435331Y-110183018D01*
X90815972Y-110183018D01*
X90815972Y-109867082D01*
X91776292Y-109867082D01*
X91938952Y-109848314D01*
X92025756Y-109765420D01*
X92054691Y-109591811D01*
X92054281Y-109588683D01*
X92258016Y-109588683D01*
X92258016Y-111324767D01*
X92276785Y-111487427D01*
X92359679Y-111574231D01*
X92533287Y-111603166D01*
X92694383Y-111582051D01*
X92777277Y-111518708D01*
X92806994Y-111435814D01*
X92811686Y-111327895D01*
X92811686Y-110974422D01*
X93205824Y-110974422D01*
X93302794Y-110968166D01*
X93424442Y-111256297D01*
X93505772Y-111445024D01*
X93546785Y-111534348D01*
X93604654Y-111595346D01*
X93704753Y-111625063D01*
X93865849Y-111581269D01*
X94011304Y-111490555D01*
X94059789Y-111381072D01*
X94153632Y-111381072D01*
X94198989Y-111487427D01*
X94335060Y-111581269D01*
X94502413Y-111634447D01*
X94602511Y-111604730D01*
X94658817Y-111546861D01*
X94707302Y-111456146D01*
X94869962Y-111118314D01*
X95736440Y-111118314D01*
X95899100Y-111456146D01*
X95947585Y-111549989D01*
X96003890Y-111609422D01*
X96103989Y-111637575D01*
X96271341Y-111584397D01*
X96407413Y-111488209D01*
X96452770Y-111381072D01*
X96422162Y-111289248D01*
X96399592Y-111221540D01*
X95583769Y-109535506D01*
X96546612Y-109535506D01*
X96562253Y-109666885D01*
X96624814Y-109740395D01*
X96771834Y-109763856D01*
X97372425Y-109763856D01*
X97372425Y-111334151D01*
X97377117Y-111442070D01*
X97405270Y-111523400D01*
X97486600Y-111587526D01*
X97641440Y-111606294D01*
X97797844Y-111587526D01*
X97880738Y-111523400D01*
X97908890Y-111443634D01*
X97913583Y-111337279D01*
X97913583Y-110480186D01*
X98864519Y-110480186D01*
X98885340Y-110709708D01*
X98947804Y-110922809D01*
X99051910Y-111119487D01*
X99197659Y-111299742D01*
X99373125Y-111450281D01*
X99566381Y-111557809D01*
X99777429Y-111622325D01*
X100006267Y-111643831D01*
X100234617Y-111622032D01*
X100444198Y-111556636D01*
X100635011Y-111447642D01*
X100807055Y-111295050D01*
X100949383Y-111111471D01*
X101051046Y-110909514D01*
X101112043Y-110689180D01*
X101132376Y-110450469D01*
X101111066Y-110212637D01*
X101047136Y-109994942D01*
X100940585Y-109797385D01*
X100791415Y-109619964D01*
X100753368Y-109588683D01*
X101335701Y-109588683D01*
X101335701Y-111324767D01*
X101354469Y-111487427D01*
X101437363Y-111574231D01*
X101610972Y-111603166D01*
X101772068Y-111582051D01*
X101854962Y-111518708D01*
X101884679Y-111435814D01*
X101889371Y-111327895D01*
X101889371Y-110974422D01*
X102283509Y-110974422D01*
X102380479Y-110968166D01*
X102502127Y-111256297D01*
X102583457Y-111445024D01*
X102624469Y-111534348D01*
X102682339Y-111595346D01*
X102782437Y-111625063D01*
X102943533Y-111581269D01*
X103088989Y-111490555D01*
X103137474Y-111381072D01*
X103090553Y-111218412D01*
X103002967Y-111019258D01*
X102932064Y-110855555D01*
X102877844Y-110727304D01*
X103008180Y-110561168D01*
X103086382Y-110367227D01*
X103112450Y-110145481D01*
X103092117Y-109951540D01*
X103031120Y-109776368D01*
X102938841Y-109627784D01*
X102824666Y-109513609D01*
X102649841Y-109402389D01*
X102610237Y-109387566D01*
X102471541Y-109335656D01*
X102289765Y-109313412D01*
X101614100Y-109313412D01*
X101543437Y-109322674D01*
X101453004Y-109334527D01*
X101370110Y-109397870D01*
X101340393Y-109480764D01*
X101335701Y-109588683D01*
X100753368Y-109588683D01*
X100613310Y-109473531D01*
X100419956Y-109368936D01*
X100211352Y-109306179D01*
X100209937Y-109306046D01*
X99987499Y-109285260D01*
X99774789Y-109307156D01*
X99568336Y-109372846D01*
X99393962Y-109467506D01*
X99376741Y-109476854D01*
X99208607Y-109613708D01*
X99067844Y-109785361D01*
X98958361Y-109993769D01*
X98887979Y-110228766D01*
X98864519Y-110480186D01*
X97913583Y-110480186D01*
X97913583Y-109763856D01*
X98511046Y-109763856D01*
X98670578Y-109735703D01*
X98723755Y-109668449D01*
X98739395Y-109538634D01*
X98723755Y-109407255D01*
X98661193Y-109333745D01*
X98514174Y-109310284D01*
X96774962Y-109310284D01*
X96615430Y-109338437D01*
X96562253Y-109405691D01*
X96546612Y-109535506D01*
X95583769Y-109535506D01*
X95555011Y-109476072D01*
X95451785Y-109354077D01*
X95304765Y-109313412D01*
X95156181Y-109357205D01*
X95051390Y-109472944D01*
X94206809Y-111221540D01*
X94153632Y-111381072D01*
X94059789Y-111381072D01*
X94012868Y-111218412D01*
X93925282Y-111019258D01*
X93854379Y-110855555D01*
X93800159Y-110727304D01*
X93930496Y-110561168D01*
X94008698Y-110367227D01*
X94034765Y-110145481D01*
X94014432Y-109951540D01*
X93953435Y-109776368D01*
X93861156Y-109627784D01*
X93746982Y-109513609D01*
X93572157Y-109402389D01*
X93393856Y-109335656D01*
X93212080Y-109313412D01*
X92536415Y-109313412D01*
X92375319Y-109334527D01*
X92292425Y-109397870D01*
X92262708Y-109480764D01*
X92258016Y-109588683D01*
X92054281Y-109588683D01*
X92033576Y-109430715D01*
X91970233Y-109347821D01*
X91887339Y-109318104D01*
X91779420Y-109313412D01*
X90546957Y-109313412D01*
X90321735Y-109371282D01*
X90262302Y-109588683D01*
X89844682Y-109588683D01*
X89768065Y-109513609D01*
X89593240Y-109402389D01*
X89481612Y-109360609D01*
X89414940Y-109335656D01*
X89233164Y-109313412D01*
X88563755Y-109313412D01*
X88402659Y-109334527D01*
X88319765Y-109397870D01*
X88290048Y-109480764D01*
X88285356Y-109588683D01*
X87703023Y-109588683D01*
X87562965Y-109473531D01*
X87369611Y-109368936D01*
X87344837Y-109361482D01*
X87161007Y-109306179D01*
X86937154Y-109285260D01*
X86724445Y-109307156D01*
X86517991Y-109372846D01*
X86326397Y-109476854D01*
X86158262Y-109613708D01*
X86017499Y-109785361D01*
X85908016Y-109993769D01*
X85837634Y-110228766D01*
X85814174Y-110480186D01*
X84519064Y-110480186D01*
X84522277Y-110461417D01*
X84501163Y-110300321D01*
X84437819Y-110217427D01*
X84354925Y-110187710D01*
X84247006Y-110183018D01*
X83627647Y-110183018D01*
X83627647Y-109867082D01*
X84587967Y-109867082D01*
X84750627Y-109848314D01*
X84837431Y-109765420D01*
X84866366Y-109591811D01*
X84845251Y-109430715D01*
X84781908Y-109347821D01*
X84699014Y-109318104D01*
X84591095Y-109313412D01*
X83358632Y-109313412D01*
X83133410Y-109371282D01*
X83073977Y-109588683D01*
X82823429Y-109588683D01*
X82808090Y-109429151D01*
X82764297Y-109366590D01*
X82682967Y-109329053D01*
X82539075Y-109313412D01*
X82388927Y-109332181D01*
X82304469Y-109397870D01*
X82274753Y-109480764D01*
X82270060Y-109588683D01*
X82270060Y-110229939D01*
X82177524Y-110229939D01*
X81441120Y-110229939D01*
X81441120Y-109591811D01*
X81425479Y-109429151D01*
X81340239Y-109342347D01*
X81165849Y-109313412D01*
X81004753Y-109334527D01*
X80921858Y-109397870D01*
X80892142Y-109480764D01*
X80887450Y-109588683D01*
X80709375Y-109588683D01*
X80715405Y-109538634D01*
X80699765Y-109407255D01*
X80637203Y-109333745D01*
X80490184Y-109310284D01*
X78923149Y-109310284D01*
X78750972Y-109310284D01*
X78591440Y-109338437D01*
X78538262Y-109405691D01*
X78522622Y-109535506D01*
X76521494Y-109535506D01*
X76511267Y-109429151D01*
X76426027Y-109342347D01*
X76251637Y-109313412D01*
X76090541Y-109334527D01*
X76007647Y-109397870D01*
X75977930Y-109480764D01*
X75973238Y-109588683D01*
X74690424Y-109588683D01*
X74675085Y-109429151D01*
X74589845Y-109342347D01*
X74415454Y-109313412D01*
X74254358Y-109334527D01*
X74225737Y-109356398D01*
X74171464Y-109397870D01*
X74141748Y-109480764D01*
X74137055Y-109588683D01*
X73121742Y-109588683D01*
X73067253Y-109476072D01*
X72964026Y-109354077D01*
X72817006Y-109313412D01*
X72668422Y-109357205D01*
X72563632Y-109472944D01*
X71719051Y-111221540D01*
X71665873Y-111381072D01*
X71471745Y-111381072D01*
X71495393Y-111362304D01*
X71537622Y-111252821D01*
X71468804Y-111077649D01*
X71360104Y-110946269D01*
X71259223Y-110902476D01*
X71109075Y-110965038D01*
X71052770Y-111005703D01*
X70929211Y-111055752D01*
X70746218Y-111080777D01*
X70543675Y-111046368D01*
X70348952Y-110943141D01*
X70189420Y-110746072D01*
X70142499Y-110612738D01*
X70126858Y-110462981D01*
X70142499Y-110313224D01*
X70189420Y-110179890D01*
X70345824Y-109985949D01*
X70544457Y-109880377D01*
X70746218Y-109845186D01*
X70943287Y-109871774D01*
X71096563Y-109951540D01*
X71256095Y-110020358D01*
X71359321Y-109978129D01*
X71475060Y-109851442D01*
X71540750Y-109677833D01*
X71459420Y-109529250D01*
X71371834Y-109472944D01*
X71296760Y-109429151D01*
X71066846Y-109336873D01*
X70916307Y-109302855D01*
X70768115Y-109291516D01*
X70717362Y-109296137D01*
X70562009Y-109310284D01*
X70356598Y-109366590D01*
X70151883Y-109460432D01*
X69998216Y-109558575D01*
X69901387Y-109643685D01*
X69862536Y-109677833D01*
X69747188Y-109824853D01*
X69654519Y-110006282D01*
X69593521Y-110216254D01*
X69573188Y-110448905D01*
X68911730Y-110448905D01*
X68911730Y-105589669D01*
X69621987Y-105589669D01*
X69621987Y-107354969D01*
X69641037Y-107516894D01*
X69725174Y-107607382D01*
X69901387Y-107637544D01*
X70064899Y-107616113D01*
X70149037Y-107551819D01*
X70179199Y-107469269D01*
X70183962Y-107358144D01*
X70183962Y-105592844D01*
X70183657Y-105589669D01*
X70437962Y-105589669D01*
X70437962Y-107354969D01*
X70457012Y-107516894D01*
X70541149Y-107607382D01*
X70717362Y-107637544D01*
X70880874Y-107616113D01*
X70965012Y-107551819D01*
X70995174Y-107469269D01*
X70999937Y-107358144D01*
X70999937Y-106758069D01*
X71622237Y-106758069D01*
X71784162Y-106742194D01*
X71874649Y-106655675D01*
X71904812Y-106478669D01*
X71884174Y-106314363D01*
X71822262Y-106227844D01*
X71738124Y-106197682D01*
X71625412Y-106192919D01*
X70999937Y-106192919D01*
X70999937Y-105872244D01*
X71971487Y-105872244D01*
X72084199Y-105867482D01*
X72168337Y-105838907D01*
X72235012Y-105754769D01*
X72254062Y-105592844D01*
X72250700Y-105564269D01*
X73184337Y-105564269D01*
X73257362Y-105732544D01*
X73943162Y-106758069D01*
X73943162Y-107358144D01*
X73947924Y-107470857D01*
X73978087Y-107556582D01*
X74063812Y-107624844D01*
X74225737Y-107643894D01*
X74387662Y-107624844D01*
X74473387Y-107558169D01*
X74503549Y-107474032D01*
X74508312Y-107364494D01*
X74508312Y-106758069D01*
X74684539Y-106494544D01*
X75394137Y-106494544D01*
X75415270Y-106727510D01*
X75478671Y-106943807D01*
X75584339Y-107143435D01*
X75732274Y-107326394D01*
X75910372Y-107479191D01*
X76106527Y-107588332D01*
X76320740Y-107653816D01*
X76553012Y-107675644D01*
X76784787Y-107653518D01*
X76997512Y-107587141D01*
X77191187Y-107476512D01*
X77365812Y-107321632D01*
X77510274Y-107135299D01*
X77613462Y-106930313D01*
X77675374Y-106706674D01*
X77696012Y-106464382D01*
X77674382Y-106222982D01*
X77609493Y-106002022D01*
X77501344Y-105801501D01*
X77349937Y-105621419D01*
X77311320Y-105589669D01*
X77902387Y-105589669D01*
X77902387Y-106545344D01*
X77918460Y-106752513D01*
X77966680Y-106948569D01*
X78047047Y-107133513D01*
X78159562Y-107307344D01*
X78302040Y-107456569D01*
X78481824Y-107574044D01*
X78691374Y-107650244D01*
X78923149Y-107675644D01*
X79155321Y-107650641D01*
X79366062Y-107575632D01*
X79547830Y-107460141D01*
X79693087Y-107313694D01*
X79806990Y-107137482D01*
X79888349Y-106951744D01*
X79937165Y-106756482D01*
X79953437Y-106551694D01*
X79953437Y-106462794D01*
X80963087Y-106462794D01*
X80984121Y-106701316D01*
X81047224Y-106921582D01*
X81142871Y-107113669D01*
X81261537Y-107267657D01*
X81400046Y-107392275D01*
X81555224Y-107496257D01*
X81716355Y-107576425D01*
X81872724Y-107629607D01*
X82025918Y-107659372D01*
X82177524Y-107669294D01*
X82331115Y-107656594D01*
X82490262Y-107618494D01*
X82704574Y-107535944D01*
X82814112Y-107469269D01*
X82890121Y-107408944D01*
X83087162Y-107408944D01*
X83133199Y-107516894D01*
X83271312Y-107612144D01*
X83441174Y-107666119D01*
X83542774Y-107635957D01*
X83599924Y-107577219D01*
X83649137Y-107485144D01*
X83814237Y-107142244D01*
X84693712Y-107142244D01*
X84858812Y-107485144D01*
X84908024Y-107580394D01*
X84965174Y-107640719D01*
X85066774Y-107669294D01*
X85236637Y-107615319D01*
X85374749Y-107517688D01*
X85420787Y-107408944D01*
X85366812Y-107247019D01*
X84561796Y-105583319D01*
X85595412Y-105583319D01*
X85595412Y-107354969D01*
X85600174Y-107466094D01*
X85630337Y-107551819D01*
X85712887Y-107616113D01*
X85871637Y-107637544D01*
X86035149Y-107616113D01*
X86119287Y-107551819D01*
X86149449Y-107469269D01*
X86154212Y-107358144D01*
X86154212Y-106313569D01*
X86242935Y-106429280D01*
X86358823Y-106581680D01*
X86501874Y-106770769D01*
X86672089Y-106996547D01*
X86869468Y-107259013D01*
X87094012Y-107558169D01*
X87173387Y-107618494D01*
X87344837Y-107637544D01*
X87508349Y-107616113D01*
X87592487Y-107551819D01*
X87622649Y-107469269D01*
X87627412Y-107358144D01*
X87627412Y-107127957D01*
X88637062Y-107127957D01*
X88719612Y-107310519D01*
X88748187Y-107345444D01*
X88840262Y-107442282D01*
X88983137Y-107542294D01*
X89199037Y-107632782D01*
X89336355Y-107660166D01*
X89481612Y-107669294D01*
X89672464Y-107650597D01*
X89855556Y-107594505D01*
X90030887Y-107501019D01*
X90151537Y-107397435D01*
X90246787Y-107258132D01*
X90308699Y-107088666D01*
X90329337Y-106894594D01*
X90309096Y-106704491D01*
X90248374Y-106546932D01*
X90157490Y-106426678D01*
X90046762Y-106348494D01*
X89920555Y-106295710D01*
X89783237Y-106251657D01*
X89645918Y-106217128D01*
X89519712Y-106192919D01*
X89318099Y-106119894D01*
X89237137Y-105978607D01*
X89305399Y-105842082D01*
X89476849Y-105792869D01*
X89646712Y-105834144D01*
X89695924Y-105875419D01*
X89732437Y-105907169D01*
X89897537Y-105970669D01*
X90010249Y-105930982D01*
X90119787Y-105811919D01*
X90195987Y-105637294D01*
X90165857Y-105589669D01*
X90535712Y-105589669D01*
X90535712Y-107354969D01*
X90554762Y-107516894D01*
X90638899Y-107607382D01*
X90815112Y-107637544D01*
X92072412Y-107637544D01*
X92237512Y-107618494D01*
X92325618Y-107534357D01*
X92354987Y-107358144D01*
X92333555Y-107194632D01*
X92269262Y-107110494D01*
X92185124Y-107080332D01*
X92075587Y-107075569D01*
X91097687Y-107075569D01*
X91097687Y-106754894D01*
X91719987Y-106754894D01*
X91885087Y-106735844D01*
X91975574Y-106651707D01*
X92005737Y-106475494D01*
X91984305Y-106311982D01*
X91920012Y-106227844D01*
X91835874Y-106197682D01*
X91726337Y-106192919D01*
X91097687Y-106192919D01*
X91097687Y-105872244D01*
X92072412Y-105872244D01*
X92237512Y-105853194D01*
X92325618Y-105769057D01*
X92354987Y-105592844D01*
X92354571Y-105589669D01*
X92561362Y-105589669D01*
X92561362Y-107354969D01*
X92580412Y-107516894D01*
X92664549Y-107607382D01*
X92840762Y-107637544D01*
X94098062Y-107637544D01*
X94263162Y-107618494D01*
X94351268Y-107534357D01*
X94380637Y-107358144D01*
X94359205Y-107194632D01*
X94294912Y-107110494D01*
X94210774Y-107080332D01*
X94101237Y-107075569D01*
X93123337Y-107075569D01*
X93123337Y-106754894D01*
X93745637Y-106754894D01*
X93910737Y-106735844D01*
X94001224Y-106651707D01*
X94031387Y-106475494D01*
X94009955Y-106311982D01*
X93945662Y-106227844D01*
X93861524Y-106197682D01*
X93751987Y-106192919D01*
X93123337Y-106192919D01*
X93123337Y-105872244D01*
X94098062Y-105872244D01*
X94263162Y-105853194D01*
X94351268Y-105769057D01*
X94380637Y-105592844D01*
X94373146Y-105535694D01*
X95310912Y-105535694D01*
X95326787Y-105669044D01*
X95390287Y-105743657D01*
X95539512Y-105767469D01*
X96149112Y-105767469D01*
X96149112Y-107361319D01*
X96153874Y-107470857D01*
X96182449Y-107553407D01*
X96264999Y-107618494D01*
X96422162Y-107637544D01*
X96580912Y-107618494D01*
X96665049Y-107553407D01*
X96693624Y-107472444D01*
X96698387Y-107364494D01*
X96698387Y-105767469D01*
X97304812Y-105767469D01*
X97466737Y-105738894D01*
X97520712Y-105670632D01*
X97530467Y-105589669D01*
X97711212Y-105589669D01*
X97711212Y-107351794D01*
X97730262Y-107516894D01*
X97814399Y-107605000D01*
X97990612Y-107634369D01*
X98154124Y-107612938D01*
X98238262Y-107548644D01*
X98268424Y-107464507D01*
X98273187Y-107354969D01*
X98273187Y-106707269D01*
X99114562Y-106707269D01*
X99114562Y-107351794D01*
X99133612Y-107516894D01*
X99217749Y-107605000D01*
X99393962Y-107634369D01*
X99557474Y-107612938D01*
X99641612Y-107548644D01*
X99671774Y-107464507D01*
X99676537Y-107354969D01*
X99676537Y-105592844D01*
X99676232Y-105589669D01*
X99930537Y-105589669D01*
X99930537Y-107354969D01*
X99949587Y-107516894D01*
X100033724Y-107607382D01*
X100209937Y-107637544D01*
X100373449Y-107616113D01*
X100457587Y-107551819D01*
X100487749Y-107469269D01*
X100492512Y-107358144D01*
X100492512Y-107127957D01*
X100698887Y-107127957D01*
X100781437Y-107310519D01*
X100810012Y-107345444D01*
X100902087Y-107442282D01*
X101044962Y-107542294D01*
X101260862Y-107632782D01*
X101398180Y-107660166D01*
X101543437Y-107669294D01*
X101734289Y-107650597D01*
X101917381Y-107594505D01*
X102092712Y-107501019D01*
X102213362Y-107397435D01*
X102219603Y-107388307D01*
X102551499Y-107388307D01*
X102605474Y-107569282D01*
X102762637Y-107637544D01*
X102715012Y-107789944D01*
X102649924Y-107874082D01*
X102603887Y-107899482D01*
X102567374Y-107939169D01*
X102553087Y-108023307D01*
X102570549Y-108109032D01*
X102610237Y-108142369D01*
X102797562Y-108092363D01*
X102959487Y-107942344D01*
X103078549Y-107724857D01*
X103137287Y-107472444D01*
X103146812Y-107348619D01*
X103131333Y-107199791D01*
X103084899Y-107108907D01*
X102883287Y-107046994D01*
X102680087Y-107067632D01*
X102589599Y-107139069D01*
X102557849Y-107226382D01*
X102551499Y-107388307D01*
X102219603Y-107388307D01*
X102308612Y-107258132D01*
X102370524Y-107088666D01*
X102391162Y-106894594D01*
X102370921Y-106704491D01*
X102310199Y-106546932D01*
X102219315Y-106426678D01*
X102108587Y-106348494D01*
X101982380Y-106295710D01*
X101845062Y-106251657D01*
X101707743Y-106217128D01*
X101581537Y-106192919D01*
X101379924Y-106119894D01*
X101298962Y-105978607D01*
X101367224Y-105842082D01*
X101538674Y-105792869D01*
X101708537Y-105834144D01*
X101757749Y-105875419D01*
X101794262Y-105907169D01*
X101959362Y-105970669D01*
X102072074Y-105930982D01*
X102181612Y-105811919D01*
X102257812Y-105637294D01*
X102159387Y-105481719D01*
X102080012Y-105421394D01*
X101862524Y-105321382D01*
X101697027Y-105284472D01*
X101514862Y-105272169D01*
X101292435Y-105295276D01*
X101103523Y-105364597D01*
X100948124Y-105480132D01*
X100832589Y-105626711D01*
X100763268Y-105789165D01*
X100740162Y-105967494D01*
X100760402Y-106156010D01*
X100821124Y-106315157D01*
X100912008Y-106440172D01*
X101022737Y-106526294D01*
X101148149Y-106588603D01*
X101283087Y-106642182D01*
X101418024Y-106684647D01*
X101543437Y-106713619D01*
X101745049Y-106785057D01*
X101826012Y-106907294D01*
X101793203Y-107041350D01*
X101694778Y-107121783D01*
X101530737Y-107148594D01*
X101378337Y-107099382D01*
X101251337Y-106996194D01*
X101110049Y-106877132D01*
X101003687Y-106837444D01*
X100835412Y-106913644D01*
X100733018Y-107033897D01*
X100698887Y-107127957D01*
X100492512Y-107127957D01*
X100492512Y-105592844D01*
X100476637Y-105427744D01*
X100390118Y-105339638D01*
X100213112Y-105310269D01*
X100049599Y-105331700D01*
X99965462Y-105395994D01*
X99935299Y-105480132D01*
X99930537Y-105589669D01*
X99676232Y-105589669D01*
X99660662Y-105427744D01*
X99616212Y-105364244D01*
X99533662Y-105326144D01*
X99387612Y-105310269D01*
X99235212Y-105329319D01*
X99149487Y-105395994D01*
X99119324Y-105480132D01*
X99114562Y-105589669D01*
X99114562Y-106240544D01*
X98273187Y-106240544D01*
X98273187Y-105592844D01*
X98257312Y-105427744D01*
X98170793Y-105339638D01*
X97993787Y-105310269D01*
X97830274Y-105331700D01*
X97746137Y-105395994D01*
X97715974Y-105480132D01*
X97711212Y-105589669D01*
X97530467Y-105589669D01*
X97536587Y-105538869D01*
X97520712Y-105405519D01*
X97457212Y-105330907D01*
X97307987Y-105307094D01*
X95542687Y-105307094D01*
X95380762Y-105335669D01*
X95326787Y-105403932D01*
X95310912Y-105535694D01*
X94373146Y-105535694D01*
X94359205Y-105429332D01*
X94294912Y-105345194D01*
X94210774Y-105315032D01*
X94101237Y-105310269D01*
X92850287Y-105310269D01*
X92621687Y-105369007D01*
X92561362Y-105589669D01*
X92354571Y-105589669D01*
X92333555Y-105429332D01*
X92269262Y-105345194D01*
X92185124Y-105315032D01*
X92075587Y-105310269D01*
X90824637Y-105310269D01*
X90596037Y-105369007D01*
X90535712Y-105589669D01*
X90165857Y-105589669D01*
X90097562Y-105481719D01*
X90018187Y-105421394D01*
X89800699Y-105321382D01*
X89635202Y-105284472D01*
X89453037Y-105272169D01*
X89230610Y-105295276D01*
X89041698Y-105364597D01*
X88886299Y-105480132D01*
X88770764Y-105626711D01*
X88701443Y-105789165D01*
X88678337Y-105967494D01*
X88698577Y-106156010D01*
X88759299Y-106315157D01*
X88850183Y-106440172D01*
X88960912Y-106526294D01*
X89086324Y-106588603D01*
X89221262Y-106642182D01*
X89356199Y-106684647D01*
X89481612Y-106713619D01*
X89683224Y-106785057D01*
X89764187Y-106907294D01*
X89731378Y-107041350D01*
X89632953Y-107121783D01*
X89468912Y-107148594D01*
X89316512Y-107099382D01*
X89189512Y-106996194D01*
X89048224Y-106877132D01*
X88941862Y-106837444D01*
X88773587Y-106913644D01*
X88671193Y-107033897D01*
X88637062Y-107127957D01*
X87627412Y-107127957D01*
X87627412Y-105596019D01*
X87608362Y-105434094D01*
X87568674Y-105367419D01*
X87486124Y-105329319D01*
X87340074Y-105313444D01*
X87189262Y-105332494D01*
X87098774Y-105407107D01*
X87068612Y-105583319D01*
X87068612Y-106656469D01*
X86981123Y-106541904D01*
X86868939Y-106392944D01*
X86732062Y-106209588D01*
X86570489Y-105991836D01*
X86384223Y-105739688D01*
X86173262Y-105453144D01*
X86100237Y-105370594D01*
X86022449Y-105330907D01*
X85871637Y-105313444D01*
X85716062Y-105332494D01*
X85625574Y-105407107D01*
X85595412Y-105583319D01*
X84561796Y-105583319D01*
X84509562Y-105475369D01*
X84404787Y-105351544D01*
X84255562Y-105310269D01*
X84104749Y-105354719D01*
X83998387Y-105472194D01*
X83141137Y-107247019D01*
X83087162Y-107408944D01*
X82890121Y-107408944D01*
X82914124Y-107389894D01*
X82956987Y-107278769D01*
X82887137Y-107100969D01*
X82776805Y-106967619D01*
X82674412Y-106923169D01*
X82522012Y-106986669D01*
X82464862Y-107027944D01*
X82339449Y-107078744D01*
X82153712Y-107104144D01*
X81948130Y-107069219D01*
X81750487Y-106964444D01*
X81588562Y-106764419D01*
X81540937Y-106629085D01*
X81525062Y-106477082D01*
X81540937Y-106325078D01*
X81588562Y-106189744D01*
X81747312Y-105992894D01*
X81948924Y-105885738D01*
X82153712Y-105850019D01*
X82353737Y-105877007D01*
X82509312Y-105957969D01*
X82671237Y-106027819D01*
X82776012Y-105984957D01*
X82893487Y-105856369D01*
X82960162Y-105680157D01*
X82877612Y-105529344D01*
X82788712Y-105472194D01*
X82712512Y-105427744D01*
X82479149Y-105334082D01*
X82326352Y-105299553D01*
X82175937Y-105288044D01*
X81966739Y-105307094D01*
X81758248Y-105364244D01*
X81550462Y-105459494D01*
X81394490Y-105559110D01*
X81256774Y-105680157D01*
X81139696Y-105829382D01*
X81045637Y-106013532D01*
X80983724Y-106226653D01*
X80963087Y-106462794D01*
X79953437Y-106462794D01*
X79953437Y-105592844D01*
X79934387Y-105427744D01*
X79893112Y-105361069D01*
X79810562Y-105322969D01*
X79666099Y-105307094D01*
X79515287Y-105326144D01*
X79423212Y-105395994D01*
X79391462Y-105570619D01*
X79391462Y-106542169D01*
X79362887Y-106754100D01*
X79277162Y-106939044D01*
X79133493Y-107067632D01*
X78931087Y-107110494D01*
X78705662Y-107056519D01*
X78562787Y-106913644D01*
X78491349Y-106734257D01*
X78467537Y-106545344D01*
X78467537Y-105592844D01*
X78429437Y-105392819D01*
X78346887Y-105326144D01*
X78184962Y-105307094D01*
X78023037Y-105326144D01*
X77937312Y-105392819D01*
X77907149Y-105476957D01*
X77902387Y-105589669D01*
X77311320Y-105589669D01*
X77169160Y-105472789D01*
X76972905Y-105366625D01*
X76761172Y-105302927D01*
X76533962Y-105281694D01*
X76318062Y-105303919D01*
X76108512Y-105370594D01*
X75914043Y-105476163D01*
X75743387Y-105615069D01*
X75600512Y-105789297D01*
X75489387Y-106000832D01*
X75417949Y-106239353D01*
X75394137Y-106494544D01*
X74684539Y-106494544D01*
X75194112Y-105732544D01*
X75267137Y-105564269D01*
X75228243Y-105461082D01*
X75111562Y-105354719D01*
X74925824Y-105275344D01*
X74822637Y-105305507D01*
X74717862Y-105430919D01*
X74225737Y-106218319D01*
X73733612Y-105430919D01*
X73619312Y-105300744D01*
X73524062Y-105275344D01*
X73324037Y-105369007D01*
X73219262Y-105464653D01*
X73184337Y-105564269D01*
X72250700Y-105564269D01*
X72235012Y-105430919D01*
X72169924Y-105345194D01*
X72087374Y-105315032D01*
X71977837Y-105310269D01*
X70726887Y-105310269D01*
X70498287Y-105369007D01*
X70437962Y-105589669D01*
X70183657Y-105589669D01*
X70168087Y-105427744D01*
X70081568Y-105339638D01*
X69904562Y-105310269D01*
X69741049Y-105331700D01*
X69656912Y-105395994D01*
X69626749Y-105480132D01*
X69621987Y-105589669D01*
X68911730Y-105589669D01*
X68911730Y-104610711D01*
X69573188Y-104610711D01*
X103146812Y-104610711D01*
X103808270Y-104610711D01*
X103808270Y-112305289D01*
G37*
%TD.AperFunction*%
D11*
X71750000Y-51530000D03*
D12*
X70480000Y-48990000D03*
X69210000Y-51530000D03*
X67940000Y-48990000D03*
X66670000Y-51530000D03*
X65400000Y-48990000D03*
D11*
X89530000Y-40100000D03*
D12*
X88260000Y-37560000D03*
X86990000Y-40100000D03*
X85720000Y-37560000D03*
X84450000Y-40100000D03*
X83180000Y-37560000D03*
D13*
X100970000Y-56420000D03*
D12*
X102240000Y-58960000D03*
X103510000Y-56420000D03*
X104780000Y-58960000D03*
X106050000Y-56420000D03*
X107320000Y-58960000D03*
D13*
X65410000Y-56420000D03*
D12*
X66680000Y-58960000D03*
X67950000Y-56420000D03*
X69220000Y-58960000D03*
X70490000Y-56420000D03*
X71760000Y-58960000D03*
D11*
X107310000Y-51530000D03*
D12*
X106040000Y-48990000D03*
X104770000Y-51530000D03*
X103500000Y-48990000D03*
X102230000Y-51530000D03*
X100960000Y-48990000D03*
D13*
X83190000Y-46260000D03*
D12*
X84460000Y-48800000D03*
X85730000Y-46260000D03*
X87000000Y-48800000D03*
X88270000Y-46260000D03*
X89540000Y-48800000D03*
D14*
X90805000Y-68360010D03*
D15*
X89535000Y-66220010D03*
X88265000Y-68360010D03*
X86995000Y-66220010D03*
X85725000Y-68360010D03*
X84455000Y-66220010D03*
X83185000Y-68360010D03*
X81915000Y-66220010D03*
D16*
X83350000Y-40100000D02*
X84450000Y-40100000D01*
X70000000Y-36500000D02*
X79750000Y-36500000D01*
X79750000Y-36500000D02*
X83350000Y-40100000D01*
X69210000Y-51530000D02*
X69210000Y-37290000D01*
X69210000Y-37290000D02*
X70000000Y-36500000D01*
X67940000Y-37060000D02*
X69500000Y-35500000D01*
X86200000Y-35500000D02*
X88260000Y-37560000D01*
X69500000Y-35500000D02*
X86200000Y-35500000D01*
X67940000Y-48990000D02*
X67940000Y-37060000D01*
X86990000Y-41740000D02*
X86990000Y-40100000D01*
X104770000Y-51530000D02*
X104770000Y-48579065D01*
X90000000Y-44750000D02*
X86990000Y-41740000D01*
X100940935Y-44750000D02*
X90000000Y-44750000D01*
X104770000Y-48579065D02*
X100940935Y-44750000D01*
X103500000Y-48990000D02*
X100010000Y-45500000D01*
X85720000Y-41470000D02*
X85720000Y-37560000D01*
X100010000Y-45500000D02*
X89750000Y-45500000D01*
D17*
X103500000Y-48255000D02*
X103500000Y-49190000D01*
D16*
X89750000Y-45500000D02*
X85720000Y-41470000D01*
X93350000Y-46260000D02*
X103510000Y-56420000D01*
X88270000Y-46260000D02*
X93350000Y-46260000D01*
X84460000Y-48800000D02*
X86660000Y-51000000D01*
X103240000Y-60500000D02*
X100250000Y-60500000D01*
X104780000Y-58960000D02*
X103240000Y-60500000D01*
X100250000Y-60500000D02*
X99500000Y-59750000D01*
X99500000Y-59750000D02*
X99500000Y-54250000D01*
X96250000Y-51000000D02*
X86660000Y-51000000D01*
X99500000Y-54250000D02*
X96250000Y-51000000D01*
X85730000Y-46260000D02*
X85730000Y-44730000D01*
X85730000Y-44730000D02*
X85250000Y-44250000D01*
X77250000Y-49500000D02*
X77250000Y-53750000D01*
X67950000Y-55300000D02*
X69000000Y-54250000D01*
X67950000Y-56420000D02*
X67950000Y-55300000D01*
X85250000Y-44250000D02*
X82500000Y-44250000D01*
X76750000Y-54250000D02*
X69000000Y-54250000D01*
X77250000Y-53750000D02*
X76750000Y-54250000D01*
X82500000Y-44250000D02*
X77250000Y-49500000D01*
X87000000Y-48800000D02*
X85700000Y-47500000D01*
X81000000Y-47500000D02*
X78500000Y-50000000D01*
X78500000Y-60000000D02*
X77500000Y-61000000D01*
X77500000Y-61000000D02*
X69750000Y-61000000D01*
X69220000Y-60470000D02*
X69220000Y-58960000D01*
X85700000Y-47500000D02*
X81000000Y-47500000D01*
X78500000Y-50000000D02*
X78500000Y-60000000D01*
X69750000Y-61000000D02*
X69220000Y-60470000D01*
%TA.AperFunction,Conductor*%
G36*
X70562598Y-59436151D02*
G01*
X70602265Y-59481929D01*
X70655753Y-59586903D01*
X70675084Y-59624842D01*
X70792444Y-59786374D01*
X70933625Y-59927555D01*
X71081460Y-60034964D01*
X71124814Y-60091187D01*
X71130889Y-60161923D01*
X71097757Y-60224715D01*
X71035937Y-60259626D01*
X71007399Y-60262900D01*
X70107507Y-60262900D01*
X70077591Y-60254116D01*
X70047122Y-60247488D01*
X70042026Y-60243673D01*
X70039386Y-60242898D01*
X70018412Y-60225995D01*
X69994005Y-60201588D01*
X69959979Y-60139276D01*
X69957100Y-60112493D01*
X69957100Y-60056616D01*
X69977102Y-59988495D01*
X70009036Y-59954683D01*
X70046372Y-59927557D01*
X70187557Y-59786372D01*
X70304918Y-59624839D01*
X70377734Y-59481929D01*
X70426481Y-59430316D01*
X70495396Y-59413250D01*
X70562598Y-59436151D01*
G37*
%TD.AperFunction*%
%TA.AperFunction,Conductor*%
G36*
X77680932Y-54465651D02*
G01*
X77737768Y-54508198D01*
X77762579Y-54574718D01*
X77762900Y-54583707D01*
X77762900Y-59642493D01*
X77742898Y-59710614D01*
X77725995Y-59731588D01*
X77231588Y-60225995D01*
X77169276Y-60260021D01*
X77142493Y-60262900D01*
X72512601Y-60262900D01*
X72444480Y-60242898D01*
X72397987Y-60189242D01*
X72387883Y-60118968D01*
X72417377Y-60054388D01*
X72438540Y-60034964D01*
X72534831Y-59965004D01*
X72586372Y-59927557D01*
X72727557Y-59786372D01*
X72844918Y-59624839D01*
X72935565Y-59446935D01*
X72997265Y-59257041D01*
X73028500Y-59059833D01*
X73028500Y-58860167D01*
X72997265Y-58662959D01*
X72935565Y-58473065D01*
X72844918Y-58295161D01*
X72727557Y-58133628D01*
X72727555Y-58133625D01*
X72586374Y-57992444D01*
X72424842Y-57875084D01*
X72424841Y-57875083D01*
X72424839Y-57875082D01*
X72246935Y-57784435D01*
X72246932Y-57784434D01*
X72246930Y-57784433D01*
X72057046Y-57722736D01*
X72057042Y-57722735D01*
X72057041Y-57722735D01*
X71859833Y-57691500D01*
X71660167Y-57691500D01*
X71462959Y-57722735D01*
X71462953Y-57722736D01*
X71273069Y-57784433D01*
X71273063Y-57784436D01*
X71095157Y-57875084D01*
X70933625Y-57992444D01*
X70792444Y-58133625D01*
X70675083Y-58295158D01*
X70602267Y-58438068D01*
X70553518Y-58489683D01*
X70484603Y-58506749D01*
X70417402Y-58483848D01*
X70377733Y-58438068D01*
X70304916Y-58295158D01*
X70187555Y-58133625D01*
X70046374Y-57992444D01*
X69884842Y-57875084D01*
X69884841Y-57875083D01*
X69884839Y-57875082D01*
X69706935Y-57784435D01*
X69706932Y-57784434D01*
X69706930Y-57784433D01*
X69517046Y-57722736D01*
X69517042Y-57722735D01*
X69517041Y-57722735D01*
X69319833Y-57691500D01*
X69120167Y-57691500D01*
X68922959Y-57722735D01*
X68922953Y-57722736D01*
X68733069Y-57784433D01*
X68733063Y-57784436D01*
X68555157Y-57875084D01*
X68393625Y-57992444D01*
X68252444Y-58133625D01*
X68135083Y-58295158D01*
X68062267Y-58438068D01*
X68013518Y-58489683D01*
X67944603Y-58506749D01*
X67877402Y-58483848D01*
X67837733Y-58438068D01*
X67764916Y-58295158D01*
X67647555Y-58133625D01*
X67506374Y-57992444D01*
X67344842Y-57875084D01*
X67344841Y-57875083D01*
X67344839Y-57875082D01*
X67166935Y-57784435D01*
X67166932Y-57784434D01*
X67166930Y-57784433D01*
X66977046Y-57722736D01*
X66977042Y-57722735D01*
X66977041Y-57722735D01*
X66779833Y-57691500D01*
X66580167Y-57691500D01*
X66580166Y-57691500D01*
X66548517Y-57696512D01*
X66478106Y-57687411D01*
X66423793Y-57641688D01*
X66402822Y-57573859D01*
X66421851Y-57505460D01*
X66439710Y-57482971D01*
X66519030Y-57403652D01*
X66612115Y-57252738D01*
X66652333Y-57131364D01*
X66692744Y-57072996D01*
X66758300Y-57045739D01*
X66828185Y-57058252D01*
X66873872Y-57096938D01*
X66982444Y-57246374D01*
X67123625Y-57387555D01*
X67123628Y-57387557D01*
X67285161Y-57504918D01*
X67463065Y-57595565D01*
X67652959Y-57657265D01*
X67850167Y-57688500D01*
X67850170Y-57688500D01*
X68049830Y-57688500D01*
X68049833Y-57688500D01*
X68247041Y-57657265D01*
X68436935Y-57595565D01*
X68614839Y-57504918D01*
X68776372Y-57387557D01*
X68917557Y-57246372D01*
X69034918Y-57084839D01*
X69107734Y-56941929D01*
X69156481Y-56890316D01*
X69225396Y-56873250D01*
X69292598Y-56896151D01*
X69332265Y-56941929D01*
X69404872Y-57084426D01*
X69405084Y-57084842D01*
X69522444Y-57246374D01*
X69663625Y-57387555D01*
X69663628Y-57387557D01*
X69825161Y-57504918D01*
X70003065Y-57595565D01*
X70192959Y-57657265D01*
X70390167Y-57688500D01*
X70390170Y-57688500D01*
X70589830Y-57688500D01*
X70589833Y-57688500D01*
X70787041Y-57657265D01*
X70976935Y-57595565D01*
X71154839Y-57504918D01*
X71316372Y-57387557D01*
X71457557Y-57246372D01*
X71574918Y-57084839D01*
X71665565Y-56906935D01*
X71727265Y-56717041D01*
X71758500Y-56519833D01*
X71758500Y-56320167D01*
X71727265Y-56122959D01*
X71665565Y-55933065D01*
X71574918Y-55755161D01*
X71457557Y-55593628D01*
X71457555Y-55593625D01*
X71316374Y-55452444D01*
X71154842Y-55335084D01*
X71154841Y-55335083D01*
X71154839Y-55335082D01*
X70976935Y-55244435D01*
X70976932Y-55244434D01*
X70976930Y-55244433D01*
X70941535Y-55232933D01*
X70882929Y-55192859D01*
X70855292Y-55127463D01*
X70867399Y-55057506D01*
X70915405Y-55005200D01*
X70980471Y-54987100D01*
X76822597Y-54987100D01*
X76822598Y-54987100D01*
X76965004Y-54958774D01*
X77099148Y-54903210D01*
X77219874Y-54822543D01*
X77547806Y-54494610D01*
X77610117Y-54460587D01*
X77680932Y-54465651D01*
G37*
%TD.AperFunction*%
%TA.AperFunction,Conductor*%
G36*
X100397460Y-57687274D02*
G01*
X100409455Y-57688500D01*
X101444182Y-57688499D01*
X101512303Y-57708501D01*
X101558796Y-57762157D01*
X101568900Y-57832431D01*
X101539407Y-57897011D01*
X101518244Y-57916435D01*
X101413621Y-57992448D01*
X101272444Y-58133625D01*
X101155084Y-58295157D01*
X101064436Y-58473063D01*
X101064433Y-58473069D01*
X101002736Y-58662953D01*
X101002735Y-58662958D01*
X101002735Y-58662959D01*
X100971500Y-58860167D01*
X100971500Y-59059833D01*
X100988762Y-59168820D01*
X101002736Y-59257046D01*
X101064433Y-59446930D01*
X101064435Y-59446935D01*
X101115198Y-59546563D01*
X101132081Y-59579697D01*
X101145185Y-59649474D01*
X101118485Y-59715259D01*
X101060457Y-59756165D01*
X101019814Y-59762900D01*
X100607507Y-59762900D01*
X100539386Y-59742898D01*
X100518412Y-59725995D01*
X100274005Y-59481588D01*
X100239979Y-59419276D01*
X100237100Y-59392493D01*
X100237100Y-57810420D01*
X100257102Y-57742299D01*
X100310758Y-57695806D01*
X100375908Y-57685073D01*
X100397460Y-57687274D01*
G37*
%TD.AperFunction*%
%TA.AperFunction,Conductor*%
G36*
X70067650Y-55007102D02*
G01*
X70114143Y-55060758D01*
X70124247Y-55131032D01*
X70094753Y-55195612D01*
X70038465Y-55232933D01*
X70003069Y-55244433D01*
X70003063Y-55244436D01*
X69825157Y-55335084D01*
X69663625Y-55452444D01*
X69522444Y-55593625D01*
X69405083Y-55755158D01*
X69332267Y-55898068D01*
X69283518Y-55949683D01*
X69214603Y-55966749D01*
X69147402Y-55943848D01*
X69107733Y-55898068D01*
X69088059Y-55859456D01*
X69034918Y-55755161D01*
X68917557Y-55593628D01*
X68917555Y-55593625D01*
X68897268Y-55573338D01*
X68863242Y-55511026D01*
X68868307Y-55440211D01*
X68897264Y-55395152D01*
X69268414Y-55024002D01*
X69330724Y-54989979D01*
X69357507Y-54987100D01*
X69999529Y-54987100D01*
X70067650Y-55007102D01*
G37*
%TD.AperFunction*%
%TA.AperFunction,Conductor*%
G36*
X100445612Y-54398483D02*
G01*
X100452195Y-54404612D01*
X100983988Y-54936405D01*
X101018014Y-54998717D01*
X101012949Y-55069532D01*
X100970402Y-55126368D01*
X100903882Y-55151179D01*
X100894893Y-55151500D01*
X100409454Y-55151500D01*
X100375904Y-55154928D01*
X100306103Y-55141951D01*
X100254398Y-55093298D01*
X100237100Y-55029580D01*
X100237100Y-54493707D01*
X100257102Y-54425586D01*
X100310758Y-54379093D01*
X100381032Y-54368989D01*
X100445612Y-54398483D01*
G37*
%TD.AperFunction*%
%TA.AperFunction,Conductor*%
G36*
X70112036Y-50204221D02*
G01*
X70125709Y-50208663D01*
X70182953Y-50227263D01*
X70182954Y-50227263D01*
X70182959Y-50227265D01*
X70380167Y-50258500D01*
X70380170Y-50258500D01*
X70579829Y-50258500D01*
X70579833Y-50258500D01*
X70611481Y-50253487D01*
X70681890Y-50262586D01*
X70736204Y-50308308D01*
X70757177Y-50376136D01*
X70738150Y-50444535D01*
X70720286Y-50467031D01*
X70640970Y-50546347D01*
X70555369Y-50685129D01*
X70547885Y-50697262D01*
X70535937Y-50733321D01*
X70507668Y-50818632D01*
X70467254Y-50877004D01*
X70401698Y-50904260D01*
X70331812Y-50891747D01*
X70286127Y-50853061D01*
X70177555Y-50703625D01*
X70036375Y-50562445D01*
X70036365Y-50562437D01*
X69999037Y-50535315D01*
X69995643Y-50530913D01*
X69990588Y-50528605D01*
X69974198Y-50503103D01*
X69955684Y-50479092D01*
X69954411Y-50472313D01*
X69952204Y-50468879D01*
X69947100Y-50433381D01*
X69947100Y-50324054D01*
X69967102Y-50255933D01*
X70020758Y-50209440D01*
X70091032Y-50199336D01*
X70112036Y-50204221D01*
G37*
%TD.AperFunction*%
%TA.AperFunction,Conductor*%
G36*
X105672036Y-50204221D02*
G01*
X105685709Y-50208663D01*
X105742953Y-50227263D01*
X105742954Y-50227263D01*
X105742959Y-50227265D01*
X105940167Y-50258500D01*
X105940170Y-50258500D01*
X106139829Y-50258500D01*
X106139833Y-50258500D01*
X106171481Y-50253487D01*
X106241890Y-50262586D01*
X106296204Y-50308308D01*
X106317177Y-50376136D01*
X106298150Y-50444535D01*
X106280286Y-50467031D01*
X106200970Y-50546347D01*
X106115369Y-50685129D01*
X106107885Y-50697262D01*
X106095937Y-50733321D01*
X106067668Y-50818632D01*
X106027254Y-50877004D01*
X105961698Y-50904260D01*
X105891812Y-50891747D01*
X105846127Y-50853061D01*
X105737555Y-50703625D01*
X105596375Y-50562445D01*
X105596365Y-50562437D01*
X105559037Y-50535315D01*
X105555643Y-50530913D01*
X105550588Y-50528605D01*
X105534198Y-50503103D01*
X105515684Y-50479092D01*
X105514411Y-50472313D01*
X105512204Y-50468879D01*
X105507100Y-50433381D01*
X105507100Y-50324054D01*
X105527102Y-50255933D01*
X105580758Y-50209440D01*
X105651032Y-50199336D01*
X105672036Y-50204221D01*
G37*
%TD.AperFunction*%
%TA.AperFunction,Conductor*%
G36*
X88342598Y-49276151D02*
G01*
X88382265Y-49321929D01*
X88455082Y-49464839D01*
X88455084Y-49464842D01*
X88572444Y-49626374D01*
X88713625Y-49767555D01*
X88713628Y-49767557D01*
X88875161Y-49884918D01*
X89053065Y-49975565D01*
X89128237Y-49999990D01*
X89180795Y-50017067D01*
X89239401Y-50057141D01*
X89267038Y-50122537D01*
X89254931Y-50192494D01*
X89206925Y-50244800D01*
X89141859Y-50262900D01*
X87398141Y-50262900D01*
X87330020Y-50242898D01*
X87283527Y-50189242D01*
X87273423Y-50118968D01*
X87302917Y-50054388D01*
X87359205Y-50017067D01*
X87391289Y-50006642D01*
X87486935Y-49975565D01*
X87664839Y-49884918D01*
X87826372Y-49767557D01*
X87967557Y-49626372D01*
X88084918Y-49464839D01*
X88157734Y-49321929D01*
X88206481Y-49270316D01*
X88275396Y-49253250D01*
X88342598Y-49276151D01*
G37*
%TD.AperFunction*%
%TA.AperFunction,Conductor*%
G36*
X87017503Y-46717376D02*
G01*
X87030288Y-46716828D01*
X87050476Y-46728612D01*
X87072598Y-46736151D01*
X87082021Y-46747025D01*
X87091603Y-46752619D01*
X87112264Y-46781928D01*
X87185082Y-46924839D01*
X87185084Y-46924842D01*
X87302444Y-47086374D01*
X87443625Y-47227555D01*
X87443628Y-47227557D01*
X87605161Y-47344918D01*
X87783065Y-47435565D01*
X87972959Y-47497265D01*
X88170167Y-47528500D01*
X88170170Y-47528500D01*
X88369830Y-47528500D01*
X88369833Y-47528500D01*
X88567041Y-47497265D01*
X88756935Y-47435565D01*
X88934839Y-47344918D01*
X89096372Y-47227557D01*
X89237557Y-47086372D01*
X89264681Y-47049038D01*
X89320904Y-47005685D01*
X89366617Y-46997100D01*
X92992493Y-46997100D01*
X93060614Y-47017102D01*
X93081588Y-47034005D01*
X96095388Y-50047805D01*
X96129414Y-50110117D01*
X96124349Y-50180932D01*
X96081802Y-50237768D01*
X96015282Y-50262579D01*
X96006293Y-50262900D01*
X89938141Y-50262900D01*
X89870020Y-50242898D01*
X89823527Y-50189242D01*
X89813423Y-50118968D01*
X89842917Y-50054388D01*
X89899205Y-50017067D01*
X89931289Y-50006642D01*
X90026935Y-49975565D01*
X90204839Y-49884918D01*
X90366372Y-49767557D01*
X90507557Y-49626372D01*
X90624918Y-49464839D01*
X90715565Y-49286935D01*
X90777265Y-49097041D01*
X90808500Y-48899833D01*
X90808500Y-48700167D01*
X90777265Y-48502959D01*
X90715565Y-48313065D01*
X90624918Y-48135161D01*
X90507557Y-47973628D01*
X90507555Y-47973625D01*
X90366374Y-47832444D01*
X90204842Y-47715084D01*
X90204841Y-47715083D01*
X90204839Y-47715082D01*
X90026935Y-47624435D01*
X90026932Y-47624434D01*
X90026930Y-47624433D01*
X89837046Y-47562736D01*
X89837042Y-47562735D01*
X89837041Y-47562735D01*
X89639833Y-47531500D01*
X89440167Y-47531500D01*
X89242959Y-47562735D01*
X89242953Y-47562736D01*
X89053069Y-47624433D01*
X89053063Y-47624436D01*
X88875157Y-47715084D01*
X88713625Y-47832444D01*
X88572444Y-47973625D01*
X88455083Y-48135158D01*
X88382267Y-48278068D01*
X88333518Y-48329683D01*
X88264603Y-48346749D01*
X88197402Y-48323848D01*
X88157733Y-48278068D01*
X88147050Y-48257102D01*
X88084918Y-48135161D01*
X88072425Y-48117965D01*
X87967555Y-47973625D01*
X87826374Y-47832444D01*
X87664842Y-47715084D01*
X87664841Y-47715083D01*
X87664839Y-47715082D01*
X87486935Y-47624435D01*
X87486932Y-47624434D01*
X87486930Y-47624433D01*
X87297046Y-47562736D01*
X87297042Y-47562735D01*
X87297041Y-47562735D01*
X87099833Y-47531500D01*
X86900167Y-47531500D01*
X86869971Y-47536282D01*
X86854587Y-47538719D01*
X86849073Y-47538006D01*
X86843866Y-47539949D01*
X86814240Y-47533504D01*
X86784176Y-47529619D01*
X86778483Y-47525726D01*
X86774492Y-47524858D01*
X86745782Y-47503365D01*
X86602268Y-47359851D01*
X86568242Y-47297539D01*
X86573307Y-47226724D01*
X86602266Y-47181662D01*
X86697557Y-47086372D01*
X86814918Y-46924839D01*
X86887734Y-46781929D01*
X86896518Y-46772629D01*
X86901329Y-46760776D01*
X86920430Y-46747310D01*
X86936481Y-46730316D01*
X86948900Y-46727240D01*
X86959357Y-46719869D01*
X86982710Y-46718867D01*
X87005396Y-46713250D01*
X87017503Y-46717376D01*
G37*
%TD.AperFunction*%
%TA.AperFunction,Conductor*%
G36*
X81839532Y-46057050D02*
G01*
X81896368Y-46099597D01*
X81921179Y-46166117D01*
X81921500Y-46175106D01*
X81921501Y-46636900D01*
X81901499Y-46705021D01*
X81847844Y-46751514D01*
X81795501Y-46762900D01*
X81333708Y-46762900D01*
X81265587Y-46742898D01*
X81219094Y-46689242D01*
X81208990Y-46618968D01*
X81238484Y-46554388D01*
X81244612Y-46547805D01*
X81340222Y-46452195D01*
X81706406Y-46086009D01*
X81768717Y-46051986D01*
X81839532Y-46057050D01*
G37*
%TD.AperFunction*%
%TA.AperFunction,Conductor*%
G36*
X84875725Y-44989691D02*
G01*
X84884832Y-44988382D01*
X84909257Y-44999537D01*
X84935021Y-45007102D01*
X84941045Y-45014055D01*
X84949412Y-45017876D01*
X84963926Y-45040461D01*
X84981514Y-45060758D01*
X84983838Y-45071444D01*
X84987796Y-45077602D01*
X84992900Y-45113100D01*
X84992900Y-45163381D01*
X84972898Y-45231502D01*
X84940963Y-45265315D01*
X84903634Y-45292437D01*
X84903624Y-45292445D01*
X84762448Y-45433621D01*
X84653873Y-45583061D01*
X84597650Y-45626414D01*
X84526914Y-45632489D01*
X84464122Y-45599357D01*
X84432332Y-45548632D01*
X84394223Y-45433625D01*
X84392115Y-45427262D01*
X84299030Y-45276348D01*
X84299029Y-45276347D01*
X84299024Y-45276341D01*
X84224878Y-45202195D01*
X84190852Y-45139883D01*
X84195917Y-45069068D01*
X84238464Y-45012232D01*
X84304984Y-44987421D01*
X84313973Y-44987100D01*
X84866900Y-44987100D01*
X84875725Y-44989691D01*
G37*
%TD.AperFunction*%
%TA.AperFunction,Conductor*%
G36*
X87062598Y-38036151D02*
G01*
X87102265Y-38081929D01*
X87153865Y-38183198D01*
X87175084Y-38224842D01*
X87292444Y-38386374D01*
X87433625Y-38527555D01*
X87433628Y-38527557D01*
X87595161Y-38644918D01*
X87773065Y-38735565D01*
X87962959Y-38797265D01*
X88160167Y-38828500D01*
X88160170Y-38828500D01*
X88359829Y-38828500D01*
X88359833Y-38828500D01*
X88391481Y-38823487D01*
X88461890Y-38832586D01*
X88516204Y-38878308D01*
X88537177Y-38946136D01*
X88518150Y-39014535D01*
X88500286Y-39037031D01*
X88420970Y-39116347D01*
X88327886Y-39267261D01*
X88327885Y-39267262D01*
X88318347Y-39296048D01*
X88287668Y-39388632D01*
X88247254Y-39447004D01*
X88181698Y-39474260D01*
X88111812Y-39461747D01*
X88066127Y-39423061D01*
X87957555Y-39273625D01*
X87816374Y-39132444D01*
X87654842Y-39015084D01*
X87654841Y-39015083D01*
X87654839Y-39015082D01*
X87476935Y-38924435D01*
X87476932Y-38924434D01*
X87476930Y-38924433D01*
X87287046Y-38862736D01*
X87287042Y-38862735D01*
X87287041Y-38862735D01*
X87089833Y-38831500D01*
X86890167Y-38831500D01*
X86702840Y-38861170D01*
X86692953Y-38862736D01*
X86622036Y-38885779D01*
X86593465Y-38886595D01*
X86565168Y-38890664D01*
X86558450Y-38887596D01*
X86551068Y-38887807D01*
X86526586Y-38873043D01*
X86500588Y-38861170D01*
X86496595Y-38854958D01*
X86490271Y-38851144D01*
X86477656Y-38825488D01*
X86462204Y-38801444D01*
X86460703Y-38791008D01*
X86458945Y-38787432D01*
X86457100Y-38765946D01*
X86457100Y-38656616D01*
X86477102Y-38588495D01*
X86509036Y-38554683D01*
X86546372Y-38527557D01*
X86687557Y-38386372D01*
X86804918Y-38224839D01*
X86877734Y-38081929D01*
X86926481Y-38030316D01*
X86995396Y-38013250D01*
X87062598Y-38036151D01*
G37*
%TD.AperFunction*%
%TA.AperFunction,Conductor*%
G36*
X84522598Y-38036151D02*
G01*
X84562265Y-38081929D01*
X84613865Y-38183198D01*
X84635084Y-38224842D01*
X84752444Y-38386374D01*
X84893622Y-38527552D01*
X84893625Y-38527554D01*
X84893628Y-38527557D01*
X84930962Y-38554682D01*
X84934355Y-38559082D01*
X84939412Y-38561392D01*
X84955799Y-38586891D01*
X84974314Y-38610901D01*
X84975587Y-38617681D01*
X84977796Y-38621118D01*
X84982900Y-38656616D01*
X84982900Y-38765946D01*
X84962898Y-38834067D01*
X84909242Y-38880560D01*
X84838968Y-38890664D01*
X84817964Y-38885779D01*
X84747044Y-38862736D01*
X84747048Y-38862736D01*
X84697939Y-38854958D01*
X84549833Y-38831500D01*
X84350167Y-38831500D01*
X84162840Y-38861170D01*
X84152953Y-38862736D01*
X83963069Y-38924433D01*
X83963063Y-38924436D01*
X83785157Y-39015084D01*
X83623626Y-39132444D01*
X83613335Y-39142735D01*
X83605262Y-39147142D01*
X83599752Y-39154504D01*
X83574590Y-39163888D01*
X83551022Y-39176757D01*
X83541849Y-39176100D01*
X83533232Y-39179315D01*
X83506989Y-39173606D01*
X83480206Y-39171690D01*
X83471010Y-39165779D01*
X83463858Y-39164224D01*
X83435148Y-39142731D01*
X83317504Y-39025087D01*
X83283478Y-38962775D01*
X83288543Y-38891960D01*
X83331090Y-38835124D01*
X83386884Y-38811544D01*
X83477041Y-38797265D01*
X83666935Y-38735565D01*
X83844839Y-38644918D01*
X84006372Y-38527557D01*
X84147557Y-38386372D01*
X84264918Y-38224839D01*
X84337734Y-38081929D01*
X84386481Y-38030316D01*
X84455396Y-38013250D01*
X84522598Y-38036151D01*
G37*
%TD.AperFunction*%
%TA.AperFunction,Conductor*%
G36*
X82525521Y-36257102D02*
G01*
X82572014Y-36310758D01*
X82582118Y-36381032D01*
X82552624Y-36445612D01*
X82519018Y-36471909D01*
X82519379Y-36472497D01*
X82515162Y-36475080D01*
X82353625Y-36592444D01*
X82212444Y-36733625D01*
X82095084Y-36895157D01*
X82004436Y-37073063D01*
X82004433Y-37073069D01*
X81942736Y-37262952D01*
X81928456Y-37353112D01*
X81898043Y-37417265D01*
X81837774Y-37454791D01*
X81766785Y-37453777D01*
X81714912Y-37422495D01*
X80744612Y-36452195D01*
X80710586Y-36389883D01*
X80715651Y-36319068D01*
X80758198Y-36262232D01*
X80824718Y-36237421D01*
X80833707Y-36237100D01*
X82457400Y-36237100D01*
X82525521Y-36257102D01*
G37*
%TD.AperFunction*%
%TA.AperFunction,Conductor*%
G36*
X85065521Y-36257102D02*
G01*
X85112014Y-36310758D01*
X85122118Y-36381032D01*
X85092624Y-36445612D01*
X85059018Y-36471909D01*
X85059379Y-36472497D01*
X85055162Y-36475080D01*
X84893625Y-36592444D01*
X84752444Y-36733625D01*
X84635083Y-36895158D01*
X84579253Y-37004731D01*
X84566842Y-37029090D01*
X84562267Y-37038068D01*
X84513518Y-37089683D01*
X84444603Y-37106749D01*
X84377402Y-37083848D01*
X84337733Y-37038068D01*
X84335747Y-37034171D01*
X84264918Y-36895161D01*
X84189751Y-36791702D01*
X84147555Y-36733625D01*
X84006374Y-36592444D01*
X83844837Y-36475080D01*
X83840621Y-36472497D01*
X83841258Y-36471456D01*
X83793785Y-36426623D01*
X83776715Y-36357709D01*
X83799614Y-36290506D01*
X83855209Y-36246352D01*
X83902600Y-36237100D01*
X84997400Y-36237100D01*
X85065521Y-36257102D01*
G37*
%TD.AperFunction*%
%TA.AperFunction,Conductor*%
G36*
X86482457Y-16271292D02*
G01*
X86489679Y-16271649D01*
X87170035Y-16324898D01*
X87176300Y-16325546D01*
X87957922Y-16426219D01*
X87963346Y-16427039D01*
X88855295Y-16581750D01*
X88859985Y-16582656D01*
X89871795Y-16798323D01*
X89875884Y-16799267D01*
X91016932Y-17082961D01*
X91020464Y-17083895D01*
X92300353Y-17442883D01*
X92303518Y-17443816D01*
X93596732Y-17843709D01*
X93731389Y-17885348D01*
X93734216Y-17886258D01*
X95319006Y-18417582D01*
X95321486Y-18418443D01*
X97070821Y-19046395D01*
X97072970Y-19047190D01*
X98993285Y-19778133D01*
X98995240Y-19778897D01*
X101090361Y-20618097D01*
X101092085Y-20618804D01*
X103362064Y-21569801D01*
X103363560Y-21570440D01*
X105803171Y-22634234D01*
X105804627Y-22634881D01*
X107330965Y-23324921D01*
X108399273Y-23807891D01*
X108400710Y-23808551D01*
X108529275Y-23868628D01*
X111123522Y-25080891D01*
X111124086Y-25081158D01*
X111705925Y-25358283D01*
X111706412Y-25358817D01*
X111751641Y-25380057D01*
X111751856Y-25380159D01*
X111751858Y-25380161D01*
X111779553Y-25393351D01*
X111796682Y-25401510D01*
X111805770Y-25405838D01*
X111808990Y-25406989D01*
X114005618Y-26438566D01*
X114005617Y-26438566D01*
X114017549Y-26444169D01*
X114018465Y-26445154D01*
X114063368Y-26465686D01*
X114107979Y-26486637D01*
X114115377Y-26490111D01*
X114121303Y-26492178D01*
X117604541Y-28084964D01*
X117604624Y-28085053D01*
X117650469Y-28105965D01*
X117650470Y-28105966D01*
X117682815Y-28120756D01*
X117696506Y-28127017D01*
X117707511Y-28132049D01*
X117708066Y-28132239D01*
X120389372Y-29355340D01*
X120389557Y-29355425D01*
X121503459Y-29870428D01*
X121731048Y-29975652D01*
X121731771Y-29975989D01*
X122834616Y-30494384D01*
X123043770Y-30592697D01*
X123044753Y-30593163D01*
X124319488Y-31206107D01*
X124320629Y-31206665D01*
X125549461Y-31815171D01*
X125551019Y-31815958D01*
X126098339Y-32097174D01*
X126725881Y-32419609D01*
X126727969Y-32420706D01*
X127231486Y-32691444D01*
X127782833Y-32987900D01*
X127840543Y-33018930D01*
X127843129Y-33020360D01*
X128884924Y-33612435D01*
X128888085Y-33614293D01*
X129852429Y-34200509D01*
X129855171Y-34202227D01*
X130281578Y-34477367D01*
X130302880Y-34491112D01*
X130305060Y-34492551D01*
X130706229Y-34763390D01*
X130731041Y-34780141D01*
X130733471Y-34781824D01*
X130824989Y-34846790D01*
X131135304Y-35067075D01*
X131138011Y-35069051D01*
X131457783Y-35309093D01*
X131514624Y-35351761D01*
X131517627Y-35354087D01*
X131703276Y-35502435D01*
X131867909Y-35633990D01*
X131871260Y-35636764D01*
X131976021Y-35726574D01*
X132194096Y-35913525D01*
X132197811Y-35916840D01*
X132455405Y-36155985D01*
X132492090Y-36190043D01*
X132496205Y-36194042D01*
X132760884Y-36463214D01*
X132765405Y-36468060D01*
X132782569Y-36487458D01*
X132986391Y-36717808D01*
X132999429Y-36732542D01*
X133004340Y-36738446D01*
X133206832Y-36997521D01*
X133212068Y-37004731D01*
X133382324Y-37257546D01*
X133387740Y-37266347D01*
X133524222Y-37509976D01*
X133530157Y-37522038D01*
X133640737Y-37780765D01*
X133645540Y-37794005D01*
X133660533Y-37843878D01*
X133737666Y-38100447D01*
X133740663Y-38112564D01*
X133811852Y-38476959D01*
X133813484Y-38487795D01*
X133859170Y-38917429D01*
X133859819Y-38926976D01*
X133874880Y-39429353D01*
X133874854Y-39437689D01*
X133853739Y-40020716D01*
X133853268Y-40027958D01*
X133790029Y-40700130D01*
X133789279Y-40706407D01*
X133677593Y-41476748D01*
X133676683Y-41482186D01*
X133509792Y-42360657D01*
X133508803Y-42365371D01*
X133279479Y-43362876D01*
X133278466Y-43366965D01*
X132978936Y-44495615D01*
X132977939Y-44499164D01*
X132599567Y-45773317D01*
X132598610Y-45776393D01*
X132131655Y-47213176D01*
X132130760Y-47215831D01*
X131563172Y-48838587D01*
X131562355Y-48840852D01*
X130877804Y-50684202D01*
X130877090Y-50686078D01*
X130047773Y-52814720D01*
X130047214Y-52816130D01*
X129005793Y-55396888D01*
X129005569Y-55397439D01*
X128561003Y-56484301D01*
X128561003Y-56484302D01*
X128556350Y-56495678D01*
X128556300Y-56495729D01*
X128537405Y-56541990D01*
X128537286Y-56542284D01*
X128537284Y-56542285D01*
X128513494Y-56600452D01*
X128513394Y-56600784D01*
X127896694Y-58110813D01*
X127891848Y-58122676D01*
X127891274Y-58123266D01*
X127872814Y-58169282D01*
X127872635Y-58169721D01*
X127872592Y-58169829D01*
X127850203Y-58224655D01*
X127849098Y-58228403D01*
X127304148Y-59586902D01*
X127304149Y-59586903D01*
X127299506Y-59598479D01*
X127299342Y-59598648D01*
X127280470Y-59645934D01*
X127280388Y-59646139D01*
X127257597Y-59702954D01*
X127257285Y-59704025D01*
X126806299Y-60834046D01*
X126805921Y-60834982D01*
X126271294Y-62144032D01*
X126270920Y-62144936D01*
X125735591Y-63427174D01*
X125735210Y-63428078D01*
X125159647Y-64777032D01*
X125159253Y-64777944D01*
X124615924Y-66024047D01*
X124615514Y-66024979D01*
X124047748Y-67298925D01*
X124047315Y-67299885D01*
X123521867Y-68452850D01*
X123521408Y-68453846D01*
X122982125Y-69610402D01*
X122981635Y-69611441D01*
X122486143Y-70649271D01*
X122485617Y-70650357D01*
X121983005Y-71677672D01*
X121982439Y-71678816D01*
X121522152Y-72595967D01*
X121521539Y-72597171D01*
X121058431Y-73495783D01*
X121057765Y-73497057D01*
X120634523Y-74295794D01*
X120633798Y-74297143D01*
X120210394Y-75073235D01*
X120209600Y-75074669D01*
X119823286Y-75761380D01*
X119822415Y-75762903D01*
X119437728Y-76424973D01*
X119436768Y-76426597D01*
X119086419Y-77009303D01*
X119085359Y-77011035D01*
X118737743Y-77568648D01*
X118736566Y-77570498D01*
X118420530Y-78058333D01*
X118419223Y-78060311D01*
X118106692Y-78523405D01*
X118105232Y-78525521D01*
X117821652Y-78927768D01*
X117820018Y-78930032D01*
X117540475Y-79308461D01*
X117538640Y-79310884D01*
X117285630Y-79636646D01*
X117283563Y-79639236D01*
X117034882Y-79942607D01*
X117032545Y-79945376D01*
X116808209Y-80203537D01*
X116805562Y-80206488D01*
X116585734Y-80443942D01*
X116582727Y-80447079D01*
X116385322Y-80646083D01*
X116381900Y-80649405D01*
X116189180Y-80829513D01*
X116185278Y-80833010D01*
X116013102Y-80980997D01*
X116008652Y-80984649D01*
X115841416Y-81115599D01*
X115836340Y-81119372D01*
X115687999Y-81223957D01*
X115682218Y-81227799D01*
X115550308Y-81310316D01*
X115547999Y-81311726D01*
X115509053Y-81334941D01*
X115507510Y-81335846D01*
X115465979Y-81359809D01*
X115465320Y-81360404D01*
X115465319Y-81360403D01*
X115463343Y-81362187D01*
X115463339Y-81362191D01*
X115463339Y-81362192D01*
X115434644Y-81400686D01*
X115433603Y-81402062D01*
X115404438Y-81440047D01*
X115403243Y-81442467D01*
X115403214Y-81442528D01*
X115402862Y-81443239D01*
X115391086Y-81489771D01*
X115390635Y-81491498D01*
X115376491Y-81544229D01*
X115375134Y-81552804D01*
X112019822Y-94811584D01*
X86401961Y-196042502D01*
X86365859Y-196103633D01*
X86302437Y-196135542D01*
X86231831Y-196128097D01*
X86176460Y-196083662D01*
X86157752Y-196042851D01*
X62743172Y-104610713D01*
X68398230Y-104610713D01*
X68398230Y-112305283D01*
X68403457Y-112378370D01*
X68424478Y-112449959D01*
X68444634Y-112518605D01*
X68523653Y-112641560D01*
X68634111Y-112737273D01*
X68767060Y-112797989D01*
X68911730Y-112818789D01*
X68911733Y-112818789D01*
X103808264Y-112818789D01*
X103808270Y-112818789D01*
X103881349Y-112813562D01*
X104021586Y-112772385D01*
X104144541Y-112693366D01*
X104240254Y-112582908D01*
X104300970Y-112449959D01*
X104321770Y-112305289D01*
X104321770Y-104610711D01*
X104316543Y-104537632D01*
X104275366Y-104397395D01*
X104196347Y-104274440D01*
X104085889Y-104178727D01*
X103952940Y-104118011D01*
X103808270Y-104097211D01*
X68911730Y-104097211D01*
X68863010Y-104100695D01*
X68838648Y-104102438D01*
X68698416Y-104143614D01*
X68698412Y-104143616D01*
X68575459Y-104222633D01*
X68479746Y-104333091D01*
X68419030Y-104466040D01*
X68398230Y-104610713D01*
X62743172Y-104610713D01*
X61614022Y-100201467D01*
X66722100Y-100201467D01*
X66722100Y-100434532D01*
X66752518Y-100665588D01*
X66752520Y-100665595D01*
X66812840Y-100890714D01*
X66902028Y-101106032D01*
X66902029Y-101106033D01*
X66902034Y-101106044D01*
X67018555Y-101307864D01*
X67018560Y-101307871D01*
X67160428Y-101492757D01*
X67160447Y-101492778D01*
X67325221Y-101657552D01*
X67325242Y-101657571D01*
X67510128Y-101799439D01*
X67510135Y-101799444D01*
X67711955Y-101915965D01*
X67711959Y-101915966D01*
X67711968Y-101915972D01*
X67927286Y-102005160D01*
X68152405Y-102065480D01*
X68152409Y-102065480D01*
X68152411Y-102065481D01*
X68211962Y-102073320D01*
X68383470Y-102095900D01*
X68383477Y-102095900D01*
X68616523Y-102095900D01*
X68616530Y-102095900D01*
X68825353Y-102068408D01*
X68847588Y-102065481D01*
X68847588Y-102065480D01*
X68847595Y-102065480D01*
X69072714Y-102005160D01*
X69288032Y-101915972D01*
X69489868Y-101799442D01*
X69674766Y-101657564D01*
X69839564Y-101492766D01*
X69981442Y-101307868D01*
X70097972Y-101106032D01*
X70187160Y-100890714D01*
X70247480Y-100665595D01*
X70277900Y-100434530D01*
X70277900Y-100201470D01*
X70277900Y-100201467D01*
X102222100Y-100201467D01*
X102222100Y-100434532D01*
X102252518Y-100665588D01*
X102252520Y-100665595D01*
X102312840Y-100890714D01*
X102402028Y-101106032D01*
X102402029Y-101106033D01*
X102402034Y-101106044D01*
X102518555Y-101307864D01*
X102518560Y-101307871D01*
X102660428Y-101492757D01*
X102660447Y-101492778D01*
X102825221Y-101657552D01*
X102825242Y-101657571D01*
X103010128Y-101799439D01*
X103010135Y-101799444D01*
X103211955Y-101915965D01*
X103211959Y-101915966D01*
X103211968Y-101915972D01*
X103427286Y-102005160D01*
X103652405Y-102065480D01*
X103652409Y-102065480D01*
X103652411Y-102065481D01*
X103711962Y-102073320D01*
X103883470Y-102095900D01*
X103883477Y-102095900D01*
X104116523Y-102095900D01*
X104116530Y-102095900D01*
X104325353Y-102068408D01*
X104347588Y-102065481D01*
X104347588Y-102065480D01*
X104347595Y-102065480D01*
X104572714Y-102005160D01*
X104788032Y-101915972D01*
X104989868Y-101799442D01*
X105174766Y-101657564D01*
X105339564Y-101492766D01*
X105481442Y-101307868D01*
X105597972Y-101106032D01*
X105687160Y-100890714D01*
X105747480Y-100665595D01*
X105777900Y-100434530D01*
X105777900Y-100201470D01*
X105747480Y-99970405D01*
X105687160Y-99745286D01*
X105597972Y-99529968D01*
X105597966Y-99529959D01*
X105597965Y-99529955D01*
X105481444Y-99328135D01*
X105481439Y-99328128D01*
X105339571Y-99143242D01*
X105339552Y-99143221D01*
X105174778Y-98978447D01*
X105174757Y-98978428D01*
X104989871Y-98836560D01*
X104989864Y-98836555D01*
X104788044Y-98720034D01*
X104788036Y-98720030D01*
X104788032Y-98720028D01*
X104572714Y-98630840D01*
X104347595Y-98570520D01*
X104347588Y-98570518D01*
X104116532Y-98540100D01*
X104116530Y-98540100D01*
X103883470Y-98540100D01*
X103883467Y-98540100D01*
X103652411Y-98570518D01*
X103427286Y-98630840D01*
X103211966Y-98720029D01*
X103211955Y-98720034D01*
X103010135Y-98836555D01*
X103010128Y-98836560D01*
X102825242Y-98978428D01*
X102825221Y-98978447D01*
X102660447Y-99143221D01*
X102660428Y-99143242D01*
X102518560Y-99328128D01*
X102518555Y-99328135D01*
X102402034Y-99529955D01*
X102402029Y-99529966D01*
X102312840Y-99745286D01*
X102252518Y-99970411D01*
X102222100Y-100201467D01*
X70277900Y-100201467D01*
X70247480Y-99970405D01*
X70187160Y-99745286D01*
X70097972Y-99529968D01*
X70097966Y-99529959D01*
X70097965Y-99529955D01*
X69981444Y-99328135D01*
X69981439Y-99328128D01*
X69839571Y-99143242D01*
X69839552Y-99143221D01*
X69674778Y-98978447D01*
X69674757Y-98978428D01*
X69489871Y-98836560D01*
X69489864Y-98836555D01*
X69288044Y-98720034D01*
X69288036Y-98720030D01*
X69288032Y-98720028D01*
X69072714Y-98630840D01*
X68847595Y-98570520D01*
X68847588Y-98570518D01*
X68616532Y-98540100D01*
X68616530Y-98540100D01*
X68383470Y-98540100D01*
X68383467Y-98540100D01*
X68152411Y-98570518D01*
X67927286Y-98630840D01*
X67711966Y-98720029D01*
X67711955Y-98720034D01*
X67510135Y-98836555D01*
X67510128Y-98836560D01*
X67325242Y-98978428D01*
X67325221Y-98978447D01*
X67160447Y-99143221D01*
X67160428Y-99143242D01*
X67018560Y-99328128D01*
X67018555Y-99328135D01*
X66902034Y-99529955D01*
X66902029Y-99529966D01*
X66812840Y-99745286D01*
X66752518Y-99970411D01*
X66722100Y-100201467D01*
X61614022Y-100201467D01*
X57615877Y-84589019D01*
X85089500Y-84589019D01*
X85089500Y-84609464D01*
X85089500Y-84828981D01*
X85117186Y-85003784D01*
X85127039Y-85065993D01*
X85166585Y-85187703D01*
X85201190Y-85294205D01*
X85201191Y-85294206D01*
X85310132Y-85508015D01*
X85406499Y-85640652D01*
X85451177Y-85702145D01*
X85451179Y-85702147D01*
X85451181Y-85702150D01*
X85620849Y-85871818D01*
X85620852Y-85871820D01*
X85620855Y-85871823D01*
X85713094Y-85938838D01*
X85814984Y-86012867D01*
X85814988Y-86012869D01*
X86028795Y-86121810D01*
X86257012Y-86195962D01*
X86494019Y-86233500D01*
X86494022Y-86233500D01*
X86733978Y-86233500D01*
X86733981Y-86233500D01*
X86970988Y-86195962D01*
X87199205Y-86121810D01*
X87413012Y-86012869D01*
X87607145Y-85871823D01*
X87776823Y-85702145D01*
X87917869Y-85508012D01*
X88026810Y-85294205D01*
X88100962Y-85065988D01*
X88138500Y-84828981D01*
X88138500Y-84589019D01*
X88100962Y-84352012D01*
X88026810Y-84123795D01*
X87917869Y-83909988D01*
X87917867Y-83909984D01*
X87843838Y-83808094D01*
X87776823Y-83715855D01*
X87776820Y-83715852D01*
X87776818Y-83715849D01*
X87607150Y-83546181D01*
X87607147Y-83546179D01*
X87607145Y-83546177D01*
X87545652Y-83501499D01*
X87413015Y-83405132D01*
X87302111Y-83348624D01*
X87199205Y-83296190D01*
X87199202Y-83296189D01*
X87199200Y-83296188D01*
X86970993Y-83222039D01*
X86970989Y-83222038D01*
X86970988Y-83222038D01*
X86733981Y-83184500D01*
X86494019Y-83184500D01*
X86257012Y-83222038D01*
X86257006Y-83222039D01*
X86028799Y-83296188D01*
X86028793Y-83296191D01*
X85814984Y-83405132D01*
X85620852Y-83546179D01*
X85620849Y-83546181D01*
X85451181Y-83715849D01*
X85451179Y-83715852D01*
X85310132Y-83909984D01*
X85201191Y-84123793D01*
X85201188Y-84123799D01*
X85127039Y-84352006D01*
X85127038Y-84352011D01*
X85127038Y-84352012D01*
X85089500Y-84589019D01*
X57615877Y-84589019D01*
X56842930Y-81570719D01*
X56837772Y-81534407D01*
X56830465Y-81522045D01*
X56826906Y-81508145D01*
X56809050Y-81484333D01*
X56801396Y-81472865D01*
X56786255Y-81447247D01*
X56774778Y-81438625D01*
X56766167Y-81427141D01*
X56734617Y-81408455D01*
X56598712Y-81306361D01*
X56419532Y-81171758D01*
X56411741Y-81165404D01*
X56051230Y-80846593D01*
X56045169Y-80840863D01*
X55632491Y-80423919D01*
X55627708Y-80418810D01*
X55159457Y-79889862D01*
X55155641Y-79885341D01*
X54971844Y-79656959D01*
X54628381Y-79230180D01*
X54625314Y-79226210D01*
X54035772Y-78430575D01*
X54033259Y-78427059D01*
X53378823Y-77477423D01*
X53376744Y-77474308D01*
X52655677Y-76358398D01*
X52653994Y-76355718D01*
X51866113Y-75063837D01*
X51864629Y-75061338D01*
X51710577Y-74795116D01*
X78892100Y-74795116D01*
X78892100Y-75024903D01*
X78922091Y-75252710D01*
X78922092Y-75252716D01*
X78922093Y-75252718D01*
X78981565Y-75474670D01*
X79069499Y-75686961D01*
X79069500Y-75686962D01*
X79069505Y-75686973D01*
X79184387Y-75885955D01*
X79184389Y-75885958D01*
X79184390Y-75885959D01*
X79324272Y-76068257D01*
X79324276Y-76068261D01*
X79324281Y-76068267D01*
X79486742Y-76230728D01*
X79486747Y-76230732D01*
X79486753Y-76230738D01*
X79649568Y-76355670D01*
X79669054Y-76370622D01*
X79868036Y-76485504D01*
X79868040Y-76485505D01*
X79868049Y-76485511D01*
X80080340Y-76573445D01*
X80302292Y-76632917D01*
X80302298Y-76632917D01*
X80302299Y-76632918D01*
X80328438Y-76636359D01*
X80530109Y-76662910D01*
X80530116Y-76662910D01*
X80759884Y-76662910D01*
X80759891Y-76662910D01*
X80987708Y-76632917D01*
X81209660Y-76573445D01*
X81421951Y-76485511D01*
X81620949Y-76370620D01*
X81803247Y-76230738D01*
X81965728Y-76068257D01*
X82105610Y-75885959D01*
X82220501Y-75686961D01*
X82308435Y-75474670D01*
X82367907Y-75252718D01*
X82397900Y-75024901D01*
X82397900Y-74795119D01*
X82397900Y-74795116D01*
X90322100Y-74795116D01*
X90322100Y-75024903D01*
X90352091Y-75252710D01*
X90352092Y-75252716D01*
X90352093Y-75252718D01*
X90411565Y-75474670D01*
X90499499Y-75686961D01*
X90499500Y-75686962D01*
X90499505Y-75686973D01*
X90614387Y-75885955D01*
X90614389Y-75885958D01*
X90614390Y-75885959D01*
X90754272Y-76068257D01*
X90754276Y-76068261D01*
X90754281Y-76068267D01*
X90916742Y-76230728D01*
X90916747Y-76230732D01*
X90916753Y-76230738D01*
X91079568Y-76355670D01*
X91099054Y-76370622D01*
X91298036Y-76485504D01*
X91298040Y-76485505D01*
X91298049Y-76485511D01*
X91510340Y-76573445D01*
X91732292Y-76632917D01*
X91732298Y-76632917D01*
X91732299Y-76632918D01*
X91758438Y-76636359D01*
X91960109Y-76662910D01*
X91960116Y-76662910D01*
X92189884Y-76662910D01*
X92189891Y-76662910D01*
X92417708Y-76632917D01*
X92639660Y-76573445D01*
X92851951Y-76485511D01*
X93050949Y-76370620D01*
X93233247Y-76230738D01*
X93395728Y-76068257D01*
X93535610Y-75885959D01*
X93650501Y-75686961D01*
X93738435Y-75474670D01*
X93797907Y-75252718D01*
X93827900Y-75024901D01*
X93827900Y-74795119D01*
X93797907Y-74567302D01*
X93738435Y-74345350D01*
X93650501Y-74133059D01*
X93650495Y-74133050D01*
X93650494Y-74133046D01*
X93535612Y-73934064D01*
X93461684Y-73837719D01*
X93395728Y-73751763D01*
X93395722Y-73751757D01*
X93395718Y-73751752D01*
X93233257Y-73589291D01*
X93233251Y-73589286D01*
X93233247Y-73589282D01*
X93050949Y-73449400D01*
X93050948Y-73449399D01*
X93050945Y-73449397D01*
X92851963Y-73334515D01*
X92851955Y-73334511D01*
X92851951Y-73334509D01*
X92639660Y-73246575D01*
X92417708Y-73187103D01*
X92417706Y-73187102D01*
X92417700Y-73187101D01*
X92189893Y-73157110D01*
X92189891Y-73157110D01*
X91960109Y-73157110D01*
X91960106Y-73157110D01*
X91732299Y-73187101D01*
X91510344Y-73246574D01*
X91510340Y-73246575D01*
X91298047Y-73334510D01*
X91298036Y-73334515D01*
X91099054Y-73449397D01*
X90916753Y-73589282D01*
X90916742Y-73589291D01*
X90754281Y-73751752D01*
X90754272Y-73751763D01*
X90614387Y-73934064D01*
X90499505Y-74133046D01*
X90499500Y-74133057D01*
X90411565Y-74345350D01*
X90411564Y-74345354D01*
X90352091Y-74567309D01*
X90322100Y-74795116D01*
X82397900Y-74795116D01*
X82367907Y-74567302D01*
X82308435Y-74345350D01*
X82220501Y-74133059D01*
X82220495Y-74133050D01*
X82220494Y-74133046D01*
X82105612Y-73934064D01*
X82031684Y-73837719D01*
X81965728Y-73751763D01*
X81965722Y-73751757D01*
X81965718Y-73751752D01*
X81803257Y-73589291D01*
X81803251Y-73589286D01*
X81803247Y-73589282D01*
X81620949Y-73449400D01*
X81620948Y-73449399D01*
X81620945Y-73449397D01*
X81421963Y-73334515D01*
X81421955Y-73334511D01*
X81421951Y-73334509D01*
X81209660Y-73246575D01*
X80987708Y-73187103D01*
X80987706Y-73187102D01*
X80987700Y-73187101D01*
X80759893Y-73157110D01*
X80759891Y-73157110D01*
X80530109Y-73157110D01*
X80530106Y-73157110D01*
X80302299Y-73187101D01*
X80080344Y-73246574D01*
X80080340Y-73246575D01*
X79868047Y-73334510D01*
X79868036Y-73334515D01*
X79669054Y-73449397D01*
X79486753Y-73589282D01*
X79486742Y-73589291D01*
X79324281Y-73751752D01*
X79324272Y-73751763D01*
X79184387Y-73934064D01*
X79069505Y-74133046D01*
X79069500Y-74133057D01*
X78981565Y-74345350D01*
X78981564Y-74345354D01*
X78922091Y-74567309D01*
X78892100Y-74795116D01*
X51710577Y-74795116D01*
X51012295Y-73588390D01*
X51011071Y-73586223D01*
X50099986Y-71933691D01*
X50098867Y-71931617D01*
X50061240Y-71860208D01*
X49139777Y-70111429D01*
X49138759Y-70109455D01*
X48887458Y-69611441D01*
X48149088Y-68148182D01*
X48148162Y-68146308D01*
X48108988Y-68065306D01*
X47153977Y-66090591D01*
X47153131Y-66088804D01*
X46308485Y-64265061D01*
X46189932Y-64009083D01*
X46189255Y-64007598D01*
X45824145Y-63191708D01*
X45732233Y-62986318D01*
X45731789Y-62985311D01*
X45449382Y-62338584D01*
X45301468Y-61999853D01*
X45301015Y-61998801D01*
X45189642Y-61737099D01*
X44917540Y-61097720D01*
X44917262Y-61097060D01*
X44907021Y-61072543D01*
X44846804Y-60928379D01*
X46524611Y-60928379D01*
X46524611Y-60928381D01*
X46529026Y-61029531D01*
X46612607Y-61208771D01*
X49064735Y-66467376D01*
X49064736Y-66467378D01*
X49107525Y-66559138D01*
X49182171Y-66627540D01*
X49182172Y-66627540D01*
X49182173Y-66627541D01*
X49277309Y-66662167D01*
X49277312Y-66662168D01*
X49378462Y-66657752D01*
X52189148Y-65347107D01*
X52257550Y-65272460D01*
X52286301Y-65193467D01*
X61732100Y-65193467D01*
X61732100Y-65426532D01*
X61762518Y-65657588D01*
X61762520Y-65657595D01*
X61822840Y-65882714D01*
X61912028Y-66098032D01*
X61912029Y-66098033D01*
X61912034Y-66098044D01*
X62028555Y-66299864D01*
X62028560Y-66299871D01*
X62170428Y-66484757D01*
X62170447Y-66484778D01*
X62335221Y-66649552D01*
X62335242Y-66649571D01*
X62520128Y-66791439D01*
X62520135Y-66791444D01*
X62721955Y-66907965D01*
X62721959Y-66907966D01*
X62721968Y-66907972D01*
X62937286Y-66997160D01*
X63162405Y-67057480D01*
X63162409Y-67057480D01*
X63162411Y-67057481D01*
X63221962Y-67065320D01*
X63393470Y-67087900D01*
X63393477Y-67087900D01*
X63626523Y-67087900D01*
X63626530Y-67087900D01*
X63835353Y-67060408D01*
X63857588Y-67057481D01*
X63857588Y-67057480D01*
X63857595Y-67057480D01*
X64082714Y-66997160D01*
X64298032Y-66907972D01*
X64499868Y-66791442D01*
X64684766Y-66649564D01*
X64849564Y-66484766D01*
X64991442Y-66299868D01*
X65107972Y-66098032D01*
X65197160Y-65882714D01*
X65257480Y-65657595D01*
X65287900Y-65426530D01*
X65287900Y-65193470D01*
X65287900Y-65193467D01*
X71892100Y-65193467D01*
X71892100Y-65426532D01*
X71922518Y-65657588D01*
X71922520Y-65657595D01*
X71982840Y-65882714D01*
X72072028Y-66098032D01*
X72072029Y-66098033D01*
X72072034Y-66098044D01*
X72188555Y-66299864D01*
X72188560Y-66299871D01*
X72330428Y-66484757D01*
X72330447Y-66484778D01*
X72495221Y-66649552D01*
X72495242Y-66649571D01*
X72680128Y-66791439D01*
X72680135Y-66791444D01*
X72881955Y-66907965D01*
X72881959Y-66907966D01*
X72881968Y-66907972D01*
X73097286Y-66997160D01*
X73322405Y-67057480D01*
X73322409Y-67057480D01*
X73322411Y-67057481D01*
X73381962Y-67065320D01*
X73553470Y-67087900D01*
X73553477Y-67087900D01*
X73786523Y-67087900D01*
X73786530Y-67087900D01*
X73995353Y-67060408D01*
X74017588Y-67057481D01*
X74017588Y-67057480D01*
X74017595Y-67057480D01*
X74242714Y-66997160D01*
X74458032Y-66907972D01*
X74659868Y-66791442D01*
X74844766Y-66649564D01*
X75009564Y-66484766D01*
X75151442Y-66299868D01*
X75254732Y-66120964D01*
X80656500Y-66120964D01*
X80656500Y-66319056D01*
X80687488Y-66514710D01*
X80748702Y-66703107D01*
X80838634Y-66879608D01*
X80838636Y-66879611D01*
X80955071Y-67039870D01*
X81095139Y-67179938D01*
X81095142Y-67179940D01*
X81255402Y-67296376D01*
X81431903Y-67386308D01*
X81620300Y-67447522D01*
X81815954Y-67478510D01*
X81815957Y-67478510D01*
X82018996Y-67478510D01*
X82018996Y-67479888D01*
X82082346Y-67493179D01*
X82132919Y-67543008D01*
X82148524Y-67612268D01*
X82124721Y-67678268D01*
X82108636Y-67700408D01*
X82108634Y-67700412D01*
X82018702Y-67876913D01*
X81957488Y-68065310D01*
X81926500Y-68260964D01*
X81926500Y-68459056D01*
X81957488Y-68654710D01*
X82018702Y-68843107D01*
X82099440Y-69001563D01*
X82108636Y-69019611D01*
X82225071Y-69179870D01*
X82365139Y-69319938D01*
X82365142Y-69319940D01*
X82525402Y-69436376D01*
X82701903Y-69526308D01*
X82890300Y-69587522D01*
X83085954Y-69618510D01*
X83085957Y-69618510D01*
X83284043Y-69618510D01*
X83284046Y-69618510D01*
X83479700Y-69587522D01*
X83668097Y-69526308D01*
X83844598Y-69436376D01*
X84004858Y-69319940D01*
X84144930Y-69179868D01*
X84261366Y-69019608D01*
X84342734Y-68859912D01*
X84391481Y-68808300D01*
X84460396Y-68791234D01*
X84527598Y-68814135D01*
X84567264Y-68859912D01*
X84639440Y-69001563D01*
X84648636Y-69019611D01*
X84765071Y-69179870D01*
X84905139Y-69319938D01*
X84905142Y-69319940D01*
X85065402Y-69436376D01*
X85241903Y-69526308D01*
X85430300Y-69587522D01*
X85625954Y-69618510D01*
X85625957Y-69618510D01*
X85824043Y-69618510D01*
X85824046Y-69618510D01*
X86019700Y-69587522D01*
X86208097Y-69526308D01*
X86384598Y-69436376D01*
X86544858Y-69319940D01*
X86684930Y-69179868D01*
X86801366Y-69019608D01*
X86882734Y-68859912D01*
X86931481Y-68808300D01*
X87000396Y-68791234D01*
X87067598Y-68814135D01*
X87107264Y-68859912D01*
X87179440Y-69001563D01*
X87188636Y-69019611D01*
X87305071Y-69179870D01*
X87445139Y-69319938D01*
X87445142Y-69319940D01*
X87605402Y-69436376D01*
X87781903Y-69526308D01*
X87970300Y-69587522D01*
X88165954Y-69618510D01*
X88165957Y-69618510D01*
X88364043Y-69618510D01*
X88364046Y-69618510D01*
X88559700Y-69587522D01*
X88748097Y-69526308D01*
X88924598Y-69436376D01*
X89084858Y-69319940D01*
X89224930Y-69179868D01*
X89318564Y-69050991D01*
X89374786Y-69007638D01*
X89445523Y-69001563D01*
X89508314Y-69034695D01*
X89543226Y-69096515D01*
X89546500Y-69125053D01*
X89546500Y-69158659D01*
X89553009Y-69219206D01*
X89553011Y-69219214D01*
X89604110Y-69356212D01*
X89604112Y-69356217D01*
X89691738Y-69473271D01*
X89808792Y-69560897D01*
X89808794Y-69560898D01*
X89808796Y-69560899D01*
X89867875Y-69582934D01*
X89945795Y-69611998D01*
X89945803Y-69612000D01*
X90006350Y-69618509D01*
X90006355Y-69618509D01*
X90006362Y-69618510D01*
X90006368Y-69618510D01*
X91603632Y-69618510D01*
X91603638Y-69618510D01*
X91603645Y-69618509D01*
X91603649Y-69618509D01*
X91664196Y-69612000D01*
X91664199Y-69611999D01*
X91664201Y-69611999D01*
X91801204Y-69560899D01*
X91847414Y-69526307D01*
X91918261Y-69473271D01*
X92005887Y-69356217D01*
X92005887Y-69356216D01*
X92005889Y-69356214D01*
X92056989Y-69219211D01*
X92061219Y-69179870D01*
X92063499Y-69158659D01*
X92063500Y-69158642D01*
X92063500Y-67561377D01*
X92063499Y-67561360D01*
X92056990Y-67500813D01*
X92056988Y-67500805D01*
X92027924Y-67422885D01*
X92005889Y-67363806D01*
X92005888Y-67363804D01*
X92005887Y-67363802D01*
X91918261Y-67246748D01*
X91801207Y-67159122D01*
X91801202Y-67159120D01*
X91664204Y-67108021D01*
X91664196Y-67108019D01*
X91603649Y-67101510D01*
X91603638Y-67101510D01*
X90697434Y-67101510D01*
X90629313Y-67081508D01*
X90582820Y-67027852D01*
X90572716Y-66957578D01*
X90595497Y-66901450D01*
X90599459Y-66895996D01*
X90611366Y-66879608D01*
X90701298Y-66703107D01*
X90762512Y-66514710D01*
X90793500Y-66319056D01*
X90793500Y-66120964D01*
X90762512Y-65925310D01*
X90701298Y-65736913D01*
X90611366Y-65560412D01*
X90537708Y-65459031D01*
X90494928Y-65400149D01*
X90354860Y-65260081D01*
X90263174Y-65193467D01*
X97292100Y-65193467D01*
X97292100Y-65426532D01*
X97322518Y-65657588D01*
X97322520Y-65657595D01*
X97382840Y-65882714D01*
X97472028Y-66098032D01*
X97472029Y-66098033D01*
X97472034Y-66098044D01*
X97588555Y-66299864D01*
X97588560Y-66299871D01*
X97730428Y-66484757D01*
X97730447Y-66484778D01*
X97895221Y-66649552D01*
X97895242Y-66649571D01*
X98080128Y-66791439D01*
X98080135Y-66791444D01*
X98281955Y-66907965D01*
X98281959Y-66907966D01*
X98281968Y-66907972D01*
X98497286Y-66997160D01*
X98722405Y-67057480D01*
X98722409Y-67057480D01*
X98722411Y-67057481D01*
X98781962Y-67065320D01*
X98953470Y-67087900D01*
X98953477Y-67087900D01*
X99186523Y-67087900D01*
X99186530Y-67087900D01*
X99395353Y-67060408D01*
X99417588Y-67057481D01*
X99417588Y-67057480D01*
X99417595Y-67057480D01*
X99642714Y-66997160D01*
X99858032Y-66907972D01*
X100059868Y-66791442D01*
X100244766Y-66649564D01*
X100409564Y-66484766D01*
X100551442Y-66299868D01*
X100667972Y-66098032D01*
X100757160Y-65882714D01*
X100817480Y-65657595D01*
X100847900Y-65426530D01*
X100847900Y-65193470D01*
X100847900Y-65193467D01*
X107452100Y-65193467D01*
X107452100Y-65426532D01*
X107482518Y-65657588D01*
X107482520Y-65657595D01*
X107542840Y-65882714D01*
X107632028Y-66098032D01*
X107632029Y-66098033D01*
X107632034Y-66098044D01*
X107748555Y-66299864D01*
X107748560Y-66299871D01*
X107890428Y-66484757D01*
X107890447Y-66484778D01*
X108055221Y-66649552D01*
X108055242Y-66649571D01*
X108240128Y-66791439D01*
X108240135Y-66791444D01*
X108441955Y-66907965D01*
X108441959Y-66907966D01*
X108441968Y-66907972D01*
X108657286Y-66997160D01*
X108882405Y-67057480D01*
X108882409Y-67057480D01*
X108882411Y-67057481D01*
X108941962Y-67065320D01*
X109113470Y-67087900D01*
X109113477Y-67087900D01*
X109346523Y-67087900D01*
X109346530Y-67087900D01*
X109555353Y-67060408D01*
X109577588Y-67057481D01*
X109577588Y-67057480D01*
X109577595Y-67057480D01*
X109802714Y-66997160D01*
X110018032Y-66907972D01*
X110219868Y-66791442D01*
X110404766Y-66649564D01*
X110569564Y-66484766D01*
X110711442Y-66299868D01*
X110827972Y-66098032D01*
X110917160Y-65882714D01*
X110977480Y-65657595D01*
X111007900Y-65426530D01*
X111007900Y-65193470D01*
X111007792Y-65192652D01*
X119649403Y-65192652D01*
X119649403Y-65293900D01*
X119688147Y-65387437D01*
X119688147Y-65387438D01*
X119688148Y-65387439D01*
X119759741Y-65459031D01*
X122624921Y-66645827D01*
X122726169Y-66645827D01*
X122819708Y-66607082D01*
X122891300Y-66535489D01*
X125226141Y-60898677D01*
X125226141Y-60797430D01*
X125187396Y-60703890D01*
X125115803Y-60632298D01*
X125115802Y-60632297D01*
X125022264Y-60593553D01*
X122250624Y-59445500D01*
X122250623Y-59445500D01*
X122149377Y-59445499D01*
X122149376Y-59445499D01*
X122055839Y-59484243D01*
X122055838Y-59484244D01*
X121984245Y-59555836D01*
X121984244Y-59555837D01*
X120831595Y-62338584D01*
X119697652Y-65076170D01*
X119688148Y-65099114D01*
X119649403Y-65192652D01*
X111007792Y-65192652D01*
X110977480Y-64962405D01*
X110917160Y-64737286D01*
X110827972Y-64521968D01*
X110827966Y-64521959D01*
X110827965Y-64521955D01*
X110711444Y-64320135D01*
X110711439Y-64320128D01*
X110569571Y-64135242D01*
X110569552Y-64135221D01*
X110404778Y-63970447D01*
X110404757Y-63970428D01*
X110219871Y-63828560D01*
X110219864Y-63828555D01*
X110018044Y-63712034D01*
X110018036Y-63712030D01*
X110018032Y-63712028D01*
X109802714Y-63622840D01*
X109577595Y-63562520D01*
X109577588Y-63562518D01*
X109346532Y-63532100D01*
X109346530Y-63532100D01*
X109113470Y-63532100D01*
X109113467Y-63532100D01*
X108882411Y-63562518D01*
X108657286Y-63622840D01*
X108538206Y-63672165D01*
X108441966Y-63712029D01*
X108441955Y-63712034D01*
X108240135Y-63828555D01*
X108240128Y-63828560D01*
X108055242Y-63970428D01*
X108055221Y-63970447D01*
X107890447Y-64135221D01*
X107890428Y-64135242D01*
X107748560Y-64320128D01*
X107748555Y-64320135D01*
X107632034Y-64521955D01*
X107632029Y-64521966D01*
X107542840Y-64737286D01*
X107482518Y-64962411D01*
X107452100Y-65193467D01*
X100847900Y-65193467D01*
X100817480Y-64962405D01*
X100757160Y-64737286D01*
X100667972Y-64521968D01*
X100667966Y-64521959D01*
X100667965Y-64521955D01*
X100551444Y-64320135D01*
X100551439Y-64320128D01*
X100409571Y-64135242D01*
X100409552Y-64135221D01*
X100244778Y-63970447D01*
X100244757Y-63970428D01*
X100059871Y-63828560D01*
X100059864Y-63828555D01*
X99858044Y-63712034D01*
X99858036Y-63712030D01*
X99858032Y-63712028D01*
X99642714Y-63622840D01*
X99417595Y-63562520D01*
X99417588Y-63562518D01*
X99186532Y-63532100D01*
X99186530Y-63532100D01*
X98953470Y-63532100D01*
X98953467Y-63532100D01*
X98722411Y-63562518D01*
X98497286Y-63622840D01*
X98378206Y-63672165D01*
X98281966Y-63712029D01*
X98281955Y-63712034D01*
X98080135Y-63828555D01*
X98080128Y-63828560D01*
X97895242Y-63970428D01*
X97895221Y-63970447D01*
X97730447Y-64135221D01*
X97730428Y-64135242D01*
X97588560Y-64320128D01*
X97588555Y-64320135D01*
X97472034Y-64521955D01*
X97472029Y-64521966D01*
X97382840Y-64737286D01*
X97322518Y-64962411D01*
X97292100Y-65193467D01*
X90263174Y-65193467D01*
X90194601Y-65143646D01*
X90194600Y-65143645D01*
X90194598Y-65143644D01*
X90018097Y-65053712D01*
X89829700Y-64992498D01*
X89634046Y-64961510D01*
X89435954Y-64961510D01*
X89240300Y-64992498D01*
X89240297Y-64992498D01*
X89240296Y-64992499D01*
X89051903Y-65053712D01*
X89051901Y-65053713D01*
X88875398Y-65143646D01*
X88715139Y-65260081D01*
X88575071Y-65400149D01*
X88458636Y-65560408D01*
X88377267Y-65720104D01*
X88328519Y-65771719D01*
X88259604Y-65788785D01*
X88192402Y-65765884D01*
X88152733Y-65720104D01*
X88120883Y-65657595D01*
X88071366Y-65560412D01*
X87997708Y-65459031D01*
X87954928Y-65400149D01*
X87814860Y-65260081D01*
X87654601Y-65143646D01*
X87654600Y-65143645D01*
X87654598Y-65143644D01*
X87478097Y-65053712D01*
X87289700Y-64992498D01*
X87094046Y-64961510D01*
X86895954Y-64961510D01*
X86700300Y-64992498D01*
X86700297Y-64992498D01*
X86700296Y-64992499D01*
X86511903Y-65053712D01*
X86511901Y-65053713D01*
X86335398Y-65143646D01*
X86175139Y-65260081D01*
X86035071Y-65400149D01*
X85918636Y-65560408D01*
X85837267Y-65720104D01*
X85788519Y-65771719D01*
X85719604Y-65788785D01*
X85652402Y-65765884D01*
X85612733Y-65720104D01*
X85580883Y-65657595D01*
X85531366Y-65560412D01*
X85457708Y-65459031D01*
X85414928Y-65400149D01*
X85274860Y-65260081D01*
X85114601Y-65143646D01*
X85114600Y-65143645D01*
X85114598Y-65143644D01*
X84938097Y-65053712D01*
X84749700Y-64992498D01*
X84554046Y-64961510D01*
X84355954Y-64961510D01*
X84160300Y-64992498D01*
X84160297Y-64992498D01*
X84160296Y-64992499D01*
X83971903Y-65053712D01*
X83971901Y-65053713D01*
X83795398Y-65143646D01*
X83635139Y-65260081D01*
X83495071Y-65400149D01*
X83378636Y-65560408D01*
X83297267Y-65720104D01*
X83248519Y-65771719D01*
X83179604Y-65788785D01*
X83112402Y-65765884D01*
X83072733Y-65720104D01*
X83040883Y-65657595D01*
X82991366Y-65560412D01*
X82917708Y-65459031D01*
X82874928Y-65400149D01*
X82734860Y-65260081D01*
X82574601Y-65143646D01*
X82574600Y-65143645D01*
X82574598Y-65143644D01*
X82398097Y-65053712D01*
X82209700Y-64992498D01*
X82014046Y-64961510D01*
X81815954Y-64961510D01*
X81620300Y-64992498D01*
X81620297Y-64992498D01*
X81620296Y-64992499D01*
X81431903Y-65053712D01*
X81431901Y-65053713D01*
X81255398Y-65143646D01*
X81095139Y-65260081D01*
X80955071Y-65400149D01*
X80838636Y-65560408D01*
X80748703Y-65736911D01*
X80748702Y-65736913D01*
X80701329Y-65882713D01*
X80687488Y-65925310D01*
X80656500Y-66120964D01*
X75254732Y-66120964D01*
X75267972Y-66098032D01*
X75357160Y-65882714D01*
X75417480Y-65657595D01*
X75447900Y-65426530D01*
X75447900Y-65193470D01*
X75417480Y-64962405D01*
X75357160Y-64737286D01*
X75267972Y-64521968D01*
X75267966Y-64521959D01*
X75267965Y-64521955D01*
X75151444Y-64320135D01*
X75151439Y-64320128D01*
X75009571Y-64135242D01*
X75009552Y-64135221D01*
X74844778Y-63970447D01*
X74844757Y-63970428D01*
X74659871Y-63828560D01*
X74659864Y-63828555D01*
X74458044Y-63712034D01*
X74458036Y-63712030D01*
X74458032Y-63712028D01*
X74242714Y-63622840D01*
X74017595Y-63562520D01*
X74017588Y-63562518D01*
X73786532Y-63532100D01*
X73786530Y-63532100D01*
X73553470Y-63532100D01*
X73553467Y-63532100D01*
X73322411Y-63562518D01*
X73097286Y-63622840D01*
X72978206Y-63672165D01*
X72881966Y-63712029D01*
X72881955Y-63712034D01*
X72680135Y-63828555D01*
X72680128Y-63828560D01*
X72495242Y-63970428D01*
X72495221Y-63970447D01*
X72330447Y-64135221D01*
X72330428Y-64135242D01*
X72188560Y-64320128D01*
X72188555Y-64320135D01*
X72072034Y-64521955D01*
X72072029Y-64521966D01*
X71982840Y-64737286D01*
X71922518Y-64962411D01*
X71892100Y-65193467D01*
X65287900Y-65193467D01*
X65257480Y-64962405D01*
X65197160Y-64737286D01*
X65107972Y-64521968D01*
X65107966Y-64521959D01*
X65107965Y-64521955D01*
X64991444Y-64320135D01*
X64991439Y-64320128D01*
X64849571Y-64135242D01*
X64849552Y-64135221D01*
X64684778Y-63970447D01*
X64684757Y-63970428D01*
X64499871Y-63828560D01*
X64499864Y-63828555D01*
X64298044Y-63712034D01*
X64298036Y-63712030D01*
X64298032Y-63712028D01*
X64082714Y-63622840D01*
X63857595Y-63562520D01*
X63857588Y-63562518D01*
X63626532Y-63532100D01*
X63626530Y-63532100D01*
X63393470Y-63532100D01*
X63393467Y-63532100D01*
X63162411Y-63562518D01*
X62937286Y-63622840D01*
X62818206Y-63672165D01*
X62721966Y-63712029D01*
X62721955Y-63712034D01*
X62520135Y-63828555D01*
X62520128Y-63828560D01*
X62335242Y-63970428D01*
X62335221Y-63970447D01*
X62170447Y-64135221D01*
X62170428Y-64135242D01*
X62028560Y-64320128D01*
X62028555Y-64320135D01*
X61912034Y-64521955D01*
X61912029Y-64521966D01*
X61822840Y-64737286D01*
X61762518Y-64962411D01*
X61732100Y-65193467D01*
X52286301Y-65193467D01*
X52292178Y-65177320D01*
X52287762Y-65076170D01*
X52244973Y-64984410D01*
X49752050Y-59638325D01*
X49752050Y-59638323D01*
X49709261Y-59546563D01*
X49634615Y-59478162D01*
X49634614Y-59478161D01*
X49634611Y-59478160D01*
X49539475Y-59443533D01*
X49539474Y-59443533D01*
X49534856Y-59443734D01*
X49438326Y-59447949D01*
X46627639Y-60758596D01*
X46603811Y-60784599D01*
X46603812Y-60784600D01*
X46559237Y-60833243D01*
X46524611Y-60928379D01*
X44846804Y-60928379D01*
X43823929Y-58479559D01*
X43823591Y-58478741D01*
X43821274Y-58473069D01*
X42598129Y-55478467D01*
X42597679Y-55477349D01*
X42121735Y-54279517D01*
X41964628Y-53884118D01*
X41964243Y-53883139D01*
X41936069Y-53810436D01*
X41332294Y-52252422D01*
X41331900Y-52251388D01*
X40793668Y-50818780D01*
X40712933Y-50603888D01*
X40712388Y-50602410D01*
X40520058Y-50070379D01*
X40117601Y-48957089D01*
X40117159Y-48955843D01*
X40094302Y-48890167D01*
X64131500Y-48890167D01*
X64131500Y-49089833D01*
X64162735Y-49287041D01*
X64162736Y-49287046D01*
X64220931Y-49466151D01*
X64224435Y-49476935D01*
X64315082Y-49654839D01*
X64315084Y-49654842D01*
X64432444Y-49816374D01*
X64573625Y-49957555D01*
X64573628Y-49957557D01*
X64735161Y-50074918D01*
X64913065Y-50165565D01*
X65102959Y-50227265D01*
X65300167Y-50258500D01*
X65300170Y-50258500D01*
X65499830Y-50258500D01*
X65499833Y-50258500D01*
X65697041Y-50227265D01*
X65886935Y-50165565D01*
X66064839Y-50074918D01*
X66226372Y-49957557D01*
X66367557Y-49816372D01*
X66484918Y-49654839D01*
X66557734Y-49511929D01*
X66606481Y-49460316D01*
X66675396Y-49443250D01*
X66742598Y-49466151D01*
X66782265Y-49511929D01*
X66855082Y-49654839D01*
X66855084Y-49654842D01*
X66972444Y-49816374D01*
X67113625Y-49957555D01*
X67113628Y-49957557D01*
X67275161Y-50074918D01*
X67453065Y-50165565D01*
X67642959Y-50227265D01*
X67840167Y-50258500D01*
X67840170Y-50258500D01*
X68039830Y-50258500D01*
X68039833Y-50258500D01*
X68237041Y-50227265D01*
X68291901Y-50209440D01*
X68307964Y-50204221D01*
X68336534Y-50203404D01*
X68364832Y-50199336D01*
X68371549Y-50202403D01*
X68378932Y-50202193D01*
X68403413Y-50216956D01*
X68429412Y-50228830D01*
X68433404Y-50235041D01*
X68439729Y-50238856D01*
X68452343Y-50264511D01*
X68467796Y-50288556D01*
X68469296Y-50298991D01*
X68471055Y-50302568D01*
X68472900Y-50324054D01*
X68472900Y-50433381D01*
X68452898Y-50501502D01*
X68420963Y-50535315D01*
X68383634Y-50562437D01*
X68383624Y-50562445D01*
X68242444Y-50703625D01*
X68125083Y-50865158D01*
X68052267Y-51008068D01*
X68003518Y-51059683D01*
X67934603Y-51076749D01*
X67867402Y-51053848D01*
X67827733Y-51008068D01*
X67808059Y-50969456D01*
X67754918Y-50865161D01*
X67725981Y-50825332D01*
X67637555Y-50703625D01*
X67496374Y-50562444D01*
X67334842Y-50445084D01*
X67334841Y-50445083D01*
X67334839Y-50445082D01*
X67156935Y-50354435D01*
X67156932Y-50354434D01*
X67156930Y-50354433D01*
X66967046Y-50292736D01*
X66967042Y-50292735D01*
X66967041Y-50292735D01*
X66769833Y-50261500D01*
X66570167Y-50261500D01*
X66394104Y-50289386D01*
X66372953Y-50292736D01*
X66183069Y-50354433D01*
X66183063Y-50354436D01*
X66005157Y-50445084D01*
X65843625Y-50562444D01*
X65702444Y-50703625D01*
X65585084Y-50865157D01*
X65494436Y-51043063D01*
X65494433Y-51043069D01*
X65432736Y-51232953D01*
X65432735Y-51232958D01*
X65432735Y-51232959D01*
X65401500Y-51430167D01*
X65401500Y-51629833D01*
X65418490Y-51737100D01*
X65432736Y-51827046D01*
X65483490Y-51983250D01*
X65494435Y-52016935D01*
X65585082Y-52194839D01*
X65585084Y-52194842D01*
X65702444Y-52356374D01*
X65843625Y-52497555D01*
X65843628Y-52497557D01*
X66005161Y-52614918D01*
X66183065Y-52705565D01*
X66372959Y-52767265D01*
X66570167Y-52798500D01*
X66570170Y-52798500D01*
X66769830Y-52798500D01*
X66769833Y-52798500D01*
X66967041Y-52767265D01*
X67156935Y-52705565D01*
X67334839Y-52614918D01*
X67496372Y-52497557D01*
X67637557Y-52356372D01*
X67754918Y-52194839D01*
X67827734Y-52051929D01*
X67876481Y-52000316D01*
X67945396Y-51983250D01*
X68012598Y-52006151D01*
X68052265Y-52051929D01*
X68125082Y-52194839D01*
X68125084Y-52194842D01*
X68242444Y-52356374D01*
X68383625Y-52497555D01*
X68383628Y-52497557D01*
X68545161Y-52614918D01*
X68723065Y-52705565D01*
X68912959Y-52767265D01*
X69110167Y-52798500D01*
X69110170Y-52798500D01*
X69309830Y-52798500D01*
X69309833Y-52798500D01*
X69507041Y-52767265D01*
X69696935Y-52705565D01*
X69874839Y-52614918D01*
X70036372Y-52497557D01*
X70177557Y-52356372D01*
X70286127Y-52206937D01*
X70342348Y-52163585D01*
X70413084Y-52157510D01*
X70475876Y-52190641D01*
X70507666Y-52241367D01*
X70547883Y-52362734D01*
X70547884Y-52362736D01*
X70547885Y-52362738D01*
X70640970Y-52513652D01*
X70640975Y-52513658D01*
X70766341Y-52639024D01*
X70766347Y-52639029D01*
X70766348Y-52639030D01*
X70917262Y-52732115D01*
X71085574Y-52787887D01*
X71189455Y-52798500D01*
X72310544Y-52798499D01*
X72414426Y-52787887D01*
X72582738Y-52732115D01*
X72733652Y-52639030D01*
X72859030Y-52513652D01*
X72952115Y-52362738D01*
X73007887Y-52194426D01*
X73018500Y-52090545D01*
X73018499Y-50969456D01*
X73007887Y-50865574D01*
X72952115Y-50697262D01*
X72859030Y-50546348D01*
X72859029Y-50546347D01*
X72859024Y-50546341D01*
X72733658Y-50420975D01*
X72733652Y-50420970D01*
X72582738Y-50327885D01*
X72495540Y-50298991D01*
X72414427Y-50272113D01*
X72414420Y-50272112D01*
X72310553Y-50261500D01*
X71275817Y-50261500D01*
X71207696Y-50241498D01*
X71161203Y-50187842D01*
X71151099Y-50117568D01*
X71180593Y-50052988D01*
X71201754Y-50033566D01*
X71306372Y-49957557D01*
X71447557Y-49816372D01*
X71564918Y-49654839D01*
X71655565Y-49476935D01*
X71717265Y-49287041D01*
X71748500Y-49089833D01*
X71748500Y-48890167D01*
X71717265Y-48692959D01*
X71655565Y-48503065D01*
X71564918Y-48325161D01*
X71447557Y-48163628D01*
X71447555Y-48163625D01*
X71306374Y-48022444D01*
X71144842Y-47905084D01*
X71144841Y-47905083D01*
X71144839Y-47905082D01*
X70966935Y-47814435D01*
X70966932Y-47814434D01*
X70966930Y-47814433D01*
X70777046Y-47752736D01*
X70777042Y-47752735D01*
X70777041Y-47752735D01*
X70579833Y-47721500D01*
X70380167Y-47721500D01*
X70182959Y-47752735D01*
X70182953Y-47752736D01*
X70112036Y-47775779D01*
X70041068Y-47777807D01*
X69980271Y-47741144D01*
X69948945Y-47677432D01*
X69947100Y-47655946D01*
X69947100Y-42523467D01*
X71872100Y-42523467D01*
X71872100Y-42756532D01*
X71902518Y-42987588D01*
X71902520Y-42987595D01*
X71962840Y-43212714D01*
X72052028Y-43428032D01*
X72052029Y-43428033D01*
X72052034Y-43428044D01*
X72168555Y-43629864D01*
X72168560Y-43629871D01*
X72310428Y-43814757D01*
X72310447Y-43814778D01*
X72475221Y-43979552D01*
X72475242Y-43979571D01*
X72660128Y-44121439D01*
X72660135Y-44121444D01*
X72861955Y-44237965D01*
X72861959Y-44237966D01*
X72861968Y-44237972D01*
X73077286Y-44327160D01*
X73302405Y-44387480D01*
X73302409Y-44387480D01*
X73302411Y-44387481D01*
X73361962Y-44395320D01*
X73533470Y-44417900D01*
X73533477Y-44417900D01*
X73766523Y-44417900D01*
X73766530Y-44417900D01*
X73975353Y-44390408D01*
X73997588Y-44387481D01*
X73997588Y-44387480D01*
X73997595Y-44387480D01*
X74222714Y-44327160D01*
X74438032Y-44237972D01*
X74639868Y-44121442D01*
X74824766Y-43979564D01*
X74989564Y-43814766D01*
X75131442Y-43629868D01*
X75247972Y-43428032D01*
X75337160Y-43212714D01*
X75397480Y-42987595D01*
X75427900Y-42756530D01*
X75427900Y-42523470D01*
X75397480Y-42292405D01*
X75337160Y-42067286D01*
X75247972Y-41851968D01*
X75247966Y-41851959D01*
X75247965Y-41851955D01*
X75131444Y-41650135D01*
X75131439Y-41650128D01*
X74989571Y-41465242D01*
X74989552Y-41465221D01*
X74824778Y-41300447D01*
X74824757Y-41300428D01*
X74639871Y-41158560D01*
X74639864Y-41158555D01*
X74438044Y-41042034D01*
X74438036Y-41042030D01*
X74438032Y-41042028D01*
X74222714Y-40952840D01*
X73997595Y-40892520D01*
X73997588Y-40892518D01*
X73766532Y-40862100D01*
X73766530Y-40862100D01*
X73533470Y-40862100D01*
X73533467Y-40862100D01*
X73302411Y-40892518D01*
X73077286Y-40952840D01*
X72861966Y-41042029D01*
X72861955Y-41042034D01*
X72660135Y-41158555D01*
X72660128Y-41158560D01*
X72475242Y-41300428D01*
X72475221Y-41300447D01*
X72310447Y-41465221D01*
X72310428Y-41465242D01*
X72168560Y-41650128D01*
X72168555Y-41650135D01*
X72052034Y-41851955D01*
X72052029Y-41851966D01*
X72052028Y-41851968D01*
X72015616Y-41939874D01*
X71962840Y-42067286D01*
X71902518Y-42292411D01*
X71872100Y-42523467D01*
X69947100Y-42523467D01*
X69947100Y-37647507D01*
X69967102Y-37579386D01*
X69984005Y-37558412D01*
X70268412Y-37274005D01*
X70330724Y-37239979D01*
X70357507Y-37237100D01*
X79392493Y-37237100D01*
X79460614Y-37257102D01*
X79481588Y-37274005D01*
X82880120Y-40672538D01*
X82880126Y-40672543D01*
X83000852Y-40753210D01*
X83134996Y-40808774D01*
X83277402Y-40837100D01*
X83353383Y-40837100D01*
X83421504Y-40857102D01*
X83455319Y-40889039D01*
X83482444Y-40926374D01*
X83623625Y-41067555D01*
X83623628Y-41067557D01*
X83785161Y-41184918D01*
X83963065Y-41275565D01*
X84152959Y-41337265D01*
X84350167Y-41368500D01*
X84350170Y-41368500D01*
X84549830Y-41368500D01*
X84549833Y-41368500D01*
X84747041Y-41337265D01*
X84796104Y-41321323D01*
X84817964Y-41314221D01*
X84888932Y-41312193D01*
X84949729Y-41348856D01*
X84981055Y-41412568D01*
X84982900Y-41434054D01*
X84982900Y-41542598D01*
X85011226Y-41685004D01*
X85066790Y-41819148D01*
X85088720Y-41851968D01*
X85147456Y-41939873D01*
X85147461Y-41939879D01*
X88021813Y-44814230D01*
X88055839Y-44876542D01*
X88050774Y-44947357D01*
X88008227Y-45004193D01*
X87971655Y-45023158D01*
X87843250Y-45064879D01*
X87783065Y-45084435D01*
X87783063Y-45084435D01*
X87783063Y-45084436D01*
X87605157Y-45175084D01*
X87443625Y-45292444D01*
X87302444Y-45433625D01*
X87185083Y-45595158D01*
X87112267Y-45738068D01*
X87063518Y-45789683D01*
X86994603Y-45806749D01*
X86927402Y-45783848D01*
X86887733Y-45738068D01*
X86868059Y-45699456D01*
X86814918Y-45595161D01*
X86697557Y-45433628D01*
X86697555Y-45433625D01*
X86556375Y-45292445D01*
X86556365Y-45292437D01*
X86519037Y-45265315D01*
X86475684Y-45209092D01*
X86467100Y-45163381D01*
X86467100Y-44657403D01*
X86467099Y-44657399D01*
X86459700Y-44620201D01*
X86438774Y-44514996D01*
X86383210Y-44380852D01*
X86302543Y-44260126D01*
X86199874Y-44157457D01*
X85719874Y-43677457D01*
X85599148Y-43596790D01*
X85465004Y-43541226D01*
X85438927Y-43536039D01*
X85322600Y-43512900D01*
X85322598Y-43512900D01*
X82572598Y-43512900D01*
X82427402Y-43512900D01*
X82427399Y-43512900D01*
X82284995Y-43541226D01*
X82284990Y-43541228D01*
X82150852Y-43596790D01*
X82030126Y-43677456D01*
X82030120Y-43677461D01*
X78083150Y-47624433D01*
X76780126Y-48927457D01*
X76751851Y-48955732D01*
X76677456Y-49030126D01*
X76596790Y-49150852D01*
X76541228Y-49284990D01*
X76541226Y-49284995D01*
X76512900Y-49427399D01*
X76512900Y-53386900D01*
X76492898Y-53455021D01*
X76439242Y-53501514D01*
X76386900Y-53512900D01*
X68927399Y-53512900D01*
X68784995Y-53541226D01*
X68784990Y-53541228D01*
X68650852Y-53596790D01*
X68530126Y-53677456D01*
X68530120Y-53677461D01*
X67741932Y-54465651D01*
X67480126Y-54727457D01*
X67428791Y-54778792D01*
X67377456Y-54830126D01*
X67296790Y-54950852D01*
X67241228Y-55084990D01*
X67241226Y-55084995D01*
X67212900Y-55227399D01*
X67212900Y-55323381D01*
X67192898Y-55391502D01*
X67160963Y-55425315D01*
X67123634Y-55452437D01*
X67123624Y-55452445D01*
X66982448Y-55593621D01*
X66873873Y-55743061D01*
X66817650Y-55786414D01*
X66746914Y-55792489D01*
X66684122Y-55759357D01*
X66652332Y-55708632D01*
X66628146Y-55635642D01*
X66612115Y-55587262D01*
X66519030Y-55436348D01*
X66519029Y-55436347D01*
X66519024Y-55436341D01*
X66393658Y-55310975D01*
X66393652Y-55310970D01*
X66242738Y-55217885D01*
X66142898Y-55184802D01*
X66074427Y-55162113D01*
X66074420Y-55162112D01*
X65970553Y-55151500D01*
X64849455Y-55151500D01*
X64745574Y-55162112D01*
X64577261Y-55217885D01*
X64426347Y-55310970D01*
X64426341Y-55310975D01*
X64300975Y-55436341D01*
X64300970Y-55436347D01*
X64207885Y-55587262D01*
X64152113Y-55755572D01*
X64152112Y-55755579D01*
X64141500Y-55859446D01*
X64141500Y-56980544D01*
X64152112Y-57084425D01*
X64207885Y-57252738D01*
X64300970Y-57403652D01*
X64300975Y-57403658D01*
X64426341Y-57529024D01*
X64426347Y-57529029D01*
X64426348Y-57529030D01*
X64577262Y-57622115D01*
X64745574Y-57677887D01*
X64849455Y-57688500D01*
X65884182Y-57688499D01*
X65952303Y-57708501D01*
X65998796Y-57762157D01*
X66008900Y-57832431D01*
X65979407Y-57897011D01*
X65958244Y-57916435D01*
X65853621Y-57992448D01*
X65712444Y-58133625D01*
X65595084Y-58295157D01*
X65504436Y-58473063D01*
X65504433Y-58473069D01*
X65442736Y-58662953D01*
X65442735Y-58662958D01*
X65442735Y-58662959D01*
X65411500Y-58860167D01*
X65411500Y-59059833D01*
X65428762Y-59168820D01*
X65442736Y-59257046D01*
X65504433Y-59446930D01*
X65504435Y-59446935D01*
X65575753Y-59586903D01*
X65595084Y-59624842D01*
X65712444Y-59786374D01*
X65853625Y-59927555D01*
X65853628Y-59927557D01*
X66015161Y-60044918D01*
X66193065Y-60135565D01*
X66382959Y-60197265D01*
X66580167Y-60228500D01*
X66580170Y-60228500D01*
X66779830Y-60228500D01*
X66779833Y-60228500D01*
X66977041Y-60197265D01*
X67166935Y-60135565D01*
X67344839Y-60044918D01*
X67506372Y-59927557D01*
X67647557Y-59786372D01*
X67764918Y-59624839D01*
X67837734Y-59481929D01*
X67886481Y-59430316D01*
X67955396Y-59413250D01*
X68022598Y-59436151D01*
X68062265Y-59481929D01*
X68115753Y-59586903D01*
X68135084Y-59624842D01*
X68252444Y-59786374D01*
X68393622Y-59927552D01*
X68393625Y-59927554D01*
X68393628Y-59927557D01*
X68430962Y-59954682D01*
X68474314Y-60010901D01*
X68482900Y-60056616D01*
X68482900Y-60397402D01*
X68482900Y-60542598D01*
X68511226Y-60685004D01*
X68566790Y-60819148D01*
X68619930Y-60898677D01*
X68647456Y-60939873D01*
X68647461Y-60939879D01*
X69280120Y-61572538D01*
X69280126Y-61572543D01*
X69400852Y-61653210D01*
X69534996Y-61708774D01*
X69677402Y-61737100D01*
X69677403Y-61737100D01*
X77572597Y-61737100D01*
X77572598Y-61737100D01*
X77715004Y-61708774D01*
X77849148Y-61653210D01*
X77969874Y-61572543D01*
X79072543Y-60469874D01*
X79153210Y-60349148D01*
X79208774Y-60215004D01*
X79237100Y-60072598D01*
X79237100Y-59927402D01*
X79237100Y-55033467D01*
X79512100Y-55033467D01*
X79512100Y-55266532D01*
X79542518Y-55497588D01*
X79542520Y-55497595D01*
X79602840Y-55722714D01*
X79692028Y-55938032D01*
X79692029Y-55938033D01*
X79692034Y-55938044D01*
X79808555Y-56139864D01*
X79808560Y-56139871D01*
X79950428Y-56324757D01*
X79950447Y-56324778D01*
X80115221Y-56489552D01*
X80115242Y-56489571D01*
X80300128Y-56631439D01*
X80300135Y-56631444D01*
X80501955Y-56747965D01*
X80501959Y-56747966D01*
X80501968Y-56747972D01*
X80717286Y-56837160D01*
X80942405Y-56897480D01*
X80942409Y-56897480D01*
X80942411Y-56897481D01*
X81001962Y-56905320D01*
X81173470Y-56927900D01*
X81173477Y-56927900D01*
X81406523Y-56927900D01*
X81406530Y-56927900D01*
X81615353Y-56900408D01*
X81637588Y-56897481D01*
X81637588Y-56897480D01*
X81637595Y-56897480D01*
X81862714Y-56837160D01*
X82078032Y-56747972D01*
X82279868Y-56631442D01*
X82464766Y-56489564D01*
X82629564Y-56324766D01*
X82771442Y-56139868D01*
X82887972Y-55938032D01*
X82977160Y-55722714D01*
X83037480Y-55497595D01*
X83067900Y-55266530D01*
X83067900Y-55033470D01*
X83067900Y-55033467D01*
X89672100Y-55033467D01*
X89672100Y-55266532D01*
X89702518Y-55497588D01*
X89702520Y-55497595D01*
X89762840Y-55722714D01*
X89852028Y-55938032D01*
X89852029Y-55938033D01*
X89852034Y-55938044D01*
X89968555Y-56139864D01*
X89968560Y-56139871D01*
X90110428Y-56324757D01*
X90110447Y-56324778D01*
X90275221Y-56489552D01*
X90275242Y-56489571D01*
X90460128Y-56631439D01*
X90460135Y-56631444D01*
X90661955Y-56747965D01*
X90661959Y-56747966D01*
X90661968Y-56747972D01*
X90877286Y-56837160D01*
X91102405Y-56897480D01*
X91102409Y-56897480D01*
X91102411Y-56897481D01*
X91161962Y-56905320D01*
X91333470Y-56927900D01*
X91333477Y-56927900D01*
X91566523Y-56927900D01*
X91566530Y-56927900D01*
X91775353Y-56900408D01*
X91797588Y-56897481D01*
X91797588Y-56897480D01*
X91797595Y-56897480D01*
X92022714Y-56837160D01*
X92238032Y-56747972D01*
X92439868Y-56631442D01*
X92624766Y-56489564D01*
X92789564Y-56324766D01*
X92931442Y-56139868D01*
X93047972Y-55938032D01*
X93137160Y-55722714D01*
X93197480Y-55497595D01*
X93227900Y-55266530D01*
X93227900Y-55033470D01*
X93197480Y-54802405D01*
X93137160Y-54577286D01*
X93047972Y-54361968D01*
X93047966Y-54361959D01*
X93047965Y-54361955D01*
X92931444Y-54160135D01*
X92931439Y-54160128D01*
X92789571Y-53975242D01*
X92789552Y-53975221D01*
X92624778Y-53810447D01*
X92624757Y-53810428D01*
X92439871Y-53668560D01*
X92439864Y-53668555D01*
X92238044Y-53552034D01*
X92238036Y-53552030D01*
X92238032Y-53552028D01*
X92022714Y-53462840D01*
X91797595Y-53402520D01*
X91797588Y-53402518D01*
X91566532Y-53372100D01*
X91566530Y-53372100D01*
X91333470Y-53372100D01*
X91333467Y-53372100D01*
X91102411Y-53402518D01*
X90945049Y-53444683D01*
X90877286Y-53462840D01*
X90688042Y-53541228D01*
X90661966Y-53552029D01*
X90661955Y-53552034D01*
X90460135Y-53668555D01*
X90460128Y-53668560D01*
X90275242Y-53810428D01*
X90275221Y-53810447D01*
X90110447Y-53975221D01*
X90110428Y-53975242D01*
X89968560Y-54160128D01*
X89968555Y-54160135D01*
X89852034Y-54361955D01*
X89852029Y-54361966D01*
X89852028Y-54361968D01*
X89811179Y-54460587D01*
X89762840Y-54577286D01*
X89702518Y-54802411D01*
X89672100Y-55033467D01*
X83067900Y-55033467D01*
X83037480Y-54802405D01*
X82977160Y-54577286D01*
X82887972Y-54361968D01*
X82887966Y-54361959D01*
X82887965Y-54361955D01*
X82771444Y-54160135D01*
X82771439Y-54160128D01*
X82629571Y-53975242D01*
X82629552Y-53975221D01*
X82464778Y-53810447D01*
X82464757Y-53810428D01*
X82279871Y-53668560D01*
X82279864Y-53668555D01*
X82078044Y-53552034D01*
X82078036Y-53552030D01*
X82078032Y-53552028D01*
X81862714Y-53462840D01*
X81637595Y-53402520D01*
X81637588Y-53402518D01*
X81406532Y-53372100D01*
X81406530Y-53372100D01*
X81173470Y-53372100D01*
X81173467Y-53372100D01*
X80942411Y-53402518D01*
X80785049Y-53444683D01*
X80717286Y-53462840D01*
X80528042Y-53541228D01*
X80501966Y-53552029D01*
X80501955Y-53552034D01*
X80300135Y-53668555D01*
X80300128Y-53668560D01*
X80115242Y-53810428D01*
X80115221Y-53810447D01*
X79950447Y-53975221D01*
X79950428Y-53975242D01*
X79808560Y-54160128D01*
X79808555Y-54160135D01*
X79692034Y-54361955D01*
X79692029Y-54361966D01*
X79692028Y-54361968D01*
X79651179Y-54460587D01*
X79602840Y-54577286D01*
X79542518Y-54802411D01*
X79512100Y-55033467D01*
X79237100Y-55033467D01*
X79237100Y-50357507D01*
X79257102Y-50289386D01*
X79274005Y-50268412D01*
X81268412Y-48274005D01*
X81330724Y-48239979D01*
X81357507Y-48237100D01*
X83135694Y-48237100D01*
X83203815Y-48257102D01*
X83250308Y-48310758D01*
X83260412Y-48381032D01*
X83255528Y-48402030D01*
X83222735Y-48502959D01*
X83191500Y-48700167D01*
X83191500Y-48899833D01*
X83222735Y-49097041D01*
X83222736Y-49097046D01*
X83283805Y-49284996D01*
X83284435Y-49286935D01*
X83375082Y-49464839D01*
X83375084Y-49464842D01*
X83492444Y-49626374D01*
X83633625Y-49767555D01*
X83633628Y-49767557D01*
X83795161Y-49884918D01*
X83973065Y-49975565D01*
X84162959Y-50037265D01*
X84360167Y-50068500D01*
X84360170Y-50068500D01*
X84559835Y-50068500D01*
X84605409Y-50061281D01*
X84675821Y-50070379D01*
X84714217Y-50096634D01*
X86087457Y-51469874D01*
X86190126Y-51572543D01*
X86310852Y-51653210D01*
X86444996Y-51708774D01*
X86587402Y-51737100D01*
X95892493Y-51737100D01*
X95960614Y-51757102D01*
X95981588Y-51774005D01*
X98725995Y-54518412D01*
X98760021Y-54580724D01*
X98762900Y-54607507D01*
X98762900Y-59822600D01*
X98783776Y-59927552D01*
X98791226Y-59965004D01*
X98846790Y-60099148D01*
X98871124Y-60135566D01*
X98927456Y-60219873D01*
X98927461Y-60219879D01*
X99780120Y-61072538D01*
X99780126Y-61072543D01*
X99900852Y-61153210D01*
X100034996Y-61208774D01*
X100177402Y-61237100D01*
X100177403Y-61237100D01*
X103312597Y-61237100D01*
X103312598Y-61237100D01*
X103455004Y-61208774D01*
X103589148Y-61153210D01*
X103709874Y-61072543D01*
X104525783Y-60256632D01*
X104588094Y-60222609D01*
X104634589Y-60221281D01*
X104680164Y-60228500D01*
X104680167Y-60228500D01*
X104879830Y-60228500D01*
X104879833Y-60228500D01*
X105077041Y-60197265D01*
X105266935Y-60135565D01*
X105444839Y-60044918D01*
X105606372Y-59927557D01*
X105747557Y-59786372D01*
X105864918Y-59624839D01*
X105937734Y-59481929D01*
X105986481Y-59430316D01*
X106055396Y-59413250D01*
X106122598Y-59436151D01*
X106162265Y-59481929D01*
X106215753Y-59586903D01*
X106235084Y-59624842D01*
X106352444Y-59786374D01*
X106493625Y-59927555D01*
X106493628Y-59927557D01*
X106655161Y-60044918D01*
X106833065Y-60135565D01*
X107022959Y-60197265D01*
X107220167Y-60228500D01*
X107220170Y-60228500D01*
X107419830Y-60228500D01*
X107419833Y-60228500D01*
X107617041Y-60197265D01*
X107806935Y-60135565D01*
X107984839Y-60044918D01*
X108146372Y-59927557D01*
X108287557Y-59786372D01*
X108404918Y-59624839D01*
X108495565Y-59446935D01*
X108557265Y-59257041D01*
X108588500Y-59059833D01*
X108588500Y-58860167D01*
X108557265Y-58662959D01*
X108495565Y-58473065D01*
X108404918Y-58295161D01*
X108287557Y-58133628D01*
X108287555Y-58133625D01*
X108146374Y-57992444D01*
X107984842Y-57875084D01*
X107984841Y-57875083D01*
X107984839Y-57875082D01*
X107806935Y-57784435D01*
X107806932Y-57784434D01*
X107806930Y-57784433D01*
X107617046Y-57722736D01*
X107617042Y-57722735D01*
X107617041Y-57722735D01*
X107419833Y-57691500D01*
X107220167Y-57691500D01*
X107022959Y-57722735D01*
X107022953Y-57722736D01*
X106833069Y-57784433D01*
X106833063Y-57784436D01*
X106655157Y-57875084D01*
X106493625Y-57992444D01*
X106352444Y-58133625D01*
X106235083Y-58295158D01*
X106162267Y-58438068D01*
X106113518Y-58489683D01*
X106044603Y-58506749D01*
X105977402Y-58483848D01*
X105937733Y-58438068D01*
X105864916Y-58295158D01*
X105747555Y-58133625D01*
X105606374Y-57992444D01*
X105444842Y-57875084D01*
X105444841Y-57875083D01*
X105444839Y-57875082D01*
X105266935Y-57784435D01*
X105266932Y-57784434D01*
X105266930Y-57784433D01*
X105077046Y-57722736D01*
X105077042Y-57722735D01*
X105077041Y-57722735D01*
X104879833Y-57691500D01*
X104680167Y-57691500D01*
X104482959Y-57722735D01*
X104482953Y-57722736D01*
X104293069Y-57784433D01*
X104293063Y-57784436D01*
X104115157Y-57875084D01*
X103953625Y-57992444D01*
X103812444Y-58133625D01*
X103695083Y-58295158D01*
X103622267Y-58438068D01*
X103573518Y-58489683D01*
X103504603Y-58506749D01*
X103437402Y-58483848D01*
X103397733Y-58438068D01*
X103324916Y-58295158D01*
X103207555Y-58133625D01*
X103066374Y-57992444D01*
X102904842Y-57875084D01*
X102904841Y-57875083D01*
X102904839Y-57875082D01*
X102726935Y-57784435D01*
X102726932Y-57784434D01*
X102726930Y-57784433D01*
X102537046Y-57722736D01*
X102537042Y-57722735D01*
X102537041Y-57722735D01*
X102339833Y-57691500D01*
X102140167Y-57691500D01*
X102140166Y-57691500D01*
X102108517Y-57696512D01*
X102038106Y-57687411D01*
X101983793Y-57641688D01*
X101962822Y-57573859D01*
X101981851Y-57505460D01*
X101999710Y-57482971D01*
X102079030Y-57403652D01*
X102172115Y-57252738D01*
X102212333Y-57131364D01*
X102252744Y-57072996D01*
X102318300Y-57045739D01*
X102388185Y-57058252D01*
X102433872Y-57096938D01*
X102542444Y-57246374D01*
X102683625Y-57387555D01*
X102683628Y-57387557D01*
X102845161Y-57504918D01*
X103023065Y-57595565D01*
X103212959Y-57657265D01*
X103410167Y-57688500D01*
X103410170Y-57688500D01*
X103609830Y-57688500D01*
X103609833Y-57688500D01*
X103807041Y-57657265D01*
X103996935Y-57595565D01*
X104174839Y-57504918D01*
X104336372Y-57387557D01*
X104477557Y-57246372D01*
X104594918Y-57084839D01*
X104667734Y-56941929D01*
X104716481Y-56890316D01*
X104785396Y-56873250D01*
X104852598Y-56896151D01*
X104892265Y-56941929D01*
X104964872Y-57084426D01*
X104965084Y-57084842D01*
X105082444Y-57246374D01*
X105223625Y-57387555D01*
X105223628Y-57387557D01*
X105385161Y-57504918D01*
X105563065Y-57595565D01*
X105752959Y-57657265D01*
X105950167Y-57688500D01*
X105950170Y-57688500D01*
X106149830Y-57688500D01*
X106149833Y-57688500D01*
X106347041Y-57657265D01*
X106536935Y-57595565D01*
X106714839Y-57504918D01*
X106876372Y-57387557D01*
X107017557Y-57246372D01*
X107134918Y-57084839D01*
X107225565Y-56906935D01*
X107287265Y-56717041D01*
X107318500Y-56519833D01*
X107318500Y-56320167D01*
X107287265Y-56122959D01*
X107225565Y-55933065D01*
X107134918Y-55755161D01*
X107017557Y-55593628D01*
X107017555Y-55593625D01*
X106876374Y-55452444D01*
X106714842Y-55335084D01*
X106714841Y-55335083D01*
X106714839Y-55335082D01*
X106536935Y-55244435D01*
X106536932Y-55244434D01*
X106536930Y-55244433D01*
X106347046Y-55182736D01*
X106347042Y-55182735D01*
X106347041Y-55182735D01*
X106149833Y-55151500D01*
X105950167Y-55151500D01*
X105752959Y-55182735D01*
X105752953Y-55182736D01*
X105563069Y-55244433D01*
X105563063Y-55244436D01*
X105385157Y-55335084D01*
X105223625Y-55452444D01*
X105082444Y-55593625D01*
X104965083Y-55755158D01*
X104892267Y-55898068D01*
X104843518Y-55949683D01*
X104774603Y-55966749D01*
X104707402Y-55943848D01*
X104667733Y-55898068D01*
X104648059Y-55859456D01*
X104594918Y-55755161D01*
X104477557Y-55593628D01*
X104477555Y-55593625D01*
X104336374Y-55452444D01*
X104174842Y-55335084D01*
X104174841Y-55335083D01*
X104174839Y-55335082D01*
X103996935Y-55244435D01*
X103996932Y-55244434D01*
X103996930Y-55244433D01*
X103807046Y-55182736D01*
X103807042Y-55182735D01*
X103807041Y-55182735D01*
X103609833Y-55151500D01*
X103410167Y-55151500D01*
X103379971Y-55156282D01*
X103364587Y-55158719D01*
X103294176Y-55149619D01*
X103255782Y-55123365D01*
X94584612Y-46452195D01*
X94550586Y-46389883D01*
X94555651Y-46319068D01*
X94598198Y-46262232D01*
X94664718Y-46237421D01*
X94673707Y-46237100D01*
X99652493Y-46237100D01*
X99720614Y-46257102D01*
X99741588Y-46274005D01*
X100973988Y-47506405D01*
X101008014Y-47568717D01*
X101002949Y-47639532D01*
X100960402Y-47696368D01*
X100893882Y-47721179D01*
X100884893Y-47721500D01*
X100860167Y-47721500D01*
X100662959Y-47752735D01*
X100662953Y-47752736D01*
X100473069Y-47814433D01*
X100473063Y-47814436D01*
X100295157Y-47905084D01*
X100133625Y-48022444D01*
X99992444Y-48163625D01*
X99875084Y-48325157D01*
X99784436Y-48503063D01*
X99784433Y-48503069D01*
X99722736Y-48692953D01*
X99722735Y-48692958D01*
X99722735Y-48692959D01*
X99691500Y-48890167D01*
X99691500Y-49089833D01*
X99722735Y-49287041D01*
X99722736Y-49287046D01*
X99780931Y-49466151D01*
X99784435Y-49476935D01*
X99875082Y-49654839D01*
X99875084Y-49654842D01*
X99992444Y-49816374D01*
X100133625Y-49957555D01*
X100133628Y-49957557D01*
X100295161Y-50074918D01*
X100473065Y-50165565D01*
X100662959Y-50227265D01*
X100860167Y-50258500D01*
X100860170Y-50258500D01*
X101059830Y-50258500D01*
X101059833Y-50258500D01*
X101257041Y-50227265D01*
X101446935Y-50165565D01*
X101624839Y-50074918D01*
X101786372Y-49957557D01*
X101927557Y-49816372D01*
X102044918Y-49654839D01*
X102117734Y-49511929D01*
X102166481Y-49460316D01*
X102235396Y-49443250D01*
X102302598Y-49466151D01*
X102342265Y-49511929D01*
X102415082Y-49654839D01*
X102415084Y-49654842D01*
X102532444Y-49816374D01*
X102673625Y-49957555D01*
X102673628Y-49957557D01*
X102835161Y-50074918D01*
X103013065Y-50165565D01*
X103202959Y-50227265D01*
X103400167Y-50258500D01*
X103400170Y-50258500D01*
X103599830Y-50258500D01*
X103599833Y-50258500D01*
X103797041Y-50227265D01*
X103851901Y-50209440D01*
X103867964Y-50204221D01*
X103896534Y-50203404D01*
X103924832Y-50199336D01*
X103931549Y-50202403D01*
X103938932Y-50202193D01*
X103963413Y-50216956D01*
X103989412Y-50228830D01*
X103993404Y-50235041D01*
X103999729Y-50238856D01*
X104012343Y-50264511D01*
X104027796Y-50288556D01*
X104029296Y-50298991D01*
X104031055Y-50302568D01*
X104032900Y-50324054D01*
X104032900Y-50433381D01*
X104012898Y-50501502D01*
X103980963Y-50535315D01*
X103943634Y-50562437D01*
X103943624Y-50562445D01*
X103802444Y-50703625D01*
X103685083Y-50865158D01*
X103612267Y-51008068D01*
X103563518Y-51059683D01*
X103494603Y-51076749D01*
X103427402Y-51053848D01*
X103387733Y-51008068D01*
X103368059Y-50969456D01*
X103314918Y-50865161D01*
X103285981Y-50825332D01*
X103197555Y-50703625D01*
X103056374Y-50562444D01*
X102894842Y-50445084D01*
X102894841Y-50445083D01*
X102894839Y-50445082D01*
X102716935Y-50354435D01*
X102716932Y-50354434D01*
X102716930Y-50354433D01*
X102527046Y-50292736D01*
X102527042Y-50292735D01*
X102527041Y-50292735D01*
X102329833Y-50261500D01*
X102130167Y-50261500D01*
X101954104Y-50289386D01*
X101932953Y-50292736D01*
X101743069Y-50354433D01*
X101743063Y-50354436D01*
X101565157Y-50445084D01*
X101403625Y-50562444D01*
X101262444Y-50703625D01*
X101145084Y-50865157D01*
X101054436Y-51043063D01*
X101054433Y-51043069D01*
X100992736Y-51232953D01*
X100992735Y-51232958D01*
X100992735Y-51232959D01*
X100961500Y-51430167D01*
X100961500Y-51629833D01*
X100978490Y-51737100D01*
X100992736Y-51827046D01*
X101043490Y-51983250D01*
X101054435Y-52016935D01*
X101145082Y-52194839D01*
X101145084Y-52194842D01*
X101262444Y-52356374D01*
X101403625Y-52497555D01*
X101403628Y-52497557D01*
X101565161Y-52614918D01*
X101743065Y-52705565D01*
X101932959Y-52767265D01*
X102130167Y-52798500D01*
X102130170Y-52798500D01*
X102329830Y-52798500D01*
X102329833Y-52798500D01*
X102527041Y-52767265D01*
X102716935Y-52705565D01*
X102894839Y-52614918D01*
X103056372Y-52497557D01*
X103197557Y-52356372D01*
X103314918Y-52194839D01*
X103387734Y-52051929D01*
X103436481Y-52000316D01*
X103505396Y-51983250D01*
X103572598Y-52006151D01*
X103612265Y-52051929D01*
X103685082Y-52194839D01*
X103685084Y-52194842D01*
X103802444Y-52356374D01*
X103943625Y-52497555D01*
X103943628Y-52497557D01*
X104105161Y-52614918D01*
X104283065Y-52705565D01*
X104472959Y-52767265D01*
X104670167Y-52798500D01*
X104670170Y-52798500D01*
X104869830Y-52798500D01*
X104869833Y-52798500D01*
X105067041Y-52767265D01*
X105256935Y-52705565D01*
X105434839Y-52614918D01*
X105596372Y-52497557D01*
X105737557Y-52356372D01*
X105846127Y-52206937D01*
X105902348Y-52163585D01*
X105973084Y-52157510D01*
X106035876Y-52190641D01*
X106067666Y-52241367D01*
X106107883Y-52362734D01*
X106107884Y-52362736D01*
X106107885Y-52362738D01*
X106200970Y-52513652D01*
X106200975Y-52513658D01*
X106326341Y-52639024D01*
X106326347Y-52639029D01*
X106326348Y-52639030D01*
X106477262Y-52732115D01*
X106645574Y-52787887D01*
X106749455Y-52798500D01*
X107870544Y-52798499D01*
X107974426Y-52787887D01*
X108142738Y-52732115D01*
X108293652Y-52639030D01*
X108419030Y-52513652D01*
X108512115Y-52362738D01*
X108567887Y-52194426D01*
X108578500Y-52090545D01*
X108578499Y-50969456D01*
X108567887Y-50865574D01*
X108512115Y-50697262D01*
X108419030Y-50546348D01*
X108419029Y-50546347D01*
X108419024Y-50546341D01*
X108293658Y-50420975D01*
X108293652Y-50420970D01*
X108142738Y-50327885D01*
X108055540Y-50298991D01*
X107974427Y-50272113D01*
X107974420Y-50272112D01*
X107870553Y-50261500D01*
X106835817Y-50261500D01*
X106767696Y-50241498D01*
X106721203Y-50187842D01*
X106711099Y-50117568D01*
X106740593Y-50052988D01*
X106761754Y-50033566D01*
X106866372Y-49957557D01*
X107007557Y-49816372D01*
X107124918Y-49654839D01*
X107215565Y-49476935D01*
X107277265Y-49287041D01*
X107308500Y-49089833D01*
X107308500Y-48890167D01*
X107277265Y-48692959D01*
X107215565Y-48503065D01*
X107124918Y-48325161D01*
X107007557Y-48163628D01*
X107007555Y-48163625D01*
X106866374Y-48022444D01*
X106704842Y-47905084D01*
X106704841Y-47905083D01*
X106704839Y-47905082D01*
X106526935Y-47814435D01*
X106526932Y-47814434D01*
X106526930Y-47814433D01*
X106337046Y-47752736D01*
X106337042Y-47752735D01*
X106337041Y-47752735D01*
X106139833Y-47721500D01*
X105940167Y-47721500D01*
X105742959Y-47752735D01*
X105742953Y-47752736D01*
X105553069Y-47814433D01*
X105553063Y-47814436D01*
X105375155Y-47905085D01*
X105325109Y-47941445D01*
X105258241Y-47965303D01*
X105189090Y-47949221D01*
X105161955Y-47928603D01*
X101410814Y-44177461D01*
X101410808Y-44177456D01*
X101326977Y-44121442D01*
X101290083Y-44096790D01*
X101155939Y-44041226D01*
X101013535Y-44012900D01*
X101013533Y-44012900D01*
X100493033Y-44012900D01*
X100424912Y-43992898D01*
X100378419Y-43939242D01*
X100368315Y-43868968D01*
X100393071Y-43810196D01*
X100445003Y-43742517D01*
X100531442Y-43629868D01*
X100647972Y-43428032D01*
X100737160Y-43212714D01*
X100797480Y-42987595D01*
X100827900Y-42756530D01*
X100827900Y-42523470D01*
X100827900Y-42523467D01*
X107432100Y-42523467D01*
X107432100Y-42756532D01*
X107462518Y-42987588D01*
X107462520Y-42987595D01*
X107522840Y-43212714D01*
X107612028Y-43428032D01*
X107612029Y-43428033D01*
X107612034Y-43428044D01*
X107728555Y-43629864D01*
X107728560Y-43629871D01*
X107870428Y-43814757D01*
X107870447Y-43814778D01*
X108035221Y-43979552D01*
X108035242Y-43979571D01*
X108220128Y-44121439D01*
X108220135Y-44121444D01*
X108421955Y-44237965D01*
X108421959Y-44237966D01*
X108421968Y-44237972D01*
X108637286Y-44327160D01*
X108862405Y-44387480D01*
X108862409Y-44387480D01*
X108862411Y-44387481D01*
X108921962Y-44395320D01*
X109093470Y-44417900D01*
X109093477Y-44417900D01*
X109326523Y-44417900D01*
X109326530Y-44417900D01*
X109535353Y-44390408D01*
X109557588Y-44387481D01*
X109557588Y-44387480D01*
X109557595Y-44387480D01*
X109782714Y-44327160D01*
X109998032Y-44237972D01*
X110199868Y-44121442D01*
X110384766Y-43979564D01*
X110549564Y-43814766D01*
X110691442Y-43629868D01*
X110807972Y-43428032D01*
X110897160Y-43212714D01*
X110957480Y-42987595D01*
X110987900Y-42756530D01*
X110987900Y-42523470D01*
X110957480Y-42292405D01*
X110897160Y-42067286D01*
X110807972Y-41851968D01*
X110807966Y-41851959D01*
X110807965Y-41851955D01*
X110691444Y-41650135D01*
X110691439Y-41650128D01*
X110549571Y-41465242D01*
X110549552Y-41465221D01*
X110384778Y-41300447D01*
X110384757Y-41300428D01*
X110199871Y-41158560D01*
X110199864Y-41158555D01*
X109998044Y-41042034D01*
X109998036Y-41042030D01*
X109998032Y-41042028D01*
X109782714Y-40952840D01*
X109557595Y-40892520D01*
X109557588Y-40892518D01*
X109326532Y-40862100D01*
X109326530Y-40862100D01*
X109093470Y-40862100D01*
X109093467Y-40862100D01*
X108862411Y-40892518D01*
X108637286Y-40952840D01*
X108421966Y-41042029D01*
X108421955Y-41042034D01*
X108220135Y-41158555D01*
X108220128Y-41158560D01*
X108035242Y-41300428D01*
X108035221Y-41300447D01*
X107870447Y-41465221D01*
X107870428Y-41465242D01*
X107728560Y-41650128D01*
X107728555Y-41650135D01*
X107612034Y-41851955D01*
X107612029Y-41851966D01*
X107612028Y-41851968D01*
X107575616Y-41939874D01*
X107522840Y-42067286D01*
X107462518Y-42292411D01*
X107432100Y-42523467D01*
X100827900Y-42523467D01*
X100797480Y-42292405D01*
X100737160Y-42067286D01*
X100647972Y-41851968D01*
X100647966Y-41851959D01*
X100647965Y-41851955D01*
X100531444Y-41650135D01*
X100531439Y-41650128D01*
X100389571Y-41465242D01*
X100389552Y-41465221D01*
X100224778Y-41300447D01*
X100224757Y-41300428D01*
X100039871Y-41158560D01*
X100039864Y-41158555D01*
X99838044Y-41042034D01*
X99838036Y-41042030D01*
X99838032Y-41042028D01*
X99622714Y-40952840D01*
X99397595Y-40892520D01*
X99397588Y-40892518D01*
X99166532Y-40862100D01*
X99166530Y-40862100D01*
X98933470Y-40862100D01*
X98933467Y-40862100D01*
X98702411Y-40892518D01*
X98477286Y-40952840D01*
X98261966Y-41042029D01*
X98261955Y-41042034D01*
X98060135Y-41158555D01*
X98060128Y-41158560D01*
X97875242Y-41300428D01*
X97875221Y-41300447D01*
X97710447Y-41465221D01*
X97710428Y-41465242D01*
X97568560Y-41650128D01*
X97568555Y-41650135D01*
X97452034Y-41851955D01*
X97452029Y-41851966D01*
X97452028Y-41851968D01*
X97415616Y-41939874D01*
X97362840Y-42067286D01*
X97302518Y-42292411D01*
X97272100Y-42523467D01*
X97272100Y-42756532D01*
X97302518Y-42987588D01*
X97302520Y-42987595D01*
X97362840Y-43212714D01*
X97452028Y-43428032D01*
X97452029Y-43428033D01*
X97452034Y-43428044D01*
X97568555Y-43629864D01*
X97568557Y-43629866D01*
X97568558Y-43629868D01*
X97605074Y-43677456D01*
X97706929Y-43810196D01*
X97732530Y-43876416D01*
X97718265Y-43945965D01*
X97668664Y-43996761D01*
X97606967Y-44012900D01*
X90357507Y-44012900D01*
X90289386Y-43992898D01*
X90268412Y-43975995D01*
X87764005Y-41471588D01*
X87749060Y-41444219D01*
X87732204Y-41417991D01*
X87731298Y-41411692D01*
X87729979Y-41409276D01*
X87727100Y-41382493D01*
X87727100Y-41196616D01*
X87747102Y-41128495D01*
X87779036Y-41094683D01*
X87816372Y-41067557D01*
X87957557Y-40926372D01*
X88066127Y-40776937D01*
X88122348Y-40733585D01*
X88193084Y-40727510D01*
X88255876Y-40760641D01*
X88287666Y-40811367D01*
X88327883Y-40932734D01*
X88327884Y-40932736D01*
X88327885Y-40932738D01*
X88420970Y-41083652D01*
X88420975Y-41083658D01*
X88546341Y-41209024D01*
X88546347Y-41209029D01*
X88546348Y-41209030D01*
X88697262Y-41302115D01*
X88865574Y-41357887D01*
X88969455Y-41368500D01*
X90090544Y-41368499D01*
X90194426Y-41357887D01*
X90362738Y-41302115D01*
X90513652Y-41209030D01*
X90639030Y-41083652D01*
X90732115Y-40932738D01*
X90787887Y-40764426D01*
X90798500Y-40660545D01*
X90798499Y-39539456D01*
X90787887Y-39435574D01*
X90732115Y-39267262D01*
X90639030Y-39116348D01*
X90639029Y-39116347D01*
X90639024Y-39116341D01*
X90513658Y-38990975D01*
X90513652Y-38990970D01*
X90465481Y-38961258D01*
X90362738Y-38897885D01*
X90278582Y-38869999D01*
X90194427Y-38842113D01*
X90194420Y-38842112D01*
X90090553Y-38831500D01*
X89055817Y-38831500D01*
X88987696Y-38811498D01*
X88941203Y-38757842D01*
X88931099Y-38687568D01*
X88960593Y-38622988D01*
X88981754Y-38603566D01*
X89086372Y-38527557D01*
X89227557Y-38386372D01*
X89344918Y-38224839D01*
X89435565Y-38046935D01*
X89497265Y-37857041D01*
X89528500Y-37659833D01*
X89528500Y-37460167D01*
X89497265Y-37262959D01*
X89435565Y-37073065D01*
X89344918Y-36895161D01*
X89238667Y-36748920D01*
X89227555Y-36733625D01*
X89086374Y-36592444D01*
X88924842Y-36475084D01*
X88924841Y-36475083D01*
X88924839Y-36475082D01*
X88746935Y-36384435D01*
X88746932Y-36384434D01*
X88746930Y-36384433D01*
X88557046Y-36322736D01*
X88557042Y-36322735D01*
X88557041Y-36322735D01*
X88359833Y-36291500D01*
X88160167Y-36291500D01*
X88129971Y-36296282D01*
X88114587Y-36298719D01*
X88044176Y-36289619D01*
X88005782Y-36263365D01*
X86669879Y-34927461D01*
X86669873Y-34927456D01*
X86629814Y-34900689D01*
X86549148Y-34846790D01*
X86420320Y-34793428D01*
X86415009Y-34791228D01*
X86415004Y-34791226D01*
X86272600Y-34762900D01*
X86272598Y-34762900D01*
X69572598Y-34762900D01*
X69427402Y-34762900D01*
X69427399Y-34762900D01*
X69284995Y-34791226D01*
X69284990Y-34791228D01*
X69150852Y-34846790D01*
X69030126Y-34927456D01*
X69030120Y-34927461D01*
X67856241Y-36101342D01*
X67470126Y-36487457D01*
X67418791Y-36538792D01*
X67367456Y-36590126D01*
X67286790Y-36710852D01*
X67231228Y-36844990D01*
X67231226Y-36844995D01*
X67202900Y-36987399D01*
X67202900Y-47893381D01*
X67182898Y-47961502D01*
X67150963Y-47995315D01*
X67113634Y-48022437D01*
X67113624Y-48022445D01*
X66972444Y-48163625D01*
X66855083Y-48325158D01*
X66782267Y-48468068D01*
X66733518Y-48519683D01*
X66664603Y-48536749D01*
X66597402Y-48513848D01*
X66557733Y-48468068D01*
X66513386Y-48381032D01*
X66484918Y-48325161D01*
X66423030Y-48239979D01*
X66367555Y-48163625D01*
X66226374Y-48022444D01*
X66064842Y-47905084D01*
X66064841Y-47905083D01*
X66064839Y-47905082D01*
X65886935Y-47814435D01*
X65886932Y-47814434D01*
X65886930Y-47814433D01*
X65697046Y-47752736D01*
X65697042Y-47752735D01*
X65697041Y-47752735D01*
X65499833Y-47721500D01*
X65300167Y-47721500D01*
X65102959Y-47752735D01*
X65102953Y-47752736D01*
X64913069Y-47814433D01*
X64913063Y-47814436D01*
X64735157Y-47905084D01*
X64573625Y-48022444D01*
X64432444Y-48163625D01*
X64315084Y-48325157D01*
X64224436Y-48503063D01*
X64224433Y-48503069D01*
X64162736Y-48692953D01*
X64162735Y-48692958D01*
X64162735Y-48692959D01*
X64131500Y-48890167D01*
X40094302Y-48890167D01*
X39768414Y-47953783D01*
X39767988Y-47952535D01*
X39435397Y-46963311D01*
X39434948Y-46961953D01*
X39356603Y-46719869D01*
X39153039Y-46090864D01*
X39152662Y-46089672D01*
X38887826Y-45236073D01*
X38887356Y-45234521D01*
X38664040Y-44480015D01*
X38663604Y-44478504D01*
X38457208Y-43743356D01*
X38456752Y-43741683D01*
X38284763Y-43091315D01*
X38284309Y-43089541D01*
X38144484Y-42523467D01*
X61712100Y-42523467D01*
X61712100Y-42756532D01*
X61742518Y-42987588D01*
X61742520Y-42987595D01*
X61802840Y-43212714D01*
X61892028Y-43428032D01*
X61892029Y-43428033D01*
X61892034Y-43428044D01*
X62008555Y-43629864D01*
X62008560Y-43629871D01*
X62150428Y-43814757D01*
X62150447Y-43814778D01*
X62315221Y-43979552D01*
X62315242Y-43979571D01*
X62500128Y-44121439D01*
X62500135Y-44121444D01*
X62701955Y-44237965D01*
X62701959Y-44237966D01*
X62701968Y-44237972D01*
X62917286Y-44327160D01*
X63142405Y-44387480D01*
X63142409Y-44387480D01*
X63142411Y-44387481D01*
X63201962Y-44395320D01*
X63373470Y-44417900D01*
X63373477Y-44417900D01*
X63606523Y-44417900D01*
X63606530Y-44417900D01*
X63815353Y-44390408D01*
X63837588Y-44387481D01*
X63837588Y-44387480D01*
X63837595Y-44387480D01*
X64062714Y-44327160D01*
X64278032Y-44237972D01*
X64479868Y-44121442D01*
X64664766Y-43979564D01*
X64829564Y-43814766D01*
X64971442Y-43629868D01*
X65087972Y-43428032D01*
X65177160Y-43212714D01*
X65237480Y-42987595D01*
X65267900Y-42756530D01*
X65267900Y-42523470D01*
X65237480Y-42292405D01*
X65177160Y-42067286D01*
X65087972Y-41851968D01*
X65087966Y-41851959D01*
X65087965Y-41851955D01*
X64971444Y-41650135D01*
X64971439Y-41650128D01*
X64829571Y-41465242D01*
X64829552Y-41465221D01*
X64664778Y-41300447D01*
X64664757Y-41300428D01*
X64479871Y-41158560D01*
X64479864Y-41158555D01*
X64278044Y-41042034D01*
X64278036Y-41042030D01*
X64278032Y-41042028D01*
X64062714Y-40952840D01*
X63837595Y-40892520D01*
X63837588Y-40892518D01*
X63606532Y-40862100D01*
X63606530Y-40862100D01*
X63373470Y-40862100D01*
X63373467Y-40862100D01*
X63142411Y-40892518D01*
X62917286Y-40952840D01*
X62701966Y-41042029D01*
X62701955Y-41042034D01*
X62500135Y-41158555D01*
X62500128Y-41158560D01*
X62315242Y-41300428D01*
X62315221Y-41300447D01*
X62150447Y-41465221D01*
X62150428Y-41465242D01*
X62008560Y-41650128D01*
X62008555Y-41650135D01*
X61892034Y-41851955D01*
X61892029Y-41851966D01*
X61892028Y-41851968D01*
X61855616Y-41939874D01*
X61802840Y-42067286D01*
X61742518Y-42292411D01*
X61712100Y-42523467D01*
X38144484Y-42523467D01*
X38128666Y-42459430D01*
X38128153Y-42457267D01*
X38106100Y-42360657D01*
X38001088Y-41900622D01*
X38000575Y-41898270D01*
X37956185Y-41685004D01*
X37888875Y-41361619D01*
X37888386Y-41359140D01*
X37800230Y-40886319D01*
X37799742Y-40883529D01*
X37792172Y-40837100D01*
X37725795Y-40430011D01*
X37725354Y-40427073D01*
X37670553Y-40029175D01*
X37670145Y-40025887D01*
X37628302Y-39646471D01*
X37627950Y-39642773D01*
X37601326Y-39311816D01*
X37601065Y-39307747D01*
X37593365Y-39147142D01*
X37586030Y-38994167D01*
X37585896Y-38989713D01*
X37585543Y-38961258D01*
X37582527Y-38718098D01*
X37582560Y-38713260D01*
X37589344Y-38457831D01*
X37589600Y-38452509D01*
X37604824Y-38233351D01*
X37605372Y-38227473D01*
X37629224Y-38023368D01*
X37630137Y-38016991D01*
X37659491Y-37843866D01*
X37660877Y-37836895D01*
X37673693Y-37780765D01*
X37697246Y-37677611D01*
X37699202Y-37670119D01*
X37738448Y-37536852D01*
X37741106Y-37528835D01*
X37785067Y-37409798D01*
X37789084Y-37400170D01*
X37800650Y-37375392D01*
X37846357Y-37277472D01*
X37853210Y-37264752D01*
X37988066Y-37045602D01*
X37995989Y-37034191D01*
X38199795Y-36772788D01*
X38207063Y-36764280D01*
X38496898Y-36454258D01*
X38503346Y-36447846D01*
X38894870Y-36085808D01*
X38900519Y-36080890D01*
X39410482Y-35662737D01*
X39415306Y-35658975D01*
X40061603Y-35180035D01*
X40065727Y-35177108D01*
X40867158Y-34632374D01*
X40870653Y-34630084D01*
X41693964Y-34110718D01*
X43856806Y-34110718D01*
X43863808Y-34190737D01*
X43865631Y-34211573D01*
X43865632Y-34211578D01*
X43905128Y-34287451D01*
X45292792Y-36953124D01*
X45297631Y-36962419D01*
X45355010Y-37010566D01*
X45375190Y-37027499D01*
X45471750Y-37057944D01*
X45471750Y-37057943D01*
X45471751Y-37057944D01*
X45472802Y-37057852D01*
X45478538Y-37060413D01*
X45485449Y-37062928D01*
X45506852Y-37054873D01*
X45572612Y-37049120D01*
X45662418Y-37002369D01*
X45662418Y-37002368D01*
X50984484Y-34231876D01*
X51049564Y-34154317D01*
X51080009Y-34057756D01*
X51071185Y-33956895D01*
X51024434Y-33867089D01*
X51019986Y-33858544D01*
X51019978Y-33858530D01*
X50667981Y-33182352D01*
X50496396Y-32852741D01*
X52475500Y-32852741D01*
X52475500Y-33187258D01*
X52508285Y-33520131D01*
X52508288Y-33520151D01*
X52573543Y-33848213D01*
X52573545Y-33848220D01*
X52573546Y-33848224D01*
X52579269Y-33867089D01*
X52670643Y-34168315D01*
X52670646Y-34168323D01*
X52798657Y-34477367D01*
X52956342Y-34772376D01*
X53142177Y-35050497D01*
X53142188Y-35050512D01*
X53354384Y-35309073D01*
X53354402Y-35309093D01*
X53590906Y-35545597D01*
X53590926Y-35545615D01*
X53819832Y-35733474D01*
X53849496Y-35757818D01*
X54127626Y-35943659D01*
X54422633Y-36101343D01*
X54731675Y-36229353D01*
X54731680Y-36229354D01*
X54731684Y-36229356D01*
X54797970Y-36249463D01*
X55051776Y-36326454D01*
X55379854Y-36391713D01*
X55712748Y-36424500D01*
X55712757Y-36424500D01*
X56047243Y-36424500D01*
X56047252Y-36424500D01*
X56380146Y-36391713D01*
X56708224Y-36326454D01*
X57028325Y-36229353D01*
X57337367Y-36101343D01*
X57632374Y-35943659D01*
X57910504Y-35757818D01*
X58169080Y-35545610D01*
X58405610Y-35309080D01*
X58617818Y-35050504D01*
X58803659Y-34772374D01*
X58961343Y-34477367D01*
X59089353Y-34168325D01*
X59186454Y-33848224D01*
X59251713Y-33520146D01*
X59284500Y-33187252D01*
X59284500Y-32852748D01*
X59251713Y-32519854D01*
X59186454Y-32191776D01*
X59089353Y-31871675D01*
X58961343Y-31562633D01*
X58803659Y-31267626D01*
X58779100Y-31230871D01*
X58731310Y-31159347D01*
X58687290Y-31093467D01*
X79492100Y-31093467D01*
X79492100Y-31326532D01*
X79522518Y-31557588D01*
X79537163Y-31612243D01*
X79582840Y-31782714D01*
X79672028Y-31998032D01*
X79672029Y-31998033D01*
X79672034Y-31998044D01*
X79788555Y-32199864D01*
X79788560Y-32199871D01*
X79930428Y-32384757D01*
X79930447Y-32384778D01*
X80095221Y-32549552D01*
X80095242Y-32549571D01*
X80280128Y-32691439D01*
X80280135Y-32691444D01*
X80481955Y-32807965D01*
X80481959Y-32807966D01*
X80481968Y-32807972D01*
X80697286Y-32897160D01*
X80922405Y-32957480D01*
X80922409Y-32957480D01*
X80922411Y-32957481D01*
X80981962Y-32965320D01*
X81153470Y-32987900D01*
X81153477Y-32987900D01*
X81386523Y-32987900D01*
X81386530Y-32987900D01*
X81595353Y-32960408D01*
X81617588Y-32957481D01*
X81617588Y-32957480D01*
X81617595Y-32957480D01*
X81842714Y-32897160D01*
X82058032Y-32807972D01*
X82259868Y-32691442D01*
X82444766Y-32549564D01*
X82609564Y-32384766D01*
X82751442Y-32199868D01*
X82867972Y-31998032D01*
X82957160Y-31782714D01*
X83017480Y-31557595D01*
X83047900Y-31326530D01*
X83047900Y-31093470D01*
X83047900Y-31093467D01*
X89652100Y-31093467D01*
X89652100Y-31326532D01*
X89682518Y-31557588D01*
X89697163Y-31612243D01*
X89742840Y-31782714D01*
X89832028Y-31998032D01*
X89832029Y-31998033D01*
X89832034Y-31998044D01*
X89948555Y-32199864D01*
X89948560Y-32199871D01*
X90090428Y-32384757D01*
X90090447Y-32384778D01*
X90255221Y-32549552D01*
X90255242Y-32549571D01*
X90440128Y-32691439D01*
X90440135Y-32691444D01*
X90641955Y-32807965D01*
X90641959Y-32807966D01*
X90641968Y-32807972D01*
X90857286Y-32897160D01*
X91082405Y-32957480D01*
X91082409Y-32957480D01*
X91082411Y-32957481D01*
X91141962Y-32965320D01*
X91313470Y-32987900D01*
X91313477Y-32987900D01*
X91546523Y-32987900D01*
X91546530Y-32987900D01*
X91755353Y-32960408D01*
X91777588Y-32957481D01*
X91777588Y-32957480D01*
X91777595Y-32957480D01*
X92002714Y-32897160D01*
X92109951Y-32852741D01*
X113435500Y-32852741D01*
X113435500Y-33187258D01*
X113468285Y-33520131D01*
X113468288Y-33520151D01*
X113533543Y-33848213D01*
X113533545Y-33848220D01*
X113533546Y-33848224D01*
X113539269Y-33867089D01*
X113630643Y-34168315D01*
X113630646Y-34168323D01*
X113758657Y-34477367D01*
X113916342Y-34772376D01*
X114102177Y-35050497D01*
X114102188Y-35050512D01*
X114314384Y-35309073D01*
X114314402Y-35309093D01*
X114550906Y-35545597D01*
X114550926Y-35545615D01*
X114779832Y-35733474D01*
X114809496Y-35757818D01*
X115087626Y-35943659D01*
X115382633Y-36101343D01*
X115691675Y-36229353D01*
X115691680Y-36229354D01*
X115691684Y-36229356D01*
X115757970Y-36249463D01*
X116011776Y-36326454D01*
X116339854Y-36391713D01*
X116672748Y-36424500D01*
X116672757Y-36424500D01*
X117007243Y-36424500D01*
X117007252Y-36424500D01*
X117340146Y-36391713D01*
X117668224Y-36326454D01*
X117988325Y-36229353D01*
X118297367Y-36101343D01*
X118592374Y-35943659D01*
X118870504Y-35757818D01*
X119129080Y-35545610D01*
X119365610Y-35309080D01*
X119577818Y-35050504D01*
X119763659Y-34772374D01*
X119843664Y-34622694D01*
X121537831Y-34622694D01*
X121537831Y-34622696D01*
X121572457Y-34717831D01*
X121572457Y-34717832D01*
X121572459Y-34717834D01*
X121640861Y-34792480D01*
X121732621Y-34835269D01*
X121732622Y-34835269D01*
X127068716Y-37323527D01*
X127068718Y-37323529D01*
X127078706Y-37328186D01*
X127078707Y-37328187D01*
X127170467Y-37370976D01*
X127271617Y-37375392D01*
X127366757Y-37340764D01*
X127441404Y-37272362D01*
X127450181Y-37253540D01*
X128724133Y-34521543D01*
X128752050Y-34461676D01*
X128756466Y-34360526D01*
X128746877Y-34334181D01*
X128721839Y-34265387D01*
X128721837Y-34265383D01*
X128653437Y-34190740D01*
X128653436Y-34190739D01*
X123489405Y-31782714D01*
X123123826Y-31612242D01*
X123031508Y-31608212D01*
X123022678Y-31607827D01*
X123022677Y-31607827D01*
X123022676Y-31607827D01*
X123022674Y-31607827D01*
X122927539Y-31642453D01*
X122927538Y-31642453D01*
X122852890Y-31710858D01*
X122814761Y-31792624D01*
X122814760Y-31792627D01*
X122810102Y-31802617D01*
X122810101Y-31802618D01*
X122661267Y-32121794D01*
X121542246Y-34521544D01*
X121537831Y-34622694D01*
X119843664Y-34622694D01*
X119921343Y-34477367D01*
X120049353Y-34168325D01*
X120146454Y-33848224D01*
X120211713Y-33520146D01*
X120244500Y-33187252D01*
X120244500Y-32852748D01*
X120211713Y-32519854D01*
X120146454Y-32191776D01*
X120049353Y-31871675D01*
X119921343Y-31562633D01*
X119763659Y-31267626D01*
X119577818Y-30989496D01*
X119365610Y-30730920D01*
X119365606Y-30730916D01*
X119365597Y-30730906D01*
X119129093Y-30494402D01*
X119129073Y-30494384D01*
X118870512Y-30282188D01*
X118870497Y-30282177D01*
X118592376Y-30096342D01*
X118297367Y-29938657D01*
X117988323Y-29810646D01*
X117988315Y-29810643D01*
X117750929Y-29738634D01*
X117668224Y-29713546D01*
X117668220Y-29713545D01*
X117668213Y-29713543D01*
X117340151Y-29648288D01*
X117340146Y-29648287D01*
X117340141Y-29648286D01*
X117340131Y-29648285D01*
X117007258Y-29615500D01*
X117007252Y-29615500D01*
X116672748Y-29615500D01*
X116672741Y-29615500D01*
X116339868Y-29648285D01*
X116339855Y-29648286D01*
X116339854Y-29648287D01*
X116339851Y-29648287D01*
X116339848Y-29648288D01*
X116011786Y-29713543D01*
X115691684Y-29810643D01*
X115691676Y-29810646D01*
X115382632Y-29938657D01*
X115087623Y-30096342D01*
X114809502Y-30282177D01*
X114809487Y-30282188D01*
X114550926Y-30494384D01*
X114550906Y-30494402D01*
X114314402Y-30730906D01*
X114314384Y-30730926D01*
X114102188Y-30989487D01*
X114102177Y-30989502D01*
X113916342Y-31267623D01*
X113758657Y-31562632D01*
X113630646Y-31871676D01*
X113630643Y-31871684D01*
X113533543Y-32191786D01*
X113468288Y-32519848D01*
X113468285Y-32519868D01*
X113435500Y-32852741D01*
X92109951Y-32852741D01*
X92218032Y-32807972D01*
X92419868Y-32691442D01*
X92604766Y-32549564D01*
X92769564Y-32384766D01*
X92911442Y-32199868D01*
X93027972Y-31998032D01*
X93117160Y-31782714D01*
X93177480Y-31557595D01*
X93207900Y-31326530D01*
X93207900Y-31093470D01*
X93177480Y-30862405D01*
X93117160Y-30637286D01*
X93027972Y-30421968D01*
X93027966Y-30421959D01*
X93027965Y-30421955D01*
X92911444Y-30220135D01*
X92911439Y-30220128D01*
X92769571Y-30035242D01*
X92769552Y-30035221D01*
X92604778Y-29870447D01*
X92604757Y-29870428D01*
X92419871Y-29728560D01*
X92419864Y-29728555D01*
X92218044Y-29612034D01*
X92218036Y-29612030D01*
X92218032Y-29612028D01*
X92002714Y-29522840D01*
X91777595Y-29462520D01*
X91777588Y-29462518D01*
X91546532Y-29432100D01*
X91546530Y-29432100D01*
X91313470Y-29432100D01*
X91313467Y-29432100D01*
X91082411Y-29462518D01*
X90857286Y-29522840D01*
X90641966Y-29612029D01*
X90641955Y-29612034D01*
X90440135Y-29728555D01*
X90440128Y-29728560D01*
X90255242Y-29870428D01*
X90255221Y-29870447D01*
X90090447Y-30035221D01*
X90090428Y-30035242D01*
X89948560Y-30220128D01*
X89948555Y-30220135D01*
X89832034Y-30421955D01*
X89832029Y-30421966D01*
X89742840Y-30637286D01*
X89682518Y-30862411D01*
X89652100Y-31093467D01*
X83047900Y-31093467D01*
X83017480Y-30862405D01*
X82957160Y-30637286D01*
X82867972Y-30421968D01*
X82867966Y-30421959D01*
X82867965Y-30421955D01*
X82751444Y-30220135D01*
X82751439Y-30220128D01*
X82609571Y-30035242D01*
X82609552Y-30035221D01*
X82444778Y-29870447D01*
X82444757Y-29870428D01*
X82259871Y-29728560D01*
X82259864Y-29728555D01*
X82058044Y-29612034D01*
X82058036Y-29612030D01*
X82058032Y-29612028D01*
X81842714Y-29522840D01*
X81617595Y-29462520D01*
X81617588Y-29462518D01*
X81386532Y-29432100D01*
X81386530Y-29432100D01*
X81153470Y-29432100D01*
X81153467Y-29432100D01*
X80922411Y-29462518D01*
X80697286Y-29522840D01*
X80481966Y-29612029D01*
X80481955Y-29612034D01*
X80280135Y-29728555D01*
X80280128Y-29728560D01*
X80095242Y-29870428D01*
X80095221Y-29870447D01*
X79930447Y-30035221D01*
X79930428Y-30035242D01*
X79788560Y-30220128D01*
X79788555Y-30220135D01*
X79672034Y-30421955D01*
X79672029Y-30421966D01*
X79582840Y-30637286D01*
X79522518Y-30862411D01*
X79492100Y-31093467D01*
X58687290Y-31093467D01*
X58617822Y-30989502D01*
X58617811Y-30989487D01*
X58405615Y-30730926D01*
X58405597Y-30730906D01*
X58169093Y-30494402D01*
X58169073Y-30494384D01*
X57910512Y-30282188D01*
X57910497Y-30282177D01*
X57632376Y-30096342D01*
X57337367Y-29938657D01*
X57028323Y-29810646D01*
X57028315Y-29810643D01*
X56790929Y-29738634D01*
X56708224Y-29713546D01*
X56708220Y-29713545D01*
X56708213Y-29713543D01*
X56380151Y-29648288D01*
X56380146Y-29648287D01*
X56380141Y-29648286D01*
X56380131Y-29648285D01*
X56047258Y-29615500D01*
X56047252Y-29615500D01*
X55712748Y-29615500D01*
X55712741Y-29615500D01*
X55379868Y-29648285D01*
X55379855Y-29648286D01*
X55379854Y-29648287D01*
X55379851Y-29648287D01*
X55379848Y-29648288D01*
X55051786Y-29713543D01*
X54731684Y-29810643D01*
X54731676Y-29810646D01*
X54422632Y-29938657D01*
X54127623Y-30096342D01*
X53849502Y-30282177D01*
X53849487Y-30282188D01*
X53590926Y-30494384D01*
X53590906Y-30494402D01*
X53354402Y-30730906D01*
X53354384Y-30730926D01*
X53142188Y-30989487D01*
X53142177Y-30989502D01*
X52956342Y-31267623D01*
X52798657Y-31562632D01*
X52670646Y-31871676D01*
X52670643Y-31871684D01*
X52573543Y-32191786D01*
X52508288Y-32519848D01*
X52508285Y-32519868D01*
X52475500Y-32852741D01*
X50496396Y-32852741D01*
X49692951Y-31309342D01*
X49692951Y-31309339D01*
X49639524Y-31206710D01*
X49639185Y-31206058D01*
X49561626Y-31140977D01*
X49561624Y-31140976D01*
X49525954Y-31129729D01*
X49465066Y-31110532D01*
X49465065Y-31110532D01*
X49465064Y-31110532D01*
X49465052Y-31110532D01*
X49364206Y-31119356D01*
X49364199Y-31119358D01*
X43952335Y-33936594D01*
X43952333Y-33936596D01*
X43887252Y-34014154D01*
X43887252Y-34014155D01*
X43879054Y-34040159D01*
X43874305Y-34055221D01*
X43874304Y-34055223D01*
X43856807Y-34110715D01*
X43856806Y-34110718D01*
X41693964Y-34110718D01*
X41846817Y-34014294D01*
X41849891Y-34012418D01*
X41869425Y-34000871D01*
X43020861Y-33320234D01*
X43023470Y-33318736D01*
X44409616Y-32544797D01*
X44411772Y-32543624D01*
X46032599Y-31683111D01*
X46034475Y-31682137D01*
X47907897Y-30730989D01*
X47909680Y-30730102D01*
X47916077Y-30726981D01*
X50050890Y-29685392D01*
X50052189Y-29684770D01*
X52470863Y-28545750D01*
X52472203Y-28545130D01*
X53376802Y-28132239D01*
X55169567Y-27313957D01*
X55170613Y-27313486D01*
X58137845Y-25994297D01*
X58138166Y-25994155D01*
X59530976Y-25383247D01*
X61386353Y-24577734D01*
X63597447Y-24577734D01*
X63597447Y-24678983D01*
X64504872Y-26869698D01*
X64745500Y-27450623D01*
X64784245Y-27544163D01*
X64823583Y-27583501D01*
X64855837Y-27615755D01*
X64855838Y-27615756D01*
X64921106Y-27642790D01*
X64949377Y-27654500D01*
X64949378Y-27654500D01*
X65050623Y-27654500D01*
X70593901Y-25358398D01*
X70593902Y-25358398D01*
X70687441Y-25319653D01*
X70759033Y-25248061D01*
X70797779Y-25154521D01*
X70797778Y-25053274D01*
X70784418Y-25021021D01*
X101097451Y-25021021D01*
X101097451Y-25031158D01*
X101097451Y-25122268D01*
X101136194Y-25215805D01*
X101136198Y-25215810D01*
X101207784Y-25287396D01*
X101207788Y-25287399D01*
X106844605Y-27622246D01*
X106945853Y-27622246D01*
X107039392Y-27583501D01*
X107110984Y-27511908D01*
X108297775Y-24646727D01*
X108297775Y-24545481D01*
X108259030Y-24451941D01*
X108187437Y-24380349D01*
X108187436Y-24380348D01*
X108093898Y-24341604D01*
X102550624Y-22045500D01*
X102550623Y-22045500D01*
X102449376Y-22045500D01*
X102449374Y-22045500D01*
X102421978Y-22056847D01*
X102421979Y-22056848D01*
X102355837Y-22084244D01*
X102355833Y-22084247D01*
X102284247Y-22155833D01*
X102284244Y-22155837D01*
X102253779Y-22229389D01*
X101132372Y-24936710D01*
X101132361Y-24936738D01*
X101097451Y-25021021D01*
X70784418Y-25021021D01*
X69610979Y-22188098D01*
X69610976Y-22188094D01*
X69539390Y-22116508D01*
X69539386Y-22116505D01*
X69445848Y-22077761D01*
X69445847Y-22077761D01*
X69344600Y-22077761D01*
X69344597Y-22077761D01*
X69262538Y-22111750D01*
X69262525Y-22111757D01*
X63812790Y-24369109D01*
X63812788Y-24369110D01*
X63707784Y-24412603D01*
X63707780Y-24412606D01*
X63636194Y-24484192D01*
X63636190Y-24484197D01*
X63597447Y-24577734D01*
X61386353Y-24577734D01*
X61896577Y-24356220D01*
X61897139Y-24355979D01*
X64825646Y-23111865D01*
X64826058Y-23111692D01*
X66503695Y-22414433D01*
X66503875Y-22414359D01*
X68261470Y-21697406D01*
X68262150Y-21697131D01*
X69749124Y-21102542D01*
X69749480Y-21102402D01*
X71260624Y-20510687D01*
X71261242Y-20510447D01*
X72577274Y-20006638D01*
X72577911Y-20006397D01*
X73893127Y-19514954D01*
X73893929Y-19514658D01*
X75051115Y-19093497D01*
X75051918Y-19093209D01*
X76195732Y-18688654D01*
X76196808Y-18688279D01*
X77206639Y-18342145D01*
X77207725Y-18341779D01*
X78197679Y-18013955D01*
X78198875Y-18013566D01*
X79073509Y-17734794D01*
X79074687Y-17734427D01*
X79926058Y-17474365D01*
X79927425Y-17473956D01*
X80678711Y-17255172D01*
X80680221Y-17254745D01*
X81406793Y-17054273D01*
X81408529Y-17053808D01*
X82047825Y-16887962D01*
X82049713Y-16887490D01*
X82664441Y-16738955D01*
X82666599Y-16738454D01*
X83205206Y-16618693D01*
X83207598Y-16618186D01*
X83722497Y-16514454D01*
X83725141Y-16513951D01*
X84173735Y-16433779D01*
X84176665Y-16433292D01*
X84602920Y-16367679D01*
X84606198Y-16367219D01*
X84974771Y-16320483D01*
X84978416Y-16320075D01*
X85326435Y-16286299D01*
X85330365Y-16285980D01*
X85615664Y-16267430D01*
X85619920Y-16267227D01*
X85885292Y-16259095D01*
X85891681Y-16259064D01*
X86482457Y-16271292D01*
G37*
%TD.AperFunction*%
M02*
