M48
; DRILL file KiCad 10.0.3 date 2026-06-11T16:18:48
; FORMAT={-:-/ absolute / metric / decimal}
; #@! TF.CreationDate,2026-06-11T16:18:48-07:00
; #@! TF.GenerationSoftware,Kicad,Pcbnew,10.0.3
; #@! TF.FileFunction,Plated,1,2,PTH
FMAT,2
METRIC
; #@! TA.AperFunction,Plated,PTH,ComponentDrill
T1C0.760
%
G90
G05
T1
X65.4Y-48.99
X65.41Y-56.42
X66.67Y-51.53
X66.68Y-58.96
X67.94Y-48.99
X67.95Y-56.42
X69.21Y-51.53
X69.22Y-58.96
X70.48Y-48.99
X70.49Y-56.42
X71.75Y-51.53
X71.76Y-58.96
X81.915Y-66.22
X83.18Y-37.56
X83.185Y-68.36
X83.19Y-46.26
X84.45Y-40.1
X84.455Y-66.22
X84.46Y-48.8
X85.72Y-37.56
X85.725Y-68.36
X85.73Y-46.26
X86.99Y-40.1
X86.995Y-66.22
X87.0Y-48.8
X88.26Y-37.56
X88.265Y-68.36
X88.27Y-46.26
X89.53Y-40.1
X89.535Y-66.22
X89.54Y-48.8
X90.805Y-68.36
X100.96Y-48.99
X100.97Y-56.42
X102.23Y-51.53
X102.24Y-58.96
X103.5Y-48.99
X103.51Y-56.42
X104.77Y-51.53
X104.78Y-58.96
X106.04Y-48.99
X106.05Y-56.42
X107.31Y-51.53
X107.32Y-58.96
M30
