%TF.GenerationSoftware,KiCad,Pcbnew,10.0.3*%
%TF.CreationDate,2026-06-11T16:18:46-07:00*%
%TF.ProjectId,shadystake,73686164-7973-4746-916b-652e6b696361,rev?*%
%TF.SameCoordinates,Original*%
%TF.FileFunction,Profile,NP*%
%FSLAX46Y46*%
G04 Gerber Fmt 4.6, Leading zero omitted, Abs format (unit mm)*
G04 Created by KiCad (PCBNEW 10.0.3) date 2026-06-11 16:18:46*
%MOMM*%
%LPD*%
G01*
G04 APERTURE LIST*
%TA.AperFunction,Profile*%
%ADD10C,0.100000*%
%TD*%
%ADD11C,0.380999*%
%TA.AperFunction,Profile*%
%ADD12C,0.380999*%
%TD*%
%TA.AperFunction,Profile*%
%ADD13C,0.200000*%
%TD*%
G04 APERTURE END LIST*
D10*
X102500000Y-22300000D02*
X108043275Y-24596104D01*
X106895229Y-27367746D01*
X101351951Y-25071644D01*
X102500000Y-22300000D01*
X63851947Y-24628359D02*
X69395224Y-22332261D01*
X70543278Y-25103898D01*
X65000000Y-27400000D01*
X63851947Y-24628359D01*
X127232143Y-37118926D02*
X121794297Y-34583219D01*
X123062152Y-31864293D01*
X128500000Y-34400000D01*
X127232143Y-37118926D01*
X44114751Y-34138965D02*
X49436816Y-31368476D01*
X50822065Y-34029507D01*
X45500000Y-36800000D01*
X44114751Y-34138965D01*
X124971641Y-60848053D02*
X122675545Y-66391327D01*
X119903903Y-65243276D01*
X122200000Y-59700000D01*
X124971641Y-60848053D01*
X49316786Y-66405702D02*
X46781077Y-60967857D01*
X49500000Y-59700000D01*
X52035712Y-65137846D01*
X49316786Y-66405702D01*
X87884000Y-84709000D02*
G75*
G02*
X85344000Y-84709000I-1270000J0D01*
G01*
X85344000Y-84709000D02*
G75*
G02*
X87884000Y-84709000I1270000J0D01*
G01*
D11*
X86282003Y-197553912D02*
X112254125Y-94923097D01*
X115637133Y-81554881D01*
D12*
X56592921Y-81620322D02*
X86282003Y-197553912D01*
D11*
X127516949Y-59740000D02*
X127497105Y-59790300D01*
X127477127Y-59840886D01*
X127457070Y-59891617D01*
X127436881Y-59942628D01*
X127416619Y-59993768D01*
X127396226Y-60045184D01*
X127375766Y-60096715D01*
X127355177Y-60148515D01*
X127334527Y-60200417D01*
X127313750Y-60252582D01*
X127292916Y-60304836D01*
X127271958Y-60357347D01*
X127250948Y-60409933D01*
X127229815Y-60462772D01*
X127208637Y-60515672D01*
X127187337Y-60568820D01*
X127165996Y-60622018D01*
X127144537Y-60675457D01*
X127123040Y-60728933D01*
X127101427Y-60782646D01*
X127079782Y-60836385D01*
X127058022Y-60890355D01*
X127036235Y-60944340D01*
X127014334Y-60998551D01*
X126992411Y-61052765D01*
X126970377Y-61107200D01*
X126948323Y-61161629D01*
X126926161Y-61216273D01*
X126903983Y-61270900D01*
X126881699Y-61325738D01*
X126859403Y-61380549D01*
X126837002Y-61435566D01*
X126814594Y-61490547D01*
X126792083Y-61545729D01*
X126769568Y-61600866D01*
X126746952Y-61656198D01*
X126724335Y-61711478D01*
X126701619Y-61766947D01*
X126678907Y-61822356D01*
X126656096Y-61877950D01*
X126633292Y-61933475D01*
X126610392Y-61989181D01*
X126587502Y-62044810D01*
X126564518Y-62100615D01*
X126541546Y-62156337D01*
X126518482Y-62212230D01*
X126495434Y-62268033D01*
X126472295Y-62324002D01*
X126449175Y-62379874D01*
X126425965Y-62435908D01*
X126402777Y-62491839D01*
X126379502Y-62547927D01*
X126356250Y-62603906D01*
X126332913Y-62660038D01*
X126309602Y-62716055D01*
X126286207Y-62772220D01*
X126262841Y-62828266D01*
X126239392Y-62884456D01*
X126215975Y-62940520D01*
X126192477Y-62996724D01*
X126169011Y-63052798D01*
X126145468Y-63109008D01*
X126121958Y-63165082D01*
X126098372Y-63221289D01*
X126074823Y-63277355D01*
X126051198Y-63333550D01*
X126027612Y-63389600D01*
X126003952Y-63445774D01*
X125980333Y-63501801D01*
X125956641Y-63557947D01*
X125932992Y-63613941D01*
X125909271Y-63670052D01*
X125885595Y-63726006D01*
X125861849Y-63782074D01*
X125838149Y-63837982D01*
X125814381Y-63893999D01*
X125790660Y-63949853D01*
X125766872Y-64005813D01*
X125743133Y-64061607D01*
X125719329Y-64117503D01*
X125695575Y-64173229D01*
X125671757Y-64229055D01*
X125647991Y-64284708D01*
X125624162Y-64340457D01*
X125600386Y-64396031D01*
X125576549Y-64451697D01*
X125552766Y-64507185D01*
X125528922Y-64562763D01*
X125505135Y-64618161D01*
X125481288Y-64673644D01*
X125457498Y-64728945D01*
X125433651Y-64784329D01*
X125409861Y-64839528D01*
X125386015Y-64894808D01*
X125362227Y-64949900D01*
X125338385Y-65005069D01*
X125314602Y-65060050D01*
X125290765Y-65115105D01*
X125266989Y-65169968D01*
X125243160Y-65224904D01*
X125219393Y-65279646D01*
X125195574Y-65334458D01*
X125171817Y-65389075D01*
X125148010Y-65443758D01*
X125124267Y-65498245D01*
X125100473Y-65552796D01*
X125076744Y-65607148D01*
X125052967Y-65661563D01*
X125029254Y-65715777D01*
X125005494Y-65770051D01*
X124981800Y-65824124D01*
X124958059Y-65878253D01*
X124934385Y-65932181D01*
X124910666Y-65986162D01*
X124887013Y-66039941D01*
X124863316Y-66093770D01*
X124839687Y-66147396D01*
X124816014Y-66201071D01*
X124792410Y-66254541D01*
X124768763Y-66308058D01*
X124745185Y-66361369D01*
X124721565Y-66414725D01*
X124698015Y-66467874D01*
X124674424Y-66521065D01*
X124650903Y-66574049D01*
X124627343Y-66627073D01*
X124603853Y-66679889D01*
X124580323Y-66732743D01*
X124556865Y-66785388D01*
X124533369Y-66838070D01*
X124509945Y-66890542D01*
X124486483Y-66943048D01*
X124463092Y-66995344D01*
X124439666Y-67047672D01*
X124416312Y-67099790D01*
X124392922Y-67151938D01*
X124369605Y-67203875D01*
X124346252Y-67255841D01*
X124322973Y-67307595D01*
X124299660Y-67359376D01*
X124276421Y-67410945D01*
X124253148Y-67462539D01*
X124229948Y-67513921D01*
X124206716Y-67565327D01*
X124183559Y-67616519D01*
X124160369Y-67667734D01*
X124137253Y-67718735D01*
X124114107Y-67769757D01*
X124091035Y-67820566D01*
X124067933Y-67871393D01*
X124044905Y-67922007D01*
X124021848Y-67972638D01*
X123998866Y-68023056D01*
X123975854Y-68073488D01*
X123952918Y-68123708D01*
X123929954Y-68173942D01*
X123907065Y-68223962D01*
X123884149Y-68273994D01*
X123861308Y-68323813D01*
X123838440Y-68373643D01*
X123815647Y-68423259D01*
X123792829Y-68472885D01*
X123770086Y-68522298D01*
X123747318Y-68571719D01*
X123724626Y-68620926D01*
X123701908Y-68670140D01*
X123679267Y-68719142D01*
X123656601Y-68768148D01*
X123634012Y-68816942D01*
X123611398Y-68865739D01*
X123588861Y-68914324D01*
X123566301Y-68962912D01*
X123543817Y-69011287D01*
X123521311Y-69059664D01*
X123498881Y-69107828D01*
X123476428Y-69155993D01*
X123454053Y-69203945D01*
X123431656Y-69251897D01*
X123409335Y-69299637D01*
X123386993Y-69347375D01*
X123364728Y-69394901D01*
X123342443Y-69442424D01*
X123320234Y-69489736D01*
X123298005Y-69537044D01*
X123275853Y-69584141D01*
X123253682Y-69631232D01*
X123231587Y-69678113D01*
X123209474Y-69724987D01*
X123187437Y-69771652D01*
X123165381Y-69818309D01*
X123143403Y-69864756D01*
X123121406Y-69911194D01*
X123099486Y-69957424D01*
X123077549Y-70003643D01*
X123055688Y-70049655D01*
X123033811Y-70095655D01*
X123012010Y-70141447D01*
X122990192Y-70187227D01*
X122968452Y-70232800D01*
X122946695Y-70278359D01*
X122925014Y-70323712D01*
X122903319Y-70369051D01*
X122881699Y-70414184D01*
X122860065Y-70459301D01*
X122838507Y-70504213D01*
X122816934Y-70549109D01*
X122795438Y-70593800D01*
X122773927Y-70638474D01*
X122752493Y-70682944D01*
X122731045Y-70727396D01*
X122709673Y-70771643D01*
X122688288Y-70815873D01*
X122666979Y-70859898D01*
X122645657Y-70903905D01*
X122624411Y-70947708D01*
X122603153Y-70991492D01*
X122581970Y-71035073D01*
X122560775Y-71078633D01*
X122539656Y-71121992D01*
X122518525Y-71165329D01*
X122497471Y-71208465D01*
X122476404Y-71251578D01*
X122455413Y-71294491D01*
X122434412Y-71337381D01*
X122413485Y-71380071D01*
X122392548Y-71422737D01*
X122371687Y-71465204D01*
X122350815Y-71507647D01*
X122330019Y-71549891D01*
X122309212Y-71592110D01*
X122288481Y-71634130D01*
X122267740Y-71676125D01*
X122247074Y-71717923D01*
X122226399Y-71759694D01*
X122205799Y-71801269D01*
X122185190Y-71842816D01*
X122164655Y-71884168D01*
X122144113Y-71925492D01*
X122123644Y-71966620D01*
X122103168Y-72007721D01*
X122082766Y-72048626D01*
X122062356Y-72089503D01*
X122042020Y-72130186D01*
X122021677Y-72170839D01*
X122001408Y-72211299D01*
X121981131Y-72251729D01*
X121960929Y-72291967D01*
X121940719Y-72332174D01*
X121920584Y-72372189D01*
X121900442Y-72412173D01*
X121880373Y-72451966D01*
X121860298Y-72491728D01*
X121840297Y-72531299D01*
X121820289Y-72570838D01*
X121800355Y-72610187D01*
X121780415Y-72649503D01*
X121760549Y-72688631D01*
X121740677Y-72727725D01*
X121720877Y-72766632D01*
X121701073Y-72805504D01*
X121681341Y-72844190D01*
X121661605Y-72882841D01*
X121641941Y-72921305D01*
X121622272Y-72959735D01*
X121602676Y-72997979D01*
X121583075Y-73036188D01*
X121563547Y-73074212D01*
X121544015Y-73112200D01*
X121524554Y-73150004D01*
X121505090Y-73187772D01*
X121485698Y-73225356D01*
X121466302Y-73262905D01*
X121446978Y-73300270D01*
X121427650Y-73337598D01*
X121408394Y-73374744D01*
X121389134Y-73411854D01*
X121369947Y-73448782D01*
X121350755Y-73485672D01*
X121331636Y-73522382D01*
X121312513Y-73559054D01*
X121293462Y-73595546D01*
X121274408Y-73632000D01*
X121255425Y-73668274D01*
X121236439Y-73704511D01*
X121217525Y-73740569D01*
X121198608Y-73776588D01*
X121179761Y-73812429D01*
X121160913Y-73848232D01*
X121142135Y-73883857D01*
X121123355Y-73919443D01*
X121104645Y-73954853D01*
X121085934Y-73990224D01*
X121067293Y-74025418D01*
X121048650Y-74060573D01*
X121030077Y-74095553D01*
X121011503Y-74130494D01*
X120992999Y-74165259D01*
X120974493Y-74199985D01*
X120956058Y-74234538D01*
X120937621Y-74269049D01*
X120919253Y-74303388D01*
X120900885Y-74337687D01*
X120882585Y-74371813D01*
X120864286Y-74405899D01*
X120846055Y-74439813D01*
X120827823Y-74473686D01*
X120809661Y-74507389D01*
X120791498Y-74541051D01*
X120773404Y-74574542D01*
X120755309Y-74607992D01*
X120737284Y-74641274D01*
X120719258Y-74674513D01*
X120701300Y-74707584D01*
X120683342Y-74740613D01*
X120665453Y-74773475D01*
X120647564Y-74806295D01*
X120629742Y-74838948D01*
X120611922Y-74871558D01*
X120594168Y-74904003D01*
X120576416Y-74936405D01*
X120558731Y-74968642D01*
X120541046Y-75000836D01*
X120523429Y-75032866D01*
X120505813Y-75064852D01*
X120488264Y-75096676D01*
X120470715Y-75128456D01*
X120453234Y-75160073D01*
X120435754Y-75191647D01*
X120418341Y-75223059D01*
X120400928Y-75254428D01*
X120383583Y-75285635D01*
X120366238Y-75316799D01*
X120348960Y-75347802D01*
X120331684Y-75378761D01*
X120314474Y-75409561D01*
X120297265Y-75440316D01*
X120280122Y-75470913D01*
X120262981Y-75501466D01*
X120245906Y-75531861D01*
X120228832Y-75562211D01*
X120211824Y-75592404D01*
X120194818Y-75622553D01*
X120177878Y-75652545D01*
X120160939Y-75682492D01*
X120144066Y-75712284D01*
X120127195Y-75742031D01*
X120110388Y-75771623D01*
X120093584Y-75801170D01*
X120076845Y-75830563D01*
X120060108Y-75859912D01*
X120043436Y-75889106D01*
X120026766Y-75918256D01*
X120010161Y-75947253D01*
X119993558Y-75976205D01*
X119977019Y-76005005D01*
X119960483Y-76033760D01*
X119944011Y-76062363D01*
X119927542Y-76090922D01*
X119911137Y-76119330D01*
X119894734Y-76147692D01*
X119878395Y-76175905D01*
X119862059Y-76204073D01*
X119845786Y-76232092D01*
X119829517Y-76260065D01*
X119813310Y-76287890D01*
X119797107Y-76315669D01*
X119780966Y-76343301D01*
X119764829Y-76370888D01*
X119748755Y-76398327D01*
X119732684Y-76425722D01*
X119716675Y-76452970D01*
X119700670Y-76480172D01*
X119684728Y-76507230D01*
X119668789Y-76534241D01*
X119652911Y-76561109D01*
X119637038Y-76587930D01*
X119621226Y-76614608D01*
X119605418Y-76641240D01*
X119589672Y-76667729D01*
X119573930Y-76694172D01*
X119558249Y-76720473D01*
X119542572Y-76746728D01*
X119526956Y-76772842D01*
X119511344Y-76798910D01*
X119495793Y-76824837D01*
X119480247Y-76850718D01*
X119464761Y-76876459D01*
X119449279Y-76902154D01*
X119433858Y-76927710D01*
X119418441Y-76953220D01*
X119403084Y-76978592D01*
X119387732Y-77003917D01*
X119372440Y-77029105D01*
X119357152Y-77054247D01*
X119341924Y-77079251D01*
X119326701Y-77104210D01*
X119311537Y-77129033D01*
X119296378Y-77153809D01*
X119281279Y-77178450D01*
X119266184Y-77203045D01*
X119251148Y-77227505D01*
X119236117Y-77251919D01*
X119221145Y-77276199D01*
X119206178Y-77300433D01*
X119191270Y-77324534D01*
X119176367Y-77348589D01*
X119161522Y-77372511D01*
X119146682Y-77396387D01*
X119131901Y-77420131D01*
X119117124Y-77443829D01*
X119102406Y-77467396D01*
X119087693Y-77490917D01*
X119073038Y-77514308D01*
X119058388Y-77537653D01*
X119043795Y-77560867D01*
X119029208Y-77584037D01*
X119014679Y-77607077D01*
X119000154Y-77630071D01*
X118985687Y-77652936D01*
X118971226Y-77675756D01*
X118956821Y-77698449D01*
X118942422Y-77721095D01*
X118928080Y-77743615D01*
X118913743Y-77766089D01*
X118899463Y-77788437D01*
X118885188Y-77810739D01*
X118870970Y-77832915D01*
X118856757Y-77855046D01*
X118842601Y-77877052D01*
X118828450Y-77899013D01*
X118814355Y-77920849D01*
X118800266Y-77942640D01*
X118786233Y-77964307D01*
X118772205Y-77985929D01*
X118758233Y-78007428D01*
X118744267Y-78028882D01*
X118730356Y-78050213D01*
X118716451Y-78071500D01*
X118702602Y-78092664D01*
X118688758Y-78113784D01*
X118674969Y-78134783D01*
X118661186Y-78155737D01*
X118647457Y-78176571D01*
X118633735Y-78197359D01*
X118620067Y-78218028D01*
X118606405Y-78238652D01*
X118592798Y-78259158D01*
X118579196Y-78279619D01*
X118565649Y-78299961D01*
X118552108Y-78320259D01*
X118538621Y-78340439D01*
X118525140Y-78360575D01*
X118511712Y-78380593D01*
X118498291Y-78400568D01*
X118484923Y-78420426D01*
X118471561Y-78440239D01*
X118458253Y-78459937D01*
X118444951Y-78479591D01*
X118431702Y-78499130D01*
X118418459Y-78518624D01*
X118405270Y-78538005D01*
X118392086Y-78557341D01*
X118378956Y-78576564D01*
X118365831Y-78595742D01*
X118352759Y-78614808D01*
X118339693Y-78633830D01*
X118326680Y-78652739D01*
X118313673Y-78671605D01*
X118300718Y-78690359D01*
X118287770Y-78709069D01*
X118274873Y-78727669D01*
X118261983Y-78746224D01*
X118249144Y-78764670D01*
X118236312Y-78783071D01*
X118223532Y-78801363D01*
X118210758Y-78819612D01*
X118198035Y-78837752D01*
X118185319Y-78855848D01*
X118172653Y-78873836D01*
X118159995Y-78891781D01*
X118147387Y-78909618D01*
X118134786Y-78927411D01*
X118122235Y-78945099D01*
X118109691Y-78962742D01*
X118097198Y-78980280D01*
X118084711Y-78997774D01*
X118072274Y-79015163D01*
X118059844Y-79032508D01*
X118047464Y-79049749D01*
X118035091Y-79066947D01*
X118022768Y-79084040D01*
X118010451Y-79101091D01*
X117998184Y-79118038D01*
X117985923Y-79134942D01*
X117973712Y-79151744D01*
X117961508Y-79168502D01*
X117949353Y-79185159D01*
X117937205Y-79201772D01*
X117925106Y-79218284D01*
X117913013Y-79234754D01*
X117900970Y-79251123D01*
X117888933Y-79267449D01*
X117876945Y-79283675D01*
X117864963Y-79299858D01*
X117853031Y-79315942D01*
X117841105Y-79331983D01*
X117829227Y-79347926D01*
X117817356Y-79363826D01*
X117805533Y-79379628D01*
X117793717Y-79395388D01*
X117781949Y-79411051D01*
X117770187Y-79426671D01*
X117758474Y-79442194D01*
X117746766Y-79457675D01*
X117735107Y-79473060D01*
X117723455Y-79488403D01*
X117711850Y-79503650D01*
X117700251Y-79518856D01*
X117688700Y-79533966D01*
X117677155Y-79549035D01*
X117665658Y-79564009D01*
X117654167Y-79578942D01*
X117642724Y-79593781D01*
X117631286Y-79608578D01*
X117619896Y-79623282D01*
X117608512Y-79637945D01*
X117597175Y-79652515D01*
X117585845Y-79667044D01*
X117574561Y-79681481D01*
X117563283Y-79695877D01*
X117552052Y-79710182D01*
X117540827Y-79724445D01*
X117529649Y-79738618D01*
X117518477Y-79752750D01*
X117507351Y-79766791D01*
X117496231Y-79780792D01*
X117485157Y-79794704D01*
X117474090Y-79808574D01*
X117463069Y-79822356D01*
X117452054Y-79836097D01*
X117441084Y-79849750D01*
X117430121Y-79863363D01*
X117419203Y-79876887D01*
X117408291Y-79890372D01*
X117397425Y-79903769D01*
X117386565Y-79917126D01*
X117375750Y-79930397D01*
X117364941Y-79943627D01*
X117354177Y-79956771D01*
X117343420Y-79969876D01*
X117332707Y-79982895D01*
X117322000Y-79995875D01*
X117311338Y-80008769D01*
X117300683Y-80021624D01*
X117290071Y-80034395D01*
X117279466Y-80047126D01*
X117268905Y-80059773D01*
X117258350Y-80072382D01*
X117247839Y-80084907D01*
X117237335Y-80097392D01*
X117226874Y-80109796D01*
X117216420Y-80122160D01*
X117206009Y-80134442D01*
X117195604Y-80146685D01*
X117185243Y-80158847D01*
X117174888Y-80170970D01*
X117164576Y-80183012D01*
X117154271Y-80195016D01*
X117144008Y-80206939D01*
X117133752Y-80218823D01*
X117123538Y-80230628D01*
X117113331Y-80242395D01*
X117103167Y-80254082D01*
X117093008Y-80265731D01*
X117082892Y-80277302D01*
X117072783Y-80288834D01*
X117062716Y-80300288D01*
X117052655Y-80311704D01*
X117042635Y-80323043D01*
X117032623Y-80334344D01*
X117022652Y-80345568D01*
X117012687Y-80356754D01*
X117002764Y-80367864D01*
X116992848Y-80378936D01*
X116982973Y-80389933D01*
X116973104Y-80400892D01*
X116963276Y-80411775D01*
X116953455Y-80422622D01*
X116943675Y-80433393D01*
X116933901Y-80444128D01*
X116924168Y-80454788D01*
X116914441Y-80465411D01*
X116904755Y-80475960D01*
X116895075Y-80486473D01*
X116885436Y-80496912D01*
X116875803Y-80507315D01*
X116866210Y-80517645D01*
X116856624Y-80527938D01*
X116847077Y-80538160D01*
X116837538Y-80548345D01*
X116828037Y-80558458D01*
X116818544Y-80568535D01*
X116809090Y-80578541D01*
X116799642Y-80588511D01*
X116790234Y-80598410D01*
X116780832Y-80608273D01*
X116771470Y-80618066D01*
X116762113Y-80627824D01*
X116752796Y-80637512D01*
X116743486Y-80647164D01*
X116734214Y-80656747D01*
X116724949Y-80666295D01*
X116715722Y-80675774D01*
X116706501Y-80685217D01*
X116697320Y-80694593D01*
X116688144Y-80703934D01*
X116679007Y-80713206D01*
X116669876Y-80722444D01*
X116660784Y-80731615D01*
X116651697Y-80740751D01*
X116642649Y-80749821D01*
X116633607Y-80758855D01*
X116624603Y-80767824D01*
X116615605Y-80776758D01*
X116606645Y-80785626D01*
X116597691Y-80794460D01*
X116588774Y-80803229D01*
X116579864Y-80811964D01*
X116570991Y-80820634D01*
X116562125Y-80829270D01*
X116553295Y-80837842D01*
X116544472Y-80846380D01*
X116535685Y-80854854D01*
X116526905Y-80863295D01*
X116518162Y-80871672D01*
X116509424Y-80880016D01*
X116500724Y-80888297D01*
X116492029Y-80896544D01*
X116483371Y-80904730D01*
X116474719Y-80912882D01*
X116466104Y-80920972D01*
X116457494Y-80929029D01*
X116448921Y-80937025D01*
X116440353Y-80944988D01*
X116431822Y-80952890D01*
X116423297Y-80960759D01*
X116414807Y-80968568D01*
X116406323Y-80976344D01*
X116397875Y-80984061D01*
X116389433Y-80991744D01*
X116381027Y-80999369D01*
X116372626Y-81006961D01*
X116364261Y-81014494D01*
X116355902Y-81021994D01*
X116347577Y-81029437D01*
X116339259Y-81036847D01*
X116330976Y-81044199D01*
X116322698Y-81051519D01*
X116314456Y-81058782D01*
X116306219Y-81066013D01*
X116298017Y-81073187D01*
X116289820Y-81080329D01*
X116281658Y-81087415D01*
X116273502Y-81094469D01*
X116265380Y-81101466D01*
X116257264Y-81108433D01*
X116249182Y-81115344D01*
X116241106Y-81122223D01*
X116233064Y-81129047D01*
X116225027Y-81135840D01*
X116217024Y-81142579D01*
X116209027Y-81149286D01*
X116201064Y-81155939D01*
X116193106Y-81162561D01*
X116185182Y-81169130D01*
X116177263Y-81175667D01*
X116169378Y-81182152D01*
X116161498Y-81188605D01*
X116153651Y-81195006D01*
X116145810Y-81201376D01*
X116138002Y-81207694D01*
X116130200Y-81213981D01*
X116122430Y-81220216D01*
X116114666Y-81226421D01*
X116106934Y-81232575D01*
X116099208Y-81238698D01*
X116091514Y-81244770D01*
X116083826Y-81250813D01*
X116076170Y-81256804D01*
X116068520Y-81262766D01*
X116060901Y-81268677D01*
X116053288Y-81274559D01*
X116045707Y-81280391D01*
X116038132Y-81286193D01*
X116030588Y-81291946D01*
X116023050Y-81297670D01*
X116015543Y-81303344D01*
X116008041Y-81308989D01*
X116000571Y-81314586D01*
X115993107Y-81320153D01*
X115985673Y-81325673D01*
X115978245Y-81331163D01*
X115970848Y-81336605D01*
X115963456Y-81342019D01*
X115956095Y-81347385D01*
X115948740Y-81352723D01*
X115941415Y-81358013D01*
X115934095Y-81363275D01*
X115926806Y-81368491D01*
X115919522Y-81373678D01*
X115912269Y-81378819D01*
X115905021Y-81383931D01*
X115897803Y-81388998D01*
X115890590Y-81394037D01*
X115883407Y-81399030D01*
X115876229Y-81403995D01*
X115869082Y-81408916D01*
X115861939Y-81413808D01*
X115854826Y-81418656D01*
X115847718Y-81423476D01*
X115840640Y-81428252D01*
X115833567Y-81433000D01*
X115826523Y-81437704D01*
X115819484Y-81442381D01*
X115812474Y-81447015D01*
X115805470Y-81451621D01*
X115798494Y-81456184D01*
X115791524Y-81460720D01*
X115784582Y-81465214D01*
X115777645Y-81469680D01*
X115770737Y-81474104D01*
X115763834Y-81478501D01*
X115756959Y-81482856D01*
X115750090Y-81487184D01*
X115743248Y-81491471D01*
X115736412Y-81495731D01*
X115729603Y-81499950D01*
X115722800Y-81504142D01*
X115716024Y-81508294D01*
X115709254Y-81512419D01*
X115702511Y-81516504D01*
X115695773Y-81520562D01*
X115689063Y-81524581D01*
X115682357Y-81528573D01*
X115675679Y-81532525D01*
X115669006Y-81536451D01*
X115662360Y-81540339D01*
X115655719Y-81544200D01*
X115649104Y-81548022D01*
X115642495Y-81551818D01*
X115637133Y-81554881D01*
X133756192Y-37403327D02*
X133762469Y-37415925D01*
X133768701Y-37428614D01*
X133774889Y-37441393D01*
X133781033Y-37454265D01*
X133787132Y-37467228D01*
X133793186Y-37480285D01*
X133799195Y-37493434D01*
X133805159Y-37506678D01*
X133811078Y-37520015D01*
X133816951Y-37533448D01*
X133822779Y-37546976D01*
X133828561Y-37560600D01*
X133834297Y-37574321D01*
X133839987Y-37588139D01*
X133845631Y-37602055D01*
X133851228Y-37616069D01*
X133856779Y-37630181D01*
X133862282Y-37644394D01*
X133867739Y-37658706D01*
X133873148Y-37673119D01*
X133878510Y-37687633D01*
X133883824Y-37702248D01*
X133889090Y-37716967D01*
X133894308Y-37731788D01*
X133899478Y-37746713D01*
X133904599Y-37761741D01*
X133909671Y-37776875D01*
X133914694Y-37792114D01*
X133919668Y-37807459D01*
X133924592Y-37822911D01*
X133929467Y-37838470D01*
X133934291Y-37854137D01*
X133939065Y-37869912D01*
X133943789Y-37885797D01*
X133948462Y-37901791D01*
X133953083Y-37917895D01*
X133957653Y-37934111D01*
X133962172Y-37950438D01*
X133966638Y-37966878D01*
X133971053Y-37983431D01*
X133975414Y-38000097D01*
X133979723Y-38016877D01*
X133983979Y-38033773D01*
X133988182Y-38050783D01*
X133992330Y-38067911D01*
X133996425Y-38085155D01*
X134000466Y-38102517D01*
X134004451Y-38119996D01*
X134008382Y-38137595D01*
X134012258Y-38155314D01*
X134016078Y-38173153D01*
X134019842Y-38191112D01*
X134023549Y-38209194D01*
X134027200Y-38227397D01*
X134030794Y-38245724D01*
X134034331Y-38264175D01*
X134037811Y-38282749D01*
X134041232Y-38301449D01*
X134044595Y-38320275D01*
X134047899Y-38339228D01*
X134051144Y-38358307D01*
X134054330Y-38377515D01*
X134057456Y-38396851D01*
X134060522Y-38416317D01*
X134063527Y-38435912D01*
X134066472Y-38455639D01*
X134069355Y-38475497D01*
X134072177Y-38495487D01*
X134074936Y-38515611D01*
X134077633Y-38535868D01*
X134080267Y-38556260D01*
X134082838Y-38576786D01*
X134085346Y-38597449D01*
X134087789Y-38618249D01*
X134090168Y-38639186D01*
X134092482Y-38660261D01*
X134094731Y-38681475D01*
X134096914Y-38702829D01*
X134099032Y-38724323D01*
X134101082Y-38745959D01*
X134103066Y-38767737D01*
X134104982Y-38789657D01*
X134106831Y-38811721D01*
X134108611Y-38833929D01*
X134110323Y-38856283D01*
X134111966Y-38878782D01*
X134113539Y-38901428D01*
X134115042Y-38924222D01*
X134116475Y-38947163D01*
X134117837Y-38970254D01*
X134119128Y-38993494D01*
X134120346Y-39016886D01*
X134121493Y-39040428D01*
X134122567Y-39064123D01*
X134123567Y-39087971D01*
X134124495Y-39111973D01*
X134125348Y-39136129D01*
X134126126Y-39160441D01*
X134126829Y-39184909D01*
X134127457Y-39209534D01*
X134128009Y-39234317D01*
X134128484Y-39259259D01*
X134128882Y-39284361D01*
X134129203Y-39309623D01*
X134129446Y-39335046D01*
X134129610Y-39360631D01*
X134129696Y-39386379D01*
X134129702Y-39412291D01*
X134129628Y-39438368D01*
X134129473Y-39464610D01*
X134129238Y-39491019D01*
X134128921Y-39517594D01*
X134128522Y-39544338D01*
X134128040Y-39571251D01*
X134127475Y-39598333D01*
X134126827Y-39625586D01*
X134126095Y-39653011D01*
X134125278Y-39680608D01*
X134124375Y-39708378D01*
X134123387Y-39736323D01*
X134122313Y-39764443D01*
X134121152Y-39792738D01*
X134119904Y-39821211D01*
X134118568Y-39849861D01*
X134117143Y-39878689D01*
X134115630Y-39907698D01*
X134114027Y-39936887D01*
X134112334Y-39966257D01*
X134110550Y-39995809D01*
X134108675Y-40025545D01*
X134106708Y-40055465D01*
X134104649Y-40085570D01*
X134102497Y-40115860D01*
X134100251Y-40146338D01*
X134097911Y-40177004D01*
X134095477Y-40207858D01*
X134092948Y-40238902D01*
X134090322Y-40270137D01*
X134087601Y-40301563D01*
X134084782Y-40333182D01*
X134081866Y-40364995D01*
X134078851Y-40397002D01*
X134075738Y-40429204D01*
X134072526Y-40461603D01*
X134069213Y-40494200D01*
X134065800Y-40526994D01*
X134062286Y-40559988D01*
X134058670Y-40593183D01*
X134054951Y-40626579D01*
X134051130Y-40660177D01*
X134047205Y-40693978D01*
X134043175Y-40727984D01*
X134039041Y-40762196D01*
X134034801Y-40796613D01*
X134030455Y-40831238D01*
X134026003Y-40866072D01*
X134021442Y-40901114D01*
X134016774Y-40936368D01*
X134011997Y-40971833D01*
X134007111Y-41007510D01*
X134002115Y-41043401D01*
X133997008Y-41079507D01*
X133991790Y-41115828D01*
X133986460Y-41152366D01*
X133981017Y-41189122D01*
X133975461Y-41226097D01*
X133969791Y-41263292D01*
X133964006Y-41300708D01*
X133958106Y-41338346D01*
X133952091Y-41376207D01*
X133945958Y-41414292D01*
X133939708Y-41452603D01*
X133933341Y-41491141D01*
X133926854Y-41529906D01*
X133920248Y-41568900D01*
X133913523Y-41608124D01*
X133906676Y-41647579D01*
X133899708Y-41687266D01*
X133892618Y-41727186D01*
X133885404Y-41767341D01*
X133878068Y-41807731D01*
X133870607Y-41848359D01*
X133863021Y-41889224D01*
X133855309Y-41930328D01*
X133847471Y-41971672D01*
X133839505Y-42013259D01*
X133831412Y-42055087D01*
X133823190Y-42097160D01*
X133814838Y-42139478D01*
X133806357Y-42182042D01*
X133797745Y-42224853D01*
X133789001Y-42267914D01*
X133780124Y-42311224D01*
X133771115Y-42354786D01*
X133761971Y-42398600D01*
X133752693Y-42442668D01*
X133743280Y-42486991D01*
X133733730Y-42531570D01*
X133724043Y-42576407D01*
X133714219Y-42621503D01*
X133704256Y-42666859D01*
X133694154Y-42712477D01*
X133683912Y-42758358D01*
X133673528Y-42804502D01*
X133663003Y-42850913D01*
X133652336Y-42897590D01*
X133641525Y-42944536D01*
X133630570Y-42991751D01*
X133619470Y-43039237D01*
X133608224Y-43086996D01*
X133596832Y-43135028D01*
X133585292Y-43183336D01*
X133573604Y-43231920D01*
X133561767Y-43280783D01*
X133549779Y-43329925D01*
X133537641Y-43379348D01*
X133525352Y-43429054D01*
X133512909Y-43479044D01*
X133500313Y-43529319D01*
X133487563Y-43579881D01*
X133474658Y-43630732D01*
X133461596Y-43681873D01*
X133448378Y-43733305D01*
X133435001Y-43785031D01*
X133421466Y-43837052D01*
X133407771Y-43889369D01*
X133393915Y-43941984D01*
X133379898Y-43994899D01*
X133365718Y-44048115D01*
X133351375Y-44101634D01*
X133336868Y-44155458D01*
X133322195Y-44209588D01*
X133307355Y-44264026D01*
X133292349Y-44318774D01*
X133277174Y-44373834D01*
X133261830Y-44429207D01*
X133246315Y-44484895D01*
X133230630Y-44540900D01*
X133214772Y-44597224D01*
X133198740Y-44653868D01*
X133182535Y-44710836D01*
X133166154Y-44768127D01*
X133149596Y-44825745D01*
X133132861Y-44883692D01*
X133115947Y-44941968D01*
X133098854Y-45000577D01*
X133081580Y-45059521D01*
X133064124Y-45118801D01*
X133046485Y-45178419D01*
X133028662Y-45238378D01*
X133010654Y-45298680D01*
X132992459Y-45359326D01*
X132974077Y-45420320D01*
X132955506Y-45481664D01*
X132936745Y-45543359D01*
X132917793Y-45605407D01*
X132898648Y-45667813D01*
X132879310Y-45730577D01*
X132859777Y-45793702D01*
X132840048Y-45857190D01*
X132820121Y-45921045D01*
X132799996Y-45985269D01*
X132779671Y-46049863D01*
X132759144Y-46114832D01*
X132738414Y-46180177D01*
X132717481Y-46245901D01*
X132696342Y-46312007D01*
X132674996Y-46378498D01*
X132653441Y-46445377D01*
X132631677Y-46512647D01*
X132609701Y-46580310D01*
X132587513Y-46648370D01*
X132565110Y-46716830D01*
X132542491Y-46785693D01*
X132519655Y-46854962D01*
X132496600Y-46924641D01*
X132473324Y-46994732D01*
X132449825Y-47065241D01*
X132426102Y-47136169D01*
X132402153Y-47207521D01*
X132377977Y-47279300D01*
X132353571Y-47351510D01*
X132328934Y-47424156D01*
X132304064Y-47497240D01*
X132278958Y-47570768D01*
X132253616Y-47644743D01*
X132228034Y-47719170D01*
X132202211Y-47794052D01*
X132176145Y-47869395D01*
X132149833Y-47945204D01*
X132123274Y-48021482D01*
X132096465Y-48098236D01*
X132069404Y-48175469D01*
X132042088Y-48253188D01*
X132014515Y-48331397D01*
X131986682Y-48410103D01*
X131958588Y-48489310D01*
X131930228Y-48569025D01*
X131901601Y-48649254D01*
X131872704Y-48730004D01*
X131843534Y-48811279D01*
X131814087Y-48893089D01*
X131784361Y-48975438D01*
X131754353Y-49058335D01*
X131724058Y-49141788D01*
X131693475Y-49225803D01*
X131662599Y-49310388D01*
X131631427Y-49395553D01*
X131599954Y-49481306D01*
X131568178Y-49567656D01*
X131536093Y-49654612D01*
X131503696Y-49742184D01*
X131470982Y-49830383D01*
X131437947Y-49919219D01*
X131404586Y-50008702D01*
X131370894Y-50098846D01*
X131336866Y-50189661D01*
X131302496Y-50281162D01*
X131267778Y-50373360D01*
X131232707Y-50466271D01*
X131197277Y-50559909D01*
X131161480Y-50654290D01*
X131125310Y-50749430D01*
X131088760Y-50845346D01*
X131051822Y-50942057D01*
X131014487Y-51039582D01*
X130976748Y-51137942D01*
X130938594Y-51237159D01*
X130900018Y-51337255D01*
X130861007Y-51438255D01*
X130821552Y-51540185D01*
X130781640Y-51643074D01*
X130741260Y-51746952D01*
X130700397Y-51851850D01*
X130659038Y-51957804D01*
X130617167Y-52064851D01*
X130574768Y-52173031D01*
X130531822Y-52282387D01*
X130488310Y-52392967D01*
X130444210Y-52504822D01*
X130399501Y-52618010D01*
X130354155Y-52732590D01*
X130308146Y-52848632D01*
X130261443Y-52966210D01*
X130214011Y-53085407D01*
X130165812Y-53206316D01*
X130116805Y-53329039D01*
X130066942Y-53453693D01*
X130016168Y-53580411D01*
X129964422Y-53709341D01*
X129911633Y-53840657D01*
X129857720Y-53974558D01*
X129802588Y-54111277D01*
X129746122Y-54251091D01*
X129688189Y-54394328D01*
X129628625Y-54541388D01*
X129567228Y-54692763D01*
X129503745Y-54849075D01*
X129437848Y-55011122D01*
X129369103Y-55179965D01*
X129296912Y-55357066D01*
X129220408Y-55544545D01*
X129138245Y-55745686D01*
X129048123Y-55966114D01*
X128945421Y-56217119D01*
X128817553Y-56529448D01*
X128772769Y-56638817D01*
X128686608Y-56849239D01*
X128601252Y-57057746D01*
X128516747Y-57264275D01*
X128433140Y-57468761D01*
X128391688Y-57570218D01*
X128350479Y-57671141D01*
X128309517Y-57771520D01*
X128268809Y-57871350D01*
X128228360Y-57970621D01*
X128188177Y-58069325D01*
X128148266Y-58167454D01*
X128108631Y-58265001D01*
X128069280Y-58361958D01*
X128030217Y-58458316D01*
X127991449Y-58554067D01*
X127952982Y-58649204D01*
X127914821Y-58743718D01*
X127876973Y-58837602D01*
X127839442Y-58930847D01*
X127802236Y-59023446D01*
X127765359Y-59115390D01*
X127728818Y-59206671D01*
X127692619Y-59297282D01*
X127656767Y-59387215D01*
X127621268Y-59476461D01*
X127586128Y-59565012D01*
X127568695Y-59609025D01*
X127551353Y-59652861D01*
X127534104Y-59696520D01*
X127516949Y-59740000D01*
X111860416Y-25149973D02*
X111962080Y-25198518D01*
X112064920Y-25247536D01*
X112168973Y-25297044D01*
X112274278Y-25347060D01*
X112380878Y-25397602D01*
X112488816Y-25448690D01*
X112598141Y-25500348D01*
X112708905Y-25552597D01*
X112821163Y-25605463D01*
X112934976Y-25658973D01*
X113050410Y-25713157D01*
X113167534Y-25768047D01*
X113286427Y-25823678D01*
X113407173Y-25880088D01*
X113529865Y-25937320D01*
X113654605Y-25995419D01*
X113781507Y-26054438D01*
X113910695Y-26114433D01*
X114042312Y-26175468D01*
X114176515Y-26237615D01*
X114313482Y-26300954D01*
X114453417Y-26365579D01*
X114596554Y-26431595D01*
X114743161Y-26499124D01*
X114893553Y-26568310D01*
X115048104Y-26639322D01*
X115207256Y-26712362D01*
X115371549Y-26787675D01*
X115541650Y-26865563D01*
X115718398Y-26946408D01*
X115902877Y-27030704D01*
X116096535Y-27119108D01*
X116301381Y-27212533D01*
X116520354Y-27312318D01*
X116758091Y-27420568D01*
X117022741Y-27540990D01*
X117331499Y-27681403D01*
X117756304Y-27874515D01*
X118100985Y-28031198D01*
X118445277Y-28187756D01*
X118617237Y-28265987D01*
X118789052Y-28344183D01*
X118960707Y-28422346D01*
X119132185Y-28500473D01*
X119303471Y-28578564D01*
X119474548Y-28656619D01*
X119645402Y-28734637D01*
X119816016Y-28812616D01*
X119986374Y-28890557D01*
X120071452Y-28929513D01*
X120156460Y-28968459D01*
X120241397Y-29007394D01*
X120326260Y-29046320D01*
X120411047Y-29085235D01*
X120495756Y-29124140D01*
X120580385Y-29163035D01*
X120664933Y-29201919D01*
X120749397Y-29240792D01*
X120833776Y-29279655D01*
X120918066Y-29318506D01*
X121002267Y-29357347D01*
X121086377Y-29396177D01*
X121170393Y-29434996D01*
X121254313Y-29473804D01*
X121338136Y-29512601D01*
X121421859Y-29551386D01*
X121505481Y-29590160D01*
X121589000Y-29628922D01*
X121672413Y-29667672D01*
X121755718Y-29706411D01*
X121838914Y-29745138D01*
X121921999Y-29783853D01*
X122004970Y-29822557D01*
X122087826Y-29861248D01*
X122170565Y-29899927D01*
X122253184Y-29938593D01*
X122335682Y-29977247D01*
X122418057Y-30015889D01*
X122500307Y-30054519D01*
X122582429Y-30093135D01*
X122664423Y-30131739D01*
X122746285Y-30170330D01*
X122828014Y-30208908D01*
X122909607Y-30247473D01*
X122991064Y-30286025D01*
X123072382Y-30324564D01*
X123153558Y-30363090D01*
X123234592Y-30401602D01*
X123315481Y-30440101D01*
X123396222Y-30478586D01*
X123476815Y-30517057D01*
X123557256Y-30555515D01*
X123637545Y-30593959D01*
X123717679Y-30632389D01*
X123797656Y-30670805D01*
X123877474Y-30709207D01*
X123957131Y-30747595D01*
X124036626Y-30785968D01*
X124115956Y-30824327D01*
X124195119Y-30862671D01*
X124274113Y-30901001D01*
X124352936Y-30939316D01*
X124431587Y-30977617D01*
X124510063Y-31015902D01*
X124588363Y-31054173D01*
X124666483Y-31092429D01*
X124744424Y-31130669D01*
X124822181Y-31168894D01*
X124899754Y-31207104D01*
X124977141Y-31245299D01*
X125054339Y-31283478D01*
X125131346Y-31321641D01*
X125208161Y-31359789D01*
X125284782Y-31397921D01*
X125361206Y-31436037D01*
X125437431Y-31474137D01*
X125513457Y-31512222D01*
X125589280Y-31550290D01*
X125664898Y-31588341D01*
X125740311Y-31626377D01*
X125815514Y-31664396D01*
X125853038Y-31683399D01*
X125890508Y-31702398D01*
X125927926Y-31721393D01*
X125965290Y-31740384D01*
X126002600Y-31759371D01*
X126039857Y-31778353D01*
X126077059Y-31797331D01*
X126114208Y-31816306D01*
X126151302Y-31835275D01*
X126188341Y-31854241D01*
X126225324Y-31873202D01*
X126262253Y-31892160D01*
X126299126Y-31911112D01*
X126335944Y-31930061D01*
X126372705Y-31949005D01*
X126409410Y-31967945D01*
X126446058Y-31986881D01*
X126482650Y-32005812D01*
X126519185Y-32024739D01*
X126555662Y-32043662D01*
X126592082Y-32062580D01*
X126628444Y-32081494D01*
X126664749Y-32100404D01*
X126700994Y-32119309D01*
X126737182Y-32138210D01*
X126773310Y-32157106D01*
X126809380Y-32175998D01*
X126845390Y-32194885D01*
X126881341Y-32213769D01*
X126917233Y-32232647D01*
X126953064Y-32251521D01*
X126988835Y-32270391D01*
X127024545Y-32289256D01*
X127060195Y-32308116D01*
X127095784Y-32326973D01*
X127131311Y-32345824D01*
X127166777Y-32364671D01*
X127202182Y-32383514D01*
X127237524Y-32402351D01*
X127272804Y-32421185D01*
X127308022Y-32440013D01*
X127343177Y-32458838D01*
X127378269Y-32477657D01*
X127413298Y-32496472D01*
X127448263Y-32515282D01*
X127483165Y-32534088D01*
X127518003Y-32552889D01*
X127552776Y-32571685D01*
X127587485Y-32590477D01*
X127622130Y-32609263D01*
X127656709Y-32628046D01*
X127691224Y-32646823D01*
X127725672Y-32665596D01*
X127760056Y-32684364D01*
X127794373Y-32703127D01*
X127828624Y-32721885D01*
X127862809Y-32740639D01*
X127896927Y-32759388D01*
X127930978Y-32778132D01*
X127964962Y-32796872D01*
X127998879Y-32815606D01*
X128032728Y-32834336D01*
X128066509Y-32853061D01*
X128100222Y-32871781D01*
X128133866Y-32890496D01*
X128167442Y-32909206D01*
X128200949Y-32927911D01*
X128234387Y-32946612D01*
X128267755Y-32965307D01*
X128301054Y-32983998D01*
X128334283Y-33002683D01*
X128367442Y-33021364D01*
X128400530Y-33040040D01*
X128433548Y-33058711D01*
X128466495Y-33077376D01*
X128499371Y-33096037D01*
X128532175Y-33114693D01*
X128564908Y-33133344D01*
X128597569Y-33151990D01*
X128630158Y-33170630D01*
X128662675Y-33189266D01*
X128695119Y-33207897D01*
X128727490Y-33226522D01*
X128759788Y-33245143D01*
X128792013Y-33263758D01*
X128824164Y-33282368D01*
X128856241Y-33300973D01*
X128888244Y-33319573D01*
X128920173Y-33338168D01*
X128952027Y-33356758D01*
X128983807Y-33375342D01*
X129015511Y-33393922D01*
X129047140Y-33412496D01*
X129078694Y-33431065D01*
X129110172Y-33449629D01*
X129141573Y-33468187D01*
X129172899Y-33486740D01*
X129204147Y-33505288D01*
X129235319Y-33523831D01*
X129266414Y-33542369D01*
X129297432Y-33560901D01*
X129328372Y-33579428D01*
X129359235Y-33597949D01*
X129390019Y-33616466D01*
X129420725Y-33634977D01*
X129451352Y-33653482D01*
X129481901Y-33671983D01*
X129512371Y-33690478D01*
X129542761Y-33708967D01*
X129573072Y-33727451D01*
X129603303Y-33745930D01*
X129633454Y-33764404D01*
X129663525Y-33782872D01*
X129693515Y-33801334D01*
X129723425Y-33819791D01*
X129753254Y-33838243D01*
X129783001Y-33856689D01*
X129812667Y-33875130D01*
X129842251Y-33893565D01*
X129871753Y-33911994D01*
X129901173Y-33930419D01*
X129930510Y-33948837D01*
X129959765Y-33967250D01*
X129988937Y-33985658D01*
X130018025Y-34004060D01*
X130047030Y-34022456D01*
X130075951Y-34040847D01*
X130104788Y-34059233D01*
X130133541Y-34077612D01*
X130162210Y-34095986D01*
X130190794Y-34114355D01*
X130219293Y-34132718D01*
X130247707Y-34151075D01*
X130276035Y-34169426D01*
X130304277Y-34187772D01*
X130332434Y-34206112D01*
X130360504Y-34224446D01*
X130388488Y-34242775D01*
X130416386Y-34261098D01*
X130444196Y-34279415D01*
X130471919Y-34297727D01*
X130499555Y-34316033D01*
X130527103Y-34334333D01*
X130554563Y-34352627D01*
X130581935Y-34370915D01*
X130609218Y-34389198D01*
X130636413Y-34407475D01*
X130663519Y-34425746D01*
X130690536Y-34444011D01*
X130717463Y-34462270D01*
X130744301Y-34480524D01*
X130771049Y-34498771D01*
X130797707Y-34517013D01*
X130824274Y-34535249D01*
X130850750Y-34553479D01*
X130877136Y-34571703D01*
X130903431Y-34589921D01*
X130929634Y-34608133D01*
X130955746Y-34626339D01*
X130981765Y-34644539D01*
X131007693Y-34662733D01*
X131033528Y-34680922D01*
X131059270Y-34699104D01*
X131084920Y-34717280D01*
X131110477Y-34735450D01*
X131135940Y-34753615D01*
X131161310Y-34771773D01*
X131186585Y-34789925D01*
X131211767Y-34808071D01*
X131236854Y-34826211D01*
X131261847Y-34844345D01*
X131286745Y-34862473D01*
X131311547Y-34880594D01*
X131336255Y-34898710D01*
X131360866Y-34916819D01*
X131385382Y-34934922D01*
X131409802Y-34953020D01*
X131434126Y-34971110D01*
X131458353Y-34989195D01*
X131482483Y-35007274D01*
X131506516Y-35025346D01*
X131530452Y-35043412D01*
X131554290Y-35061472D01*
X131578030Y-35079526D01*
X131601673Y-35097573D01*
X131625216Y-35115614D01*
X131648662Y-35133649D01*
X131672009Y-35151678D01*
X131695256Y-35169700D01*
X131718404Y-35187716D01*
X131741453Y-35205726D01*
X131764402Y-35223729D01*
X131787251Y-35241726D01*
X131809999Y-35259717D01*
X131832648Y-35277701D01*
X131855195Y-35295679D01*
X131877641Y-35313651D01*
X131899986Y-35331616D01*
X131922229Y-35349574D01*
X131944371Y-35367527D01*
X131966411Y-35385472D01*
X131988348Y-35403412D01*
X132010183Y-35421345D01*
X132031915Y-35439271D01*
X132053544Y-35457191D01*
X132075070Y-35475105D01*
X132096493Y-35493012D01*
X132117811Y-35510912D01*
X132139026Y-35528806D01*
X132160136Y-35546694D01*
X132181142Y-35564575D01*
X132202043Y-35582449D01*
X132222839Y-35600317D01*
X132243530Y-35618178D01*
X132264116Y-35636032D01*
X132284595Y-35653880D01*
X132304969Y-35671722D01*
X132325237Y-35689556D01*
X132345398Y-35707384D01*
X132365452Y-35725206D01*
X132385399Y-35743020D01*
X132405239Y-35760829D01*
X132424972Y-35778630D01*
X132444597Y-35796425D01*
X132464114Y-35814213D01*
X132483523Y-35831994D01*
X132502823Y-35849768D01*
X132522015Y-35867536D01*
X132541098Y-35885297D01*
X132560071Y-35903051D01*
X132578936Y-35920799D01*
X132597690Y-35938539D01*
X132616335Y-35956273D01*
X132634869Y-35974000D01*
X132653293Y-35991720D01*
X132671606Y-36009434D01*
X132689808Y-36027140D01*
X132707899Y-36044840D01*
X132725879Y-36062533D01*
X132743747Y-36080219D01*
X132761503Y-36097898D01*
X132779148Y-36115570D01*
X132796679Y-36133235D01*
X132814098Y-36150893D01*
X132831404Y-36168545D01*
X132848597Y-36186189D01*
X132865677Y-36203826D01*
X132882643Y-36221457D01*
X132899495Y-36239080D01*
X132916232Y-36256697D01*
X132932856Y-36274306D01*
X132949365Y-36291908D01*
X132965759Y-36309504D01*
X132982038Y-36327092D01*
X132990134Y-36335884D01*
X132998201Y-36344673D01*
X133006240Y-36353461D01*
X133014249Y-36362248D01*
X133022229Y-36371032D01*
X133030181Y-36379815D01*
X133038103Y-36388596D01*
X133045997Y-36397375D01*
X133053861Y-36406152D01*
X133061696Y-36414928D01*
X133069503Y-36423701D01*
X133077279Y-36432473D01*
X133085027Y-36441244D01*
X133092745Y-36450012D01*
X133100435Y-36458779D01*
X133108094Y-36467544D01*
X133115725Y-36476307D01*
X133123326Y-36485068D01*
X133130898Y-36493828D01*
X133138440Y-36502585D01*
X133145953Y-36511341D01*
X133153436Y-36520095D01*
X133160890Y-36528848D01*
X133168314Y-36537598D01*
X133175709Y-36546347D01*
X133183074Y-36555094D01*
X133190410Y-36563839D01*
X133197715Y-36572582D01*
X133204991Y-36581324D01*
X133212238Y-36590064D01*
X133219454Y-36598801D01*
X133226641Y-36607538D01*
X133233798Y-36616272D01*
X133240925Y-36625004D01*
X133248022Y-36633735D01*
X133255089Y-36642464D01*
X133262127Y-36651191D01*
X133269134Y-36659916D01*
X133276111Y-36668639D01*
X133283058Y-36677361D01*
X133289976Y-36686081D01*
X133296863Y-36694799D01*
X133303720Y-36703515D01*
X133310546Y-36712229D01*
X133317343Y-36720942D01*
X133324109Y-36729652D01*
X133330845Y-36738361D01*
X133337551Y-36747068D01*
X133344226Y-36755773D01*
X133350871Y-36764476D01*
X133357486Y-36773178D01*
X133364070Y-36781878D01*
X133370624Y-36790575D01*
X133377147Y-36799271D01*
X133383640Y-36807965D01*
X133390102Y-36816658D01*
X133396534Y-36825348D01*
X133402935Y-36834037D01*
X133409306Y-36842723D01*
X133415645Y-36851408D01*
X133421954Y-36860091D01*
X133428233Y-36868772D01*
X133434480Y-36877452D01*
X133440697Y-36886129D01*
X133446883Y-36894805D01*
X133453038Y-36903478D01*
X133459163Y-36912150D01*
X133465256Y-36920820D01*
X133471318Y-36929488D01*
X133477350Y-36938155D01*
X133483350Y-36946819D01*
X133489319Y-36955482D01*
X133495258Y-36964142D01*
X133501165Y-36972801D01*
X133507041Y-36981458D01*
X133512886Y-36990113D01*
X133518700Y-36998767D01*
X133524482Y-37007418D01*
X133530234Y-37016067D01*
X133535953Y-37024715D01*
X133541642Y-37033361D01*
X133547299Y-37042004D01*
X133552925Y-37050646D01*
X133558520Y-37059286D01*
X133564083Y-37067925D01*
X133569615Y-37076561D01*
X133575115Y-37085195D01*
X133580583Y-37093828D01*
X133586020Y-37102458D01*
X133591426Y-37111087D01*
X133596800Y-37119714D01*
X133602142Y-37128339D01*
X133607452Y-37136962D01*
X133612731Y-37145583D01*
X133617978Y-37154202D01*
X133623193Y-37162820D01*
X133628377Y-37171435D01*
X133633528Y-37180048D01*
X133638648Y-37188660D01*
X133643736Y-37197270D01*
X133648792Y-37205878D01*
X133653815Y-37214483D01*
X133658807Y-37223087D01*
X133663767Y-37231690D01*
X133668695Y-37240290D01*
X133673591Y-37248888D01*
X133678454Y-37257484D01*
X133683286Y-37266079D01*
X133688085Y-37274671D01*
X133692852Y-37283262D01*
X133697587Y-37291850D01*
X133702290Y-37300437D01*
X133706960Y-37309022D01*
X133711598Y-37317605D01*
X133716203Y-37326186D01*
X133720777Y-37334765D01*
X133725317Y-37343342D01*
X133729826Y-37351917D01*
X133734301Y-37360490D01*
X133738745Y-37369061D01*
X133743155Y-37377631D01*
X133747534Y-37386198D01*
X133751879Y-37394763D01*
X133756192Y-37403327D01*
X85887225Y-16004418D02*
X85913536Y-16004154D01*
X85940019Y-16003968D01*
X85966675Y-16003860D01*
X85993504Y-16003833D01*
X86020507Y-16003885D01*
X86047685Y-16004017D01*
X86075039Y-16004230D01*
X86102571Y-16004525D01*
X86130280Y-16004901D01*
X86158167Y-16005361D01*
X86186234Y-16005903D01*
X86214481Y-16006528D01*
X86242909Y-16007238D01*
X86271520Y-16008032D01*
X86300313Y-16008912D01*
X86329290Y-16009877D01*
X86358451Y-16010928D01*
X86387798Y-16012066D01*
X86417332Y-16013292D01*
X86447052Y-16014605D01*
X86476961Y-16016007D01*
X86507059Y-16017497D01*
X86537347Y-16019078D01*
X86567825Y-16020748D01*
X86598495Y-16022509D01*
X86629358Y-16024361D01*
X86660414Y-16026305D01*
X86691664Y-16028341D01*
X86723110Y-16030471D01*
X86754751Y-16032693D01*
X86786590Y-16035010D01*
X86818626Y-16037422D01*
X86850862Y-16039928D01*
X86883297Y-16042531D01*
X86915932Y-16045230D01*
X86948770Y-16048026D01*
X86981809Y-16050919D01*
X87015052Y-16053910D01*
X87048499Y-16057001D01*
X87082151Y-16060190D01*
X87116010Y-16063480D01*
X87150075Y-16066870D01*
X87184348Y-16070361D01*
X87218830Y-16073954D01*
X87253521Y-16077649D01*
X87288423Y-16081447D01*
X87323537Y-16085348D01*
X87358863Y-16089354D01*
X87394403Y-16093464D01*
X87430156Y-16097680D01*
X87466125Y-16102002D01*
X87502311Y-16106430D01*
X87538713Y-16110966D01*
X87575333Y-16115609D01*
X87612172Y-16120361D01*
X87649232Y-16125221D01*
X87686511Y-16130192D01*
X87724013Y-16135272D01*
X87761737Y-16140464D01*
X87799685Y-16145767D01*
X87837858Y-16151183D01*
X87876256Y-16156711D01*
X87914880Y-16162352D01*
X87953732Y-16168108D01*
X87992812Y-16173978D01*
X88032122Y-16179964D01*
X88071661Y-16186066D01*
X88111432Y-16192284D01*
X88151435Y-16198620D01*
X88191671Y-16205074D01*
X88232141Y-16211646D01*
X88272846Y-16218337D01*
X88313787Y-16225149D01*
X88354964Y-16232080D01*
X88396380Y-16239133D01*
X88438034Y-16246308D01*
X88479928Y-16253605D01*
X88522063Y-16261026D01*
X88564439Y-16268570D01*
X88607058Y-16276239D01*
X88649921Y-16284033D01*
X88693028Y-16291952D01*
X88736380Y-16299998D01*
X88779979Y-16308171D01*
X88823825Y-16316472D01*
X88867920Y-16324902D01*
X88912264Y-16333460D01*
X88956858Y-16342149D01*
X89001704Y-16350967D01*
X89046802Y-16359917D01*
X89092153Y-16368999D01*
X89137758Y-16378213D01*
X89183618Y-16387561D01*
X89229735Y-16397042D01*
X89276108Y-16406658D01*
X89322740Y-16416409D01*
X89369630Y-16426296D01*
X89416781Y-16436319D01*
X89464192Y-16446480D01*
X89511866Y-16456779D01*
X89559802Y-16467216D01*
X89608002Y-16477793D01*
X89656467Y-16488510D01*
X89705198Y-16499367D01*
X89754196Y-16510366D01*
X89803461Y-16521507D01*
X89852995Y-16532791D01*
X89902799Y-16544218D01*
X89952874Y-16555790D01*
X90003220Y-16567506D01*
X90053838Y-16579368D01*
X90104731Y-16591376D01*
X90155898Y-16603531D01*
X90207340Y-16615834D01*
X90259060Y-16628286D01*
X90311056Y-16640886D01*
X90363331Y-16653636D01*
X90415886Y-16666537D01*
X90468721Y-16679589D01*
X90521837Y-16692792D01*
X90575236Y-16706149D01*
X90628918Y-16719659D01*
X90682884Y-16733322D01*
X90737136Y-16747141D01*
X90791674Y-16761115D01*
X90846499Y-16775245D01*
X90901612Y-16789532D01*
X90957015Y-16803977D01*
X91012708Y-16818580D01*
X91068692Y-16833342D01*
X91124967Y-16848264D01*
X91181536Y-16863346D01*
X91238399Y-16878589D01*
X91295557Y-16893995D01*
X91353011Y-16909562D01*
X91410762Y-16925294D01*
X91468811Y-16941189D01*
X91527158Y-16957249D01*
X91585806Y-16973475D01*
X91644754Y-16989866D01*
X91704004Y-17006425D01*
X91763556Y-17023151D01*
X91823412Y-17040046D01*
X91883573Y-17057110D01*
X91944039Y-17074343D01*
X92004812Y-17091747D01*
X92065892Y-17109322D01*
X92127281Y-17127070D01*
X92188979Y-17144990D01*
X92250987Y-17163083D01*
X92313307Y-17181351D01*
X92375938Y-17199793D01*
X92438883Y-17218411D01*
X92502142Y-17237205D01*
X92565716Y-17256176D01*
X92629606Y-17275325D01*
X92693812Y-17294653D01*
X92758337Y-17314160D01*
X92823180Y-17333846D01*
X92888343Y-17353713D01*
X92953826Y-17373762D01*
X93019631Y-17393992D01*
X93085759Y-17414406D01*
X93152209Y-17435003D01*
X93218984Y-17455784D01*
X93286084Y-17476750D01*
X93353510Y-17497902D01*
X93421263Y-17519240D01*
X93489344Y-17540765D01*
X93557754Y-17562478D01*
X93626494Y-17584380D01*
X93695563Y-17606471D01*
X93764965Y-17628752D01*
X93834699Y-17651223D01*
X93904766Y-17673886D01*
X93975167Y-17696741D01*
X94045903Y-17719789D01*
X94116975Y-17743030D01*
X94188383Y-17766466D01*
X94260130Y-17790097D01*
X94332214Y-17813923D01*
X94404638Y-17837945D01*
X94477402Y-17862165D01*
X94550507Y-17886583D01*
X94623954Y-17911199D01*
X94697744Y-17936014D01*
X94771877Y-17961029D01*
X94846354Y-17986244D01*
X94921177Y-18011661D01*
X94996345Y-18037280D01*
X95071861Y-18063101D01*
X95147724Y-18089126D01*
X95223935Y-18115355D01*
X95300495Y-18141789D01*
X95377406Y-18168428D01*
X95454667Y-18195273D01*
X95532280Y-18222325D01*
X95610245Y-18249584D01*
X95688563Y-18277052D01*
X95767235Y-18304728D01*
X95846262Y-18332614D01*
X95925644Y-18360710D01*
X96005382Y-18389017D01*
X96085477Y-18417536D01*
X96165930Y-18446266D01*
X96246740Y-18475210D01*
X96327910Y-18504367D01*
X96409439Y-18533738D01*
X96491329Y-18563324D01*
X96573580Y-18593125D01*
X96656193Y-18623143D01*
X96739168Y-18653377D01*
X96822506Y-18683828D01*
X96906208Y-18714498D01*
X96990274Y-18745386D01*
X97074705Y-18776494D01*
X97159502Y-18807821D01*
X97244665Y-18839369D01*
X97330195Y-18871138D01*
X97416093Y-18903129D01*
X97502359Y-18935343D01*
X97588993Y-18967779D01*
X97675996Y-19000439D01*
X97763370Y-19033323D01*
X97851113Y-19066432D01*
X97939227Y-19099766D01*
X98027713Y-19133326D01*
X98116571Y-19167113D01*
X98205801Y-19201126D01*
X98295404Y-19235368D01*
X98385380Y-19269838D01*
X98475730Y-19304536D01*
X98566455Y-19339464D01*
X98657554Y-19374622D01*
X98749028Y-19410010D01*
X98840878Y-19445629D01*
X98933103Y-19481480D01*
X99025705Y-19517563D01*
X99118684Y-19553878D01*
X99212040Y-19590426D01*
X99305773Y-19627208D01*
X99399884Y-19664224D01*
X99494372Y-19701475D01*
X99589239Y-19738960D01*
X99684485Y-19776681D01*
X99780109Y-19814638D01*
X99876113Y-19852832D01*
X99972496Y-19891262D01*
X100069258Y-19929930D01*
X100166400Y-19968835D01*
X100263921Y-20007979D01*
X100361823Y-20047361D01*
X100460105Y-20086983D01*
X100558767Y-20126843D01*
X100657809Y-20166944D01*
X100757231Y-20207285D01*
X100857034Y-20247866D01*
X100957217Y-20288688D01*
X101057781Y-20329752D01*
X101158725Y-20371057D01*
X101260049Y-20412604D01*
X101361754Y-20454393D01*
X101463839Y-20496425D01*
X101566304Y-20538700D01*
X101669148Y-20581218D01*
X101772373Y-20623980D01*
X101875977Y-20666985D01*
X101979960Y-20710234D01*
X102084322Y-20753727D01*
X102189063Y-20797465D01*
X102294183Y-20841447D01*
X102399680Y-20885674D01*
X102505556Y-20930146D01*
X102611808Y-20974863D01*
X102718438Y-21019825D01*
X102825444Y-21065033D01*
X102932826Y-21110487D01*
X103040583Y-21156186D01*
X103148715Y-21202130D01*
X103257221Y-21248321D01*
X103366101Y-21294757D01*
X103475354Y-21341440D01*
X103584979Y-21388368D01*
X103694975Y-21435542D01*
X103805343Y-21482962D01*
X103916079Y-21530627D01*
X104027185Y-21578539D01*
X104138659Y-21626696D01*
X104250500Y-21675099D01*
X104362707Y-21723747D01*
X104475279Y-21772641D01*
X104588216Y-21821779D01*
X104701514Y-21871163D01*
X104815175Y-21920791D01*
X104929196Y-21970664D01*
X105043576Y-22020781D01*
X105158313Y-22071142D01*
X105273407Y-22121747D01*
X105388856Y-22172595D01*
X105504658Y-22223685D01*
X105620813Y-22275019D01*
X105737317Y-22326594D01*
X105854170Y-22378411D01*
X105971370Y-22430469D01*
X106088914Y-22482768D01*
X106206802Y-22535306D01*
X106325031Y-22588084D01*
X106443600Y-22641101D01*
X106562505Y-22694357D01*
X106681745Y-22747850D01*
X106801319Y-22801579D01*
X106921222Y-22855545D01*
X107041454Y-22909746D01*
X107162012Y-22964181D01*
X107282893Y-23018850D01*
X107404095Y-23073751D01*
X107525614Y-23128884D01*
X107647449Y-23184248D01*
X107769596Y-23239841D01*
X107892052Y-23295663D01*
X108014815Y-23351712D01*
X108137881Y-23407987D01*
X108261247Y-23464487D01*
X108384909Y-23521211D01*
X108508865Y-23578157D01*
X108633111Y-23635324D01*
X108757643Y-23692711D01*
X108882457Y-23750316D01*
X109007549Y-23808137D01*
X109132916Y-23866172D01*
X109258554Y-23924421D01*
X109384458Y-23982881D01*
X109510623Y-24041551D01*
X109637046Y-24100429D01*
X109763722Y-24159512D01*
X109890646Y-24218799D01*
X110017813Y-24278288D01*
X110145219Y-24337976D01*
X110272857Y-24397861D01*
X110400724Y-24457942D01*
X110528812Y-24518215D01*
X110657117Y-24578678D01*
X110785633Y-24639328D01*
X110914354Y-24700164D01*
X111043274Y-24761182D01*
X111172386Y-24822379D01*
X111301685Y-24883752D01*
X111431162Y-24945299D01*
X111560813Y-25007016D01*
X111690629Y-25068901D01*
X111820603Y-25130949D01*
X111860416Y-25149973D01*
X59429226Y-25149973D02*
X59520632Y-25109971D01*
X59613498Y-25069353D01*
X59702653Y-25030381D01*
X59793086Y-24990873D01*
X59880528Y-24952695D01*
X59969109Y-24914042D01*
X60055193Y-24876501D01*
X60142307Y-24838534D01*
X60227279Y-24801522D01*
X60313191Y-24764124D01*
X60397231Y-24727563D01*
X60482134Y-24690650D01*
X60565373Y-24654481D01*
X60649409Y-24617989D01*
X60731948Y-24582170D01*
X60815228Y-24546051D01*
X60897145Y-24510546D01*
X60979753Y-24474763D01*
X61061108Y-24439545D01*
X61143111Y-24404069D01*
X61223953Y-24369118D01*
X61305405Y-24333925D01*
X61385774Y-24299222D01*
X61466717Y-24264294D01*
X61546645Y-24229826D01*
X61627114Y-24195146D01*
X61706627Y-24160901D01*
X61786652Y-24126458D01*
X61865770Y-24092426D01*
X61945375Y-24058208D01*
X62024117Y-24024382D01*
X62103321Y-23990381D01*
X62181702Y-23956754D01*
X62260521Y-23922962D01*
X62338553Y-23889529D01*
X62417003Y-23855940D01*
X62494696Y-23822696D01*
X62572786Y-23789305D01*
X62650149Y-23756246D01*
X62727891Y-23723048D01*
X62804931Y-23690171D01*
X62882333Y-23657162D01*
X62959056Y-23624465D01*
X63036125Y-23591642D01*
X63112536Y-23559121D01*
X63189277Y-23526482D01*
X63265381Y-23494136D01*
X63341800Y-23461678D01*
X63417599Y-23429505D01*
X63493701Y-23397225D01*
X63569199Y-23365224D01*
X63644987Y-23333122D01*
X63720186Y-23301291D01*
X63795663Y-23269364D01*
X63870566Y-23237703D01*
X63945735Y-23205950D01*
X64020342Y-23174457D01*
X64095205Y-23142878D01*
X64169518Y-23111552D01*
X64244077Y-23080145D01*
X64318098Y-23048987D01*
X64392355Y-23017751D01*
X64466084Y-22986759D01*
X64540039Y-22955694D01*
X64613477Y-22924868D01*
X64687132Y-22893972D01*
X64760280Y-22863312D01*
X64833636Y-22832586D01*
X64906493Y-22802091D01*
X64979551Y-22771534D01*
X65052118Y-22741203D01*
X65124878Y-22710814D01*
X65197155Y-22680649D01*
X65269618Y-22650428D01*
X65341605Y-22620427D01*
X65413771Y-22590373D01*
X65485469Y-22560537D01*
X65557338Y-22530651D01*
X65628746Y-22500978D01*
X65700318Y-22471259D01*
X65771436Y-22441750D01*
X65842712Y-22412198D01*
X65913540Y-22382853D01*
X65984520Y-22353467D01*
X66055058Y-22324286D01*
X66125742Y-22295066D01*
X66195989Y-22266048D01*
X66266377Y-22236995D01*
X66336334Y-22208141D01*
X66406425Y-22179253D01*
X66476091Y-22150562D01*
X66545886Y-22121840D01*
X66615261Y-22093313D01*
X66684760Y-22064756D01*
X66753844Y-22036392D01*
X66823047Y-22008001D01*
X66891839Y-21979800D01*
X66960745Y-21951574D01*
X67029246Y-21923536D01*
X67097856Y-21895474D01*
X67166064Y-21867599D01*
X67234377Y-21839703D01*
X67302293Y-21811990D01*
X67370310Y-21784258D01*
X67437934Y-21756709D01*
X67505654Y-21729141D01*
X67572985Y-21701754D01*
X67640409Y-21674351D01*
X67707447Y-21647126D01*
X67774574Y-21619887D01*
X67841319Y-21592825D01*
X67908149Y-21565749D01*
X67974601Y-21538849D01*
X68041134Y-21511938D01*
X68107293Y-21485199D01*
X68173529Y-21458451D01*
X68239394Y-21431875D01*
X68305334Y-21405290D01*
X68370906Y-21378875D01*
X68436548Y-21352453D01*
X68501826Y-21326200D01*
X68567172Y-21299941D01*
X68632156Y-21273850D01*
X68697205Y-21247753D01*
X68761896Y-21221823D01*
X68826648Y-21195889D01*
X68891045Y-21170119D01*
X68955500Y-21144348D01*
X69019603Y-21118738D01*
X69083762Y-21093129D01*
X69147571Y-21067680D01*
X69211433Y-21042232D01*
X69274949Y-21016944D01*
X69338514Y-20991658D01*
X69401736Y-20966530D01*
X69465005Y-20941404D01*
X69527933Y-20916436D01*
X69590906Y-20891472D01*
X69653541Y-20866663D01*
X69716218Y-20841859D01*
X69778559Y-20817210D01*
X69840940Y-20792567D01*
X69902987Y-20768076D01*
X69965072Y-20743593D01*
X70026827Y-20719262D01*
X70088616Y-20694938D01*
X70150078Y-20670765D01*
X70211572Y-20646601D01*
X70272740Y-20622587D01*
X70333940Y-20598582D01*
X70394815Y-20574725D01*
X70455720Y-20550879D01*
X70516303Y-20527180D01*
X70576913Y-20503492D01*
X70637203Y-20479951D01*
X70697519Y-20456421D01*
X70757518Y-20433037D01*
X70817539Y-20409665D01*
X70877246Y-20386437D01*
X70936974Y-20363223D01*
X70996390Y-20340152D01*
X71055824Y-20317095D01*
X71114948Y-20294179D01*
X71174090Y-20271279D01*
X71232923Y-20248519D01*
X71291772Y-20225775D01*
X71350315Y-20203171D01*
X71408871Y-20180583D01*
X71467124Y-20158134D01*
X71525388Y-20135702D01*
X71583351Y-20113407D01*
X71641324Y-20091130D01*
X71698997Y-20068990D01*
X71756679Y-20046868D01*
X71814062Y-20024882D01*
X71871454Y-20002914D01*
X71928549Y-19981081D01*
X71985650Y-19959268D01*
X72042456Y-19937588D01*
X72099268Y-19915928D01*
X72155786Y-19894402D01*
X72212309Y-19872895D01*
X72268540Y-19851520D01*
X72324773Y-19830167D01*
X72380717Y-19808944D01*
X72436662Y-19787743D01*
X72492319Y-19766672D01*
X72547976Y-19745623D01*
X72603348Y-19724703D01*
X72658717Y-19703805D01*
X72713803Y-19683036D01*
X72768886Y-19662290D01*
X72823686Y-19641671D01*
X72878483Y-19621075D01*
X72932999Y-19600606D01*
X72987509Y-19580161D01*
X73041742Y-19559841D01*
X73095967Y-19539546D01*
X73149915Y-19519375D01*
X73203856Y-19499229D01*
X73257522Y-19479207D01*
X73311178Y-19459210D01*
X73364562Y-19439336D01*
X73417935Y-19419487D01*
X73471036Y-19399761D01*
X73524126Y-19380060D01*
X73576946Y-19360481D01*
X73629754Y-19340928D01*
X73682294Y-19321495D01*
X73734820Y-19302089D01*
X73787079Y-19282803D01*
X73839324Y-19263544D01*
X73891304Y-19244404D01*
X73943269Y-19225290D01*
X73994970Y-19206295D01*
X74046655Y-19187328D01*
X74098078Y-19168478D01*
X74149484Y-19149655D01*
X74200629Y-19130949D01*
X74251756Y-19112272D01*
X74302624Y-19093710D01*
X74353474Y-19075176D01*
X74404066Y-19056758D01*
X74454638Y-19038368D01*
X74504954Y-19020093D01*
X74555251Y-19001846D01*
X74605292Y-18983713D01*
X74655312Y-18965609D01*
X74705079Y-18947618D01*
X74754824Y-18929657D01*
X74804317Y-18911807D01*
X74853788Y-18893987D01*
X74903009Y-18876279D01*
X74952206Y-18858600D01*
X75001154Y-18841032D01*
X75050079Y-18823494D01*
X75098755Y-18806066D01*
X75147407Y-18788668D01*
X75195813Y-18771379D01*
X75244194Y-18754121D01*
X75292330Y-18736971D01*
X75340440Y-18719852D01*
X75388306Y-18702841D01*
X75436146Y-18685861D01*
X75483744Y-18668987D01*
X75531314Y-18652145D01*
X75578644Y-18635409D01*
X75625947Y-18618704D01*
X75673009Y-18602105D01*
X75720044Y-18585538D01*
X75766840Y-18569075D01*
X75813608Y-18552644D01*
X75860139Y-18536318D01*
X75906640Y-18520022D01*
X75952906Y-18503831D01*
X75999142Y-18487671D01*
X76045144Y-18471615D01*
X76091115Y-18455590D01*
X76136853Y-18439668D01*
X76182561Y-18423778D01*
X76228037Y-18407989D01*
X76273481Y-18392233D01*
X76318695Y-18376578D01*
X76363878Y-18360955D01*
X76408831Y-18345433D01*
X76453752Y-18329942D01*
X76498445Y-18314552D01*
X76543105Y-18299194D01*
X76587539Y-18283936D01*
X76631939Y-18268709D01*
X76676114Y-18253582D01*
X76720255Y-18238487D01*
X76764173Y-18223490D01*
X76808056Y-18208526D01*
X76851716Y-18193659D01*
X76895342Y-18178825D01*
X76938746Y-18164087D01*
X76982115Y-18149383D01*
X77025264Y-18134774D01*
X77068377Y-18120198D01*
X77111272Y-18105718D01*
X77154130Y-18091271D01*
X77196771Y-18076919D01*
X77239376Y-18062600D01*
X77281763Y-18048375D01*
X77324115Y-18034183D01*
X77366251Y-18020085D01*
X77408350Y-18006020D01*
X77450234Y-17992048D01*
X77492082Y-17978109D01*
X77533716Y-17964263D01*
X77575313Y-17950450D01*
X77616698Y-17936729D01*
X77658045Y-17923042D01*
X77699181Y-17909445D01*
X77740279Y-17895882D01*
X77781167Y-17882409D01*
X77822017Y-17868970D01*
X77862658Y-17855621D01*
X77903261Y-17842306D01*
X77943656Y-17829080D01*
X77984013Y-17815887D01*
X78024163Y-17802784D01*
X78064274Y-17789714D01*
X78104179Y-17776732D01*
X78144046Y-17763784D01*
X78183708Y-17750923D01*
X78223330Y-17738096D01*
X78262750Y-17725356D01*
X78302129Y-17712650D01*
X78341307Y-17700030D01*
X78380444Y-17687444D01*
X78419381Y-17674944D01*
X78458278Y-17662478D01*
X78496974Y-17650097D01*
X78535630Y-17637750D01*
X78574088Y-17625487D01*
X78612505Y-17613259D01*
X78650724Y-17601114D01*
X78688902Y-17589003D01*
X78726884Y-17576976D01*
X78764825Y-17564983D01*
X78802570Y-17553073D01*
X78840274Y-17541196D01*
X78877783Y-17529402D01*
X78915251Y-17517642D01*
X78952526Y-17505964D01*
X78989759Y-17494320D01*
X79026800Y-17482757D01*
X79063799Y-17471227D01*
X79100607Y-17459779D01*
X79137373Y-17448364D01*
X79173949Y-17437030D01*
X79210482Y-17425730D01*
X79246827Y-17414509D01*
X79283129Y-17403322D01*
X79319243Y-17392214D01*
X79355315Y-17381140D01*
X79391200Y-17370144D01*
X79427042Y-17359183D01*
X79462698Y-17348299D01*
X79498311Y-17337450D01*
X79533740Y-17326677D01*
X79569126Y-17315939D01*
X79604327Y-17305277D01*
X79639486Y-17294649D01*
X79674462Y-17284098D01*
X79709394Y-17273580D01*
X79744145Y-17263139D01*
X79778853Y-17252731D01*
X79813380Y-17242398D01*
X79847863Y-17232099D01*
X79882167Y-17221875D01*
X79916427Y-17211685D01*
X79950508Y-17201569D01*
X79984546Y-17191486D01*
X80018405Y-17181477D01*
X80052222Y-17171502D01*
X80085861Y-17161600D01*
X80119457Y-17151732D01*
X80152876Y-17141937D01*
X80186252Y-17132175D01*
X80219453Y-17122485D01*
X80252610Y-17112829D01*
X80285593Y-17103244D01*
X80318533Y-17093693D01*
X80351299Y-17084213D01*
X80384021Y-17074767D01*
X80416572Y-17065391D01*
X80449078Y-17056049D01*
X80481413Y-17046777D01*
X80513704Y-17037538D01*
X80545825Y-17028369D01*
X80577902Y-17019233D01*
X80609809Y-17010166D01*
X80641673Y-17001133D01*
X80673368Y-16992168D01*
X80705019Y-16983236D01*
X80736503Y-16974373D01*
X80767942Y-16965542D01*
X80799216Y-16956780D01*
X80830444Y-16948050D01*
X80861508Y-16939388D01*
X80892527Y-16930759D01*
X80923382Y-16922196D01*
X80954192Y-16913666D01*
X80984839Y-16905203D01*
X81015441Y-16896772D01*
X81045881Y-16888408D01*
X81076276Y-16880076D01*
X81106510Y-16871809D01*
X81136699Y-16863575D01*
X81166727Y-16855406D01*
X81196712Y-16847269D01*
X81226536Y-16839197D01*
X81256316Y-16831158D01*
X81285936Y-16823182D01*
X81315513Y-16815239D01*
X81344931Y-16807359D01*
X81374305Y-16799512D01*
X81403521Y-16791727D01*
X81432694Y-16783976D01*
X81461709Y-16776286D01*
X81490681Y-16768629D01*
X81519497Y-16761033D01*
X81548269Y-16753471D01*
X81576886Y-16745969D01*
X81605459Y-16738500D01*
X81633878Y-16731091D01*
X81662254Y-16723715D01*
X81690475Y-16716400D01*
X81718653Y-16709116D01*
X81746679Y-16701893D01*
X81774661Y-16694701D01*
X81802492Y-16687570D01*
X81830278Y-16680470D01*
X81857914Y-16673429D01*
X81885506Y-16666420D01*
X81912949Y-16659470D01*
X81940347Y-16652551D01*
X81967597Y-16645691D01*
X81994803Y-16638863D01*
X82021861Y-16632092D01*
X82048876Y-16625353D01*
X82075743Y-16618671D01*
X82102566Y-16612021D01*
X82129244Y-16605428D01*
X82155877Y-16598866D01*
X82182366Y-16592360D01*
X82208810Y-16585886D01*
X82235110Y-16579468D01*
X82261367Y-16573081D01*
X82287479Y-16566750D01*
X82313549Y-16560450D01*
X82339475Y-16554205D01*
X82365358Y-16547992D01*
X82391099Y-16541832D01*
X82416796Y-16535704D01*
X82442352Y-16529630D01*
X82467865Y-16523588D01*
X82493238Y-16517598D01*
X82518567Y-16511640D01*
X82543756Y-16505735D01*
X82568903Y-16499861D01*
X82593910Y-16494040D01*
X82618875Y-16488250D01*
X82643701Y-16482512D01*
X82668485Y-16476804D01*
X82693131Y-16471149D01*
X82717734Y-16465524D01*
X82742201Y-16459951D01*
X82766625Y-16454408D01*
X82790913Y-16448917D01*
X82815159Y-16443455D01*
X82839270Y-16438045D01*
X82863338Y-16432665D01*
X82887272Y-16427335D01*
X82911164Y-16422035D01*
X82934922Y-16416785D01*
X82958638Y-16411566D01*
X82982221Y-16406396D01*
X83005762Y-16401255D01*
X83029171Y-16396164D01*
X83052538Y-16391103D01*
X83075774Y-16386091D01*
X83098967Y-16381108D01*
X83122031Y-16376173D01*
X83145052Y-16371269D01*
X83167944Y-16366412D01*
X83190795Y-16361584D01*
X83213516Y-16356804D01*
X83236195Y-16352054D01*
X83258747Y-16347351D01*
X83281257Y-16342677D01*
X83303640Y-16338050D01*
X83325981Y-16333451D01*
X83348196Y-16328900D01*
X83370369Y-16324377D01*
X83392416Y-16319900D01*
X83414422Y-16315453D01*
X83436304Y-16311051D01*
X83458143Y-16306677D01*
X83479859Y-16302349D01*
X83501534Y-16298050D01*
X83523085Y-16293796D01*
X83544595Y-16289570D01*
X83565982Y-16285388D01*
X83587328Y-16281235D01*
X83608553Y-16277126D01*
X83629737Y-16273046D01*
X83650799Y-16269009D01*
X83671821Y-16265000D01*
X83692722Y-16261035D01*
X83713582Y-16257098D01*
X83734323Y-16253204D01*
X83755024Y-16249338D01*
X83775605Y-16245514D01*
X83796146Y-16241719D01*
X83816569Y-16237965D01*
X83836951Y-16234240D01*
X83857216Y-16230556D01*
X83877440Y-16226900D01*
X83897548Y-16223285D01*
X83917616Y-16219698D01*
X83937568Y-16216152D01*
X83957480Y-16212633D01*
X83977276Y-16209156D01*
X83997033Y-16205705D01*
X84016675Y-16202295D01*
X84036277Y-16198912D01*
X84055766Y-16195569D01*
X84075214Y-16192253D01*
X84094550Y-16188977D01*
X84113846Y-16185728D01*
X84133030Y-16182518D01*
X84152174Y-16179335D01*
X84171207Y-16176191D01*
X84190200Y-16173074D01*
X84209082Y-16169995D01*
X84227925Y-16166943D01*
X84246658Y-16163929D01*
X84265352Y-16160942D01*
X84283936Y-16157992D01*
X84302481Y-16155069D01*
X84320917Y-16152183D01*
X84339315Y-16149324D01*
X84357604Y-16146502D01*
X84375854Y-16143706D01*
X84393997Y-16140947D01*
X84412102Y-16138213D01*
X84430100Y-16135517D01*
X84448059Y-16132846D01*
X84465912Y-16130211D01*
X84483727Y-16127603D01*
X84501436Y-16125030D01*
X84519107Y-16122482D01*
X84536674Y-16119970D01*
X84554202Y-16117484D01*
X84571626Y-16115033D01*
X84589013Y-16112607D01*
X84606296Y-16110216D01*
X84623541Y-16107851D01*
X84640683Y-16105519D01*
X84657788Y-16103213D01*
X84674791Y-16100941D01*
X84691756Y-16098695D01*
X84708620Y-16096482D01*
X84725447Y-16094294D01*
X84742172Y-16092139D01*
X84758861Y-16090009D01*
X84775449Y-16087912D01*
X84792001Y-16085841D01*
X84808452Y-16083801D01*
X84824867Y-16081787D01*
X84841184Y-16079805D01*
X84857463Y-16077847D01*
X84873644Y-16075922D01*
X84889789Y-16074021D01*
X84905836Y-16072152D01*
X84921846Y-16070307D01*
X84937760Y-16068493D01*
X84953637Y-16066704D01*
X84969418Y-16064946D01*
X84985163Y-16063211D01*
X85000813Y-16061508D01*
X85016426Y-16059829D01*
X85031944Y-16058180D01*
X85047427Y-16056555D01*
X85062815Y-16054960D01*
X85078167Y-16053389D01*
X85093426Y-16051847D01*
X85108649Y-16050330D01*
X85123779Y-16048842D01*
X85138873Y-16047377D01*
X85153875Y-16045941D01*
X85168842Y-16044529D01*
X85183717Y-16043146D01*
X85198557Y-16041786D01*
X85213305Y-16040455D01*
X85228019Y-16039147D01*
X85242641Y-16037867D01*
X85257230Y-16036610D01*
X85271728Y-16035381D01*
X85286191Y-16034175D01*
X85300565Y-16032997D01*
X85314905Y-16031842D01*
X85329155Y-16030714D01*
X85343372Y-16029608D01*
X85357500Y-16028530D01*
X85371594Y-16027474D01*
X85385600Y-16026445D01*
X85399572Y-16025439D01*
X85413457Y-16024459D01*
X85427309Y-16023501D01*
X85441074Y-16022570D01*
X85454805Y-16021660D01*
X85468450Y-16020777D01*
X85482062Y-16019916D01*
X85495589Y-16019080D01*
X85509082Y-16018266D01*
X85522491Y-16017478D01*
X85535866Y-16016712D01*
X85549157Y-16015970D01*
X85562415Y-16015251D01*
X85575590Y-16014556D01*
X85588732Y-16013882D01*
X85601791Y-16013233D01*
X85614817Y-16012606D01*
X85627760Y-16012003D01*
X85640672Y-16011421D01*
X85653501Y-16010863D01*
X85666298Y-16010327D01*
X85679014Y-16009814D01*
X85691697Y-16009322D01*
X85704300Y-16008854D01*
X85716871Y-16008407D01*
X85729361Y-16007982D01*
X85741820Y-16007579D01*
X85754199Y-16007199D01*
X85766547Y-16006839D01*
X85778815Y-16006502D01*
X85791052Y-16006185D01*
X85803211Y-16005891D01*
X85815337Y-16005618D01*
X85827387Y-16005366D01*
X85839405Y-16005135D01*
X85851345Y-16004926D01*
X85863255Y-16004737D01*
X85875087Y-16004569D01*
X85886889Y-16004422D01*
X85887225Y-16004418D01*
X37625000Y-37150000D02*
X37630943Y-37138832D01*
X37637013Y-37127596D01*
X37643211Y-37116293D01*
X37649538Y-37104921D01*
X37655995Y-37093479D01*
X37662583Y-37081968D01*
X37669303Y-37070387D01*
X37676157Y-37058735D01*
X37683146Y-37047012D01*
X37690271Y-37035217D01*
X37697534Y-37023349D01*
X37704934Y-37011409D01*
X37712474Y-36999396D01*
X37720156Y-36987309D01*
X37727979Y-36975147D01*
X37735946Y-36962911D01*
X37744057Y-36950599D01*
X37752314Y-36938211D01*
X37760719Y-36925746D01*
X37769272Y-36913205D01*
X37777974Y-36900586D01*
X37786828Y-36887889D01*
X37795835Y-36875114D01*
X37804995Y-36862259D01*
X37814310Y-36849325D01*
X37823781Y-36836311D01*
X37833410Y-36823216D01*
X37843199Y-36810040D01*
X37853147Y-36796782D01*
X37863258Y-36783441D01*
X37873532Y-36770018D01*
X37883970Y-36756512D01*
X37894575Y-36742922D01*
X37905347Y-36729248D01*
X37916287Y-36715488D01*
X37927398Y-36701643D01*
X37938680Y-36687713D01*
X37950136Y-36673695D01*
X37961766Y-36659591D01*
X37973572Y-36645399D01*
X37985556Y-36631119D01*
X37997718Y-36616751D01*
X38010061Y-36602293D01*
X38022585Y-36587746D01*
X38035293Y-36573108D01*
X38048186Y-36558380D01*
X38061265Y-36543561D01*
X38074532Y-36528649D01*
X38087988Y-36513645D01*
X38101635Y-36498549D01*
X38115475Y-36483359D01*
X38129508Y-36468075D01*
X38143737Y-36452696D01*
X38158163Y-36437222D01*
X38172788Y-36421653D01*
X38187612Y-36405988D01*
X38202639Y-36390226D01*
X38217868Y-36374366D01*
X38233303Y-36358409D01*
X38248944Y-36342354D01*
X38264793Y-36326200D01*
X38280852Y-36309946D01*
X38297122Y-36293593D01*
X38313605Y-36277139D01*
X38330302Y-36260584D01*
X38347216Y-36243927D01*
X38364347Y-36227168D01*
X38381698Y-36210307D01*
X38399270Y-36193342D01*
X38417065Y-36176273D01*
X38435085Y-36159100D01*
X38453330Y-36141823D01*
X38471803Y-36124439D01*
X38490506Y-36106950D01*
X38509440Y-36089354D01*
X38528607Y-36071651D01*
X38548008Y-36053840D01*
X38567645Y-36035921D01*
X38587521Y-36017894D01*
X38607636Y-35999757D01*
X38627993Y-35981509D01*
X38648593Y-35963152D01*
X38669438Y-35944683D01*
X38690530Y-35926103D01*
X38711870Y-35907411D01*
X38733460Y-35888605D01*
X38755302Y-35869687D01*
X38777399Y-35850655D01*
X38799750Y-35831508D01*
X38822359Y-35812246D01*
X38845227Y-35792868D01*
X38868356Y-35773375D01*
X38891748Y-35753764D01*
X38915404Y-35734036D01*
X38939326Y-35714191D01*
X38963517Y-35694226D01*
X38987978Y-35674143D01*
X39012710Y-35653940D01*
X39037717Y-35633617D01*
X39062998Y-35613173D01*
X39088558Y-35592608D01*
X39114396Y-35571921D01*
X39140516Y-35551111D01*
X39166918Y-35530178D01*
X39193605Y-35509122D01*
X39220579Y-35487941D01*
X39247842Y-35466635D01*
X39275395Y-35445204D01*
X39303241Y-35423647D01*
X39331381Y-35401963D01*
X39359817Y-35380152D01*
X39388551Y-35358213D01*
X39417586Y-35336145D01*
X39446922Y-35313949D01*
X39476563Y-35291623D01*
X39506509Y-35269167D01*
X39536763Y-35246580D01*
X39567327Y-35223861D01*
X39598202Y-35201011D01*
X39629391Y-35178028D01*
X39660896Y-35154912D01*
X39692719Y-35131662D01*
X39724861Y-35108277D01*
X39757324Y-35084758D01*
X39790111Y-35061103D01*
X39823224Y-35037312D01*
X39856665Y-35013383D01*
X39890434Y-34989318D01*
X39924536Y-34965114D01*
X39958971Y-34940772D01*
X39993741Y-34916291D01*
X40028850Y-34891670D01*
X40064297Y-34866908D01*
X40100087Y-34842005D01*
X40136220Y-34816960D01*
X40172699Y-34791774D01*
X40209526Y-34766444D01*
X40246703Y-34740971D01*
X40284231Y-34715353D01*
X40322114Y-34689591D01*
X40360353Y-34663683D01*
X40398950Y-34637630D01*
X40437907Y-34611429D01*
X40477226Y-34585082D01*
X40516910Y-34558586D01*
X40556960Y-34531942D01*
X40597379Y-34505149D01*
X40638168Y-34478207D01*
X40679331Y-34451114D01*
X40720868Y-34423869D01*
X40762782Y-34396474D01*
X40805075Y-34368926D01*
X40847750Y-34341225D01*
X40890808Y-34313370D01*
X40934251Y-34285362D01*
X40978082Y-34257199D01*
X41022303Y-34228880D01*
X41066916Y-34200405D01*
X41111923Y-34171774D01*
X41157327Y-34142985D01*
X41203128Y-34114039D01*
X41249331Y-34084934D01*
X41295936Y-34055670D01*
X41342946Y-34026246D01*
X41390363Y-33996661D01*
X41438189Y-33966915D01*
X41486427Y-33937008D01*
X41535078Y-33906938D01*
X41584146Y-33876705D01*
X41633631Y-33846309D01*
X41683537Y-33815748D01*
X41733865Y-33785023D01*
X41784618Y-33754131D01*
X41835798Y-33723074D01*
X41887406Y-33691850D01*
X41939447Y-33660458D01*
X41991920Y-33628898D01*
X42044830Y-33597169D01*
X42098177Y-33565271D01*
X42151965Y-33533203D01*
X42206195Y-33500964D01*
X42260870Y-33468554D01*
X42315992Y-33435971D01*
X42371563Y-33403216D01*
X42427586Y-33370288D01*
X42484062Y-33337186D01*
X42540995Y-33303909D01*
X42598386Y-33270457D01*
X42656237Y-33236829D01*
X42714551Y-33203024D01*
X42773330Y-33169043D01*
X42832576Y-33134883D01*
X42892293Y-33100545D01*
X42952481Y-33066028D01*
X43013143Y-33031331D01*
X43074282Y-32996453D01*
X43135899Y-32961394D01*
X43197998Y-32926154D01*
X43260580Y-32890731D01*
X43323648Y-32855125D01*
X43387204Y-32819336D01*
X43451250Y-32783362D01*
X43515789Y-32747203D01*
X43580822Y-32710858D01*
X43646353Y-32674327D01*
X43712384Y-32637609D01*
X43778917Y-32600703D01*
X43845953Y-32563609D01*
X43913497Y-32526326D01*
X43981549Y-32488854D01*
X44050113Y-32451191D01*
X44119190Y-32413337D01*
X44188783Y-32375291D01*
X44258895Y-32337053D01*
X44329527Y-32298623D01*
X44400682Y-32259998D01*
X44472363Y-32221180D01*
X44544571Y-32182166D01*
X44617310Y-32142957D01*
X44690581Y-32103552D01*
X44764386Y-32063949D01*
X44838729Y-32024149D01*
X44913612Y-31984151D01*
X44989036Y-31943954D01*
X45065005Y-31903558D01*
X45141521Y-31862961D01*
X45218586Y-31822163D01*
X45296202Y-31781163D01*
X45374373Y-31739961D01*
X45453100Y-31698557D01*
X45532385Y-31656948D01*
X45612232Y-31615136D01*
X45692643Y-31573118D01*
X45773619Y-31530895D01*
X45855164Y-31488465D01*
X45937280Y-31445828D01*
X46019969Y-31402984D01*
X46103235Y-31359931D01*
X46187078Y-31316669D01*
X46271502Y-31273197D01*
X46356510Y-31229515D01*
X46442103Y-31185622D01*
X46528285Y-31141516D01*
X46615057Y-31097198D01*
X46702422Y-31052667D01*
X46790383Y-31007922D01*
X46878942Y-30962962D01*
X46968102Y-30917786D01*
X47057865Y-30872395D01*
X47148235Y-30826786D01*
X47239212Y-30780960D01*
X47330801Y-30734915D01*
X47423003Y-30688651D01*
X47515821Y-30642168D01*
X47609259Y-30595463D01*
X47703317Y-30548538D01*
X47798000Y-30501390D01*
X47893310Y-30454019D01*
X47989249Y-30406425D01*
X48085820Y-30358605D01*
X48183026Y-30310561D01*
X48280870Y-30262290D01*
X48379354Y-30213793D01*
X48478482Y-30165067D01*
X48578255Y-30116113D01*
X48678678Y-30066930D01*
X48779752Y-30017516D01*
X48881482Y-29967870D01*
X48983869Y-29917992D01*
X49086917Y-29867882D01*
X49190628Y-29817537D01*
X49295007Y-29766957D01*
X49400055Y-29716140D01*
X49505777Y-29665087D01*
X49612176Y-29613796D01*
X49719254Y-29562265D01*
X49827015Y-29510494D01*
X49935463Y-29458482D01*
X50044602Y-29406227D01*
X50154433Y-29353729D01*
X50264963Y-29300985D01*
X50376193Y-29247995D01*
X50488129Y-29194758D01*
X50600773Y-29141271D01*
X50714131Y-29087534D01*
X50828206Y-29033546D01*
X50943002Y-28979303D01*
X51058525Y-28924806D01*
X51174778Y-28870053D01*
X51291767Y-28815041D01*
X51409497Y-28759768D01*
X51527972Y-28704234D01*
X51647198Y-28648435D01*
X51767181Y-28592370D01*
X51887927Y-28536037D01*
X52009441Y-28479433D01*
X52131730Y-28422556D01*
X52254802Y-28365402D01*
X52378662Y-28307970D01*
X52503319Y-28250257D01*
X52628781Y-28192258D01*
X52755055Y-28133972D01*
X52882151Y-28075394D01*
X53010078Y-28016520D01*
X53138847Y-27957346D01*
X53268468Y-27897869D01*
X53398952Y-27838083D01*
X53530312Y-27777982D01*
X53662561Y-27717563D01*
X53795714Y-27656818D01*
X53929785Y-27595741D01*
X54064792Y-27534325D01*
X54200753Y-27472563D01*
X54337686Y-27410445D01*
X54475615Y-27347963D01*
X54614563Y-27285107D01*
X54754555Y-27221866D01*
X54895620Y-27158227D01*
X55037789Y-27094176D01*
X55181098Y-27029699D01*
X55325586Y-26964779D01*
X55471296Y-26899396D01*
X55618277Y-26833529D01*
X55766585Y-26767154D01*
X55916282Y-26700245D01*
X56067440Y-26632768D01*
X56220141Y-26564690D01*
X56374480Y-26495967D01*
X56530568Y-26426553D01*
X56688533Y-26356389D01*
X56848530Y-26285409D01*
X57010741Y-26213533D01*
X57175388Y-26140663D01*
X57342744Y-26066681D01*
X57513147Y-25991436D01*
X57687029Y-25914741D01*
X57864949Y-25836349D01*
X58047655Y-25755934D01*
X58236182Y-25673041D01*
X58432029Y-25587013D01*
X58637505Y-25496840D01*
X58856491Y-25400819D01*
X59096475Y-25295671D01*
X59375917Y-25173310D01*
X59429226Y-25149973D01*
X44682954Y-61196414D02*
X44592830Y-60981732D01*
X44500982Y-60762846D01*
X44443629Y-60626103D01*
X44385663Y-60487836D01*
X44335730Y-60368674D01*
X44285371Y-60248436D01*
X44239589Y-60139072D01*
X44193475Y-60028859D01*
X44150490Y-59926070D01*
X44107232Y-59822573D01*
X44066317Y-59724630D01*
X44025171Y-59626077D01*
X43985881Y-59531917D01*
X43946390Y-59437220D01*
X43908427Y-59346133D01*
X43870286Y-59254568D01*
X43833438Y-59166051D01*
X43796432Y-59077102D01*
X43760543Y-58990783D01*
X43724513Y-58904071D01*
X43689463Y-58819666D01*
X43654286Y-58734900D01*
X43619981Y-58652185D01*
X43585562Y-58569138D01*
X43551928Y-58487934D01*
X43518189Y-58406422D01*
X43485164Y-58326583D01*
X43452043Y-58246458D01*
X43419577Y-58167863D01*
X43387022Y-58089001D01*
X43355071Y-58011548D01*
X43323039Y-57933845D01*
X43291567Y-57857448D01*
X43260021Y-57780816D01*
X43228997Y-57705401D01*
X43197905Y-57629765D01*
X43167302Y-57555268D01*
X43136636Y-57480562D01*
X43106431Y-57406927D01*
X43076168Y-57333096D01*
X43046340Y-57260274D01*
X43016459Y-57187267D01*
X42986990Y-57115216D01*
X42957472Y-57042989D01*
X42928346Y-56971669D01*
X42899174Y-56900184D01*
X42870377Y-56829562D01*
X42841537Y-56758782D01*
X42813055Y-56688828D01*
X42784534Y-56618724D01*
X42756356Y-56549408D01*
X42728142Y-56479952D01*
X42700257Y-56411251D01*
X42672339Y-56342416D01*
X42644738Y-56274307D01*
X42617107Y-56206071D01*
X42589780Y-56138534D01*
X42562427Y-56070875D01*
X42535367Y-56003890D01*
X42508283Y-55936790D01*
X42481483Y-55870341D01*
X42454661Y-55803782D01*
X42428114Y-55737852D01*
X42401547Y-55671818D01*
X42375247Y-55606393D01*
X42348928Y-55540869D01*
X42322869Y-55475936D01*
X42296793Y-55410908D01*
X42270969Y-55346454D01*
X42245131Y-55281910D01*
X42219538Y-55217923D01*
X42193932Y-55153851D01*
X42168564Y-55090320D01*
X42143186Y-55026709D01*
X42118040Y-54963625D01*
X42092885Y-54900464D01*
X42067956Y-54837818D01*
X42043020Y-54775098D01*
X42018306Y-54712880D01*
X41993585Y-54650592D01*
X41969080Y-54588795D01*
X41944571Y-54526931D01*
X41920273Y-54465546D01*
X41895972Y-54404097D01*
X41871877Y-54343118D01*
X41847781Y-54282078D01*
X41823887Y-54221496D01*
X41799992Y-54160858D01*
X41776296Y-54100668D01*
X41752601Y-54040425D01*
X41729100Y-53980621D01*
X41705600Y-53920767D01*
X41682291Y-53861343D01*
X41658985Y-53801871D01*
X41635867Y-53742822D01*
X41612752Y-53683727D01*
X41589821Y-53625048D01*
X41566895Y-53566325D01*
X41544149Y-53508009D01*
X41521409Y-53449653D01*
X41498847Y-53391698D01*
X41476292Y-53333704D01*
X41453911Y-53276104D01*
X41431538Y-53218467D01*
X41409336Y-53161218D01*
X41387143Y-53103935D01*
X41365119Y-53047032D01*
X41343104Y-52990098D01*
X41321256Y-52933538D01*
X41299418Y-52876949D01*
X41277744Y-52820728D01*
X41256080Y-52764480D01*
X41234578Y-52708595D01*
X41213088Y-52652685D01*
X41191757Y-52597132D01*
X41170438Y-52541555D01*
X41149276Y-52486331D01*
X41128127Y-52431085D01*
X41107133Y-52376187D01*
X41086153Y-52321269D01*
X41065325Y-52266693D01*
X41044511Y-52212099D01*
X41023848Y-52157843D01*
X41003200Y-52103570D01*
X40982700Y-52049630D01*
X40962216Y-51995676D01*
X40941879Y-51942050D01*
X40921558Y-51888411D01*
X40901381Y-51835097D01*
X40881221Y-51781771D01*
X40861205Y-51728766D01*
X40841205Y-51675750D01*
X40821347Y-51623051D01*
X40801507Y-51570343D01*
X40781806Y-51517948D01*
X40762123Y-51465545D01*
X40742578Y-51413451D01*
X40723052Y-51361351D01*
X40703663Y-51309557D01*
X40684292Y-51257757D01*
X40665057Y-51206260D01*
X40645841Y-51154759D01*
X40626758Y-51103557D01*
X40607695Y-51052351D01*
X40588764Y-51001442D01*
X40569854Y-50950531D01*
X40551074Y-50899912D01*
X40532315Y-50849293D01*
X40513685Y-50798963D01*
X40495076Y-50748634D01*
X40476595Y-50698591D01*
X40458136Y-50648549D01*
X40439802Y-50598791D01*
X40421491Y-50549036D01*
X40403305Y-50499561D01*
X40385141Y-50450090D01*
X40367101Y-50400896D01*
X40349084Y-50351707D01*
X40331188Y-50302794D01*
X40313317Y-50253885D01*
X40295566Y-50205249D01*
X40277839Y-50156620D01*
X40260231Y-50108260D01*
X40242648Y-50059907D01*
X40225183Y-50011822D01*
X40207743Y-49963745D01*
X40190420Y-49915932D01*
X40173121Y-49868129D01*
X40155939Y-49820588D01*
X40138782Y-49773057D01*
X40121739Y-49725785D01*
X40104723Y-49678525D01*
X40087820Y-49631522D01*
X40070942Y-49584530D01*
X40054178Y-49537794D01*
X40037439Y-49491070D01*
X40020812Y-49444599D01*
X40004212Y-49398141D01*
X39987722Y-49351933D01*
X39971258Y-49305740D01*
X39954904Y-49259795D01*
X39938577Y-49213865D01*
X39922359Y-49168181D01*
X39906167Y-49122512D01*
X39890084Y-49077088D01*
X39874027Y-49031679D01*
X39858077Y-48986513D01*
X39842155Y-48941364D01*
X39826338Y-48896454D01*
X39810549Y-48851562D01*
X39794864Y-48806909D01*
X39779208Y-48762273D01*
X39763655Y-48717874D01*
X39748131Y-48673493D01*
X39732709Y-48629346D01*
X39717316Y-48585219D01*
X39702025Y-48541324D01*
X39686762Y-48497449D01*
X39671600Y-48453805D01*
X39656467Y-48410181D01*
X39641434Y-48366786D01*
X39626430Y-48323411D01*
X39611526Y-48280264D01*
X39596650Y-48237138D01*
X39581874Y-48194238D01*
X39567126Y-48151359D01*
X39552476Y-48108705D01*
X39537855Y-48066072D01*
X39523332Y-48023662D01*
X39508837Y-47981274D01*
X39494439Y-47939107D01*
X39480070Y-47896963D01*
X39465797Y-47855038D01*
X39451554Y-47813137D01*
X39437405Y-47771453D01*
X39423286Y-47729793D01*
X39409261Y-47688348D01*
X39395265Y-47646929D01*
X39381363Y-47605723D01*
X39367491Y-47564542D01*
X39353711Y-47523574D01*
X39339961Y-47482631D01*
X39326303Y-47441900D01*
X39312675Y-47401194D01*
X39299138Y-47360697D01*
X39285631Y-47320227D01*
X39272215Y-47279965D01*
X39258829Y-47239730D01*
X39245532Y-47199701D01*
X39232266Y-47159699D01*
X39219089Y-47119902D01*
X39205942Y-47080132D01*
X39192883Y-47040566D01*
X39179855Y-47001028D01*
X39166915Y-46961692D01*
X39154004Y-46922385D01*
X39141181Y-46883278D01*
X39128389Y-46844199D01*
X39115682Y-46805320D01*
X39103007Y-46766470D01*
X39090417Y-46727818D01*
X39077857Y-46689195D01*
X39065383Y-46650769D01*
X39052939Y-46612372D01*
X39040580Y-46574171D01*
X39028251Y-46535999D01*
X39016007Y-46498021D01*
X39003793Y-46460074D01*
X38991662Y-46422319D01*
X38979561Y-46384595D01*
X38967544Y-46347062D01*
X38955557Y-46309560D01*
X38943652Y-46272248D01*
X38931778Y-46234966D01*
X38919985Y-46197874D01*
X38908223Y-46160813D01*
X38896542Y-46123940D01*
X38884892Y-46087098D01*
X38873322Y-46050443D01*
X38861783Y-46013819D01*
X38850323Y-45977381D01*
X38838894Y-45940975D01*
X38827544Y-45904752D01*
X38816225Y-45868562D01*
X38804985Y-45832555D01*
X38793775Y-45796580D01*
X38782644Y-45760787D01*
X38771543Y-45725026D01*
X38760519Y-45689446D01*
X38749527Y-45653899D01*
X38738611Y-45618531D01*
X38727726Y-45583196D01*
X38716917Y-45548040D01*
X38706139Y-45512916D01*
X38695436Y-45477970D01*
X38684765Y-45443058D01*
X38674169Y-45408321D01*
X38663603Y-45373618D01*
X38653112Y-45339090D01*
X38642652Y-45304595D01*
X38632266Y-45270274D01*
X38621911Y-45235988D01*
X38611629Y-45201874D01*
X38601379Y-45167794D01*
X38591201Y-45133886D01*
X38581054Y-45100011D01*
X38570979Y-45066308D01*
X38560935Y-45032639D01*
X38550963Y-44999140D01*
X38541022Y-44965675D01*
X38531152Y-44932379D01*
X38521313Y-44899117D01*
X38511545Y-44866023D01*
X38501808Y-44832963D01*
X38492141Y-44800071D01*
X38482505Y-44767213D01*
X38472938Y-44734520D01*
X38463403Y-44701863D01*
X38453936Y-44669370D01*
X38444501Y-44636912D01*
X38435133Y-44604618D01*
X38425797Y-44572358D01*
X38416529Y-44540262D01*
X38407292Y-44508201D01*
X38398123Y-44476301D01*
X38388984Y-44444437D01*
X38379913Y-44412733D01*
X38370872Y-44381065D01*
X38361898Y-44349556D01*
X38352955Y-44318083D01*
X38344077Y-44286769D01*
X38335231Y-44255491D01*
X38326450Y-44224370D01*
X38317700Y-44193285D01*
X38309015Y-44162356D01*
X38300361Y-44131464D01*
X38291771Y-44100727D01*
X38283213Y-44070027D01*
X38274718Y-44039481D01*
X38266254Y-44008971D01*
X38257853Y-43978616D01*
X38249484Y-43948296D01*
X38241177Y-43918129D01*
X38232901Y-43887999D01*
X38224688Y-43858021D01*
X38216505Y-43828078D01*
X38208385Y-43798288D01*
X38200295Y-43768533D01*
X38192267Y-43738929D01*
X38184269Y-43709361D01*
X38176333Y-43679943D01*
X38168427Y-43650561D01*
X38160582Y-43621328D01*
X38152768Y-43592131D01*
X38145014Y-43563081D01*
X38137290Y-43534068D01*
X38129626Y-43505203D01*
X38121992Y-43476373D01*
X38114418Y-43447690D01*
X38106875Y-43419043D01*
X38099390Y-43390541D01*
X38091935Y-43362076D01*
X38084540Y-43333755D01*
X38077174Y-43305470D01*
X38069866Y-43277330D01*
X38062589Y-43249225D01*
X38055369Y-43221264D01*
X38048179Y-43193339D01*
X38041047Y-43165555D01*
X38033945Y-43137809D01*
X38026899Y-43110203D01*
X38019884Y-43082634D01*
X38012925Y-43055205D01*
X38005995Y-43027813D01*
X37999122Y-43000560D01*
X37992279Y-42973343D01*
X37985491Y-42946266D01*
X37978733Y-42919225D01*
X37972030Y-42892321D01*
X37965357Y-42865455D01*
X37958738Y-42838725D01*
X37952150Y-42812032D01*
X37945615Y-42785475D01*
X37939110Y-42758954D01*
X37932659Y-42732569D01*
X37926238Y-42706221D01*
X37919870Y-42680007D01*
X37913531Y-42653830D01*
X37907246Y-42627787D01*
X37900990Y-42601780D01*
X37894786Y-42575906D01*
X37888612Y-42550069D01*
X37882490Y-42524364D01*
X37876398Y-42498695D01*
X37870357Y-42473158D01*
X37864346Y-42447658D01*
X37858386Y-42422288D01*
X37852455Y-42396955D01*
X37846575Y-42371752D01*
X37840724Y-42346585D01*
X37834924Y-42321548D01*
X37829152Y-42296547D01*
X37823432Y-42271675D01*
X37817739Y-42246838D01*
X37812097Y-42222130D01*
X37806484Y-42197458D01*
X37800920Y-42172913D01*
X37795385Y-42148405D01*
X37789899Y-42124022D01*
X37784442Y-42099676D01*
X37779033Y-42075456D01*
X37773653Y-42051272D01*
X37768321Y-42027212D01*
X37763018Y-42003189D01*
X37757763Y-41979290D01*
X37752536Y-41955427D01*
X37747357Y-41931688D01*
X37742206Y-41907985D01*
X37737103Y-41884404D01*
X37732027Y-41860860D01*
X37726999Y-41837437D01*
X37721998Y-41814050D01*
X37717044Y-41790785D01*
X37712119Y-41767556D01*
X37707239Y-41744447D01*
X37702387Y-41721375D01*
X37697581Y-41698422D01*
X37692803Y-41675505D01*
X37688071Y-41652707D01*
X37683366Y-41629945D01*
X37678706Y-41607301D01*
X37674074Y-41584694D01*
X37669487Y-41562204D01*
X37664927Y-41539749D01*
X37660412Y-41517412D01*
X37655924Y-41495111D01*
X37651480Y-41472926D01*
X37647064Y-41450776D01*
X37642691Y-41428742D01*
X37638345Y-41406744D01*
X37634043Y-41384861D01*
X37629768Y-41363013D01*
X37625536Y-41341280D01*
X37621332Y-41319582D01*
X37617169Y-41297998D01*
X37613034Y-41276449D01*
X37608941Y-41255014D01*
X37604876Y-41233613D01*
X37600851Y-41212325D01*
X37596854Y-41191072D01*
X37592899Y-41169931D01*
X37588970Y-41148825D01*
X37585083Y-41127830D01*
X37581222Y-41106871D01*
X37577402Y-41086021D01*
X37573609Y-41065207D01*
X37569856Y-41044502D01*
X37566130Y-41023833D01*
X37562443Y-41003272D01*
X37558784Y-40982746D01*
X37555164Y-40962329D01*
X37551571Y-40941947D01*
X37548017Y-40921672D01*
X37544489Y-40901432D01*
X37541001Y-40881300D01*
X37537539Y-40861201D01*
X37534115Y-40841210D01*
X37530718Y-40821253D01*
X37527359Y-40801402D01*
X37524026Y-40781585D01*
X37520731Y-40761874D01*
X37517463Y-40742197D01*
X37514232Y-40722625D01*
X37511027Y-40703087D01*
X37507859Y-40683654D01*
X37504717Y-40664254D01*
X37501613Y-40644958D01*
X37498534Y-40625696D01*
X37495492Y-40606537D01*
X37492475Y-40587412D01*
X37489495Y-40568389D01*
X37486541Y-40549400D01*
X37483622Y-40530513D01*
X37480729Y-40511659D01*
X37477872Y-40492907D01*
X37475040Y-40474188D01*
X37472244Y-40455570D01*
X37469473Y-40436985D01*
X37466737Y-40418500D01*
X37464027Y-40400049D01*
X37461351Y-40381697D01*
X37458700Y-40363378D01*
X37456084Y-40345159D01*
X37453493Y-40326972D01*
X37450936Y-40308884D01*
X37448404Y-40290828D01*
X37445906Y-40272871D01*
X37443433Y-40254946D01*
X37440993Y-40237118D01*
X37438579Y-40219324D01*
X37436197Y-40201626D01*
X37433840Y-40183960D01*
X37431516Y-40166391D01*
X37429217Y-40148854D01*
X37426950Y-40131412D01*
X37424708Y-40114003D01*
X37422498Y-40096689D01*
X37420312Y-40079408D01*
X37418159Y-40062220D01*
X37416030Y-40045065D01*
X37413932Y-40028003D01*
X37411859Y-40010974D01*
X37409817Y-39994038D01*
X37407800Y-39977134D01*
X37405813Y-39960322D01*
X37403851Y-39943543D01*
X37401919Y-39926855D01*
X37400012Y-39910200D01*
X37398135Y-39893636D01*
X37396281Y-39877103D01*
X37394458Y-39860662D01*
X37392659Y-39844252D01*
X37390890Y-39827933D01*
X37389144Y-39811645D01*
X37387428Y-39795446D01*
X37385736Y-39779280D01*
X37384073Y-39763202D01*
X37382433Y-39747156D01*
X37380823Y-39731199D01*
X37379236Y-39715273D01*
X37377678Y-39699434D01*
X37376143Y-39683628D01*
X37374637Y-39667908D01*
X37373153Y-39652220D01*
X37371698Y-39636619D01*
X37370267Y-39621048D01*
X37368863Y-39605564D01*
X37367482Y-39590112D01*
X37366129Y-39574744D01*
X37364799Y-39559408D01*
X37363496Y-39544157D01*
X37362216Y-39528937D01*
X37360963Y-39513801D01*
X37359733Y-39498697D01*
X37358530Y-39483676D01*
X37357349Y-39468686D01*
X37356195Y-39453779D01*
X37355063Y-39438903D01*
X37353958Y-39424111D01*
X37352875Y-39409348D01*
X37351819Y-39394668D01*
X37350784Y-39380018D01*
X37349776Y-39365451D01*
X37348790Y-39350913D01*
X37347829Y-39336457D01*
X37346890Y-39322031D01*
X37345977Y-39307686D01*
X37345086Y-39293372D01*
X37344219Y-39279137D01*
X37343375Y-39264932D01*
X37342555Y-39250808D01*
X37341758Y-39236713D01*
X37340984Y-39222697D01*
X37340233Y-39208711D01*
X37339506Y-39194804D01*
X37338800Y-39180927D01*
X37338119Y-39167128D01*
X37337459Y-39153358D01*
X37336822Y-39139666D01*
X37336208Y-39126004D01*
X37335616Y-39112419D01*
X37335046Y-39098863D01*
X37334499Y-39085384D01*
X37333974Y-39071934D01*
X37333472Y-39058560D01*
X37332990Y-39045216D01*
X37332532Y-39031947D01*
X37332094Y-39018707D01*
X37331679Y-39005543D01*
X37331285Y-38992407D01*
X37330913Y-38979346D01*
X37330563Y-38966314D01*
X37330234Y-38953356D01*
X37329926Y-38940427D01*
X37329639Y-38927571D01*
X37329374Y-38914744D01*
X37329130Y-38901991D01*
X37328906Y-38889266D01*
X37328704Y-38876613D01*
X37328522Y-38863989D01*
X37328362Y-38851437D01*
X37328222Y-38838914D01*
X37328102Y-38826462D01*
X37328003Y-38814038D01*
X37327925Y-38801686D01*
X37327866Y-38789362D01*
X37327828Y-38777108D01*
X37327811Y-38764883D01*
X37327813Y-38752727D01*
X37327835Y-38740600D01*
X37327878Y-38728542D01*
X37327940Y-38716512D01*
X37328022Y-38704552D01*
X37328123Y-38692619D01*
X37328244Y-38680755D01*
X37328385Y-38668918D01*
X37328545Y-38657150D01*
X37328725Y-38645409D01*
X37328924Y-38633737D01*
X37329142Y-38622091D01*
X37329379Y-38610513D01*
X37329636Y-38598962D01*
X37329911Y-38587478D01*
X37330206Y-38576021D01*
X37330518Y-38564631D01*
X37330851Y-38553267D01*
X37331201Y-38541970D01*
X37331570Y-38530700D01*
X37331958Y-38519495D01*
X37332364Y-38508317D01*
X37332788Y-38497204D01*
X37333231Y-38486117D01*
X37333692Y-38475095D01*
X37334171Y-38464100D01*
X37334668Y-38453169D01*
X37335184Y-38442265D01*
X37335717Y-38431424D01*
X37336268Y-38420609D01*
X37336836Y-38409858D01*
X37337423Y-38399133D01*
X37338027Y-38388471D01*
X37338649Y-38377835D01*
X37339288Y-38367261D01*
X37339945Y-38356713D01*
X37340618Y-38346228D01*
X37341310Y-38335768D01*
X37342017Y-38325370D01*
X37342743Y-38314997D01*
X37343485Y-38304685D01*
X37344245Y-38294400D01*
X37345021Y-38284174D01*
X37345814Y-38273975D01*
X37346624Y-38263835D01*
X37347451Y-38253721D01*
X37348293Y-38243667D01*
X37349154Y-38233638D01*
X37350029Y-38223668D01*
X37350923Y-38213723D01*
X37351831Y-38203838D01*
X37352757Y-38193977D01*
X37353697Y-38184175D01*
X37354656Y-38174398D01*
X37355628Y-38164679D01*
X37356619Y-38154985D01*
X37357623Y-38145348D01*
X37358646Y-38135736D01*
X37359682Y-38126182D01*
X37360736Y-38116652D01*
X37361803Y-38107179D01*
X37362888Y-38097730D01*
X37363987Y-38088338D01*
X37365103Y-38078970D01*
X37366232Y-38069658D01*
X37367379Y-38060370D01*
X37368539Y-38051138D01*
X37369716Y-38041930D01*
X37370907Y-38032777D01*
X37372114Y-38023648D01*
X37373334Y-38014574D01*
X37374572Y-38005524D01*
X37375822Y-37996528D01*
X37377089Y-37987556D01*
X37378369Y-37978638D01*
X37379665Y-37969743D01*
X37380974Y-37960903D01*
X37382300Y-37952085D01*
X37383638Y-37943321D01*
X37384992Y-37934580D01*
X37386359Y-37925892D01*
X37387742Y-37917228D01*
X37389138Y-37908615D01*
X37390549Y-37900026D01*
X37391973Y-37891489D01*
X37393413Y-37882975D01*
X37394864Y-37874513D01*
X37396332Y-37866073D01*
X37397812Y-37857685D01*
X37399307Y-37849319D01*
X37400814Y-37841005D01*
X37402337Y-37832713D01*
X37403872Y-37824471D01*
X37405422Y-37816252D01*
X37406984Y-37808084D01*
X37408561Y-37799937D01*
X37410149Y-37791841D01*
X37411753Y-37783766D01*
X37413368Y-37775741D01*
X37414999Y-37767739D01*
X37416641Y-37759785D01*
X37418298Y-37751853D01*
X37419965Y-37743970D01*
X37421648Y-37736109D01*
X37423342Y-37728296D01*
X37425051Y-37720505D01*
X37426770Y-37712761D01*
X37428505Y-37705040D01*
X37430250Y-37697366D01*
X37432010Y-37689714D01*
X37433781Y-37682108D01*
X37435566Y-37674525D01*
X37437361Y-37666988D01*
X37439172Y-37659472D01*
X37440992Y-37652003D01*
X37442828Y-37644555D01*
X37444673Y-37637153D01*
X37446533Y-37629773D01*
X37448402Y-37622438D01*
X37450287Y-37615124D01*
X37452180Y-37607855D01*
X37454089Y-37600608D01*
X37456007Y-37593405D01*
X37457940Y-37586223D01*
X37459881Y-37579085D01*
X37461838Y-37571969D01*
X37463804Y-37564897D01*
X37465784Y-37557845D01*
X37467773Y-37550837D01*
X37469777Y-37543850D01*
X37471789Y-37536906D01*
X37473816Y-37529983D01*
X37475851Y-37523103D01*
X37477902Y-37516243D01*
X37479960Y-37509426D01*
X37482033Y-37502629D01*
X37484114Y-37495875D01*
X37486210Y-37489141D01*
X37488314Y-37482448D01*
X37490432Y-37475777D01*
X37492559Y-37469146D01*
X37494699Y-37462536D01*
X37496848Y-37455967D01*
X37499011Y-37449418D01*
X37501182Y-37442910D01*
X37503367Y-37436422D01*
X37505559Y-37429974D01*
X37507766Y-37423546D01*
X37509980Y-37417159D01*
X37512209Y-37410791D01*
X37514445Y-37404463D01*
X37516695Y-37398155D01*
X37518953Y-37391886D01*
X37521224Y-37385637D01*
X37523503Y-37379426D01*
X37525796Y-37373236D01*
X37528096Y-37367084D01*
X37530410Y-37360952D01*
X37532730Y-37354857D01*
X37535065Y-37348783D01*
X37537407Y-37342746D01*
X37539763Y-37336729D01*
X37542125Y-37330750D01*
X37544502Y-37324790D01*
X37546885Y-37318867D01*
X37549281Y-37312963D01*
X37551685Y-37307096D01*
X37554102Y-37301249D01*
X37556526Y-37295438D01*
X37558963Y-37289646D01*
X37561408Y-37283891D01*
X37563865Y-37278154D01*
X37566329Y-37272454D01*
X37568807Y-37266772D01*
X37571291Y-37261126D01*
X37573788Y-37255499D01*
X37576292Y-37249908D01*
X37578809Y-37244335D01*
X37581333Y-37238797D01*
X37583870Y-37233278D01*
X37586413Y-37227793D01*
X37588969Y-37222327D01*
X37591532Y-37216895D01*
X37594107Y-37211483D01*
X37596689Y-37206103D01*
X37599284Y-37200743D01*
X37601886Y-37195416D01*
X37604500Y-37190108D01*
X37607120Y-37184833D01*
X37609754Y-37179577D01*
X37612393Y-37174353D01*
X37615045Y-37169148D01*
X37617704Y-37163975D01*
X37620375Y-37158822D01*
X37625000Y-37150000D01*
X56592921Y-81620322D02*
X56578107Y-81610189D01*
X56563210Y-81599902D01*
X56548229Y-81589459D01*
X56533164Y-81578861D01*
X56518014Y-81568105D01*
X56502779Y-81557190D01*
X56487459Y-81546116D01*
X56472053Y-81534881D01*
X56456560Y-81523483D01*
X56440980Y-81511922D01*
X56425313Y-81500197D01*
X56409558Y-81488306D01*
X56393715Y-81476248D01*
X56377783Y-81464022D01*
X56361762Y-81451626D01*
X56345651Y-81439060D01*
X56329449Y-81426322D01*
X56313158Y-81413411D01*
X56296775Y-81400325D01*
X56280300Y-81387064D01*
X56263734Y-81373626D01*
X56247075Y-81360010D01*
X56230323Y-81346215D01*
X56213478Y-81332239D01*
X56196539Y-81318081D01*
X56179505Y-81303740D01*
X56162377Y-81289214D01*
X56145154Y-81274503D01*
X56127835Y-81259605D01*
X56110419Y-81244518D01*
X56092908Y-81229242D01*
X56075299Y-81213775D01*
X56057592Y-81198116D01*
X56039788Y-81182263D01*
X56021885Y-81166216D01*
X56003884Y-81149972D01*
X55985783Y-81133531D01*
X55967582Y-81116891D01*
X55949281Y-81100051D01*
X55930880Y-81083010D01*
X55912377Y-81065766D01*
X55893772Y-81048317D01*
X55875066Y-81030664D01*
X55856257Y-81012803D01*
X55837345Y-80994735D01*
X55818330Y-80976457D01*
X55799211Y-80957968D01*
X55779988Y-80939266D01*
X55760660Y-80920352D01*
X55741227Y-80901222D01*
X55721688Y-80881876D01*
X55702043Y-80862313D01*
X55682292Y-80842530D01*
X55662433Y-80822527D01*
X55642467Y-80802302D01*
X55622394Y-80781854D01*
X55602212Y-80761181D01*
X55581921Y-80740283D01*
X55561522Y-80719157D01*
X55541012Y-80697802D01*
X55520393Y-80676218D01*
X55499663Y-80654402D01*
X55478822Y-80632352D01*
X55457870Y-80610069D01*
X55436806Y-80587550D01*
X55415630Y-80564794D01*
X55394341Y-80541799D01*
X55372940Y-80518564D01*
X55351424Y-80495088D01*
X55329795Y-80471369D01*
X55308052Y-80447406D01*
X55286193Y-80423197D01*
X55264220Y-80398742D01*
X55242131Y-80374037D01*
X55219925Y-80349084D01*
X55197604Y-80323878D01*
X55175165Y-80298420D01*
X55152609Y-80272708D01*
X55129936Y-80246741D01*
X55107144Y-80220516D01*
X55084234Y-80194033D01*
X55061205Y-80167291D01*
X55038056Y-80140287D01*
X55014788Y-80113020D01*
X54991400Y-80085489D01*
X54967891Y-80057693D01*
X54944261Y-80029629D01*
X54920509Y-80001298D01*
X54896636Y-79972696D01*
X54872641Y-79943824D01*
X54848523Y-79914678D01*
X54824282Y-79885259D01*
X54799918Y-79855564D01*
X54775430Y-79825592D01*
X54750818Y-79795341D01*
X54726082Y-79764811D01*
X54701221Y-79734000D01*
X54676234Y-79702906D01*
X54651122Y-79671527D01*
X54625884Y-79639864D01*
X54600519Y-79607913D01*
X54575028Y-79575674D01*
X54549409Y-79543146D01*
X54523663Y-79510326D01*
X54497790Y-79477213D01*
X54471788Y-79443807D01*
X54445658Y-79410105D01*
X54419398Y-79376107D01*
X54393010Y-79341810D01*
X54366492Y-79307213D01*
X54339844Y-79272316D01*
X54313066Y-79237116D01*
X54286157Y-79201612D01*
X54259117Y-79165804D01*
X54231946Y-79129688D01*
X54204644Y-79093265D01*
X54177209Y-79056532D01*
X54149643Y-79019489D01*
X54121944Y-78982133D01*
X54094112Y-78944464D01*
X54066147Y-78906481D01*
X54038049Y-78868181D01*
X54009817Y-78829564D01*
X53981451Y-78790628D01*
X53952950Y-78751371D01*
X53924315Y-78711793D01*
X53895546Y-78671893D01*
X53866641Y-78631668D01*
X53837600Y-78591117D01*
X53808425Y-78550240D01*
X53779113Y-78509035D01*
X53749665Y-78467500D01*
X53720081Y-78425635D01*
X53690360Y-78383438D01*
X53660502Y-78340907D01*
X53630507Y-78298042D01*
X53600375Y-78254841D01*
X53570105Y-78211303D01*
X53539698Y-78167427D01*
X53509152Y-78123211D01*
X53478468Y-78078655D01*
X53447646Y-78033756D01*
X53416686Y-77988515D01*
X53385586Y-77942929D01*
X53354348Y-77896997D01*
X53322971Y-77850719D01*
X53291454Y-77804093D01*
X53259798Y-77757118D01*
X53228003Y-77709792D01*
X53196068Y-77662115D01*
X53163993Y-77614086D01*
X53131778Y-77565704D01*
X53099423Y-77516966D01*
X53066928Y-77467873D01*
X53034293Y-77418423D01*
X53001517Y-77368615D01*
X52968601Y-77318448D01*
X52935544Y-77267922D01*
X52902347Y-77217034D01*
X52869009Y-77165784D01*
X52835531Y-77114172D01*
X52801911Y-77062195D01*
X52768151Y-77009854D01*
X52734250Y-76957147D01*
X52700209Y-76904073D01*
X52666026Y-76850631D01*
X52631703Y-76796821D01*
X52597239Y-76742641D01*
X52562635Y-76688092D01*
X52527889Y-76633171D01*
X52493003Y-76577878D01*
X52457977Y-76522213D01*
X52422810Y-76466174D01*
X52387502Y-76409761D01*
X52352054Y-76352973D01*
X52316466Y-76295809D01*
X52280738Y-76238269D01*
X52244870Y-76180352D01*
X52208862Y-76122057D01*
X52172714Y-76063384D01*
X52136427Y-76004333D01*
X52100001Y-75944901D01*
X52063436Y-75885090D01*
X52026731Y-75824898D01*
X51989888Y-75764326D01*
X51952907Y-75703372D01*
X51915787Y-75642036D01*
X51878530Y-75580317D01*
X51841134Y-75518216D01*
X51803602Y-75455732D01*
X51765933Y-75392865D01*
X51728127Y-75329614D01*
X51690184Y-75265979D01*
X51652106Y-75201960D01*
X51613892Y-75137557D01*
X51575543Y-75072769D01*
X51537059Y-75007596D01*
X51498441Y-74942039D01*
X51459689Y-74876097D01*
X51420803Y-74809770D01*
X51381785Y-74743059D01*
X51342634Y-74675962D01*
X51303351Y-74608481D01*
X51263937Y-74540616D01*
X51224392Y-74472366D01*
X51184717Y-74403731D01*
X51144913Y-74334713D01*
X51104979Y-74265311D01*
X51064917Y-74195526D01*
X51024728Y-74125358D01*
X50984411Y-74054808D01*
X50943968Y-73983875D01*
X50903400Y-73912561D01*
X50862707Y-73840866D01*
X50821889Y-73768790D01*
X50780949Y-73696334D01*
X50739886Y-73623500D01*
X50698702Y-73550287D01*
X50657397Y-73476697D01*
X50615973Y-73402730D01*
X50574429Y-73328387D01*
X50532768Y-73253670D01*
X50490990Y-73178579D01*
X50449096Y-73103115D01*
X50407087Y-73027279D01*
X50364964Y-72951073D01*
X50322729Y-72874498D01*
X50280381Y-72797555D01*
X50237924Y-72720246D01*
X50195357Y-72642571D01*
X50152682Y-72564533D01*
X50109900Y-72486133D01*
X50067013Y-72407373D01*
X50024021Y-72328254D01*
X49980927Y-72248778D01*
X49937730Y-72168947D01*
X49894434Y-72088762D01*
X49851038Y-72008227D01*
X49807545Y-71927342D01*
X49763957Y-71846110D01*
X49720274Y-71764533D01*
X49676497Y-71682613D01*
X49632630Y-71600353D01*
X49588673Y-71517755D01*
X49544628Y-71434821D01*
X49500497Y-71351555D01*
X49456281Y-71267958D01*
X49411982Y-71184034D01*
X49367603Y-71099785D01*
X49323144Y-71015214D01*
X49278607Y-70930325D01*
X49233996Y-70845119D01*
X49189310Y-70759601D01*
X49144553Y-70673774D01*
X49099727Y-70587640D01*
X49054834Y-70501204D01*
X49009875Y-70414469D01*
X48964852Y-70327438D01*
X48919769Y-70240115D01*
X48874627Y-70152504D01*
X48829429Y-70064609D01*
X48784176Y-69976434D01*
X48738871Y-69887983D01*
X48693517Y-69799260D01*
X48648116Y-69710270D01*
X48602670Y-69621016D01*
X48557183Y-69531503D01*
X48511655Y-69441737D01*
X48466091Y-69351721D01*
X48420493Y-69261460D01*
X48374862Y-69170960D01*
X48329203Y-69080224D01*
X48283518Y-68989260D01*
X48237810Y-68898070D01*
X48192081Y-68806662D01*
X48146335Y-68715040D01*
X48100574Y-68623211D01*
X48054801Y-68531178D01*
X48009020Y-68438949D01*
X47963234Y-68346530D01*
X47917445Y-68253926D01*
X47871657Y-68161143D01*
X47825873Y-68068187D01*
X47780096Y-67975066D01*
X47734329Y-67881785D01*
X47688577Y-67788351D01*
X47642842Y-67694771D01*
X47597127Y-67601050D01*
X47551437Y-67507198D01*
X47505774Y-67413219D01*
X47460143Y-67319122D01*
X47414546Y-67224914D01*
X47368988Y-67130602D01*
X47323472Y-67036193D01*
X47278002Y-66941695D01*
X47232581Y-66847116D01*
X47187213Y-66752464D01*
X47141903Y-66657746D01*
X47096654Y-66562970D01*
X47051469Y-66468145D01*
X47006353Y-66373278D01*
X46961311Y-66278379D01*
X46916344Y-66183455D01*
X46871459Y-66088515D01*
X46826659Y-65993568D01*
X46781947Y-65898622D01*
X46737329Y-65803686D01*
X46692807Y-65708769D01*
X46648388Y-65613880D01*
X46604073Y-65519028D01*
X46559869Y-65424223D01*
X46515778Y-65329473D01*
X46471806Y-65234788D01*
X46427956Y-65140177D01*
X46384233Y-65045650D01*
X46340642Y-64951216D01*
X46297185Y-64856886D01*
X46253869Y-64762668D01*
X46210697Y-64668572D01*
X46167673Y-64574608D01*
X46124803Y-64480787D01*
X46103422Y-64433925D01*
X46082089Y-64387118D01*
X46060790Y-64340336D01*
X46039537Y-64293611D01*
X46018321Y-64246915D01*
X45997152Y-64200276D01*
X45976020Y-64153670D01*
X45954936Y-64107123D01*
X45933892Y-64060612D01*
X45912896Y-64014162D01*
X45891941Y-63967752D01*
X45871035Y-63921403D01*
X45850171Y-63875099D01*
X45829357Y-63828857D01*
X45808586Y-63782664D01*
X45787867Y-63736534D01*
X45767192Y-63690456D01*
X45746569Y-63644443D01*
X45725992Y-63598486D01*
X45705468Y-63552595D01*
X45684991Y-63506765D01*
X45664567Y-63461001D01*
X45644193Y-63415301D01*
X45623872Y-63369670D01*
X45603602Y-63324107D01*
X45583386Y-63278613D01*
X45563223Y-63233191D01*
X45543113Y-63187840D01*
X45523059Y-63142564D01*
X45503059Y-63097360D01*
X45483115Y-63052236D01*
X45463226Y-63007185D01*
X45443396Y-62962218D01*
X45423620Y-62917325D01*
X45403904Y-62872519D01*
X45384244Y-62827789D01*
X45364645Y-62783149D01*
X45345102Y-62738587D01*
X45325623Y-62694119D01*
X45306199Y-62649730D01*
X45286840Y-62605439D01*
X45267538Y-62561228D01*
X45248303Y-62517118D01*
X45229124Y-62473090D01*
X45210013Y-62429167D01*
X45190960Y-62385326D01*
X45171976Y-62341595D01*
X45153050Y-62297947D01*
X45134195Y-62254413D01*
X45115398Y-62210962D01*
X45096673Y-62167629D01*
X45078008Y-62124381D01*
X45059416Y-62081254D01*
X45040883Y-62038212D01*
X45022426Y-61995296D01*
X45004027Y-61952467D01*
X44985706Y-61909766D01*
X44967444Y-61867154D01*
X44949261Y-61824674D01*
X44931138Y-61782282D01*
X44913094Y-61740027D01*
X44895111Y-61697861D01*
X44877209Y-61655835D01*
X44859367Y-61613900D01*
X44841608Y-61572108D01*
X44823909Y-61530408D01*
X44806295Y-61488854D01*
X44788741Y-61447393D01*
X44771273Y-61406082D01*
X44753866Y-61364865D01*
X44736546Y-61323801D01*
X44719287Y-61282832D01*
X44702116Y-61242020D01*
X44685007Y-61201303D01*
X44682954Y-61196414D01*
D13*
X59030000Y-33020000D02*
G75*
G02*
X52730000Y-33020000I-3150000J0D01*
G01*
X52730000Y-33020000D02*
G75*
G02*
X59030000Y-33020000I3150000J0D01*
G01*
X119990000Y-33020000D02*
G75*
G02*
X113690000Y-33020000I-3150000J0D01*
G01*
X113690000Y-33020000D02*
G75*
G02*
X119990000Y-33020000I3150000J0D01*
G01*
M02*
